<?xml version="1.0" encoding="utf-8"?>
<!-- Generator: Adobe Illustrator 15.0.2, SVG Export Plug-In . SVG Version: 6.00 Build 0)  -->
<!DOCTYPE svg PUBLIC "-//W3C//DTD SVG 1.1//EN" "http://www.w3.org/Graphics/SVG/1.1/DTD/svg11.dtd">
<svg version="1.1" id="Layer_1" xmlns="http://www.w3.org/2000/svg" xmlns:xlink="http://www.w3.org/1999/xlink" x="0px" y="0px"
	 width="382.68px" height="794.488px" viewBox="0 0 382.68 794.488" enable-background="new 0 0 382.68 794.488"
	 xml:space="preserve">
<rect x="42.667" y="294.018" fill="none" stroke="#A54B9C" stroke-miterlimit="10" width="42.521" height="17.01"/>
<rect x="0.147" y="294.018" fill="none" stroke="#A54B9C" stroke-miterlimit="10" width="42.521" height="17.01"/>
<rect x="127.708" y="294.018" fill="none" stroke="#A54B9C" stroke-miterlimit="10" width="42.521" height="17.01"/>
<rect x="85.188" y="294.018" fill="none" stroke="#A54B9C" stroke-miterlimit="10" width="42.521" height="17.01"/>
<rect x="212.485" y="294.018" fill="none" stroke="#A54B9C" stroke-miterlimit="10" width="42.521" height="17.01"/>
<rect x="169.966" y="294.018" fill="none" stroke="#A54B9C" stroke-miterlimit="10" width="42.521" height="17.01"/>
<rect x="297.526" y="294.018" fill="none" stroke="#A54B9C" stroke-miterlimit="10" width="42.521" height="17.01"/>
<rect x="255.007" y="294.018" fill="none" stroke="#A54B9C" stroke-miterlimit="10" width="42.521" height="17.01"/>
<rect x="340.179" y="294.018" fill="none" stroke="#A54B9C" stroke-miterlimit="10" width="42.52" height="17.01"/>
<rect x="42.667" y="336.538" fill="none" stroke="#A54B9C" stroke-miterlimit="10" width="42.521" height="17.008"/>
<rect x="0.147" y="336.538" fill="none" stroke="#A54B9C" stroke-miterlimit="10" width="42.521" height="17.008"/>
<rect x="127.708" y="336.538" fill="none" stroke="#A54B9C" stroke-miterlimit="10" width="42.521" height="17.008"/>
<rect x="85.188" y="336.538" fill="none" stroke="#A54B9C" stroke-miterlimit="10" width="42.521" height="17.008"/>
<rect x="212.485" y="336.538" fill="none" stroke="#A54B9C" stroke-miterlimit="10" width="42.521" height="17.008"/>
<rect x="169.966" y="336.538" fill="none" stroke="#A54B9C" stroke-miterlimit="10" width="42.521" height="17.008"/>
<rect x="297.526" y="336.538" fill="none" stroke="#A54B9C" stroke-miterlimit="10" width="42.521" height="17.008"/>
<rect x="255.007" y="336.538" fill="none" stroke="#A54B9C" stroke-miterlimit="10" width="42.521" height="17.008"/>
<rect x="340.179" y="336.538" fill="none" stroke="#A54B9C" stroke-miterlimit="10" width="42.52" height="17.008"/>
<rect x="42.667" y="379.057" fill="none" stroke="#A54B9C" stroke-miterlimit="10" width="42.521" height="17.01"/>
<rect x="0.147" y="379.057" fill="none" stroke="#A54B9C" stroke-miterlimit="10" width="42.521" height="17.01"/>
<rect x="127.708" y="379.057" fill="none" stroke="#A54B9C" stroke-miterlimit="10" width="42.521" height="17.01"/>
<rect x="85.188" y="379.057" fill="none" stroke="#A54B9C" stroke-miterlimit="10" width="42.521" height="17.01"/>
<rect x="212.485" y="379.057" fill="none" stroke="#A54B9C" stroke-miterlimit="10" width="42.521" height="17.01"/>
<rect x="169.966" y="379.057" fill="none" stroke="#A54B9C" stroke-miterlimit="10" width="42.521" height="17.01"/>
<rect x="297.526" y="379.057" fill="none" stroke="#A54B9C" stroke-miterlimit="10" width="42.521" height="17.01"/>
<rect x="255.007" y="379.057" fill="none" stroke="#A54B9C" stroke-miterlimit="10" width="42.521" height="17.01"/>
<rect x="340.179" y="379.057" fill="none" stroke="#A54B9C" stroke-miterlimit="10" width="42.52" height="17.01"/>
<rect x="42.667" y="421.578" fill="none" stroke="#A54B9C" stroke-miterlimit="10" width="42.521" height="17.008"/>
<rect x="0.147" y="421.578" fill="none" stroke="#A54B9C" stroke-miterlimit="10" width="42.521" height="17.008"/>
<rect x="127.708" y="421.578" fill="none" stroke="#A54B9C" stroke-miterlimit="10" width="42.521" height="17.008"/>
<rect x="85.188" y="421.578" fill="none" stroke="#A54B9C" stroke-miterlimit="10" width="42.521" height="17.008"/>
<rect x="212.485" y="421.578" fill="none" stroke="#A54B9C" stroke-miterlimit="10" width="42.521" height="17.008"/>
<rect x="169.966" y="421.578" fill="none" stroke="#A54B9C" stroke-miterlimit="10" width="42.521" height="17.008"/>
<rect x="297.526" y="421.578" fill="none" stroke="#A54B9C" stroke-miterlimit="10" width="42.521" height="17.008"/>
<rect x="255.007" y="421.578" fill="none" stroke="#A54B9C" stroke-miterlimit="10" width="42.521" height="17.008"/>
<rect x="340.179" y="421.578" fill="none" stroke="#A54B9C" stroke-miterlimit="10" width="42.52" height="17.008"/>
<rect x="42.667" y="464.096" fill="none" stroke="#A54B9C" stroke-miterlimit="10" width="42.521" height="17.008"/>
<rect x="0.147" y="464.096" fill="none" stroke="#A54B9C" stroke-miterlimit="10" width="42.521" height="17.008"/>
<rect x="127.708" y="464.096" stroke="#A54B9C" stroke-miterlimit="10" width="42.521" height="17.008"/>
<rect x="85.188" y="464.096" stroke="#A54B9C" stroke-miterlimit="10" width="42.521" height="17.008"/>
<rect x="212.485" y="464.096" stroke="#A54B9C" stroke-miterlimit="10" width="42.521" height="17.008"/>
<rect x="169.966" y="464.096" stroke="#A54B9C" stroke-miterlimit="10" width="42.521" height="17.008"/>
<rect x="297.526" y="464.096" fill="none" stroke="#A54B9C" stroke-miterlimit="10" width="42.521" height="17.008"/>
<rect x="255.007" y="464.096" stroke="#A54B9C" stroke-miterlimit="10" width="42.521" height="17.008"/>
<rect x="340.179" y="464.096" fill="none" stroke="#A54B9C" stroke-miterlimit="10" width="42.52" height="17.008"/>
<rect x="42.667" y="506.617" stroke="#A54B9C" stroke-miterlimit="10" width="42.521" height="17.008"/>
<rect x="0.147" y="506.617" fill="none" stroke="#A54B9C" stroke-miterlimit="10" width="42.521" height="17.008"/>
<rect x="127.708" y="506.617" fill="none" stroke="#A54B9C" stroke-miterlimit="10" width="42.521" height="17.008"/>
<rect x="85.188" y="506.617" fill="none" stroke="#A54B9C" stroke-miterlimit="10" width="42.521" height="17.008"/>
<rect x="212.485" y="506.617" fill="none" stroke="#A54B9C" stroke-miterlimit="10" width="42.521" height="17.008"/>
<rect x="169.966" y="506.617" fill="none" stroke="#A54B9C" stroke-miterlimit="10" width="42.521" height="17.008"/>
<rect x="297.526" y="506.617" stroke="#A54B9C" stroke-miterlimit="10" width="42.521" height="17.008"/>
<rect x="255.007" y="506.617" fill="none" stroke="#A54B9C" stroke-miterlimit="10" width="42.521" height="17.008"/>
<rect x="340.179" y="506.617" fill="none" stroke="#A54B9C" stroke-miterlimit="10" width="42.52" height="17.008"/>
<rect x="42.667" y="549.136" stroke="#A54B9C" stroke-miterlimit="10" width="42.521" height="17.008"/>
<rect x="0.147" y="549.136" fill="none" stroke="#A54B9C" stroke-miterlimit="10" width="42.521" height="17.008"/>
<rect x="127.708" y="549.136" fill="none" stroke="#A54B9C" stroke-miterlimit="10" width="42.521" height="17.008"/>
<rect x="85.188" y="549.136" fill="none" stroke="#A54B9C" stroke-miterlimit="10" width="42.521" height="17.008"/>
<rect x="212.485" y="549.136" fill="none" stroke="#A54B9C" stroke-miterlimit="10" width="42.521" height="17.008"/>
<rect x="169.966" y="549.136" fill="none" stroke="#A54B9C" stroke-miterlimit="10" width="42.521" height="17.008"/>
<rect x="297.526" y="549.136" fill="none" stroke="#A54B9C" stroke-miterlimit="10" width="42.521" height="17.008"/>
<rect x="255.007" y="549.136" fill="none" stroke="#A54B9C" stroke-miterlimit="10" width="42.521" height="17.008"/>
<rect x="340.179" y="549.136" fill="none" stroke="#A54B9C" stroke-miterlimit="10" width="42.52" height="17.008"/>
<rect x="42.667" y="591.657" stroke="#A54B9C" stroke-miterlimit="10" width="42.521" height="17.008"/>
<rect x="0.147" y="591.657" fill="none" stroke="#A54B9C" stroke-miterlimit="10" width="42.521" height="17.008"/>
<rect x="127.708" y="591.657" fill="none" stroke="#A54B9C" stroke-miterlimit="10" width="42.521" height="17.008"/>
<rect x="85.188" y="591.657" fill="none" stroke="#A54B9C" stroke-miterlimit="10" width="42.521" height="17.008"/>
<rect x="212.485" y="591.657" fill="none" stroke="#A54B9C" stroke-miterlimit="10" width="42.521" height="17.008"/>
<rect x="169.966" y="591.657" fill="none" stroke="#A54B9C" stroke-miterlimit="10" width="42.521" height="17.008"/>
<rect x="297.526" y="591.657" fill="none" stroke="#A54B9C" stroke-miterlimit="10" width="42.521" height="17.008"/>
<rect x="255.007" y="591.657" fill="none" stroke="#A54B9C" stroke-miterlimit="10" width="42.521" height="17.008"/>
<rect x="340.179" y="591.657" fill="none" stroke="#A54B9C" stroke-miterlimit="10" width="42.52" height="17.008"/>
<rect x="42.667" y="634.176" stroke="#A54B9C" stroke-miterlimit="10" width="42.521" height="17.01"/>
<rect x="0.147" y="634.176" fill="none" stroke="#A54B9C" stroke-miterlimit="10" width="42.521" height="17.01"/>
<rect x="127.708" y="634.176" fill="none" stroke="#A54B9C" stroke-miterlimit="10" width="42.521" height="17.01"/>
<rect x="85.188" y="634.176" fill="none" stroke="#A54B9C" stroke-miterlimit="10" width="42.521" height="17.01"/>
<rect x="212.485" y="634.176" fill="none" stroke="#A54B9C" stroke-miterlimit="10" width="42.521" height="17.01"/>
<rect x="169.966" y="634.176" fill="none" stroke="#A54B9C" stroke-miterlimit="10" width="42.521" height="17.01"/>
<rect x="297.526" y="634.176" stroke="#A54B9C" stroke-miterlimit="10" width="42.521" height="17.01"/>
<rect x="255.007" y="634.176" fill="none" stroke="#A54B9C" stroke-miterlimit="10" width="42.521" height="17.01"/>
<rect x="340.179" y="634.176" fill="none" stroke="#A54B9C" stroke-miterlimit="10" width="42.52" height="17.01"/>
<rect x="42.667" y="676.697" fill="none" stroke="#A54B9C" stroke-miterlimit="10" width="42.521" height="17.008"/>
<rect x="0.147" y="676.697" fill="none" stroke="#A54B9C" stroke-miterlimit="10" width="42.521" height="17.008"/>
<rect x="127.708" y="676.697" stroke="#A54B9C" stroke-miterlimit="10" width="42.521" height="17.008"/>
<rect x="85.188" y="676.697" stroke="#A54B9C" stroke-miterlimit="10" width="42.521" height="17.008"/>
<rect x="212.485" y="676.697" stroke="#A54B9C" stroke-miterlimit="10" width="42.521" height="17.008"/>
<rect x="169.966" y="676.697" stroke="#A54B9C" stroke-miterlimit="10" width="42.521" height="17.008"/>
<rect x="297.526" y="676.697" fill="none" stroke="#A54B9C" stroke-miterlimit="10" width="42.521" height="17.008"/>
<rect x="255.007" y="676.697" stroke="#A54B9C" stroke-miterlimit="10" width="42.521" height="17.008"/>
<rect x="340.179" y="676.697" fill="none" stroke="#A54B9C" stroke-miterlimit="10" width="42.52" height="17.008"/>
<rect x="42.667" y="719.216" fill="none" stroke="#A54B9C" stroke-miterlimit="10" width="42.521" height="17.01"/>
<rect x="0.147" y="719.216" fill="none" stroke="#A54B9C" stroke-miterlimit="10" width="42.521" height="17.01"/>
<rect x="127.708" y="719.216" fill="none" stroke="#A54B9C" stroke-miterlimit="10" width="42.521" height="17.01"/>
<rect x="85.188" y="719.216" fill="none" stroke="#A54B9C" stroke-miterlimit="10" width="42.521" height="17.01"/>
<rect x="212.485" y="719.216" fill="none" stroke="#A54B9C" stroke-miterlimit="10" width="42.521" height="17.01"/>
<rect x="169.966" y="719.216" fill="none" stroke="#A54B9C" stroke-miterlimit="10" width="42.521" height="17.01"/>
<rect x="297.526" y="719.216" fill="none" stroke="#A54B9C" stroke-miterlimit="10" width="42.521" height="17.01"/>
<rect x="255.007" y="719.216" stroke="#A54B9C" stroke-miterlimit="10" width="42.521" height="17.01"/>
<rect x="340.179" y="719.216" fill="none" stroke="#A54B9C" stroke-miterlimit="10" width="42.52" height="17.01"/>
<rect x="42.667" y="761.736" fill="none" stroke="#A54B9C" stroke-miterlimit="10" width="42.521" height="17.008"/>
<rect x="0.147" y="761.736" fill="none" stroke="#A54B9C" stroke-miterlimit="10" width="42.521" height="17.008"/>
<rect x="127.708" y="761.736" stroke="#A54B9C" stroke-miterlimit="10" width="42.521" height="17.008"/>
<rect x="85.188" y="761.736" stroke="#A54B9C" stroke-miterlimit="10" width="42.521" height="17.008"/>
<rect x="212.485" y="761.736" stroke="#A54B9C" stroke-miterlimit="10" width="42.521" height="17.008"/>
<rect x="169.966" y="761.736" stroke="#A54B9C" stroke-miterlimit="10" width="42.521" height="17.008"/>
<rect x="297.526" y="761.736" fill="none" stroke="#A54B9C" stroke-miterlimit="10" width="42.521" height="17.008"/>
<rect x="255.007" y="761.736" fill="none" stroke="#A54B9C" stroke-miterlimit="10" width="42.521" height="17.008"/>
<rect x="340.179" y="761.736" fill="none" stroke="#A54B9C" stroke-miterlimit="10" width="42.52" height="17.008"/>
</svg>
