<?xml version="1.0" encoding="utf-8"?>
<!-- Generator: Adobe Illustrator 15.0.2, SVG Export Plug-In . SVG Version: 6.00 Build 0)  -->
<!DOCTYPE svg PUBLIC "-//W3C//DTD SVG 1.1//EN" "http://www.w3.org/Graphics/SVG/1.1/DTD/svg11.dtd">
<svg version="1.1" id="Layer_1" xmlns="http://www.w3.org/2000/svg" xmlns:xlink="http://www.w3.org/1999/xlink" x="0px" y="0px"
	 width="382.68px" height="794.488px" viewBox="0 0 382.68 794.488" enable-background="new 0 0 382.68 794.488"
	 xml:space="preserve">
<rect x="42.471" y="292.018" fill="none" stroke="#A54B9C" stroke-miterlimit="10" width="42.521" height="17.01"/>
<rect x="-0.05" y="292.018" fill="none" stroke="#A54B9C" stroke-miterlimit="10" width="42.521" height="17.01"/>
<rect x="127.512" y="292.018" fill="none" stroke="#A54B9C" stroke-miterlimit="10" width="42.521" height="17.01"/>
<rect x="84.991" y="292.018" fill="none" stroke="#A54B9C" stroke-miterlimit="10" width="42.521" height="17.01"/>
<rect x="212.288" y="292.018" fill="none" stroke="#A54B9C" stroke-miterlimit="10" width="42.521" height="17.01"/>
<rect x="169.77" y="292.018" fill="none" stroke="#A54B9C" stroke-miterlimit="10" width="42.521" height="17.01"/>
<rect x="297.329" y="292.018" fill="none" stroke="#A54B9C" stroke-miterlimit="10" width="42.521" height="17.01"/>
<rect x="254.811" y="292.018" fill="none" stroke="#A54B9C" stroke-miterlimit="10" width="42.521" height="17.01"/>
<rect x="339.983" y="292.018" fill="none" stroke="#A54B9C" stroke-miterlimit="10" width="42.52" height="17.01"/>
<rect x="42.471" y="334.538" fill="none" stroke="#A54B9C" stroke-miterlimit="10" width="42.521" height="17.008"/>
<rect x="-0.05" y="334.538" fill="none" stroke="#A54B9C" stroke-miterlimit="10" width="42.521" height="17.008"/>
<rect x="127.512" y="334.538" fill="none" stroke="#A54B9C" stroke-miterlimit="10" width="42.521" height="17.008"/>
<rect x="84.991" y="334.538" fill="none" stroke="#A54B9C" stroke-miterlimit="10" width="42.521" height="17.008"/>
<rect x="212.288" y="334.538" fill="none" stroke="#A54B9C" stroke-miterlimit="10" width="42.521" height="17.008"/>
<rect x="169.77" y="334.538" fill="none" stroke="#A54B9C" stroke-miterlimit="10" width="42.521" height="17.008"/>
<rect x="297.329" y="334.538" fill="none" stroke="#A54B9C" stroke-miterlimit="10" width="42.521" height="17.008"/>
<rect x="254.811" y="334.538" fill="none" stroke="#A54B9C" stroke-miterlimit="10" width="42.521" height="17.008"/>
<rect x="339.983" y="334.538" fill="none" stroke="#A54B9C" stroke-miterlimit="10" width="42.52" height="17.008"/>
<rect x="42.471" y="377.057" fill="none" stroke="#A54B9C" stroke-miterlimit="10" width="42.521" height="17.01"/>
<rect x="-0.05" y="377.057" fill="none" stroke="#A54B9C" stroke-miterlimit="10" width="42.521" height="17.01"/>
<rect x="127.512" y="377.057" fill="none" stroke="#A54B9C" stroke-miterlimit="10" width="42.521" height="17.01"/>
<rect x="84.991" y="377.057" fill="none" stroke="#A54B9C" stroke-miterlimit="10" width="42.521" height="17.01"/>
<rect x="212.288" y="377.057" fill="none" stroke="#A54B9C" stroke-miterlimit="10" width="42.521" height="17.01"/>
<rect x="169.77" y="377.057" stroke="#A54B9C" stroke-miterlimit="10" width="42.521" height="17.01"/>
<rect x="297.329" y="377.057" fill="none" stroke="#A54B9C" stroke-miterlimit="10" width="42.521" height="17.01"/>
<rect x="254.811" y="377.057" fill="none" stroke="#A54B9C" stroke-miterlimit="10" width="42.521" height="17.01"/>
<rect x="339.983" y="377.057" fill="none" stroke="#A54B9C" stroke-miterlimit="10" width="42.52" height="17.01"/>
<rect x="42.471" y="419.578" fill="none" stroke="#A54B9C" stroke-miterlimit="10" width="42.521" height="17.008"/>
<rect x="-0.05" y="419.578" fill="none" stroke="#A54B9C" stroke-miterlimit="10" width="42.521" height="17.008"/>
<rect x="127.512" y="419.578" fill="none" stroke="#A54B9C" stroke-miterlimit="10" width="42.521" height="17.008"/>
<rect x="84.991" y="419.578" fill="none" stroke="#A54B9C" stroke-miterlimit="10" width="42.521" height="17.008"/>
<rect x="212.288" y="419.578" fill="none" stroke="#A54B9C" stroke-miterlimit="10" width="42.521" height="17.008"/>
<rect x="169.77" y="419.578" fill="none" stroke="#A54B9C" stroke-miterlimit="10" width="42.521" height="17.008"/>
<rect x="297.329" y="419.578" fill="none" stroke="#A54B9C" stroke-miterlimit="10" width="42.521" height="17.008"/>
<rect x="254.811" y="419.578" fill="none" stroke="#A54B9C" stroke-miterlimit="10" width="42.521" height="17.008"/>
<rect x="339.983" y="419.578" fill="none" stroke="#A54B9C" stroke-miterlimit="10" width="42.52" height="17.008"/>
<rect x="42.471" y="462.096" fill="none" stroke="#A54B9C" stroke-miterlimit="10" width="42.521" height="17.008"/>
<rect x="-0.05" y="462.096" fill="none" stroke="#A54B9C" stroke-miterlimit="10" width="42.521" height="17.008"/>
<rect x="127.512" y="462.096" stroke="#A54B9C" stroke-miterlimit="10" width="42.521" height="17.008"/>
<rect x="84.991" y="462.096" fill="none" stroke="#A54B9C" stroke-miterlimit="10" width="42.521" height="17.008"/>
<rect x="212.288" y="462.096" fill="none" stroke="#A54B9C" stroke-miterlimit="10" width="42.521" height="17.008"/>
<rect x="169.77" y="462.096" stroke="#A54B9C" stroke-miterlimit="10" width="42.521" height="17.008"/>
<rect x="297.329" y="462.096" fill="none" stroke="#A54B9C" stroke-miterlimit="10" width="42.521" height="17.008"/>
<rect x="254.811" y="462.096" fill="none" stroke="#A54B9C" stroke-miterlimit="10" width="42.521" height="17.008"/>
<rect x="339.983" y="462.096" fill="none" stroke="#A54B9C" stroke-miterlimit="10" width="42.52" height="17.008"/>
<rect x="42.471" y="504.617" fill="none" stroke="#A54B9C" stroke-miterlimit="10" width="42.521" height="17.008"/>
<rect x="-0.05" y="504.617" fill="none" stroke="#A54B9C" stroke-miterlimit="10" width="42.521" height="17.008"/>
<rect x="127.512" y="504.617" fill="none" stroke="#A54B9C" stroke-miterlimit="10" width="42.521" height="17.008"/>
<rect x="84.991" y="504.617" fill="none" stroke="#A54B9C" stroke-miterlimit="10" width="42.521" height="17.008"/>
<rect x="212.288" y="504.617" fill="none" stroke="#A54B9C" stroke-miterlimit="10" width="42.521" height="17.008"/>
<rect x="169.77" y="504.617" stroke="#A54B9C" stroke-miterlimit="10" width="42.521" height="17.008"/>
<rect x="297.329" y="504.617" fill="none" stroke="#A54B9C" stroke-miterlimit="10" width="42.521" height="17.008"/>
<rect x="254.811" y="504.617" fill="none" stroke="#A54B9C" stroke-miterlimit="10" width="42.521" height="17.008"/>
<rect x="339.983" y="504.617" fill="none" stroke="#A54B9C" stroke-miterlimit="10" width="42.52" height="17.008"/>
<rect x="42.471" y="547.136" fill="none" stroke="#A54B9C" stroke-miterlimit="10" width="42.521" height="17.008"/>
<rect x="-0.05" y="547.136" fill="none" stroke="#A54B9C" stroke-miterlimit="10" width="42.521" height="17.008"/>
<rect x="127.512" y="547.136" fill="none" stroke="#A54B9C" stroke-miterlimit="10" width="42.521" height="17.008"/>
<rect x="84.991" y="547.136" fill="none" stroke="#A54B9C" stroke-miterlimit="10" width="42.521" height="17.008"/>
<rect x="212.288" y="547.136" fill="none" stroke="#A54B9C" stroke-miterlimit="10" width="42.521" height="17.008"/>
<rect x="169.77" y="547.136" stroke="#A54B9C" stroke-miterlimit="10" width="42.521" height="17.008"/>
<rect x="297.329" y="547.136" fill="none" stroke="#A54B9C" stroke-miterlimit="10" width="42.521" height="17.008"/>
<rect x="254.811" y="547.136" fill="none" stroke="#A54B9C" stroke-miterlimit="10" width="42.521" height="17.008"/>
<rect x="339.983" y="547.136" fill="none" stroke="#A54B9C" stroke-miterlimit="10" width="42.52" height="17.008"/>
<rect x="42.471" y="589.657" fill="none" stroke="#A54B9C" stroke-miterlimit="10" width="42.521" height="17.008"/>
<rect x="-0.05" y="589.657" fill="none" stroke="#A54B9C" stroke-miterlimit="10" width="42.521" height="17.008"/>
<rect x="127.512" y="589.657" fill="none" stroke="#A54B9C" stroke-miterlimit="10" width="42.521" height="17.008"/>
<rect x="84.991" y="589.657" fill="none" stroke="#A54B9C" stroke-miterlimit="10" width="42.521" height="17.008"/>
<rect x="212.288" y="589.657" fill="none" stroke="#A54B9C" stroke-miterlimit="10" width="42.521" height="17.008"/>
<rect x="169.77" y="589.657" stroke="#A54B9C" stroke-miterlimit="10" width="42.521" height="17.008"/>
<rect x="297.329" y="589.657" fill="none" stroke="#A54B9C" stroke-miterlimit="10" width="42.521" height="17.008"/>
<rect x="254.811" y="589.657" fill="none" stroke="#A54B9C" stroke-miterlimit="10" width="42.521" height="17.008"/>
<rect x="339.983" y="589.657" fill="none" stroke="#A54B9C" stroke-miterlimit="10" width="42.52" height="17.008"/>
<rect x="42.471" y="632.176" fill="none" stroke="#A54B9C" stroke-miterlimit="10" width="42.521" height="17.01"/>
<rect x="-0.05" y="632.176" fill="none" stroke="#A54B9C" stroke-miterlimit="10" width="42.521" height="17.01"/>
<rect x="127.512" y="632.176" fill="none" stroke="#A54B9C" stroke-miterlimit="10" width="42.521" height="17.01"/>
<rect x="84.991" y="632.176" fill="none" stroke="#A54B9C" stroke-miterlimit="10" width="42.521" height="17.01"/>
<rect x="212.288" y="632.176" fill="none" stroke="#A54B9C" stroke-miterlimit="10" width="42.521" height="17.01"/>
<rect x="169.77" y="632.176" stroke="#A54B9C" stroke-miterlimit="10" width="42.521" height="17.01"/>
<rect x="297.329" y="632.176" fill="none" stroke="#A54B9C" stroke-miterlimit="10" width="42.521" height="17.01"/>
<rect x="254.811" y="632.176" fill="none" stroke="#A54B9C" stroke-miterlimit="10" width="42.521" height="17.01"/>
<rect x="339.983" y="632.176" fill="none" stroke="#A54B9C" stroke-miterlimit="10" width="42.52" height="17.01"/>
<rect x="42.471" y="674.697" fill="none" stroke="#A54B9C" stroke-miterlimit="10" width="42.521" height="17.008"/>
<rect x="-0.05" y="674.697" fill="none" stroke="#A54B9C" stroke-miterlimit="10" width="42.521" height="17.008"/>
<rect x="127.512" y="674.697" fill="none" stroke="#A54B9C" stroke-miterlimit="10" width="42.521" height="17.008"/>
<rect x="84.991" y="674.697" fill="none" stroke="#A54B9C" stroke-miterlimit="10" width="42.521" height="17.008"/>
<rect x="212.288" y="674.697" fill="none" stroke="#A54B9C" stroke-miterlimit="10" width="42.521" height="17.008"/>
<rect x="169.77" y="674.697" stroke="#A54B9C" stroke-miterlimit="10" width="42.521" height="17.008"/>
<rect x="297.329" y="674.697" fill="none" stroke="#A54B9C" stroke-miterlimit="10" width="42.521" height="17.008"/>
<rect x="254.811" y="674.697" fill="none" stroke="#A54B9C" stroke-miterlimit="10" width="42.521" height="17.008"/>
<rect x="339.983" y="674.697" fill="none" stroke="#A54B9C" stroke-miterlimit="10" width="42.52" height="17.008"/>
<rect x="42.471" y="717.216" stroke="#A54B9C" stroke-miterlimit="10" width="42.521" height="17.01"/>
<rect x="-0.05" y="717.216" fill="none" stroke="#A54B9C" stroke-miterlimit="10" width="42.521" height="17.01"/>
<rect x="127.512" y="717.216" fill="none" stroke="#A54B9C" stroke-miterlimit="10" width="42.521" height="17.01"/>
<rect x="84.991" y="717.216" fill="none" stroke="#A54B9C" stroke-miterlimit="10" width="42.521" height="17.01"/>
<rect x="212.288" y="717.216" fill="none" stroke="#A54B9C" stroke-miterlimit="10" width="42.521" height="17.01"/>
<rect x="169.77" y="717.216" stroke="#A54B9C" stroke-miterlimit="10" width="42.521" height="17.01"/>
<rect x="297.329" y="717.216" fill="none" stroke="#A54B9C" stroke-miterlimit="10" width="42.521" height="17.01"/>
<rect x="254.811" y="717.216" fill="none" stroke="#A54B9C" stroke-miterlimit="10" width="42.521" height="17.01"/>
<rect x="339.983" y="717.216" fill="none" stroke="#A54B9C" stroke-miterlimit="10" width="42.52" height="17.01"/>
<rect x="42.471" y="759.736" fill="none" stroke="#A54B9C" stroke-miterlimit="10" width="42.521" height="17.008"/>
<rect x="-0.05" y="759.736" fill="none" stroke="#A54B9C" stroke-miterlimit="10" width="42.521" height="17.008"/>
<rect x="127.512" y="759.736" stroke="#A54B9C" stroke-miterlimit="10" width="42.521" height="17.008"/>
<rect x="84.991" y="759.736" stroke="#A54B9C" stroke-miterlimit="10" width="42.521" height="17.008"/>
<rect x="212.288" y="759.736" fill="none" stroke="#A54B9C" stroke-miterlimit="10" width="42.521" height="17.008"/>
<rect x="169.77" y="759.736" fill="none" stroke="#A54B9C" stroke-miterlimit="10" width="42.521" height="17.008"/>
<rect x="297.329" y="759.736" fill="none" stroke="#A54B9C" stroke-miterlimit="10" width="42.521" height="17.008"/>
<rect x="254.811" y="759.736" fill="none" stroke="#A54B9C" stroke-miterlimit="10" width="42.521" height="17.008"/>
<rect x="339.983" y="759.736" fill="none" stroke="#A54B9C" stroke-miterlimit="10" width="42.52" height="17.008"/>
</svg>
