<?xml version="1.0" encoding="utf-8"?>
<!-- Generator: Adobe Illustrator 15.0.2, SVG Export Plug-In . SVG Version: 6.00 Build 0)  -->
<!DOCTYPE svg PUBLIC "-//W3C//DTD SVG 1.1//EN" "http://www.w3.org/Graphics/SVG/1.1/DTD/svg11.dtd">
<svg version="1.1" id="Layer_1" xmlns="http://www.w3.org/2000/svg" xmlns:xlink="http://www.w3.org/1999/xlink" x="0px" y="0px"
	 width="382.68px" height="794.488px" viewBox="0 0 382.68 794.488" enable-background="new 0 0 382.68 794.488"
	 xml:space="preserve">
<rect x="42.584" y="291.018" fill="none" stroke="#A54B9C" stroke-miterlimit="10" width="42.521" height="17.01"/>
<rect x="0.064" y="291.018" fill="none" stroke="#A54B9C" stroke-miterlimit="10" width="42.521" height="17.01"/>
<rect x="127.625" y="291.018" fill="none" stroke="#A54B9C" stroke-miterlimit="10" width="42.52" height="17.01"/>
<rect x="85.105" y="291.018" fill="none" stroke="#A54B9C" stroke-miterlimit="10" width="42.521" height="17.01"/>
<rect x="212.403" y="291.018" fill="none" stroke="#A54B9C" stroke-miterlimit="10" width="42.521" height="17.01"/>
<rect x="169.883" y="291.018" fill="none" stroke="#A54B9C" stroke-miterlimit="10" width="42.52" height="17.01"/>
<rect x="297.444" y="291.018" fill="none" stroke="#A54B9C" stroke-miterlimit="10" width="42.521" height="17.01"/>
<rect x="254.922" y="291.018" fill="none" stroke="#A54B9C" stroke-miterlimit="10" width="42.521" height="17.01"/>
<rect x="340.094" y="291.018" fill="none" stroke="#A54B9C" stroke-miterlimit="10" width="42.521" height="17.01"/>
<rect x="42.584" y="333.538" fill="none" stroke="#A54B9C" stroke-miterlimit="10" width="42.521" height="17.008"/>
<rect x="0.064" y="333.538" fill="none" stroke="#A54B9C" stroke-miterlimit="10" width="42.521" height="17.008"/>
<rect x="127.625" y="333.538" fill="none" stroke="#A54B9C" stroke-miterlimit="10" width="42.52" height="17.008"/>
<rect x="85.105" y="333.538" fill="none" stroke="#A54B9C" stroke-miterlimit="10" width="42.521" height="17.008"/>
<rect x="212.403" y="333.538" fill="none" stroke="#A54B9C" stroke-miterlimit="10" width="42.521" height="17.008"/>
<rect x="169.883" y="333.538" fill="none" stroke="#A54B9C" stroke-miterlimit="10" width="42.52" height="17.008"/>
<rect x="297.444" y="333.538" fill="none" stroke="#A54B9C" stroke-miterlimit="10" width="42.521" height="17.008"/>
<rect x="254.922" y="333.538" fill="none" stroke="#A54B9C" stroke-miterlimit="10" width="42.521" height="17.008"/>
<rect x="340.094" y="333.538" fill="none" stroke="#A54B9C" stroke-miterlimit="10" width="42.521" height="17.008"/>
<rect x="42.584" y="376.057" fill="none" stroke="#A54B9C" stroke-miterlimit="10" width="42.521" height="17.01"/>
<rect x="0.064" y="376.057" fill="none" stroke="#A54B9C" stroke-miterlimit="10" width="42.521" height="17.01"/>
<rect x="127.625" y="376.057" fill="none" stroke="#A54B9C" stroke-miterlimit="10" width="42.52" height="17.01"/>
<rect x="85.105" y="376.057" fill="none" stroke="#A54B9C" stroke-miterlimit="10" width="42.521" height="17.01"/>
<rect x="212.403" y="376.057" fill="none" stroke="#A54B9C" stroke-miterlimit="10" width="42.521" height="17.01"/>
<rect x="169.883" y="376.057" fill="none" stroke="#A54B9C" stroke-miterlimit="10" width="42.52" height="17.01"/>
<rect x="297.444" y="376.057" fill="none" stroke="#A54B9C" stroke-miterlimit="10" width="42.521" height="17.01"/>
<rect x="254.922" y="376.057" fill="none" stroke="#A54B9C" stroke-miterlimit="10" width="42.521" height="17.01"/>
<rect x="340.094" y="376.057" fill="none" stroke="#A54B9C" stroke-miterlimit="10" width="42.521" height="17.01"/>
<rect x="42.584" y="418.578" fill="none" stroke="#A54B9C" stroke-miterlimit="10" width="42.521" height="17.008"/>
<rect x="0.064" y="418.578" fill="none" stroke="#A54B9C" stroke-miterlimit="10" width="42.521" height="17.008"/>
<rect x="127.625" y="418.578" fill="none" stroke="#A54B9C" stroke-miterlimit="10" width="42.52" height="17.008"/>
<rect x="85.105" y="418.578" fill="none" stroke="#A54B9C" stroke-miterlimit="10" width="42.521" height="17.008"/>
<rect x="212.403" y="418.578" fill="none" stroke="#A54B9C" stroke-miterlimit="10" width="42.521" height="17.008"/>
<rect x="169.883" y="418.578" fill="none" stroke="#A54B9C" stroke-miterlimit="10" width="42.52" height="17.008"/>
<rect x="297.444" y="418.578" fill="none" stroke="#A54B9C" stroke-miterlimit="10" width="42.521" height="17.008"/>
<rect x="254.922" y="418.578" fill="none" stroke="#A54B9C" stroke-miterlimit="10" width="42.521" height="17.008"/>
<rect x="340.094" y="418.578" fill="none" stroke="#A54B9C" stroke-miterlimit="10" width="42.521" height="17.008"/>
<rect x="42.584" y="461.096" fill="none" stroke="#A54B9C" stroke-miterlimit="10" width="42.521" height="17.008"/>
<rect x="0.064" y="461.096" fill="none" stroke="#A54B9C" stroke-miterlimit="10" width="42.521" height="17.008"/>
<rect x="127.625" y="461.096" stroke="#A54B9C" stroke-miterlimit="10" width="42.52" height="17.008"/>
<rect x="85.105" y="461.096" stroke="#A54B9C" stroke-miterlimit="10" width="42.521" height="17.008"/>
<rect x="212.403" y="461.096" stroke="#A54B9C" stroke-miterlimit="10" width="42.521" height="17.008"/>
<rect x="169.883" y="461.096" stroke="#A54B9C" stroke-miterlimit="10" width="42.52" height="17.008"/>
<rect x="297.444" y="461.096" stroke="#A54B9C" stroke-miterlimit="10" width="42.521" height="17.008"/>
<rect x="254.922" y="461.096" stroke="#A54B9C" stroke-miterlimit="10" width="42.521" height="17.008"/>
<rect x="340.094" y="461.096" fill="none" stroke="#A54B9C" stroke-miterlimit="10" width="42.521" height="17.008"/>
<rect x="42.584" y="503.617" stroke="#A54B9C" stroke-miterlimit="10" width="42.521" height="17.008"/>
<rect x="0.064" y="503.617" fill="none" stroke="#A54B9C" stroke-miterlimit="10" width="42.521" height="17.008"/>
<rect x="127.625" y="503.617" fill="none" stroke="#A54B9C" stroke-miterlimit="10" width="42.52" height="17.008"/>
<rect x="85.105" y="503.617" fill="none" stroke="#A54B9C" stroke-miterlimit="10" width="42.521" height="17.008"/>
<rect x="212.403" y="503.617" fill="none" stroke="#A54B9C" stroke-miterlimit="10" width="42.521" height="17.008"/>
<rect x="169.883" y="503.617" fill="none" stroke="#A54B9C" stroke-miterlimit="10" width="42.52" height="17.008"/>
<rect x="297.444" y="503.617" stroke="#A54B9C" stroke-miterlimit="10" width="42.521" height="17.008"/>
<rect x="254.922" y="503.617" fill="none" stroke="#A54B9C" stroke-miterlimit="10" width="42.521" height="17.008"/>
<rect x="340.094" y="503.617" fill="none" stroke="#A54B9C" stroke-miterlimit="10" width="42.521" height="17.008"/>
<rect x="42.584" y="546.136" stroke="#A54B9C" stroke-miterlimit="10" width="42.521" height="17.008"/>
<rect x="0.064" y="546.136" fill="none" stroke="#A54B9C" stroke-miterlimit="10" width="42.521" height="17.008"/>
<rect x="127.625" y="546.136" fill="none" stroke="#A54B9C" stroke-miterlimit="10" width="42.52" height="17.008"/>
<rect x="85.105" y="546.136" fill="none" stroke="#A54B9C" stroke-miterlimit="10" width="42.521" height="17.008"/>
<rect x="212.403" y="546.136" fill="none" stroke="#A54B9C" stroke-miterlimit="10" width="42.521" height="17.008"/>
<rect x="169.883" y="546.136" fill="none" stroke="#A54B9C" stroke-miterlimit="10" width="42.52" height="17.008"/>
<rect x="297.444" y="546.136" stroke="#A54B9C" stroke-miterlimit="10" width="42.521" height="17.008"/>
<rect x="254.922" y="546.136" fill="none" stroke="#A54B9C" stroke-miterlimit="10" width="42.521" height="17.008"/>
<rect x="340.094" y="546.136" fill="none" stroke="#A54B9C" stroke-miterlimit="10" width="42.521" height="17.008"/>
<rect x="42.584" y="588.657" stroke="#A54B9C" stroke-miterlimit="10" width="42.521" height="17.008"/>
<rect x="0.064" y="588.657" fill="none" stroke="#A54B9C" stroke-miterlimit="10" width="42.521" height="17.008"/>
<rect x="127.625" y="588.657" fill="none" stroke="#A54B9C" stroke-miterlimit="10" width="42.52" height="17.008"/>
<rect x="85.105" y="588.657" fill="none" stroke="#A54B9C" stroke-miterlimit="10" width="42.521" height="17.008"/>
<rect x="212.403" y="588.657" fill="none" stroke="#A54B9C" stroke-miterlimit="10" width="42.521" height="17.008"/>
<rect x="169.883" y="588.657" fill="none" stroke="#A54B9C" stroke-miterlimit="10" width="42.52" height="17.008"/>
<rect x="297.444" y="588.657" stroke="#A54B9C" stroke-miterlimit="10" width="42.521" height="17.008"/>
<rect x="254.922" y="588.657" fill="none" stroke="#A54B9C" stroke-miterlimit="10" width="42.521" height="17.008"/>
<rect x="340.094" y="588.657" fill="none" stroke="#A54B9C" stroke-miterlimit="10" width="42.521" height="17.008"/>
<rect x="42.584" y="631.176" stroke="#A54B9C" stroke-miterlimit="10" width="42.521" height="17.01"/>
<rect x="0.064" y="631.176" fill="none" stroke="#A54B9C" stroke-miterlimit="10" width="42.521" height="17.01"/>
<rect x="127.625" y="631.176" fill="none" stroke="#A54B9C" stroke-miterlimit="10" width="42.52" height="17.01"/>
<rect x="85.105" y="631.176" fill="none" stroke="#A54B9C" stroke-miterlimit="10" width="42.521" height="17.01"/>
<rect x="212.403" y="631.176" fill="none" stroke="#A54B9C" stroke-miterlimit="10" width="42.521" height="17.01"/>
<rect x="169.883" y="631.176" fill="none" stroke="#A54B9C" stroke-miterlimit="10" width="42.52" height="17.01"/>
<rect x="297.444" y="631.176" stroke="#A54B9C" stroke-miterlimit="10" width="42.521" height="17.01"/>
<rect x="254.922" y="631.176" fill="none" stroke="#A54B9C" stroke-miterlimit="10" width="42.521" height="17.01"/>
<rect x="340.094" y="631.176" fill="none" stroke="#A54B9C" stroke-miterlimit="10" width="42.521" height="17.01"/>
<rect x="42.584" y="673.697" fill="none" stroke="#A54B9C" stroke-miterlimit="10" width="42.521" height="17.008"/>
<rect x="0.064" y="673.697" fill="none" stroke="#A54B9C" stroke-miterlimit="10" width="42.521" height="17.008"/>
<rect x="127.625" y="673.697" stroke="#A54B9C" stroke-miterlimit="10" width="42.52" height="17.008"/>
<rect x="85.105" y="673.697" stroke="#A54B9C" stroke-miterlimit="10" width="42.521" height="17.008"/>
<rect x="212.403" y="673.697" stroke="#A54B9C" stroke-miterlimit="10" width="42.521" height="17.008"/>
<rect x="169.883" y="673.697" stroke="#A54B9C" stroke-miterlimit="10" width="42.52" height="17.008"/>
<rect x="297.444" y="673.697" stroke="#A54B9C" stroke-miterlimit="10" width="42.521" height="17.008"/>
<rect x="254.922" y="673.697" stroke="#A54B9C" stroke-miterlimit="10" width="42.521" height="17.008"/>
<rect x="340.094" y="673.697" fill="none" stroke="#A54B9C" stroke-miterlimit="10" width="42.521" height="17.008"/>
<rect x="42.584" y="716.216" fill="none" stroke="#A54B9C" stroke-miterlimit="10" width="42.521" height="17.01"/>
<rect x="0.064" y="716.216" fill="none" stroke="#A54B9C" stroke-miterlimit="10" width="42.521" height="17.01"/>
<rect x="127.625" y="716.216" fill="none" stroke="#A54B9C" stroke-miterlimit="10" width="42.52" height="17.01"/>
<rect x="85.105" y="716.216" fill="none" stroke="#A54B9C" stroke-miterlimit="10" width="42.521" height="17.01"/>
<rect x="212.403" y="716.216" fill="none" stroke="#A54B9C" stroke-miterlimit="10" width="42.521" height="17.01"/>
<rect x="169.883" y="716.216" fill="none" stroke="#A54B9C" stroke-miterlimit="10" width="42.52" height="17.01"/>
<rect x="297.444" y="716.216" stroke="#A54B9C" stroke-miterlimit="10" width="42.521" height="17.01"/>
<rect x="254.922" y="716.216" fill="none" stroke="#A54B9C" stroke-miterlimit="10" width="42.521" height="17.01"/>
<rect x="340.094" y="716.216" fill="none" stroke="#A54B9C" stroke-miterlimit="10" width="42.521" height="17.01"/>
<rect x="42.584" y="758.736" fill="none" stroke="#A54B9C" stroke-miterlimit="10" width="42.521" height="17.008"/>
<rect x="0.064" y="758.736" fill="none" stroke="#A54B9C" stroke-miterlimit="10" width="42.521" height="17.008"/>
<rect x="127.625" y="758.736" fill="none" stroke="#A54B9C" stroke-miterlimit="10" width="42.52" height="17.008"/>
<rect x="85.105" y="758.736" fill="none" stroke="#A54B9C" stroke-miterlimit="10" width="42.521" height="17.008"/>
<rect x="212.403" y="758.736" fill="none" stroke="#A54B9C" stroke-miterlimit="10" width="42.521" height="17.008"/>
<rect x="169.883" y="758.736" fill="none" stroke="#A54B9C" stroke-miterlimit="10" width="42.52" height="17.008"/>
<rect x="297.444" y="758.736" stroke="#A54B9C" stroke-miterlimit="10" width="42.521" height="17.008"/>
<rect x="254.922" y="758.736" fill="none" stroke="#A54B9C" stroke-miterlimit="10" width="42.521" height="17.008"/>
<rect x="340.094" y="758.736" fill="none" stroke="#A54B9C" stroke-miterlimit="10" width="42.521" height="17.008"/>
</svg>
