<?xml version="1.0" standalone="no"?>
<!DOCTYPE svg PUBLIC "-//W3C//DTD SVG 1.1//EN" "http://www.w3.org/Graphics/SVG/1.1/DTD/svg11.dtd" >
<svg xmlns="http://www.w3.org/2000/svg">
<metadata>
This is a custom SVG font generated by IcoMoon.
<iconset grid="16"></iconset>
</metadata>
<defs>
<font id="icomoon" horiz-adv-x="512" >
<font-face units-per-em="512" ascent="480" descent="-32" />
<missing-glyph horiz-adv-x="512" />
<glyph class="hidden" unicode="&#xf000;" d="M0,480L 512 -32L0 -32 z" horiz-adv-x="0" />
<glyph unicode="&#x3a;" d="M 136.609,358.224L 164.011,358.224L 164.011,347.264L 136.609,347.264zM 109.208,358.224L 136.61,358.224L 136.61,347.264L 109.208,347.264zM 136.609,321.497L 164.011,321.497L 164.011,310.537L 136.609,310.537zM 109.208,321.497L 136.61,321.497L 136.61,310.537L 109.208,310.537zM 136.609,174.593L 164.011,174.593L 164.011,163.632L 136.609,163.632zM 109.208,174.593L 136.61,174.593L 136.61,163.632L 109.208,163.632zM 136.609,137.865L 164.011,137.865L 164.011,126.904L 136.609,126.904zM 109.208,137.865L 136.61,137.865L 136.61,126.904L 109.208,126.904z" horiz-adv-x="246.327"  />
<glyph unicode="&#x59;" d="M 27.059,357.883L 54.462,357.883L 54.462,346.922L 27.059,346.922zM 191.301,357.883L 218.703,357.883L 218.703,346.922L 191.301,346.922zM 27.059,321.156L 54.462,321.156L 54.462,310.195L 27.059,310.195zM 191.301,321.156L 218.703,321.156L 218.703,310.195L 191.301,310.195zM 54.462,284.43L 81.865,284.43L 81.865,273.469L 54.462,273.469zM 163.9,284.43L 191.302,284.43L 191.302,273.469L 163.9,273.469zM 81.863,247.703L 109.266,247.703L 109.266,236.743L 81.863,236.743zM 136.497,247.703L 163.899,247.703L 163.899,236.743L 136.497,236.743zM 109.097,210.977L 136.498,210.977L 136.498,200.017L 109.097,200.017zM 109.097,174.25L 136.498,174.25L 136.498,163.289L 109.097,163.289zM 109.097,137.525L 136.498,137.525L 136.498,126.564L 109.097,126.564zM 109.097,100.798L 136.498,100.798L 136.498,89.837L 109.097,89.837zM 81.863,64.070L 109.266,64.070L 109.266,53.11L 81.863,53.11zM 136.497,64.070L 163.899,64.070L 163.899,53.11L 136.497,53.11zM 109.097,64.070L 136.498,64.070L 136.498,53.11L 109.097,53.11z" horiz-adv-x="246.327" />
<glyph unicode="&#x5a;" d="M 27.398,357.882L 54.801,357.882L 54.801,346.921L 27.398,346.921zM 82.202,357.882L 109.604,357.882L 109.604,346.921L 82.202,346.921zM 54.801,357.882L 82.203,357.882L 82.203,346.921L 54.801,346.921zM 136.836,357.882L 164.239,357.882L 164.239,346.921L 136.836,346.921zM 109.435,357.882L 136.836,357.882L 136.836,346.921L 109.435,346.921zM 191.64,357.882L 219.042,357.882L 219.042,346.921L 191.64,346.921zM 164.238,357.882L 191.64,357.882L 191.64,346.921L 164.238,346.921zM 27.398,321.155L 54.801,321.155L 54.801,310.195L 27.398,310.195zM 191.64,321.155L 219.042,321.155L 219.042,310.195L 191.64,310.195zM 164.238,284.43L 191.64,284.43L 191.64,273.469L 164.238,273.469zM 136.836,247.702L 164.239,247.702L 164.239,236.742L 136.836,236.742zM 109.435,210.976L 136.836,210.976L 136.836,200.016L 109.435,200.016zM 82.202,174.25L 109.604,174.25L 109.604,163.289L 82.202,163.289zM 54.801,137.524L 82.203,137.524L 82.203,126.563L 54.801,126.563zM 27.398,100.798L 54.801,100.798L 54.801,89.836L 27.398,89.836zM 191.64,100.798L 219.042,100.798L 219.042,89.836L 191.64,89.836zM 27.398,64.070L 54.801,64.070L 54.801,53.109L 27.398,53.109zM 82.202,64.070L 109.604,64.070L 109.604,53.109L 82.202,53.109zM 54.801,64.070L 82.203,64.070L 82.203,53.109L 54.801,53.109zM 136.836,64.070L 164.239,64.070L 164.239,53.109L 136.836,53.109zM 109.435,64.070L 136.836,64.070L 136.836,53.109L 109.435,53.109zM 191.64,64.070L 219.042,64.070L 219.042,53.109L 191.64,53.109zM 164.238,64.070L 191.64,64.070L 191.64,53.109L 164.238,53.109z" horiz-adv-x="246.327" />
<glyph unicode="&#x58;" d="M 27.059,357.883L 54.462,357.883L 54.462,346.922L 27.059,346.922zM 191.302,357.883L 218.703,357.883L 218.703,346.922L 191.302,346.922zM 27.059,321.156L 54.462,321.156L 54.462,310.195L 27.059,310.195zM 191.302,321.156L 218.703,321.156L 218.703,310.195L 191.302,310.195zM 54.462,284.43L 81.865,284.43L 81.865,273.469L 54.462,273.469zM 163.9,284.43L 191.302,284.43L 191.302,273.469L 163.9,273.469zM 81.863,247.703L 109.266,247.703L 109.266,236.743L 81.863,236.743zM 136.498,247.703L 163.9,247.703L 163.9,236.743L 136.498,236.743zM 109.097,210.977L 136.498,210.977L 136.498,200.017L 109.097,200.017zM 81.863,174.25L 109.266,174.25L 109.266,163.289L 81.863,163.289zM 136.498,174.25L 163.9,174.25L 163.9,163.289L 136.498,163.289zM 54.462,137.525L 81.865,137.525L 81.865,126.564L 54.462,126.564zM 163.9,137.525L 191.302,137.525L 191.302,126.564L 163.9,126.564zM 27.059,100.798L 54.462,100.798L 54.462,89.837L 27.059,89.837zM 191.302,100.798L 218.703,100.798L 218.703,89.837L 191.302,89.837zM 27.059,64.070L 54.462,64.070L 54.462,53.11L 27.059,53.11zM 191.302,64.070L 218.703,64.070L 218.703,53.11L 191.302,53.11z" horiz-adv-x="246.327" />
<glyph unicode="&#x57;" d="M 27.046,357.882L 54.448,357.882L 54.448,346.922L 27.046,346.922zM 191.288,357.882L 218.689,357.882L 218.689,346.922L 191.288,346.922zM 27.046,321.156L 54.448,321.156L 54.448,310.195L 27.046,310.195zM 191.288,321.156L 218.689,321.156L 218.689,310.195L 191.288,310.195zM 27.046,284.429L 54.448,284.429L 54.448,273.469L 27.046,273.469zM 191.288,284.429L 218.689,284.429L 218.689,273.469L 191.288,273.469zM 27.046,247.703L 54.448,247.703L 54.448,236.741L 27.046,236.741zM 191.288,247.703L 218.689,247.703L 218.689,236.741L 191.288,236.741zM 27.046,210.977L 54.448,210.977L 54.448,200.015L 27.046,200.015zM 109.082,210.977L 136.485,210.977L 136.485,200.015L 109.082,200.015zM 191.288,210.977L 218.689,210.977L 218.689,200.015L 191.288,200.015zM 27.046,174.25L 54.448,174.25L 54.448,163.289L 27.046,163.289zM 81.85,174.25L 109.252,174.25L 109.252,163.289L 81.85,163.289zM 136.484,174.25L 163.886,174.25L 163.886,163.289L 136.484,163.289zM 109.082,174.25L 136.485,174.25L 136.485,163.289L 109.082,163.289zM 191.288,174.25L 218.689,174.25L 218.689,163.289L 191.288,163.289zM 27.046,137.524L 54.448,137.524L 54.448,126.563L 27.046,126.563zM 81.85,137.524L 109.252,137.524L 109.252,126.563L 81.85,126.563zM 54.449,137.524L 81.85,137.524L 81.85,126.563L 54.449,126.563zM 136.484,137.524L 163.886,137.524L 163.886,126.563L 136.484,126.563zM 191.288,137.524L 218.689,137.524L 218.689,126.563L 191.288,126.563zM 163.886,137.524L 191.288,137.524L 191.288,126.563L 163.886,126.563zM 27.046,100.796L 54.448,100.796L 54.448,89.836L 27.046,89.836zM 54.449,100.796L 81.85,100.796L 81.85,89.836L 54.449,89.836zM 191.288,100.796L 218.689,100.796L 218.689,89.836L 191.288,89.836zM 163.886,100.796L 191.288,100.796L 191.288,89.836L 163.886,89.836zM 27.046,64.070L 54.448,64.070L 54.448,53.109L 27.046,53.109zM 191.288,64.070L 218.689,64.070L 218.689,53.109L 191.288,53.109z" horiz-adv-x="246.327" />
<glyph unicode="&#x56;" d="M 27.587,357.883L 54.989,357.883L 54.989,346.922L 27.587,346.922zM 191.829,357.883L 219.231,357.883L 219.231,346.922L 191.829,346.922zM 27.587,321.156L 54.989,321.156L 54.989,310.195L 27.587,310.195zM 191.829,321.156L 219.231,321.156L 219.231,310.195L 191.829,310.195zM 27.587,284.43L 54.989,284.43L 54.989,273.469L 27.587,273.469zM 191.829,284.43L 219.231,284.43L 219.231,273.469L 191.829,273.469zM 27.587,247.703L 54.989,247.703L 54.989,236.743L 27.587,236.743zM 191.829,247.703L 219.231,247.703L 219.231,236.743L 191.829,236.743zM 27.587,210.977L 54.989,210.977L 54.989,200.017L 27.587,200.017zM 191.829,210.977L 219.231,210.977L 219.231,200.017L 191.829,200.017zM 27.587,174.25L 54.989,174.25L 54.989,163.289L 27.587,163.289zM 191.829,174.25L 219.231,174.25L 219.231,163.289L 191.829,163.289zM 54.99,137.525L 82.391,137.525L 82.391,126.564L 54.99,126.564zM 164.427,137.525L 191.829,137.525L 191.829,126.564L 164.427,126.564zM 82.391,100.798L 109.793,100.798L 109.793,89.837L 82.391,89.837zM 137.025,100.798L 164.427,100.798L 164.427,89.837L 137.025,89.837zM 109.623,64.070L 137.025,64.070L 137.025,53.11L 109.623,53.11z" horiz-adv-x="246.327" />
<glyph unicode="&#x55;" d="M 27.19,357.883L 54.592,357.883L 54.592,346.922L 27.19,346.922zM 191.431,357.883L 218.834,357.883L 218.834,346.922L 191.431,346.922zM 27.19,321.156L 54.592,321.156L 54.592,310.195L 27.19,310.195zM 191.431,321.156L 218.834,321.156L 218.834,310.195L 191.431,310.195zM 27.19,284.43L 54.592,284.43L 54.592,273.469L 27.19,273.469zM 191.431,284.43L 218.834,284.43L 218.834,273.469L 191.431,273.469zM 27.19,247.703L 54.592,247.703L 54.592,236.743L 27.19,236.743zM 191.431,247.703L 218.834,247.703L 218.834,236.743L 191.431,236.743zM 27.19,210.977L 54.592,210.977L 54.592,200.017L 27.19,200.017zM 191.431,210.977L 218.834,210.977L 218.834,200.017L 191.431,200.017zM 27.19,174.25L 54.592,174.25L 54.592,163.289L 27.19,163.289zM 191.431,174.25L 218.834,174.25L 218.834,163.289L 191.431,163.289zM 27.19,137.525L 54.592,137.525L 54.592,126.564L 27.19,126.564zM 191.431,137.525L 218.834,137.525L 218.834,126.564L 191.431,126.564zM 27.19,100.798L 54.592,100.798L 54.592,89.837L 27.19,89.837zM 191.431,100.798L 218.834,100.798L 218.834,89.837L 191.431,89.837zM 81.994,64.070L 109.396,64.070L 109.396,53.11L 81.994,53.11zM 54.593,64.070L 81.995,64.070L 81.995,53.11L 54.593,53.11zM 136.628,64.070L 164.030,64.070L 164.030,53.11L 136.628,53.11zM 109.227,64.070L 136.629,64.070L 136.629,53.11L 109.227,53.11zM 164.030,64.070L 191.432,64.070L 191.432,53.11L 164.030,53.11z" horiz-adv-x="246.327" />
<glyph unicode="&#x54;" d="M 27.607,357.883L 55.009,357.883L 55.009,346.922L 27.607,346.922zM 82.411,357.883L 109.813,357.883L 109.813,346.922L 82.411,346.922zM 55.009,357.883L 82.411,357.883L 82.411,346.922L 55.009,346.922zM 137.044,357.883L 164.446,357.883L 164.446,346.922L 137.044,346.922zM 109.643,357.883L 137.045,357.883L 137.045,346.922L 109.643,346.922zM 191.848,357.883L 219.25,357.883L 219.25,346.922L 191.848,346.922zM 164.446,357.883L 191.848,357.883L 191.848,346.922L 164.446,346.922zM 27.607,321.156L 55.009,321.156L 55.009,310.195L 27.607,310.195zM 109.643,321.156L 137.045,321.156L 137.045,310.195L 109.643,310.195zM 191.848,321.156L 219.25,321.156L 219.25,310.195L 191.848,310.195zM 109.643,284.43L 137.045,284.43L 137.045,273.469L 109.643,273.469zM 109.643,247.703L 137.045,247.703L 137.045,236.743L 109.643,236.743zM 109.643,210.977L 137.045,210.977L 137.045,200.017L 109.643,200.017zM 109.643,174.25L 137.045,174.25L 137.045,163.289L 109.643,163.289zM 109.643,137.525L 137.045,137.525L 137.045,126.564L 109.643,126.564zM 109.643,100.798L 137.045,100.798L 137.045,89.837L 109.643,89.837zM 82.411,64.070L 109.813,64.070L 109.813,53.11L 82.411,53.11zM 137.044,64.070L 164.446,64.070L 164.446,53.11L 137.044,53.11zM 109.643,64.070L 137.045,64.070L 137.045,53.11L 109.643,53.11z" horiz-adv-x="246.327" />
<glyph unicode="&#x53;" d="M 82.241,357.883L 109.642,357.883L 109.642,346.922L 82.241,346.922zM 54.84,357.883L 82.242,357.883L 82.242,346.922L 54.84,346.922zM 136.875,357.883L 164.277,357.883L 164.277,346.922L 136.875,346.922zM 109.474,357.883L 136.876,357.883L 136.876,346.922L 109.474,346.922zM 164.277,357.883L 191.68,357.883L 191.68,346.922L 164.277,346.922zM 27.438,321.156L 54.84,321.156L 54.84,310.195L 27.438,310.195zM 191.679,321.156L 219.080,321.156L 219.080,310.195L 191.679,310.195zM 27.438,284.43L 54.84,284.43L 54.84,273.469L 27.438,273.469zM 27.438,247.703L 54.84,247.703L 54.84,236.743L 27.438,236.743zM 54.84,247.703L 82.242,247.703L 82.242,236.743L 54.84,236.743zM 82.241,210.977L 109.642,210.977L 109.642,200.017L 82.241,200.017zM 136.875,210.977L 164.277,210.977L 164.277,200.017L 136.875,200.017zM 109.474,210.977L 136.876,210.977L 136.876,200.017L 109.474,200.017zM 191.679,174.25L 219.080,174.25L 219.080,163.289L 191.679,163.289zM 164.277,174.25L 191.68,174.25L 191.68,163.289L 164.277,163.289zM 191.679,137.525L 219.080,137.525L 219.080,126.564L 191.679,126.564zM 27.438,100.798L 54.84,100.798L 54.84,89.837L 27.438,89.837zM 191.679,100.798L 219.080,100.798L 219.080,89.837L 191.679,89.837zM 82.241,64.070L 109.642,64.070L 109.642,53.11L 82.241,53.11zM 54.84,64.070L 82.242,64.070L 82.242,53.11L 54.84,53.11zM 136.875,64.070L 164.277,64.070L 164.277,53.11L 136.875,53.11zM 109.474,64.070L 136.876,64.070L 136.876,53.11L 109.474,53.11zM 164.277,64.070L 191.68,64.070L 191.68,53.11L 164.277,53.11z" horiz-adv-x="246.327" />
<glyph unicode="&#x52;" d="M 27.274,357.882L 54.676,357.882L 54.676,346.922L 27.274,346.922zM 82.078,357.882L 109.48,357.882L 109.48,346.922L 82.078,346.922zM 54.676,357.882L 82.079,357.882L 82.079,346.922L 54.676,346.922zM 136.712,357.882L 164.113,357.882L 164.113,346.922L 136.712,346.922zM 109.311,357.882L 136.712,357.882L 136.712,346.922L 109.311,346.922zM 164.113,357.882L 191.516,357.882L 191.516,346.922L 164.113,346.922zM 27.274,321.156L 54.676,321.156L 54.676,310.195L 27.274,310.195zM 191.515,321.156L 218.917,321.156L 218.917,310.195L 191.515,310.195zM 27.274,284.429L 54.676,284.429L 54.676,273.469L 27.274,273.469zM 191.515,284.429L 218.917,284.429L 218.917,273.469L 191.515,273.469zM 27.274,247.703L 54.676,247.703L 54.676,236.741L 27.274,236.741zM 191.515,247.703L 218.917,247.703L 218.917,236.741L 191.515,236.741zM 27.274,210.977L 54.676,210.977L 54.676,200.015L 27.274,200.015zM 82.078,210.977L 109.48,210.977L 109.48,200.015L 82.078,200.015zM 54.676,210.977L 82.079,210.977L 82.079,200.015L 54.676,200.015zM 136.712,210.977L 164.113,210.977L 164.113,200.015L 136.712,200.015zM 109.311,210.977L 136.712,210.977L 136.712,200.015L 109.311,200.015zM 164.113,210.977L 191.516,210.977L 191.516,200.015L 164.113,200.015zM 27.274,174.25L 54.676,174.25L 54.676,163.289L 27.274,163.289zM 109.311,174.25L 136.712,174.25L 136.712,163.289L 109.311,163.289zM 27.274,137.524L 54.676,137.524L 54.676,126.563L 27.274,126.563zM 136.712,137.524L 164.113,137.524L 164.113,126.563L 136.712,126.563zM 27.274,100.796L 54.676,100.796L 54.676,89.836L 27.274,89.836zM 164.113,100.796L 191.516,100.796L 191.516,89.836L 164.113,89.836zM 27.274,64.070L 54.676,64.070L 54.676,53.109L 27.274,53.109zM 191.515,64.070L 218.917,64.070L 218.917,53.109L 191.515,53.109z" horiz-adv-x="246.327" />
<glyph unicode="&#x51;" d="M 81.641,357.882L 109.043,357.882L 109.043,346.922L 81.641,346.922zM 54.24,357.882L 81.643,357.882L 81.643,346.922L 54.24,346.922zM 136.276,357.882L 163.678,357.882L 163.678,346.922L 136.276,346.922zM 108.874,357.882L 136.276,357.882L 136.276,346.922L 108.874,346.922zM 163.678,357.882L 191.080,357.882L 191.080,346.922L 163.678,346.922zM 26.837,321.156L 54.24,321.156L 54.24,310.195L 26.837,310.195zM 191.080,321.156L 218.482,321.156L 218.482,310.195L 191.080,310.195zM 26.837,284.429L 54.24,284.429L 54.24,273.469L 26.837,273.469zM 191.080,284.429L 218.482,284.429L 218.482,273.469L 191.080,273.469zM 26.837,247.703L 54.24,247.703L 54.24,236.741L 26.837,236.741zM 191.080,247.703L 218.482,247.703L 218.482,236.741L 191.080,236.741zM 26.837,210.977L 54.24,210.977L 54.24,200.015L 26.837,200.015zM 191.080,210.977L 218.482,210.977L 218.482,200.015L 191.080,200.015zM 26.837,174.25L 54.24,174.25L 54.24,163.289L 26.837,163.289zM 108.874,174.25L 136.276,174.25L 136.276,163.289L 108.874,163.289zM 191.080,174.25L 218.482,174.25L 218.482,163.289L 191.080,163.289zM 26.837,137.524L 54.24,137.524L 54.24,126.563L 26.837,126.563zM 136.276,137.524L 163.678,137.524L 163.678,126.563L 136.276,126.563zM 191.080,137.524L 218.482,137.524L 218.482,126.563L 191.080,126.563zM 26.837,100.796L 54.24,100.796L 54.24,89.836L 26.837,89.836zM 163.678,100.796L 191.080,100.796L 191.080,89.836L 163.678,89.836zM 81.641,64.070L 109.043,64.070L 109.043,53.109L 81.641,53.109zM 54.24,64.070L 81.643,64.070L 81.643,53.109L 54.24,53.109zM 136.276,64.070L 163.678,64.070L 163.678,53.109L 136.276,53.109zM 108.874,64.070L 136.276,64.070L 136.276,53.109L 108.874,53.109zM 191.080,64.070L 218.482,64.070L 218.482,53.109L 191.080,53.109zM 163.678,64.070L 191.080,64.070L 191.080,53.109L 163.678,53.109z" horiz-adv-x="246.327" />
<glyph unicode="&#x50;" d="M 82.014,357.883L 109.416,357.883L 109.416,346.922L 82.014,346.922zM 54.612,357.883L 82.014,357.883L 82.014,346.922L 54.612,346.922zM 136.648,357.883L 164.050,357.883L 164.050,346.922L 136.648,346.922zM 109.246,357.883L 136.648,357.883L 136.648,346.922L 109.246,346.922zM 164.050,357.883L 191.451,357.883L 191.451,346.922L 164.050,346.922zM 27.21,321.156L 54.612,321.156L 54.612,310.195L 27.21,310.195zM 191.451,321.156L 218.852,321.156L 218.852,310.195L 191.451,310.195zM 27.21,284.43L 54.612,284.43L 54.612,273.469L 27.21,273.469zM 191.451,284.43L 218.852,284.43L 218.852,273.469L 191.451,273.469zM 27.21,247.703L 54.612,247.703L 54.612,236.743L 27.21,236.743zM 191.451,247.703L 218.852,247.703L 218.852,236.743L 191.451,236.743zM 27.21,210.977L 54.612,210.977L 54.612,200.017L 27.21,200.017zM 82.014,210.977L 109.416,210.977L 109.416,200.017L 82.014,200.017zM 54.612,210.977L 82.014,210.977L 82.014,200.017L 54.612,200.017zM 136.648,210.977L 164.050,210.977L 164.050,200.017L 136.648,200.017zM 109.246,210.977L 136.648,210.977L 136.648,200.017L 109.246,200.017zM 164.050,210.977L 191.451,210.977L 191.451,200.017L 164.050,200.017zM 27.21,174.25L 54.612,174.25L 54.612,163.289L 27.21,163.289zM 27.21,137.525L 54.612,137.525L 54.612,126.564L 27.21,126.564zM 27.21,100.798L 54.612,100.798L 54.612,89.837L 27.21,89.837zM 27.21,64.070L 54.612,64.070L 54.612,53.11L 27.21,53.11z" horiz-adv-x="246.327" />
<glyph unicode="&#x4f;" d="M 82.222,357.883L 109.624,357.883L 109.624,346.922L 82.222,346.922zM 54.821,357.883L 82.222,357.883L 82.222,346.922L 54.821,346.922zM 136.856,357.883L 164.257,357.883L 164.257,346.922L 136.856,346.922zM 109.455,357.883L 136.856,357.883L 136.856,346.922L 109.455,346.922zM 164.257,357.883L 191.66,357.883L 191.66,346.922L 164.257,346.922zM 27.418,321.156L 54.821,321.156L 54.821,310.195L 27.418,310.195zM 191.66,321.156L 219.061,321.156L 219.061,310.195L 191.66,310.195zM 27.418,284.43L 54.821,284.43L 54.821,273.469L 27.418,273.469zM 191.66,284.43L 219.061,284.43L 219.061,273.469L 191.66,273.469zM 27.418,247.703L 54.821,247.703L 54.821,236.743L 27.418,236.743zM 191.66,247.703L 219.061,247.703L 219.061,236.743L 191.66,236.743zM 27.418,210.977L 54.821,210.977L 54.821,200.017L 27.418,200.017zM 191.66,210.977L 219.061,210.977L 219.061,200.017L 191.66,200.017zM 27.418,174.25L 54.821,174.25L 54.821,163.289L 27.418,163.289zM 191.66,174.25L 219.061,174.25L 219.061,163.289L 191.66,163.289zM 27.418,137.525L 54.821,137.525L 54.821,126.564L 27.418,126.564zM 191.66,137.525L 219.061,137.525L 219.061,126.564L 191.66,126.564zM 27.418,100.798L 54.821,100.798L 54.821,89.837L 27.418,89.837zM 191.66,100.798L 219.061,100.798L 219.061,89.837L 191.66,89.837zM 82.222,64.070L 109.624,64.070L 109.624,53.11L 82.222,53.11zM 54.821,64.070L 82.222,64.070L 82.222,53.11L 54.821,53.11zM 136.856,64.070L 164.257,64.070L 164.257,53.11L 136.856,53.11zM 109.455,64.070L 136.856,64.070L 136.856,53.11L 109.455,53.11zM 164.257,64.070L 191.66,64.070L 191.66,53.11L 164.257,53.11z" horiz-adv-x="246.327" />
<glyph unicode="&#x4e;" d="M 27.171,357.883L 54.573,357.883L 54.573,346.922L 27.171,346.922zM 191.412,357.883L 218.814,357.883L 218.814,346.922L 191.412,346.922zM 27.171,321.156L 54.573,321.156L 54.573,310.195L 27.171,310.195zM 191.412,321.156L 218.814,321.156L 218.814,310.195L 191.412,310.195zM 27.171,284.43L 54.573,284.43L 54.573,273.469L 27.171,273.469zM 54.573,284.43L 81.975,284.43L 81.975,273.469L 54.573,273.469zM 191.412,284.43L 218.814,284.43L 218.814,273.469L 191.412,273.469zM 27.171,247.703L 54.573,247.703L 54.573,236.743L 27.171,236.743zM 81.975,247.703L 109.376,247.703L 109.376,236.743L 81.975,236.743zM 191.412,247.703L 218.814,247.703L 218.814,236.743L 191.412,236.743zM 27.171,210.977L 54.573,210.977L 54.573,200.017L 27.171,200.017zM 109.208,210.977L 136.61,210.977L 136.61,200.017L 109.208,200.017zM 191.412,210.977L 218.814,210.977L 218.814,200.017L 191.412,200.017zM 27.171,174.25L 54.573,174.25L 54.573,163.289L 27.171,163.289zM 136.609,174.25L 164.010,174.25L 164.010,163.289L 136.609,163.289zM 191.412,174.25L 218.814,174.25L 218.814,163.289L 191.412,163.289zM 27.171,137.525L 54.573,137.525L 54.573,126.564L 27.171,126.564zM 191.412,137.525L 218.814,137.525L 218.814,126.564L 191.412,126.564zM 164.011,137.525L 191.413,137.525L 191.413,126.564L 164.011,126.564zM 27.171,100.798L 54.573,100.798L 54.573,89.837L 27.171,89.837zM 191.412,100.798L 218.814,100.798L 218.814,89.837L 191.412,89.837zM 27.171,64.070L 54.573,64.070L 54.573,53.11L 27.171,53.11zM 191.412,64.070L 218.814,64.070L 218.814,53.11L 191.412,53.11z" horiz-adv-x="246.327" />
<glyph unicode="&#x4d;" d="M 27.607,357.883L 55.009,357.883L 55.009,346.922L 27.607,346.922zM 191.848,357.883L 219.25,357.883L 219.25,346.922L 191.848,346.922zM 27.607,321.156L 55.009,321.156L 55.009,310.195L 27.607,310.195zM 191.848,321.156L 219.25,321.156L 219.25,310.195L 191.848,310.195zM 27.607,284.43L 55.009,284.43L 55.009,273.469L 27.607,273.469zM 55.009,284.43L 82.411,284.43L 82.411,273.469L 55.009,273.469zM 191.848,284.43L 219.25,284.43L 219.25,273.469L 191.848,273.469zM 164.446,284.43L 191.848,284.43L 191.848,273.469L 164.446,273.469zM 27.607,247.703L 55.009,247.703L 55.009,236.743L 27.607,236.743zM 82.411,247.703L 109.813,247.703L 109.813,236.743L 82.411,236.743zM 137.044,247.703L 164.446,247.703L 164.446,236.743L 137.044,236.743zM 191.848,247.703L 219.25,247.703L 219.25,236.743L 191.848,236.743zM 27.607,210.977L 55.009,210.977L 55.009,200.017L 27.607,200.017zM 109.643,210.977L 137.045,210.977L 137.045,200.017L 109.643,200.017zM 191.848,210.977L 219.25,210.977L 219.25,200.017L 191.848,200.017zM 27.607,174.25L 55.009,174.25L 55.009,163.289L 27.607,163.289zM 191.848,174.25L 219.25,174.25L 219.25,163.289L 191.848,163.289zM 27.607,137.525L 55.009,137.525L 55.009,126.564L 27.607,126.564zM 191.848,137.525L 219.25,137.525L 219.25,126.564L 191.848,126.564zM 27.607,100.798L 55.009,100.798L 55.009,89.837L 27.607,89.837zM 191.848,100.798L 219.25,100.798L 219.25,89.837L 191.848,89.837zM 27.607,64.070L 55.009,64.070L 55.009,53.11L 27.607,53.11zM 191.848,64.070L 219.25,64.070L 219.25,53.11L 191.848,53.11z" horiz-adv-x="246.327" />
<glyph unicode="&#x4c;" d="M 27.268,357.883L 54.671,357.883L 54.671,346.922L 27.268,346.922zM 82.072,357.883L 109.474,357.883L 109.474,346.922L 82.072,346.922zM 54.671,357.883L 82.073,357.883L 82.073,346.922L 54.671,346.922zM 54.671,321.156L 82.073,321.156L 82.073,310.195L 54.671,310.195zM 54.671,284.43L 82.073,284.43L 82.073,273.469L 54.671,273.469zM 54.671,247.703L 82.073,247.703L 82.073,236.743L 54.671,236.743zM 54.671,210.977L 82.073,210.977L 82.073,200.017L 54.671,200.017zM 54.671,174.25L 82.073,174.25L 82.073,163.289L 54.671,163.289zM 54.671,137.525L 82.073,137.525L 82.073,126.564L 54.671,126.564zM 54.671,100.798L 82.073,100.798L 82.073,89.837L 54.671,89.837zM 191.51,100.798L 218.912,100.798L 218.912,89.837L 191.51,89.837zM 27.268,64.070L 54.671,64.070L 54.671,53.11L 27.268,53.11zM 82.072,64.070L 109.474,64.070L 109.474,53.11L 82.072,53.11zM 54.671,64.070L 82.073,64.070L 82.073,53.11L 54.671,53.11zM 136.707,64.070L 164.108,64.070L 164.108,53.11L 136.707,53.11zM 109.305,64.070L 136.707,64.070L 136.707,53.11L 109.305,53.11zM 191.51,64.070L 218.912,64.070L 218.912,53.11L 191.51,53.11zM 164.108,64.070L 191.51,64.070L 191.51,53.11L 164.108,53.11z" horiz-adv-x="246.327" />
<glyph unicode="&#x4b;" d="M 27.476,357.883L 54.878,357.883L 54.878,346.922L 27.476,346.922zM 54.879,357.883L 82.28,357.883L 82.28,346.922L 54.879,346.922zM 191.718,357.883L 219.12,357.883L 219.12,346.922L 191.718,346.922zM 54.879,321.156L 82.28,321.156L 82.28,310.195L 54.879,310.195zM 191.718,321.156L 219.12,321.156L 219.12,310.195L 191.718,310.195zM 54.879,284.43L 82.28,284.43L 82.28,273.469L 54.879,273.469zM 164.316,284.43L 191.718,284.43L 191.718,273.469L 164.316,273.469zM 54.879,247.703L 82.28,247.703L 82.28,236.743L 54.879,236.743zM 136.914,247.703L 164.316,247.703L 164.316,236.743L 136.914,236.743zM 82.279,210.977L 109.681,210.977L 109.681,200.017L 82.279,200.017zM 54.879,210.977L 82.28,210.977L 82.28,200.017L 54.879,200.017zM 109.513,210.977L 136.914,210.977L 136.914,200.017L 109.513,200.017zM 54.879,174.25L 82.28,174.25L 82.28,163.289L 54.879,163.289zM 136.914,174.25L 164.316,174.25L 164.316,163.289L 136.914,163.289zM 54.879,137.525L 82.28,137.525L 82.28,126.564L 54.879,126.564zM 164.316,137.525L 191.718,137.525L 191.718,126.564L 164.316,126.564zM 54.879,100.798L 82.28,100.798L 82.28,89.837L 54.879,89.837zM 191.718,100.798L 219.12,100.798L 219.12,89.837L 191.718,89.837zM 27.476,64.070L 54.878,64.070L 54.878,53.11L 27.476,53.11zM 54.879,64.070L 82.28,64.070L 82.28,53.11L 54.879,53.11zM 191.718,64.070L 219.12,64.070L 219.12,53.11L 191.718,53.11z" horiz-adv-x="246.327" />
<glyph unicode="&#x4a;" d="M 27.041,357.883L 54.443,357.883L 54.443,346.922L 27.041,346.922zM 81.845,357.883L 109.247,357.883L 109.247,346.922L 81.845,346.922zM 54.443,357.883L 81.845,357.883L 81.845,346.922L 54.443,346.922zM 136.478,357.883L 163.88,357.883L 163.88,346.922L 136.478,346.922zM 109.077,357.883L 136.479,357.883L 136.479,346.922L 109.077,346.922zM 191.282,357.883L 218.683,357.883L 218.683,346.922L 191.282,346.922zM 163.881,357.883L 191.283,357.883L 191.283,346.922L 163.881,346.922zM 136.478,321.156L 163.88,321.156L 163.88,310.195L 136.478,310.195zM 136.478,284.43L 163.88,284.43L 163.88,273.469L 136.478,273.469zM 136.478,247.703L 163.88,247.703L 163.88,236.743L 136.478,236.743zM 136.478,210.977L 163.88,210.977L 163.88,200.017L 136.478,200.017zM 136.478,174.25L 163.88,174.25L 163.88,163.289L 136.478,163.289zM 27.041,137.525L 54.443,137.525L 54.443,126.564L 27.041,126.564zM 136.478,137.525L 163.88,137.525L 163.88,126.564L 136.478,126.564zM 27.041,100.798L 54.443,100.798L 54.443,89.837L 27.041,89.837zM 136.478,100.798L 163.88,100.798L 163.88,89.837L 136.478,89.837zM 81.845,64.070L 109.247,64.070L 109.247,53.11L 81.845,53.11zM 54.443,64.070L 81.845,64.070L 81.845,53.11L 54.443,53.11zM 109.077,64.070L 136.479,64.070L 136.479,53.11L 109.077,53.11z" horiz-adv-x="246.327" />
<glyph unicode="&#x49;" d="M 81.786,357.883L 109.188,357.883L 109.188,346.922L 81.786,346.922zM 136.42,357.883L 163.821,357.883L 163.821,346.922L 136.42,346.922zM 109.019,357.883L 136.421,357.883L 136.421,346.922L 109.019,346.922zM 109.019,321.156L 136.421,321.156L 136.421,310.195L 109.019,310.195zM 109.019,284.43L 136.421,284.43L 136.421,273.469L 109.019,273.469zM 109.019,247.703L 136.421,247.703L 136.421,236.743L 109.019,236.743zM 109.019,210.977L 136.421,210.977L 136.421,200.017L 109.019,200.017zM 109.019,174.25L 136.421,174.25L 136.421,163.289L 109.019,163.289zM 109.019,137.525L 136.421,137.525L 136.421,126.564L 109.019,126.564zM 109.019,100.798L 136.421,100.798L 136.421,89.837L 109.019,89.837zM 81.786,64.070L 109.188,64.070L 109.188,53.11L 81.786,53.11zM 136.42,64.070L 163.821,64.070L 163.821,53.11L 136.42,53.11zM 109.019,64.070L 136.421,64.070L 136.421,53.11L 109.019,53.11z" horiz-adv-x="246.327" />
<glyph unicode="&#x48;" d="M 27.249,357.883L 54.651,357.883L 54.651,346.922L 27.249,346.922zM 191.49,357.883L 218.892,357.883L 218.892,346.922L 191.49,346.922zM 27.249,321.156L 54.651,321.156L 54.651,310.195L 27.249,310.195zM 191.49,321.156L 218.892,321.156L 218.892,310.195L 191.49,310.195zM 27.249,284.43L 54.651,284.43L 54.651,273.469L 27.249,273.469zM 191.49,284.43L 218.892,284.43L 218.892,273.469L 191.49,273.469zM 27.249,247.703L 54.651,247.703L 54.651,236.743L 27.249,236.743zM 191.49,247.703L 218.892,247.703L 218.892,236.743L 191.49,236.743zM 27.249,210.977L 54.651,210.977L 54.651,200.017L 27.249,200.017zM 82.053,210.977L 109.455,210.977L 109.455,200.017L 82.053,200.017zM 54.651,210.977L 82.053,210.977L 82.053,200.017L 54.651,200.017zM 136.686,210.977L 164.088,210.977L 164.088,200.017L 136.686,200.017zM 109.286,210.977L 136.687,210.977L 136.687,200.017L 109.286,200.017zM 191.49,210.977L 218.892,210.977L 218.892,200.017L 191.49,200.017zM 164.088,210.977L 191.491,210.977L 191.491,200.017L 164.088,200.017zM 27.249,174.25L 54.651,174.25L 54.651,163.289L 27.249,163.289zM 191.49,174.25L 218.892,174.25L 218.892,163.289L 191.49,163.289zM 27.249,137.525L 54.651,137.525L 54.651,126.564L 27.249,126.564zM 191.49,137.525L 218.892,137.525L 218.892,126.564L 191.49,126.564zM 27.249,100.798L 54.651,100.798L 54.651,89.837L 27.249,89.837zM 191.49,100.798L 218.892,100.798L 218.892,89.837L 191.49,89.837zM 27.249,64.070L 54.651,64.070L 54.651,53.11L 27.249,53.11zM 191.49,64.070L 218.892,64.070L 218.892,53.11L 191.49,53.11z" horiz-adv-x="246.327" />
<glyph unicode="&#x47;" d="M 82.26,357.883L 109.662,357.883L 109.662,346.922L 82.26,346.922zM 136.894,357.883L 164.297,357.883L 164.297,346.922L 136.894,346.922zM 109.494,357.883L 136.895,357.883L 136.895,346.922L 109.494,346.922zM 164.297,357.883L 191.699,357.883L 191.699,346.922L 164.297,346.922zM 54.86,321.156L 82.262,321.156L 82.262,310.195L 54.86,310.195zM 191.699,321.156L 219.101,321.156L 219.101,310.195L 191.699,310.195zM 27.457,284.43L 54.859,284.43L 54.859,273.469L 27.457,273.469zM 27.457,247.703L 54.859,247.703L 54.859,236.743L 27.457,236.743zM 27.457,210.977L 54.859,210.977L 54.859,200.017L 27.457,200.017zM 136.894,210.977L 164.297,210.977L 164.297,200.017L 136.894,200.017zM 191.699,210.977L 219.101,210.977L 219.101,200.017L 191.699,200.017zM 164.297,210.977L 191.699,210.977L 191.699,200.017L 164.297,200.017zM 27.457,174.25L 54.859,174.25L 54.859,163.289L 27.457,163.289zM 191.699,174.25L 219.101,174.25L 219.101,163.289L 191.699,163.289zM 27.457,137.525L 54.859,137.525L 54.859,126.564L 27.457,126.564zM 191.699,137.525L 219.101,137.525L 219.101,126.564L 191.699,126.564zM 54.86,100.798L 82.262,100.798L 82.262,89.837L 54.86,89.837zM 191.699,100.798L 219.101,100.798L 219.101,89.837L 191.699,89.837zM 82.26,64.070L 109.662,64.070L 109.662,53.11L 82.26,53.11zM 136.894,64.070L 164.297,64.070L 164.297,53.11L 136.894,53.11zM 109.494,64.070L 136.895,64.070L 136.895,53.11L 109.494,53.11zM 164.297,64.070L 191.699,64.070L 191.699,53.11L 164.297,53.11z" horiz-adv-x="246.327" />
<glyph unicode="&#x46;" d="M 27.021,357.883L 54.423,357.883L 54.423,346.922L 27.021,346.922zM 81.824,357.883L 109.226,357.883L 109.226,346.922L 81.824,346.922zM 54.424,357.883L 81.825,357.883L 81.825,346.922L 54.424,346.922zM 136.459,357.883L 163.861,357.883L 163.861,346.922L 136.459,346.922zM 109.057,357.883L 136.459,357.883L 136.459,346.922L 109.057,346.922zM 191.262,357.883L 218.664,357.883L 218.664,346.922L 191.262,346.922zM 163.861,357.883L 191.262,357.883L 191.262,346.922L 163.861,346.922zM 27.021,321.156L 54.423,321.156L 54.423,310.195L 27.021,310.195zM 27.021,284.43L 54.423,284.43L 54.423,273.469L 27.021,273.469zM 27.021,247.703L 54.423,247.703L 54.423,236.743L 27.021,236.743zM 27.021,210.977L 54.423,210.977L 54.423,200.017L 27.021,200.017zM 81.824,210.977L 109.226,210.977L 109.226,200.017L 81.824,200.017zM 54.424,210.977L 81.825,210.977L 81.825,200.017L 54.424,200.017zM 109.057,210.977L 136.459,210.977L 136.459,200.017L 109.057,200.017zM 27.021,174.25L 54.423,174.25L 54.423,163.289L 27.021,163.289zM 27.021,137.525L 54.423,137.525L 54.423,126.564L 27.021,126.564zM 27.021,100.798L 54.423,100.798L 54.423,89.837L 27.021,89.837zM 27.021,64.070L 54.423,64.070L 54.423,53.11L 27.021,53.11z" horiz-adv-x="246.327" />
<glyph unicode="&#x45;" d="M 27.255,357.882L 54.657,357.882L 54.657,346.922L 27.255,346.922zM 82.059,357.882L 109.461,357.882L 109.461,346.922L 82.059,346.922zM 54.657,357.882L 82.059,357.882L 82.059,346.922L 54.657,346.922zM 136.692,357.882L 164.093,357.882L 164.093,346.922L 136.692,346.922zM 109.291,357.882L 136.693,357.882L 136.693,346.922L 109.291,346.922zM 191.496,357.882L 218.897,357.882L 218.897,346.922L 191.496,346.922zM 164.094,357.882L 191.496,357.882L 191.496,346.922L 164.094,346.922zM 27.255,321.156L 54.657,321.156L 54.657,310.195L 27.255,310.195zM 27.255,284.429L 54.657,284.429L 54.657,273.469L 27.255,273.469zM 27.255,247.703L 54.657,247.703L 54.657,236.741L 27.255,236.741zM 27.255,210.977L 54.657,210.977L 54.657,200.015L 27.255,200.015zM 82.059,210.977L 109.461,210.977L 109.461,200.015L 82.059,200.015zM 54.657,210.977L 82.059,210.977L 82.059,200.015L 54.657,200.015zM 136.692,210.977L 164.093,210.977L 164.093,200.015L 136.692,200.015zM 109.291,210.977L 136.693,210.977L 136.693,200.015L 109.291,200.015zM 27.255,174.25L 54.657,174.25L 54.657,163.289L 27.255,163.289zM 27.255,137.524L 54.657,137.524L 54.657,126.563L 27.255,126.563zM 27.255,100.796L 54.657,100.796L 54.657,89.836L 27.255,89.836zM 27.255,64.070L 54.657,64.070L 54.657,53.109L 27.255,53.109zM 82.059,64.070L 109.461,64.070L 109.461,53.109L 82.059,53.109zM 54.657,64.070L 82.059,64.070L 82.059,53.109L 54.657,53.109zM 136.692,64.070L 164.093,64.070L 164.093,53.109L 136.692,53.109zM 109.291,64.070L 136.693,64.070L 136.693,53.109L 109.291,53.109zM 191.496,64.070L 218.897,64.070L 218.897,53.109L 191.496,53.109zM 164.094,64.070L 191.496,64.070L 191.496,53.109L 164.094,53.109z" horiz-adv-x="246.327" />
<glyph unicode="&#x44;" d="M 27.23,357.883L 54.632,357.883L 54.632,346.922L 27.23,346.922zM 82.033,357.883L 109.436,357.883L 109.436,346.922L 82.033,346.922zM 54.632,357.883L 82.033,357.883L 82.033,346.922L 54.632,346.922zM 136.667,357.883L 164.068,357.883L 164.068,346.922L 136.667,346.922zM 109.266,357.883L 136.668,357.883L 136.668,346.922L 109.266,346.922zM 54.632,321.156L 82.033,321.156L 82.033,310.195L 54.632,310.195zM 164.068,321.156L 191.471,321.156L 191.471,310.195L 164.068,310.195zM 54.632,284.43L 82.033,284.43L 82.033,273.469L 54.632,273.469zM 191.471,284.43L 218.872,284.43L 218.872,273.469L 191.471,273.469zM 54.632,247.703L 82.033,247.703L 82.033,236.743L 54.632,236.743zM 191.471,247.703L 218.872,247.703L 218.872,236.743L 191.471,236.743zM 54.632,210.977L 82.033,210.977L 82.033,200.017L 54.632,200.017zM 191.471,210.977L 218.872,210.977L 218.872,200.017L 191.471,200.017zM 54.632,174.25L 82.033,174.25L 82.033,163.289L 54.632,163.289zM 191.471,174.25L 218.872,174.25L 218.872,163.289L 191.471,163.289zM 54.632,137.525L 82.033,137.525L 82.033,126.564L 54.632,126.564zM 191.471,137.525L 218.872,137.525L 218.872,126.564L 191.471,126.564zM 54.632,100.798L 82.033,100.798L 82.033,89.837L 54.632,89.837zM 164.068,100.798L 191.471,100.798L 191.471,89.837L 164.068,89.837zM 27.23,64.070L 54.632,64.070L 54.632,53.11L 27.23,53.11zM 82.033,64.070L 109.436,64.070L 109.436,53.11L 82.033,53.11zM 54.632,64.070L 82.033,64.070L 82.033,53.11L 54.632,53.11zM 136.667,64.070L 164.068,64.070L 164.068,53.11L 136.667,53.11zM 109.266,64.070L 136.668,64.070L 136.668,53.11L 109.266,53.11z" horiz-adv-x="246.327" />
<glyph unicode="&#x43;" d="M 81.955,357.883L 109.358,357.883L 109.358,346.922L 81.955,346.922zM 136.589,357.883L 163.991,357.883L 163.991,346.922L 136.589,346.922zM 109.188,357.883L 136.59,357.883L 136.59,346.922L 109.188,346.922zM 163.991,357.883L 191.393,357.883L 191.393,346.922L 163.991,346.922zM 54.554,321.156L 81.955,321.156L 81.955,310.195L 54.554,310.195zM 191.393,321.156L 218.794,321.156L 218.794,310.195L 191.393,310.195zM 27.151,284.43L 54.554,284.43L 54.554,273.469L 27.151,273.469zM 27.151,247.703L 54.554,247.703L 54.554,236.743L 27.151,236.743zM 27.151,210.977L 54.554,210.977L 54.554,200.017L 27.151,200.017zM 27.151,174.25L 54.554,174.25L 54.554,163.289L 27.151,163.289zM 27.151,137.525L 54.554,137.525L 54.554,126.564L 27.151,126.564zM 54.554,100.798L 81.955,100.798L 81.955,89.837L 54.554,89.837zM 191.393,100.798L 218.794,100.798L 218.794,89.837L 191.393,89.837zM 81.955,64.070L 109.358,64.070L 109.358,53.11L 81.955,53.11zM 136.589,64.070L 163.991,64.070L 163.991,53.11L 136.589,53.11zM 109.188,64.070L 136.59,64.070L 136.59,53.11L 109.188,53.11zM 163.991,64.070L 191.393,64.070L 191.393,53.11L 163.991,53.11z" horiz-adv-x="246.327" />
<glyph unicode="&#x42;" d="M 27.379,357.883L 54.781,357.883L 54.781,346.922L 27.379,346.922zM 82.183,357.883L 109.584,357.883L 109.584,346.922L 82.183,346.922zM 54.782,357.883L 82.184,357.883L 82.184,346.922L 54.782,346.922zM 136.816,357.883L 164.219,357.883L 164.219,346.922L 136.816,346.922zM 109.416,357.883L 136.817,357.883L 136.817,346.922L 109.416,346.922zM 164.219,357.883L 191.621,357.883L 191.621,346.922L 164.219,346.922zM 27.379,321.156L 54.781,321.156L 54.781,310.195L 27.379,310.195zM 191.62,321.156L 219.023,321.156L 219.023,310.195L 191.62,310.195zM 27.379,284.43L 54.781,284.43L 54.781,273.469L 27.379,273.469zM 191.62,284.43L 219.023,284.43L 219.023,273.469L 191.62,273.469zM 27.379,247.703L 54.781,247.703L 54.781,236.743L 27.379,236.743zM 191.62,247.703L 219.023,247.703L 219.023,236.743L 191.62,236.743zM 27.379,210.977L 54.781,210.977L 54.781,200.017L 27.379,200.017zM 82.183,210.977L 109.584,210.977L 109.584,200.017L 82.183,200.017zM 54.782,210.977L 82.184,210.977L 82.184,200.017L 54.782,200.017zM 136.816,210.977L 164.219,210.977L 164.219,200.017L 136.816,200.017zM 109.416,210.977L 136.817,210.977L 136.817,200.017L 109.416,200.017zM 164.219,210.977L 191.621,210.977L 191.621,200.017L 164.219,200.017zM 27.379,174.25L 54.781,174.25L 54.781,163.289L 27.379,163.289zM 191.62,174.25L 219.023,174.25L 219.023,163.289L 191.62,163.289zM 27.379,137.525L 54.781,137.525L 54.781,126.564L 27.379,126.564zM 191.62,137.525L 219.023,137.525L 219.023,126.564L 191.62,126.564zM 27.379,100.798L 54.781,100.798L 54.781,89.837L 27.379,89.837zM 191.62,100.798L 219.023,100.798L 219.023,89.837L 191.62,89.837zM 27.379,64.070L 54.781,64.070L 54.781,53.11L 27.379,53.11zM 82.183,64.070L 109.584,64.070L 109.584,53.11L 82.183,53.11zM 54.782,64.070L 82.184,64.070L 82.184,53.11L 54.782,53.11zM 136.816,64.070L 164.219,64.070L 164.219,53.11L 136.816,53.11zM 109.416,64.070L 136.817,64.070L 136.817,53.11L 109.416,53.11zM 164.219,64.070L 191.621,64.070L 191.621,53.11L 164.219,53.11z" horiz-adv-x="246.327" />
<glyph unicode="&#x21;" d="M 109.378,432.26L 136.779,432.26L 136.779,421.299L 109.378,421.299zM 82.145,395.533L 109.547,395.533L 109.547,384.571L 82.145,384.571zM 136.779,395.533L 164.18,395.533L 164.18,384.571L 136.779,384.571zM 109.378,395.533L 136.779,395.533L 136.779,384.571L 109.378,384.571zM 82.145,358.807L 109.547,358.807L 109.547,347.846L 82.145,347.846zM 136.779,358.807L 164.18,358.807L 164.18,347.846L 136.779,347.846zM 109.378,358.807L 136.779,358.807L 136.779,347.846L 109.378,347.846zM 82.145,322.081L 109.547,322.081L 109.547,311.12L 82.145,311.12zM 136.779,322.081L 164.18,322.081L 164.18,311.12L 136.779,311.12zM 109.378,322.081L 136.779,322.081L 136.779,311.12L 109.378,311.12zM 109.378,285.355L 136.779,285.355L 136.779,274.393L 109.378,274.393zM 109.378,248.628L 136.779,248.628L 136.779,237.666L 109.378,237.666zM 109.378,175.176L 136.779,175.176L 136.779,164.215L 109.378,164.215zM 109.378,138.448L 136.779,138.448L 136.779,127.487L 109.378,127.487z" horiz-adv-x="246.327"  />
<glyph unicode="&#x2e;" d="M 136.816,175.137L 164.219,175.137L 164.219,164.176L 136.816,164.176zM 109.416,175.137L 136.817,175.137L 136.817,164.176L 109.416,164.176zM 136.816,138.41L 164.219,138.41L 164.219,127.449L 136.816,127.449zM 109.416,138.41L 136.817,138.41L 136.817,127.449L 109.416,127.449z" horiz-adv-x="246.327"  />
<glyph unicode="&#xa2;" d="M 109.455,468.403L 136.856,468.403L 136.856,457.442L 109.455,457.442zM 109.455,431.677L 136.856,431.677L 136.856,420.716L 109.455,420.716zM 82.222,394.95L 109.624,394.95L 109.624,383.99L 82.222,383.99zM 54.821,394.95L 82.222,394.95L 82.222,383.99L 54.821,383.99zM 136.856,394.95L 164.257,394.95L 164.257,383.99L 136.856,383.99zM 109.455,394.95L 136.856,394.95L 136.856,383.99L 109.455,383.99zM 164.257,394.95L 191.66,394.95L 191.66,383.99L 164.257,383.99zM 27.418,358.224L 54.821,358.224L 54.821,347.264L 27.418,347.264zM 191.66,358.224L 219.061,358.224L 219.061,347.264L 191.66,347.264zM 27.418,321.497L 54.821,321.497L 54.821,310.537L 27.418,310.537zM 27.418,284.771L 54.821,284.771L 54.821,273.811L 27.418,273.811zM 27.418,248.045L 54.821,248.045L 54.821,237.084L 27.418,237.084zM 191.66,248.045L 219.061,248.045L 219.061,237.084L 191.66,237.084zM 82.222,211.319L 109.624,211.319L 109.624,200.358L 82.222,200.358zM 54.821,211.319L 82.222,211.319L 82.222,200.358L 54.821,200.358zM 136.856,211.319L 164.257,211.319L 164.257,200.358L 136.856,200.358zM 109.455,211.319L 136.856,211.319L 136.856,200.358L 109.455,200.358zM 164.257,211.319L 191.66,211.319L 191.66,200.358L 164.257,200.358zM 109.455,174.593L 136.856,174.593L 136.856,163.632L 109.455,163.632zM 109.455,137.865L 136.856,137.865L 136.856,126.904L 109.455,126.904z" horiz-adv-x="246.327"  />
<glyph unicode="&#xac;" d="M 26.982,284.771L 54.384,284.771L 54.384,273.811L 26.982,273.811zM 81.786,284.771L 109.188,284.771L 109.188,273.811L 81.786,273.811zM 54.384,284.771L 81.787,284.771L 81.787,273.811L 54.384,273.811zM 136.42,284.771L 163.821,284.771L 163.821,273.811L 136.42,273.811zM 109.019,284.771L 136.421,284.771L 136.421,273.811L 109.019,273.811zM 191.224,284.771L 218.625,284.771L 218.625,273.811L 191.224,273.811zM 163.822,284.771L 191.224,284.771L 191.224,273.811L 163.822,273.811zM 191.224,248.045L 218.625,248.045L 218.625,237.084L 191.224,237.084zM 191.224,211.319L 218.625,211.319L 218.625,200.358L 191.224,200.358z" horiz-adv-x="246.327"  />
<glyph unicode="&#x2f;" d="M 191.874,395.495L 219.275,395.495L 219.275,384.534L 191.874,384.534zM 164.471,358.768L 191.874,358.768L 191.874,347.807L 164.471,347.807zM 137.070,322.042L 164.471,322.042L 164.471,311.080L 137.070,311.080zM 109.668,285.316L 137.070,285.316L 137.070,274.355L 109.668,274.355zM 82.436,248.59L 109.838,248.59L 109.838,237.628L 82.436,237.628zM 55.034,211.865L 82.436,211.865L 82.436,200.902L 55.034,200.902zM 27.633,175.137L 55.034,175.137L 55.034,164.176L 27.633,164.176z" horiz-adv-x="246.327"  />
<glyph unicode="&#xa3;" d="M 136.425,468.986L 163.827,468.986L 163.827,458.025L 136.425,458.025zM 109.024,468.986L 136.426,468.986L 136.426,458.025L 109.024,458.025zM 81.792,432.26L 109.194,432.26L 109.194,421.299L 81.792,421.299zM 163.827,432.26L 191.229,432.26L 191.229,421.299L 163.827,421.299zM 81.792,395.533L 109.194,395.533L 109.194,384.571L 81.792,384.571zM 81.792,358.807L 109.194,358.807L 109.194,347.846L 81.792,347.846zM 81.792,322.081L 109.194,322.081L 109.194,311.12L 81.792,311.12zM 54.39,322.081L 81.792,322.081L 81.792,311.12L 54.39,311.12zM 109.024,322.081L 136.426,322.081L 136.426,311.12L 109.024,311.12zM 81.792,285.356L 109.194,285.356L 109.194,274.393L 81.792,274.393zM 81.792,248.628L 109.194,248.628L 109.194,237.666L 81.792,237.666zM 81.792,211.902L 109.194,211.902L 109.194,200.941L 81.792,200.941zM 81.792,175.176L 109.194,175.176L 109.194,164.215L 81.792,164.215zM 54.39,175.176L 81.792,175.176L 81.792,164.215L 54.39,164.215zM 109.024,175.176L 136.426,175.176L 136.426,164.215L 109.024,164.215zM 191.229,175.176L 218.63,175.176L 218.63,164.215L 191.229,164.215zM 81.792,138.448L 109.194,138.448L 109.194,127.487L 81.792,127.487zM 54.39,138.448L 81.792,138.448L 81.792,127.487L 54.39,127.487zM 136.425,138.448L 163.827,138.448L 163.827,127.487L 136.425,127.487zM 109.024,138.448L 136.426,138.448L 136.426,127.487L 109.024,127.487zM 163.827,138.448L 191.229,138.448L 191.229,127.487L 163.827,127.487z" horiz-adv-x="246.327" />
<glyph unicode="&#x24;" d="M 109.305,468.986L 136.707,468.986L 136.707,458.025L 109.305,458.025zM 82.072,432.26L 109.474,432.26L 109.474,421.299L 82.072,421.299zM 54.671,432.26L 82.073,432.26L 82.073,421.299L 54.671,421.299zM 136.707,432.26L 164.108,432.26L 164.108,421.299L 136.707,421.299zM 109.305,432.26L 136.707,432.26L 136.707,421.299L 109.305,421.299zM 164.108,432.26L 191.51,432.26L 191.51,421.299L 164.108,421.299zM 27.268,395.533L 54.671,395.533L 54.671,384.571L 27.268,384.571zM 109.305,395.533L 136.707,395.533L 136.707,384.571L 109.305,384.571zM 191.51,395.533L 218.912,395.533L 218.912,384.571L 191.51,384.571zM 27.268,358.807L 54.671,358.807L 54.671,347.846L 27.268,347.846zM 109.305,358.807L 136.707,358.807L 136.707,347.846L 109.305,347.846zM 27.268,322.081L 54.671,322.081L 54.671,311.12L 27.268,311.12zM 109.305,322.081L 136.707,322.081L 136.707,311.12L 109.305,311.12zM 82.072,285.356L 109.474,285.356L 109.474,274.393L 82.072,274.393zM 54.671,285.356L 82.073,285.356L 82.073,274.393L 54.671,274.393zM 136.707,285.356L 164.108,285.356L 164.108,274.393L 136.707,274.393zM 109.305,285.356L 136.707,285.356L 136.707,274.393L 109.305,274.393zM 164.108,285.356L 191.51,285.356L 191.51,274.393L 164.108,274.393zM 109.305,248.628L 136.707,248.628L 136.707,237.666L 109.305,237.666zM 191.51,248.628L 218.912,248.628L 218.912,237.666L 191.51,237.666zM 109.305,211.902L 136.707,211.902L 136.707,200.941L 109.305,200.941zM 191.51,211.902L 218.912,211.902L 218.912,200.941L 191.51,200.941zM 27.268,175.176L 54.671,175.176L 54.671,164.215L 27.268,164.215zM 109.305,175.176L 136.707,175.176L 136.707,164.215L 109.305,164.215zM 191.51,175.176L 218.912,175.176L 218.912,164.215L 191.51,164.215zM 82.072,138.448L 109.474,138.448L 109.474,127.487L 82.072,127.487zM 54.671,138.448L 82.073,138.448L 82.073,127.487L 54.671,127.487zM 136.707,138.448L 164.108,138.448L 164.108,127.487L 136.707,127.487zM 109.305,138.448L 136.707,138.448L 136.707,127.487L 109.305,127.487zM 164.108,138.448L 191.51,138.448L 191.51,127.487L 164.108,127.487zM 109.305,101.722L 136.707,101.722L 136.707,90.761L 109.305,90.761z" horiz-adv-x="246.327" />
<glyph unicode="&#x7c;" d="M 109.435,431.677L 136.836,431.677L 136.836,420.715L 109.435,420.715zM 109.435,394.95L 136.836,394.95L 136.836,383.99L 109.435,383.99zM 109.435,358.224L 136.836,358.224L 136.836,347.264L 109.435,347.264zM 109.435,321.497L 136.836,321.497L 136.836,310.537L 109.435,310.537zM 109.435,248.045L 136.836,248.045L 136.836,237.084L 109.435,237.084zM 109.435,211.319L 136.836,211.319L 136.836,200.358L 109.435,200.358zM 109.435,174.594L 136.836,174.594L 136.836,163.632L 109.435,163.632zM 109.435,137.865L 136.836,137.865L 136.836,126.904L 109.435,126.904z" horiz-adv-x="246.327" />
<glyph unicode="&#x3e;" d="M 54.745,431.615L 82.146,431.615L 82.146,420.655L 54.745,420.655zM 82.145,394.888L 109.547,394.888L 109.547,383.926L 82.145,383.926zM 109.378,358.162L 136.78,358.162L 136.78,347.202L 109.378,347.202zM 136.779,321.436L 164.181,321.436L 164.181,310.476L 136.779,310.476zM 164.181,284.711L 191.583,284.711L 191.583,273.749L 164.181,273.749zM 136.779,247.983L 164.181,247.983L 164.181,237.022L 136.779,237.022zM 109.378,211.257L 136.78,211.257L 136.78,200.296L 109.378,200.296zM 82.145,174.531L 109.547,174.531L 109.547,163.57L 82.145,163.57zM 54.745,137.803L 82.146,137.803L 82.146,126.843L 54.745,126.843z" horiz-adv-x="246.327" />
<glyph unicode="&#x3d;" d="M 27.341,321.93L 54.743,321.93L 54.743,310.969L 27.341,310.969zM 82.145,321.93L 109.547,321.93L 109.547,310.969L 82.145,310.969zM 54.744,321.93L 82.146,321.93L 82.146,310.969L 54.744,310.969zM 136.779,321.93L 164.18,321.93L 164.18,310.969L 136.779,310.969zM 109.378,321.93L 136.779,321.93L 136.779,310.969L 109.378,310.969zM 191.583,321.93L 218.984,321.93L 218.984,310.969L 191.583,310.969zM 164.18,321.93L 191.583,321.93L 191.583,310.969L 164.18,310.969zM 27.341,248.477L 54.743,248.477L 54.743,237.516L 27.341,237.516zM 82.145,248.477L 109.547,248.477L 109.547,237.516L 82.145,237.516zM 54.744,248.477L 82.146,248.477L 82.146,237.516L 54.744,237.516zM 136.779,248.477L 164.18,248.477L 164.18,237.516L 136.779,237.516zM 109.378,248.477L 136.779,248.477L 136.779,237.516L 109.378,237.516zM 191.583,248.477L 218.984,248.477L 218.984,237.516L 191.583,237.516zM 164.18,248.477L 191.583,248.477L 191.583,237.516L 164.18,237.516z" horiz-adv-x="246.327" />
<glyph unicode="&#x3c;" d="M 164.097,432.26L 191.5,432.26L 191.5,421.299L 164.097,421.299zM 136.696,395.533L 164.097,395.533L 164.097,384.571L 136.696,384.571zM 109.295,358.807L 136.697,358.807L 136.697,347.846L 109.295,347.846zM 82.063,322.081L 109.465,322.081L 109.465,311.12L 82.063,311.12zM 54.661,285.356L 82.063,285.356L 82.063,274.393L 54.661,274.393zM 82.063,248.628L 109.465,248.628L 109.465,237.666L 82.063,237.666zM 109.295,211.902L 136.697,211.902L 136.697,200.941L 109.295,200.941zM 136.696,175.176L 164.097,175.176L 164.097,164.215L 136.696,164.215zM 164.097,138.448L 191.5,138.448L 191.5,127.487L 164.097,127.487z" horiz-adv-x="246.327" />
<glyph unicode="&#x2b;" d="M 109.643,395.495L 137.045,395.495L 137.045,384.534L 109.643,384.534zM 109.643,358.768L 137.045,358.768L 137.045,347.807L 109.643,347.807zM 109.643,322.042L 137.045,322.042L 137.045,311.080L 109.643,311.080zM 82.411,285.316L 109.813,285.316L 109.813,274.355L 82.411,274.355zM 55.009,285.316L 82.411,285.316L 82.411,274.355L 55.009,274.355zM 137.044,285.316L 164.446,285.316L 164.446,274.355L 137.044,274.355zM 109.643,285.316L 137.045,285.316L 137.045,274.355L 109.643,274.355zM 164.446,285.316L 191.848,285.316L 191.848,274.355L 164.446,274.355zM 109.643,248.59L 137.045,248.59L 137.045,237.628L 109.643,237.628zM 109.643,211.865L 137.045,211.865L 137.045,200.902L 109.643,200.902zM 109.643,175.137L 137.045,175.137L 137.045,164.176L 109.643,164.176z" horiz-adv-x="246.327" />
<glyph unicode="&#x2da;" d="M 82.409,468.92L 109.812,468.92L 109.812,457.958L 82.409,457.958zM 137.043,468.92L 164.445,468.92L 164.445,457.958L 137.043,457.958zM 109.642,468.92L 137.044,468.92L 137.044,457.958L 109.642,457.958zM 55.008,432.194L 82.409,432.194L 82.409,421.233L 55.008,421.233zM 164.445,432.194L 191.847,432.194L 191.847,421.233L 164.445,421.233zM 55.008,395.468L 82.409,395.468L 82.409,384.507L 55.008,384.507zM 164.445,395.468L 191.847,395.468L 191.847,384.507L 164.445,384.507zM 82.409,358.741L 109.812,358.741L 109.812,347.78L 82.409,347.78zM 137.043,358.741L 164.445,358.741L 164.445,347.78L 137.043,347.78zM 109.642,358.741L 137.044,358.741L 137.044,347.78L 109.642,347.78z" horiz-adv-x="246.327" />
<glyph unicode="&#x5e;" d="M 109.668,432.222L 137.070,432.222L 137.070,421.261L 109.668,421.261zM 82.435,395.495L 109.838,395.495L 109.838,384.534L 82.435,384.534zM 137.068,395.495L 164.47,395.495L 164.47,384.534L 137.068,384.534zM 55.034,358.768L 82.436,358.768L 82.436,347.807L 55.034,347.807zM 164.471,358.768L 191.874,358.768L 191.874,347.807L 164.471,347.807zM 27.633,322.042L 55.034,322.042L 55.034,311.080L 27.633,311.080zM 191.874,322.042L 219.275,322.042L 219.275,311.080L 191.874,311.080z" horiz-adv-x="246.327" />
<glyph unicode="&#x25;" d="M 81.786,432.222L 109.188,432.222L 109.188,421.261L 81.786,421.261zM 54.384,432.222L 81.787,432.222L 81.787,421.261L 54.384,421.261zM 26.982,395.495L 54.384,395.495L 54.384,384.534L 26.982,384.534zM 109.019,395.495L 136.421,395.495L 136.421,384.534L 109.019,384.534zM 191.224,395.495L 218.625,395.495L 218.625,384.534L 191.224,384.534zM 26.982,358.768L 54.384,358.768L 54.384,347.807L 26.982,347.807zM 109.019,358.768L 136.421,358.768L 136.421,347.807L 109.019,347.807zM 163.822,358.768L 191.224,358.768L 191.224,347.807L 163.822,347.807zM 81.786,322.042L 109.188,322.042L 109.188,311.080L 81.786,311.080zM 54.384,322.042L 81.787,322.042L 81.787,311.080L 54.384,311.080zM 136.42,322.042L 163.821,322.042L 163.821,311.080L 136.42,311.080zM 109.019,285.316L 136.421,285.316L 136.421,274.355L 109.019,274.355zM 81.786,248.59L 109.188,248.59L 109.188,237.628L 81.786,237.628zM 136.42,248.59L 163.821,248.59L 163.821,237.628L 136.42,237.628zM 163.822,248.59L 191.224,248.59L 191.224,237.628L 163.822,237.628zM 54.384,211.865L 81.787,211.865L 81.787,200.902L 54.384,200.902zM 109.019,211.865L 136.421,211.865L 136.421,200.902L 109.019,200.902zM 191.224,211.865L 218.625,211.865L 218.625,200.902L 191.224,200.902zM 26.982,175.137L 54.384,175.137L 54.384,164.176L 26.982,164.176zM 109.019,175.137L 136.421,175.137L 136.421,164.176L 109.019,164.176zM 191.224,175.137L 218.625,175.137L 218.625,164.176L 191.224,164.176zM 136.42,138.41L 163.821,138.41L 163.821,127.449L 136.42,127.449zM 163.822,138.41L 191.224,138.41L 191.224,127.449L 163.822,127.449z" horiz-adv-x="246.327" />
<glyph unicode="&#x23;" d="M 81.955,394.95L 109.358,394.95L 109.358,383.99L 81.955,383.99zM 136.589,394.95L 163.991,394.95L 163.991,383.99L 136.589,383.99zM 81.955,358.224L 109.358,358.224L 109.358,347.264L 81.955,347.264zM 136.589,358.224L 163.991,358.224L 163.991,347.264L 136.589,347.264zM 81.955,321.497L 109.358,321.497L 109.358,310.537L 81.955,310.537zM 54.554,321.497L 81.955,321.497L 81.955,310.537L 54.554,310.537zM 136.589,321.497L 163.991,321.497L 163.991,310.537L 136.589,310.537zM 109.188,321.497L 136.59,321.497L 136.59,310.537L 109.188,310.537zM 163.991,321.497L 191.393,321.497L 191.393,310.537L 163.991,310.537zM 81.955,284.771L 109.358,284.771L 109.358,273.811L 81.955,273.811zM 136.589,284.771L 163.991,284.771L 163.991,273.811L 136.589,273.811zM 81.955,248.045L 109.358,248.045L 109.358,237.084L 81.955,237.084zM 136.589,248.045L 163.991,248.045L 163.991,237.084L 136.589,237.084zM 81.955,211.319L 109.358,211.319L 109.358,200.358L 81.955,200.358zM 54.554,211.319L 81.955,211.319L 81.955,200.358L 54.554,200.358zM 136.589,211.319L 163.991,211.319L 163.991,200.358L 136.589,200.358zM 109.188,211.319L 136.59,211.319L 136.59,200.358L 109.188,200.358zM 163.991,211.319L 191.393,211.319L 191.393,200.358L 163.991,200.358zM 81.955,174.593L 109.358,174.593L 109.358,163.632L 81.955,163.632zM 136.589,174.593L 163.991,174.593L 163.991,163.632L 136.589,163.632zM 81.955,137.865L 109.358,137.865L 109.358,126.904L 81.955,126.904zM 136.589,137.865L 163.991,137.865L 163.991,126.904L 136.589,126.904z" horiz-adv-x="246.327" />
<glyph unicode="&#x26;" d="M 82.222,432.222L 109.624,432.222L 109.624,421.261L 82.222,421.261zM 109.455,432.222L 136.856,432.222L 136.856,421.261L 109.455,421.261zM 54.821,395.495L 82.222,395.495L 82.222,384.534L 54.821,384.534zM 136.856,395.495L 164.257,395.495L 164.257,384.534L 136.856,384.534zM 54.821,358.768L 82.222,358.768L 82.222,347.807L 54.821,347.807zM 136.856,358.768L 164.257,358.768L 164.257,347.807L 136.856,347.807zM 82.222,322.042L 109.624,322.042L 109.624,311.080L 82.222,311.080zM 109.455,322.042L 136.856,322.042L 136.856,311.080L 109.455,311.080zM 82.222,285.316L 109.624,285.316L 109.624,274.355L 82.222,274.355zM 54.821,285.316L 82.222,285.316L 82.222,274.355L 54.821,274.355zM 109.455,285.316L 136.856,285.316L 136.856,274.355L 109.455,274.355zM 27.418,248.59L 54.821,248.59L 54.821,237.628L 27.418,237.628zM 136.856,248.59L 164.257,248.59L 164.257,237.628L 136.856,237.628zM 191.66,248.59L 219.061,248.59L 219.061,237.628L 191.66,237.628zM 164.257,248.59L 191.66,248.59L 191.66,237.628L 164.257,237.628zM 27.418,211.865L 54.821,211.865L 54.821,200.902L 27.418,200.902zM 164.257,211.865L 191.66,211.865L 191.66,200.902L 164.257,200.902zM 27.418,175.137L 54.821,175.137L 54.821,164.176L 27.418,164.176zM 164.257,175.137L 191.66,175.137L 191.66,164.176L 164.257,164.176zM 82.222,138.41L 109.624,138.41L 109.624,127.449L 82.222,127.449zM 54.821,138.41L 82.222,138.41L 82.222,127.449L 54.821,127.449zM 136.856,138.41L 164.257,138.41L 164.257,127.449L 136.856,127.449zM 109.455,138.41L 136.856,138.41L 136.856,127.449L 109.455,127.449zM 191.66,138.41L 219.061,138.41L 219.061,127.449L 191.66,127.449zM 164.257,138.41L 191.66,138.41L 191.66,127.449L 164.257,127.449z" horiz-adv-x="246.327" />
<glyph unicode="&#x5c;" d="M 27.632,395.495L 55.034,395.495L 55.034,384.534L 27.632,384.534zM 55.035,358.768L 82.435,358.768L 82.435,347.807L 55.035,347.807zM 82.435,322.042L 109.837,322.042L 109.837,311.080L 82.435,311.080zM 109.668,285.316L 137.070,285.316L 137.070,274.355L 109.668,274.355zM 137.070,248.59L 164.471,248.59L 164.471,237.628L 137.070,237.628zM 164.471,211.865L 191.874,211.865L 191.874,200.902L 164.471,200.902zM 191.872,175.137L 219.275,175.137L 219.275,164.176L 191.872,164.176z" horiz-adv-x="246.327" />
<glyph unicode="&#x2a;" d="M 54.593,358.768L 81.995,358.768L 81.995,347.807L 54.593,347.807zM 109.227,358.768L 136.629,358.768L 136.629,347.807L 109.227,347.807zM 164.030,358.768L 191.432,358.768L 191.432,347.807L 164.030,347.807zM 81.994,322.042L 109.396,322.042L 109.396,311.080L 81.994,311.080zM 136.628,322.042L 164.030,322.042L 164.030,311.080L 136.628,311.080zM 109.227,322.042L 136.629,322.042L 136.629,311.080L 109.227,311.080zM 27.19,285.316L 54.592,285.316L 54.592,274.355L 27.19,274.355zM 81.994,285.316L 109.396,285.316L 109.396,274.355L 81.994,274.355zM 54.593,285.316L 81.995,285.316L 81.995,274.355L 54.593,274.355zM 136.628,285.316L 164.030,285.316L 164.030,274.355L 136.628,274.355zM 109.227,285.316L 136.629,285.316L 136.629,274.355L 109.227,274.355zM 191.431,285.316L 218.834,285.316L 218.834,274.355L 191.431,274.355zM 164.030,285.316L 191.432,285.316L 191.432,274.355L 164.030,274.355zM 81.994,248.59L 109.396,248.59L 109.396,237.628L 81.994,237.628zM 136.628,248.59L 164.030,248.59L 164.030,237.628L 136.628,237.628zM 109.227,248.59L 136.629,248.59L 136.629,237.628L 109.227,237.628zM 54.593,211.865L 81.995,211.865L 81.995,200.902L 54.593,200.902zM 109.227,211.865L 136.629,211.865L 136.629,200.902L 109.227,200.902zM 164.030,211.865L 191.432,211.865L 191.432,200.902L 164.030,200.902z" horiz-adv-x="246.327" />
<glyph unicode="&#x40;" d="M 81.994,468.403L 109.396,468.403L 109.396,457.442L 81.994,457.442zM 136.628,468.403L 164.030,468.403L 164.030,457.442L 136.628,457.442zM 109.227,468.403L 136.629,468.403L 136.629,457.442L 109.227,457.442zM 164.030,468.403L 191.432,468.403L 191.432,457.442L 164.030,457.442zM 54.593,431.677L 81.995,431.677L 81.995,420.716L 54.593,420.716zM 191.431,431.677L 218.834,431.677L 218.834,420.716L 191.431,420.716zM 27.19,394.95L 54.592,394.95L 54.592,383.99L 27.19,383.99zM 136.628,394.95L 164.030,394.95L 164.030,383.99L 136.628,383.99zM 109.227,394.95L 136.629,394.95L 136.629,383.99L 109.227,383.99zM 191.431,394.95L 218.834,394.95L 218.834,383.99L 191.431,383.99zM 164.030,394.95L 191.432,394.95L 191.432,383.99L 164.030,383.99zM 27.19,358.224L 54.592,358.224L 54.592,347.264L 27.19,347.264zM 81.994,358.224L 109.396,358.224L 109.396,347.264L 81.994,347.264zM 191.431,358.224L 218.834,358.224L 218.834,347.264L 191.431,347.264zM 27.19,321.497L 54.592,321.497L 54.592,310.537L 27.19,310.537zM 54.593,321.497L 81.995,321.497L 81.995,310.537L 54.593,310.537zM 191.431,321.497L 218.834,321.497L 218.834,310.537L 191.431,310.537zM 27.19,284.771L 54.592,284.771L 54.592,273.811L 27.19,273.811zM 54.593,284.771L 81.995,284.771L 81.995,273.811L 54.593,273.811zM 191.431,284.771L 218.834,284.771L 218.834,273.811L 191.431,273.811zM 27.19,248.045L 54.592,248.045L 54.592,237.084L 27.19,237.084zM 81.994,248.045L 109.396,248.045L 109.396,237.084L 81.994,237.084zM 136.628,248.045L 164.030,248.045L 164.030,237.084L 136.628,237.084zM 109.227,248.045L 136.629,248.045L 136.629,237.084L 109.227,237.084zM 164.030,248.045L 191.432,248.045L 191.432,237.084L 164.030,237.084zM 27.19,211.319L 54.592,211.319L 54.592,200.358L 27.19,200.358zM 54.593,174.593L 81.995,174.593L 81.995,163.632L 54.593,163.632zM 81.994,137.865L 109.396,137.865L 109.396,126.904L 81.994,126.904zM 136.628,137.865L 164.030,137.865L 164.030,126.904L 136.628,126.904zM 109.227,137.865L 136.629,137.865L 136.629,126.904L 109.227,126.904zM 164.030,137.865L 191.432,137.865L 191.432,126.904L 164.030,126.904z" horiz-adv-x="246.327" />
<glyph unicode="&#x7d;" d="M 82.145,432.222L 109.547,432.222L 109.547,421.261L 82.145,421.261zM 54.743,432.222L 82.145,432.222L 82.145,421.261L 54.743,421.261zM 109.378,432.222L 136.779,432.222L 136.779,421.261L 109.378,421.261zM 136.779,395.495L 164.18,395.495L 164.18,384.534L 136.779,384.534zM 136.779,358.768L 164.18,358.768L 164.18,347.807L 136.779,347.807zM 136.779,322.042L 164.18,322.042L 164.18,311.080L 136.779,311.080zM 164.18,285.316L 191.582,285.316L 191.582,274.355L 164.18,274.355zM 136.779,248.59L 164.18,248.59L 164.18,237.628L 136.779,237.628zM 136.779,211.865L 164.18,211.865L 164.18,200.902L 136.779,200.902zM 136.779,175.137L 164.18,175.137L 164.18,164.176L 136.779,164.176zM 82.145,138.41L 109.547,138.41L 109.547,127.449L 82.145,127.449zM 54.743,138.41L 82.145,138.41L 82.145,127.449L 54.743,127.449zM 109.378,138.41L 136.779,138.41L 136.779,127.449L 109.378,127.449z" horiz-adv-x="246.327" />
<glyph unicode="&#x7b;" d="M 136.735,432.222L 164.137,432.222L 164.137,421.261L 136.735,421.261zM 109.333,432.222L 136.735,432.222L 136.735,421.261L 109.333,421.261zM 164.136,432.222L 191.538,432.222L 191.538,421.261L 164.136,421.261zM 82.101,395.495L 109.502,395.495L 109.502,384.534L 82.101,384.534zM 82.101,358.768L 109.502,358.768L 109.502,347.807L 82.101,347.807zM 82.101,322.042L 109.502,322.042L 109.502,311.080L 82.101,311.080zM 54.7,285.316L 82.102,285.316L 82.102,274.355L 54.7,274.355zM 82.101,248.59L 109.502,248.59L 109.502,237.628L 82.101,237.628zM 82.101,211.865L 109.502,211.865L 109.502,200.902L 82.101,200.902zM 82.101,175.137L 109.502,175.137L 109.502,164.176L 82.101,164.176zM 136.735,138.41L 164.137,138.41L 164.137,127.449L 136.735,127.449zM 109.333,138.41L 136.735,138.41L 136.735,127.449L 109.333,127.449zM 164.136,138.41L 191.538,138.41L 191.538,127.449L 164.136,127.449z" horiz-adv-x="246.327" />
<glyph unicode="&#x5d;" d="M 81.805,431.677L 109.207,431.677L 109.207,420.716L 81.805,420.716zM 136.439,431.677L 163.841,431.677L 163.841,420.716L 136.439,420.716zM 109.038,431.677L 136.44,431.677L 136.44,420.716L 109.038,420.716zM 136.439,394.95L 163.841,394.95L 163.841,383.99L 136.439,383.99zM 136.439,358.224L 163.841,358.224L 163.841,347.264L 136.439,347.264zM 136.439,321.497L 163.841,321.497L 163.841,310.537L 136.439,310.537zM 136.439,284.771L 163.841,284.771L 163.841,273.811L 136.439,273.811zM 136.439,248.045L 163.841,248.045L 163.841,237.084L 136.439,237.084zM 136.439,211.319L 163.841,211.319L 163.841,200.358L 136.439,200.358zM 136.439,174.593L 163.841,174.593L 163.841,163.632L 136.439,163.632zM 81.805,137.865L 109.207,137.865L 109.207,126.904L 81.805,126.904zM 136.439,137.865L 163.841,137.865L 163.841,126.904L 136.439,126.904zM 109.038,137.865L 136.44,137.865L 136.44,126.904L 109.038,126.904z" horiz-adv-x="246.327" />
<glyph unicode="&#x5b;" d="M 82.014,431.677L 109.416,431.677L 109.416,420.716L 82.014,420.716zM 136.648,431.677L 164.050,431.677L 164.050,420.716L 136.648,420.716zM 109.246,431.677L 136.648,431.677L 136.648,420.716L 109.246,420.716zM 82.014,394.95L 109.416,394.95L 109.416,383.99L 82.014,383.99zM 82.014,358.224L 109.416,358.224L 109.416,347.264L 82.014,347.264zM 82.014,321.497L 109.416,321.497L 109.416,310.537L 82.014,310.537zM 82.014,284.771L 109.416,284.771L 109.416,273.811L 82.014,273.811zM 82.014,248.045L 109.416,248.045L 109.416,237.084L 82.014,237.084zM 82.014,211.319L 109.416,211.319L 109.416,200.358L 82.014,200.358zM 82.014,174.593L 109.416,174.593L 109.416,163.632L 82.014,163.632zM 82.014,137.865L 109.416,137.865L 109.416,126.904L 82.014,126.904zM 136.648,137.865L 164.050,137.865L 164.050,126.904L 136.648,126.904zM 109.246,137.865L 136.648,137.865L 136.648,126.904L 109.246,126.904z" horiz-adv-x="246.327" />
<glyph unicode="&#x29;" d="M 82.436,432.222L 109.838,432.222L 109.838,421.261L 82.436,421.261zM 109.668,432.222L 137.070,432.222L 137.070,421.261L 109.668,421.261zM 137.070,395.495L 164.471,395.495L 164.471,384.534L 137.070,384.534zM 164.471,358.768L 191.874,358.768L 191.874,347.807L 164.471,347.807zM 164.471,322.042L 191.874,322.042L 191.874,311.081L 164.471,311.081zM 164.471,285.316L 191.874,285.316L 191.874,274.355L 164.471,274.355zM 164.471,248.59L 191.874,248.59L 191.874,237.628L 164.471,237.628zM 164.471,211.864L 191.874,211.864L 191.874,200.902L 164.471,200.902zM 137.070,175.137L 164.471,175.137L 164.471,164.176L 137.070,164.176zM 82.436,138.41L 109.838,138.41L 109.838,127.449L 82.436,127.449zM 109.668,138.41L 137.070,138.41L 137.070,127.449L 109.668,127.449z" horiz-adv-x="246.327" />
<glyph unicode="&#x28;" d="M 137.070,432.222L 164.471,432.222L 164.471,421.261L 137.070,421.261zM 109.668,432.222L 137.070,432.222L 137.070,421.261L 109.668,421.261zM 82.436,395.495L 109.838,395.495L 109.838,384.534L 82.436,384.534zM 55.034,358.768L 82.436,358.768L 82.436,347.807L 55.034,347.807zM 55.034,322.042L 82.436,322.042L 82.436,311.081L 55.034,311.081zM 55.034,285.316L 82.436,285.316L 82.436,274.355L 55.034,274.355zM 55.034,248.59L 82.436,248.59L 82.436,237.628L 55.034,237.628zM 55.034,211.864L 82.436,211.864L 82.436,200.902L 55.034,200.902zM 82.436,175.137L 109.838,175.137L 109.838,164.176L 82.436,164.176zM 137.070,138.41L 164.471,138.41L 164.471,127.449L 137.070,127.449zM 109.668,138.41L 137.070,138.41L 137.070,127.449L 109.668,127.449z" horiz-adv-x="246.327" />
<glyph unicode="&#x22;" d="M 82.202,432.222L 109.604,432.222L 109.604,421.261L 82.202,421.261zM 136.836,432.222L 164.239,432.222L 164.239,421.261L 136.836,421.261zM 82.202,395.495L 109.604,395.495L 109.604,384.534L 82.202,384.534zM 136.836,395.495L 164.239,395.495L 164.239,384.534L 136.836,384.534zM 82.202,358.768L 109.604,358.768L 109.604,347.807L 82.202,347.807zM 136.836,358.768L 164.239,358.768L 164.239,347.807L 136.836,347.807zM 82.202,322.042L 109.604,322.042L 109.604,311.080L 82.202,311.080zM 136.836,322.042L 164.239,322.042L 164.239,311.080L 136.836,311.080z" horiz-adv-x="246.327" />
<glyph unicode="&#x27;" d="M 137.025,468.403L 164.427,468.403L 164.427,457.442L 137.025,457.442zM 109.623,468.403L 137.025,468.403L 137.025,457.442L 109.623,457.442zM 137.025,431.677L 164.427,431.677L 164.427,420.716L 137.025,420.716zM 109.623,431.677L 137.025,431.677L 137.025,420.716L 109.623,420.716zM 137.025,394.95L 164.427,394.95L 164.427,383.99L 137.025,383.99zM 109.623,394.95L 137.025,394.95L 137.025,383.99L 109.623,383.99zM 109.623,358.224L 137.025,358.224L 137.025,347.264L 109.623,347.264zM 82.391,321.497L 109.793,321.497L 109.793,310.537L 82.391,310.537z" horiz-adv-x="246.327" />
<glyph unicode="&#x3f;" d="M 82.144,432.11L 109.546,432.11L 109.546,421.149L 82.144,421.149zM 54.745,432.11L 82.145,432.11L 82.145,421.149L 54.745,421.149zM 136.779,432.11L 164.18,432.11L 164.18,421.149L 136.779,421.149zM 109.378,432.11L 136.779,432.11L 136.779,421.149L 109.378,421.149zM 164.18,432.11L 191.583,432.11L 191.583,421.149L 164.18,421.149zM 27.341,395.383L 54.743,395.383L 54.743,384.422L 27.341,384.422zM 191.582,395.383L 218.984,395.383L 218.984,384.422L 191.582,384.422zM 27.341,358.657L 54.743,358.657L 54.743,347.696L 27.341,347.696zM 191.582,358.657L 218.984,358.657L 218.984,347.696L 191.582,347.696zM 164.18,321.93L 191.583,321.93L 191.583,310.969L 164.18,310.969zM 136.779,285.204L 164.18,285.204L 164.18,274.243L 136.779,274.243zM 109.378,248.477L 136.779,248.477L 136.779,237.516L 109.378,237.516zM 109.378,211.753L 136.779,211.753L 136.779,200.791L 109.378,200.791zM 109.378,138.297L 136.779,138.297L 136.779,127.336L 109.378,127.336zM 109.378,101.572L 136.779,101.572L 136.779,90.611L 109.378,90.611z" horiz-adv-x="246.327" />
<glyph unicode="&#x3b;" d="M 136.816,358.224L 164.219,358.224L 164.219,347.263L 136.816,347.263zM 109.416,358.224L 136.817,358.224L 136.817,347.263L 109.416,347.263zM 136.816,321.497L 164.219,321.497L 164.219,310.537L 136.816,310.537zM 109.416,321.497L 136.817,321.497L 136.817,310.537L 109.416,310.537zM 136.816,174.593L 164.219,174.593L 164.219,163.631L 136.816,163.631zM 109.416,174.593L 136.817,174.593L 136.817,163.631L 109.416,163.631zM 136.816,137.865L 164.219,137.865L 164.219,126.904L 136.816,126.904zM 109.416,137.865L 136.817,137.865L 136.817,126.904L 109.416,126.904zM 109.416,101.139L 136.817,101.139L 136.817,90.179L 109.416,90.179zM 82.183,64.413L 109.584,64.413L 109.584,53.452L 82.183,53.452z" horiz-adv-x="246.327" />
<glyph unicode="&#x2c;" d="M 137.070,175.137L 164.471,175.137L 164.471,164.176L 137.070,164.176zM 109.668,175.137L 137.070,175.137L 137.070,164.176L 109.668,164.176zM 137.070,138.41L 164.471,138.41L 164.471,127.449L 137.070,127.449zM 109.668,138.41L 137.070,138.41L 137.070,127.449L 109.668,127.449zM 109.668,101.684L 137.070,101.684L 137.070,90.723L 109.668,90.723zM 82.436,64.959L 109.838,64.959L 109.838,53.996L 82.436,53.996z" horiz-adv-x="246.327" />
<glyph unicode="&#x2d;" d="M 27.171,285.356L 54.573,285.356L 54.573,274.393L 27.171,274.393zM 81.975,285.356L 109.376,285.356L 109.376,274.393L 81.975,274.393zM 54.573,285.356L 81.975,285.356L 81.975,274.393L 54.573,274.393zM 136.609,285.356L 164.010,285.356L 164.010,274.393L 136.609,274.393zM 109.208,285.356L 136.61,285.356L 136.61,274.393L 109.208,274.393zM 191.412,285.356L 218.814,285.356L 218.814,274.393L 191.412,274.393zM 164.011,285.356L 191.413,285.356L 191.413,274.393L 164.011,274.393z" horiz-adv-x="246.327" />
<glyph unicode="&#x5f;" d="M 27.607,137.865L 55.009,137.865L 55.009,126.904L 27.607,126.904zM 82.411,137.865L 109.813,137.865L 109.813,126.904L 82.411,126.904zM 55.009,137.865L 82.411,137.865L 82.411,126.904L 55.009,126.904zM 137.044,137.865L 164.446,137.865L 164.446,126.904L 137.044,126.904zM 109.643,137.865L 137.045,137.865L 137.045,126.904L 109.643,126.904zM 191.848,137.865L 219.25,137.865L 219.25,126.904L 191.848,126.904zM 164.446,137.865L 191.848,137.865L 191.848,126.904L 164.446,126.904z" horiz-adv-x="246.327" />
<glyph unicode="&#x7a;" d="M 82.104,179.582L 109.506,179.582L 109.506,168.622L 82.104,168.622zM 54.702,179.582L 82.104,179.582L 82.104,168.622L 54.702,168.622zM 136.738,179.582L 164.139,179.582L 164.139,168.622L 136.738,168.622zM 109.337,179.582L 136.739,179.582L 136.739,168.622L 109.337,168.622zM 164.14,179.582L 191.542,179.582L 191.542,168.622L 164.14,168.622zM 164.14,152.181L 191.542,152.181L 191.542,141.22L 164.14,141.22zM 136.738,124.78L 164.139,124.78L 164.139,113.819L 136.738,113.819zM 109.337,97.378L 136.739,97.378L 136.739,86.416L 109.337,86.416zM 82.104,69.977L 109.506,69.977L 109.506,59.015L 82.104,59.015zM 82.104,42.575L 109.506,42.575L 109.506,31.612L 82.104,31.612zM 54.702,42.575L 82.104,42.575L 82.104,31.612L 54.702,31.612zM 136.738,42.575L 164.139,42.575L 164.139,31.612L 136.738,31.612zM 109.337,42.575L 136.739,42.575L 136.739,31.612L 109.337,31.612zM 164.14,42.575L 191.542,42.575L 191.542,31.612L 164.14,31.612z" horiz-adv-x="246.327" />
<glyph unicode="&#x79;" d="M 27.3,182.851L 54.703,182.851L 54.703,171.891L 27.3,171.891zM 191.542,182.851L 218.943,182.851L 218.943,171.891L 191.542,171.891zM 27.3,155.449L 54.703,155.449L 54.703,144.488L 27.3,144.488zM 191.542,155.449L 218.943,155.449L 218.943,144.488L 191.542,144.488zM 27.3,128.048L 54.703,128.048L 54.703,117.087L 27.3,117.087zM 191.542,128.048L 218.943,128.048L 218.943,117.087L 191.542,117.087zM 54.702,100.646L 82.104,100.646L 82.104,89.685L 54.702,89.685zM 164.14,100.646L 191.542,100.646L 191.542,89.685L 164.14,89.685zM 82.104,73.245L 109.506,73.245L 109.506,62.283L 82.104,62.283zM 136.738,73.245L 164.139,73.245L 164.139,62.283L 136.738,62.283zM 109.337,45.843L 136.739,45.843L 136.739,34.882L 109.337,34.882zM 82.104,18.442L 109.506,18.442L 109.506,7.479L 82.104,7.479zM 54.702-8.96L 82.104-8.96L 82.104-19.921L 54.702-19.921z" horiz-adv-x="246.327" />
<glyph unicode="&#x78;" d="M 27.3,180.413L 54.703,180.413L 54.703,169.452L 27.3,169.452zM 164.14,180.413L 191.542,180.413L 191.542,169.452L 164.14,169.452zM 54.702,153.011L 82.104,153.011L 82.104,142.050L 54.702,142.050zM 136.738,153.011L 164.139,153.011L 164.139,142.050L 136.738,142.050zM 82.104,125.61L 109.506,125.61L 109.506,114.649L 82.104,114.649zM 109.337,125.61L 136.739,125.61L 136.739,114.649L 109.337,114.649zM 82.104,98.208L 109.506,98.208L 109.506,87.247L 82.104,87.247zM 109.337,98.208L 136.739,98.208L 136.739,87.247L 109.337,87.247zM 54.702,70.807L 82.104,70.807L 82.104,59.845L 54.702,59.845zM 136.738,70.807L 164.139,70.807L 164.139,59.845L 136.738,59.845zM 27.3,43.405L 54.703,43.405L 54.703,32.444L 27.3,32.444zM 164.14,43.405L 191.542,43.405L 191.542,32.444L 164.14,32.444z" horiz-adv-x="246.327" />
<glyph unicode="&#x77;" d="M 27.101,180.274L 54.503,180.274L 54.503,169.313L 27.101,169.313zM 191.341,180.274L 218.743,180.274L 218.743,169.313L 191.341,169.313zM 27.101,152.871L 54.503,152.871L 54.503,141.91L 27.101,141.91zM 191.341,152.871L 218.743,152.871L 218.743,141.91L 191.341,141.91zM 27.101,125.47L 54.503,125.47L 54.503,114.509L 27.101,114.509zM 109.137,125.47L 136.539,125.47L 136.539,114.509L 109.137,114.509zM 191.341,125.47L 218.743,125.47L 218.743,114.509L 191.341,114.509zM 27.101,98.068L 54.503,98.068L 54.503,87.107L 27.101,87.107zM 109.137,98.068L 136.539,98.068L 136.539,87.107L 109.137,87.107zM 191.341,98.068L 218.743,98.068L 218.743,87.107L 191.341,87.107zM 27.101,70.667L 54.503,70.667L 54.503,59.705L 27.101,59.705zM 109.137,70.667L 136.539,70.667L 136.539,59.705L 109.137,59.705zM 191.341,70.667L 218.743,70.667L 218.743,59.705L 191.341,59.705zM 81.905,43.265L 109.307,43.265L 109.307,32.304L 81.905,32.304zM 54.502,43.265L 81.905,43.265L 81.905,32.304L 54.502,32.304zM 136.538,43.265L 163.94,43.265L 163.94,32.304L 136.538,32.304zM 163.941,43.265L 191.343,43.265L 191.343,32.304L 163.941,32.304z" horiz-adv-x="246.327" />
<glyph unicode="&#x76;" d="M 27.3,180.918L 54.703,180.918L 54.703,169.958L 27.3,169.958zM 191.542,180.918L 218.943,180.918L 218.943,169.958L 191.542,169.958zM 27.3,153.516L 54.703,153.516L 54.703,142.555L 27.3,142.555zM 191.542,153.516L 218.943,153.516L 218.943,142.555L 191.542,142.555zM 27.3,126.114L 54.703,126.114L 54.703,115.154L 27.3,115.154zM 191.542,126.114L 218.943,126.114L 218.943,115.154L 191.542,115.154zM 54.702,98.712L 82.104,98.712L 82.104,87.752L 54.702,87.752zM 164.14,98.712L 191.542,98.712L 191.542,87.752L 164.14,87.752zM 82.104,71.312L 109.506,71.312L 109.506,60.35L 82.104,60.35zM 136.738,71.312L 164.139,71.312L 164.139,60.35L 136.738,60.35zM 109.337,43.909L 136.739,43.909L 136.739,32.949L 109.337,32.949z" horiz-adv-x="246.327" />
<glyph unicode="&#x75;" d="M 54.629,181.562L 82.031,181.562L 82.031,170.602L 54.629,170.602zM 164.067,181.562L 191.469,181.562L 191.469,170.602L 164.067,170.602zM 54.629,154.16L 82.031,154.16L 82.031,143.199L 54.629,143.199zM 164.067,154.16L 191.469,154.16L 191.469,143.199L 164.067,143.199zM 54.629,126.759L 82.031,126.759L 82.031,115.798L 54.629,115.798zM 164.067,126.759L 191.469,126.759L 191.469,115.798L 164.067,115.798zM 54.629,99.357L 82.031,99.357L 82.031,88.396L 54.629,88.396zM 164.067,99.357L 191.469,99.357L 191.469,88.396L 164.067,88.396zM 54.629,71.956L 82.031,71.956L 82.031,60.994L 54.629,60.994zM 164.067,71.956L 191.469,71.956L 191.469,60.994L 164.067,60.994zM 82.031,44.554L 109.433,44.554L 109.433,33.593L 82.031,33.593zM 136.664,44.554L 164.066,44.554L 164.066,33.593L 136.664,33.593zM 109.264,44.554L 136.666,44.554L 136.666,33.593L 109.264,33.593zM 191.467,44.554L 218.87,44.554L 218.87,33.593L 191.467,33.593z" horiz-adv-x="246.327" />
<glyph unicode="&#x74;" d="M 82.157,261.188L 109.559,261.188L 109.559,250.227L 82.157,250.227zM 82.157,233.787L 109.559,233.787L 109.559,222.825L 82.157,222.825zM 82.157,206.385L 109.559,206.385L 109.559,195.424L 82.157,195.424zM 82.157,178.985L 109.559,178.985L 109.559,168.023L 82.157,168.023zM 54.756,178.985L 82.158,178.985L 82.158,168.023L 54.756,168.023zM 109.39,178.985L 136.792,178.985L 136.792,168.023L 109.39,168.023zM 82.157,151.582L 109.559,151.582L 109.559,140.621L 82.157,140.621zM 82.157,124.181L 109.559,124.181L 109.559,113.221L 82.157,113.221zM 82.157,96.779L 109.559,96.779L 109.559,85.819L 82.157,85.819zM 82.157,69.378L 109.559,69.378L 109.559,58.416L 82.157,58.416zM 164.193,69.378L 191.596,69.378L 191.596,58.416L 164.193,58.416zM 136.79,41.976L 164.192,41.976L 164.192,31.015L 136.79,31.015zM 109.39,41.976L 136.792,41.976L 136.792,31.015L 109.39,31.015z" horiz-adv-x="246.327" />
<glyph unicode="&#x73;" d="M 82.104,181.992L 109.505,181.992L 109.505,171.031L 82.104,171.031zM 54.703,181.992L 82.105,181.992L 82.105,171.031L 54.703,171.031zM 136.738,181.992L 164.14,181.992L 164.14,171.031L 136.738,171.031zM 109.337,181.992L 136.739,181.992L 136.739,171.031L 109.337,171.031zM 164.14,181.992L 191.542,181.992L 191.542,171.031L 164.14,171.031zM 27.3,154.59L 54.703,154.59L 54.703,143.63L 27.3,143.63zM 191.541,154.59L 218.943,154.59L 218.943,143.63L 191.541,143.63zM 82.104,127.189L 109.505,127.189L 109.505,116.229L 82.104,116.229zM 54.703,127.189L 82.105,127.189L 82.105,116.229L 54.703,116.229zM 136.738,99.786L 164.14,99.786L 164.14,88.826L 136.738,88.826zM 109.337,99.786L 136.739,99.786L 136.739,88.826L 109.337,88.826zM 164.14,99.786L 191.542,99.786L 191.542,88.826L 164.14,88.826zM 27.3,72.386L 54.703,72.386L 54.703,61.424L 27.3,61.424zM 191.541,72.386L 218.943,72.386L 218.943,61.424L 191.541,61.424zM 82.104,44.984L 109.505,44.984L 109.505,34.023L 82.104,34.023zM 54.703,44.984L 82.105,44.984L 82.105,34.023L 54.703,34.023zM 136.738,44.984L 164.14,44.984L 164.14,34.023L 136.738,34.023zM 109.337,44.984L 136.739,44.984L 136.739,34.023L 109.337,34.023zM 164.14,44.984L 191.542,44.984L 191.542,34.023L 164.14,34.023z" horiz-adv-x="246.327" />
<glyph unicode="&#x72;" d="M 27.3,181.562L 54.703,181.562L 54.703,170.602L 27.3,170.602zM 136.738,181.562L 164.139,181.562L 164.139,170.602L 136.738,170.602zM 109.337,181.562L 136.739,181.562L 136.739,170.602L 109.337,170.602zM 164.14,181.562L 191.542,181.562L 191.542,170.602L 164.14,170.602zM 82.104,154.16L 109.506,154.16L 109.506,143.199L 82.104,143.199zM 54.702,154.16L 82.104,154.16L 82.104,143.199L 54.702,143.199zM 191.542,154.16L 218.943,154.16L 218.943,143.199L 191.542,143.199zM 54.702,126.759L 82.104,126.759L 82.104,115.798L 54.702,115.798zM 54.702,99.357L 82.104,99.357L 82.104,88.396L 54.702,88.396zM 54.702,71.956L 82.104,71.956L 82.104,60.994L 54.702,60.994zM 54.702,44.554L 82.104,44.554L 82.104,33.593L 54.702,33.593z" horiz-adv-x="246.327" />
<glyph unicode="&#x71;" d="M 82.104,182.851L 109.505,182.851L 109.505,171.891L 82.104,171.891zM 54.702,182.851L 82.104,182.851L 82.104,171.891L 54.702,171.891zM 136.738,182.851L 164.14,182.851L 164.14,171.891L 136.738,171.891zM 109.337,182.851L 136.738,182.851L 136.738,171.891L 109.337,171.891zM 191.542,182.851L 218.944,182.851L 218.944,171.891L 191.542,171.891zM 164.139,182.851L 191.541,182.851L 191.541,171.891L 164.139,171.891zM 27.3,155.449L 54.702,155.449L 54.702,144.488L 27.3,144.488zM 191.542,155.449L 218.944,155.449L 218.944,144.488L 191.542,144.488zM 27.3,128.048L 54.702,128.048L 54.702,117.087L 27.3,117.087zM 191.542,128.048L 218.944,128.048L 218.944,117.087L 191.542,117.087zM 27.3,100.646L 54.702,100.646L 54.702,89.685L 27.3,89.685zM 191.542,100.646L 218.944,100.646L 218.944,89.685L 191.542,89.685zM 27.3,73.245L 54.702,73.245L 54.702,62.283L 27.3,62.283zM 191.542,73.245L 218.944,73.245L 218.944,62.283L 191.542,62.283zM 82.104,45.843L 109.505,45.843L 109.505,34.882L 82.104,34.882zM 54.702,45.843L 82.104,45.843L 82.104,34.882L 54.702,34.882zM 136.738,45.843L 164.14,45.843L 164.14,34.882L 136.738,34.882zM 109.337,45.843L 136.738,45.843L 136.738,34.882L 109.337,34.882zM 191.542,45.843L 218.944,45.843L 218.944,34.882L 191.542,34.882zM 164.139,45.843L 191.541,45.843L 191.541,34.882L 164.139,34.882zM 191.542,18.442L 218.944,18.442L 218.944,7.479L 191.542,7.479zM 191.542-8.96L 218.944-8.96L 218.944-19.921L 191.542-19.921z" horiz-adv-x="246.327" />
<glyph unicode="&#x70;" d="M 27.353,180.918L 54.756,180.918L 54.756,169.957L 27.353,169.957zM 82.157,180.918L 109.559,180.918L 109.559,169.957L 82.157,169.957zM 54.756,180.918L 82.158,180.918L 82.158,169.957L 54.756,169.957zM 136.79,180.918L 164.192,180.918L 164.192,169.957L 136.79,169.957zM 109.39,180.918L 136.792,180.918L 136.792,169.957L 109.39,169.957zM 164.193,180.918L 191.596,180.918L 191.596,169.957L 164.193,169.957zM 27.353,153.516L 54.756,153.516L 54.756,142.555L 27.353,142.555zM 191.594,153.516L 218.996,153.516L 218.996,142.555L 191.594,142.555zM 27.353,126.114L 54.756,126.114L 54.756,115.154L 27.353,115.154zM 191.594,126.114L 218.996,126.114L 218.996,115.154L 191.594,115.154zM 27.353,98.712L 54.756,98.712L 54.756,87.752L 27.353,87.752zM 191.594,98.712L 218.996,98.712L 218.996,87.752L 191.594,87.752zM 27.353,71.312L 54.756,71.312L 54.756,60.349L 27.353,60.349zM 191.594,71.312L 218.996,71.312L 218.996,60.349L 191.594,60.349zM 27.353,43.909L 54.756,43.909L 54.756,32.949L 27.353,32.949zM 82.157,43.909L 109.559,43.909L 109.559,32.949L 82.157,32.949zM 54.756,43.909L 82.158,43.909L 82.158,32.949L 54.756,32.949zM 136.79,43.909L 164.192,43.909L 164.192,32.949L 136.79,32.949zM 109.39,43.909L 136.792,43.909L 136.792,32.949L 109.39,32.949zM 164.193,43.909L 191.596,43.909L 191.596,32.949L 164.193,32.949zM 27.353,16.508L 54.756,16.508L 54.756,5.546L 27.353,5.546zM 27.353-10.893L 54.756-10.893L 54.756-21.854L 27.353-21.854z" horiz-adv-x="246.327" />
<glyph unicode="&#x6f;" d="M 82.104,180.918L 109.506,180.918L 109.506,169.958L 82.104,169.958zM 54.702,180.918L 82.104,180.918L 82.104,169.958L 54.702,169.958zM 136.738,180.918L 164.139,180.918L 164.139,169.958L 136.738,169.958zM 109.337,180.918L 136.739,180.918L 136.739,169.958L 109.337,169.958zM 164.14,180.918L 191.542,180.918L 191.542,169.958L 164.14,169.958zM 27.3,153.516L 54.703,153.516L 54.703,142.555L 27.3,142.555zM 191.542,153.516L 218.943,153.516L 218.943,142.555L 191.542,142.555zM 27.3,126.114L 54.703,126.114L 54.703,115.154L 27.3,115.154zM 191.542,126.114L 218.943,126.114L 218.943,115.154L 191.542,115.154zM 27.3,98.712L 54.703,98.712L 54.703,87.752L 27.3,87.752zM 191.542,98.712L 218.943,98.712L 218.943,87.752L 191.542,87.752zM 27.3,71.312L 54.703,71.312L 54.703,60.35L 27.3,60.35zM 191.542,71.312L 218.943,71.312L 218.943,60.35L 191.542,60.35zM 82.104,43.909L 109.506,43.909L 109.506,32.949L 82.104,32.949zM 54.702,43.909L 82.104,43.909L 82.104,32.949L 54.702,32.949zM 136.738,43.909L 164.139,43.909L 164.139,32.949L 136.738,32.949zM 109.337,43.909L 136.739,43.909L 136.739,32.949L 109.337,32.949zM 164.14,43.909L 191.542,43.909L 191.542,32.949L 164.14,32.949z" horiz-adv-x="246.327" />
<glyph unicode="&#x6e;" d="M 27.3,182.207L 54.703,182.207L 54.703,171.246L 27.3,171.246zM 136.738,182.207L 164.139,182.207L 164.139,171.246L 136.738,171.246zM 109.337,182.207L 136.739,182.207L 136.739,171.246L 109.337,171.246zM 164.14,182.207L 191.542,182.207L 191.542,171.246L 164.14,171.246zM 82.104,154.805L 109.506,154.805L 109.506,143.844L 82.104,143.844zM 54.702,154.805L 82.104,154.805L 82.104,143.844L 54.702,143.844zM 191.542,154.805L 218.943,154.805L 218.943,143.844L 191.542,143.844zM 54.702,127.404L 82.104,127.404L 82.104,116.443L 54.702,116.443zM 191.542,127.404L 218.943,127.404L 218.943,116.443L 191.542,116.443zM 54.702,100.001L 82.104,100.001L 82.104,89.041L 54.702,89.041zM 191.542,100.001L 218.943,100.001L 218.943,89.041L 191.542,89.041zM 54.702,72.6L 82.104,72.6L 82.104,61.639L 54.702,61.639zM 191.542,72.6L 218.943,72.6L 218.943,61.639L 191.542,61.639zM 54.702,45.198L 82.104,45.198L 82.104,34.238L 54.702,34.238zM 191.542,45.198L 218.943,45.198L 218.943,34.238L 191.542,34.238z" horiz-adv-x="246.327" />
<glyph unicode="&#x6d;" d="M 27.3,181.562L 54.703,181.562L 54.703,170.601L 27.3,170.601zM 54.702,181.562L 82.104,181.562L 82.104,170.601L 54.702,170.601zM 164.14,181.562L 191.542,181.562L 191.542,170.601L 164.14,170.601zM 27.3,154.16L 54.703,154.16L 54.703,143.199L 27.3,143.199zM 82.104,154.16L 109.506,154.16L 109.506,143.199L 82.104,143.199zM 136.738,154.16L 164.139,154.16L 164.139,143.199L 136.738,143.199zM 109.337,154.16L 136.739,154.16L 136.739,143.199L 109.337,143.199zM 191.541,154.16L 218.943,154.16L 218.943,143.199L 191.541,143.199zM 27.3,126.759L 54.703,126.759L 54.703,115.798L 27.3,115.798zM 109.337,126.759L 136.739,126.759L 136.739,115.798L 109.337,115.798zM 191.541,126.759L 218.943,126.759L 218.943,115.798L 191.541,115.798zM 27.3,99.357L 54.703,99.357L 54.703,88.396L 27.3,88.396zM 109.337,99.357L 136.739,99.357L 136.739,88.396L 109.337,88.396zM 191.541,99.357L 218.943,99.357L 218.943,88.396L 191.541,88.396zM 27.3,71.956L 54.703,71.956L 54.703,60.993L 27.3,60.993zM 191.541,71.956L 218.943,71.956L 218.943,60.993L 191.541,60.993zM 27.3,44.554L 54.703,44.554L 54.703,33.593L 27.3,33.593zM 191.541,44.554L 218.943,44.554L 218.943,33.593L 191.541,33.593z" horiz-adv-x="246.327" />
<glyph unicode="&#x6c;" d="M 82.104,263.766L 109.506,263.766L 109.506,252.805L 82.104,252.805zM 109.337,263.766L 136.739,263.766L 136.739,252.805L 109.337,252.805zM 109.337,236.365L 136.739,236.365L 136.739,225.403L 109.337,225.403zM 109.337,208.962L 136.739,208.962L 136.739,198.002L 109.337,198.002zM 109.337,181.562L 136.739,181.562L 136.739,170.602L 109.337,170.602zM 109.337,154.16L 136.739,154.16L 136.739,143.199L 109.337,143.199zM 109.337,126.759L 136.739,126.759L 136.739,115.798L 109.337,115.798zM 109.337,99.357L 136.739,99.357L 136.739,88.396L 109.337,88.396zM 109.337,71.956L 136.739,71.956L 136.739,60.994L 109.337,60.994zM 191.542,71.956L 218.943,71.956L 218.943,60.994L 191.542,60.994zM 136.738,44.554L 164.139,44.554L 164.139,33.593L 136.738,33.593zM 164.14,44.554L 191.542,44.554L 191.542,33.593L 164.14,33.593z" horiz-adv-x="246.327" />
<glyph unicode="&#x6b;" d="M 54.703,263.766L 82.104,263.766L 82.104,252.805L 54.703,252.805zM 54.703,236.365L 82.104,236.365L 82.104,225.403L 54.703,225.403zM 54.703,208.962L 82.104,208.962L 82.104,198.002L 54.703,198.002zM 54.703,181.562L 82.104,181.562L 82.104,170.602L 54.703,170.602zM 136.738,181.562L 164.139,181.562L 164.139,170.602L 136.738,170.602zM 164.14,181.562L 191.542,181.562L 191.542,170.602L 164.14,170.602zM 54.703,154.16L 82.104,154.16L 82.104,143.199L 54.703,143.199zM 109.337,154.16L 136.739,154.16L 136.739,143.199L 109.337,143.199zM 82.104,126.759L 109.505,126.759L 109.505,115.798L 82.104,115.798zM 54.703,126.759L 82.104,126.759L 82.104,115.798L 54.703,115.798zM 54.703,99.357L 82.104,99.357L 82.104,88.396L 54.703,88.396zM 109.337,99.357L 136.739,99.357L 136.739,88.396L 109.337,88.396zM 54.703,71.956L 82.104,71.956L 82.104,60.994L 54.703,60.994zM 136.738,71.956L 164.139,71.956L 164.139,60.994L 136.738,60.994zM 54.703,44.554L 82.104,44.554L 82.104,33.593L 54.703,33.593zM 136.738,44.554L 164.139,44.554L 164.139,33.593L 136.738,33.593zM 164.14,44.554L 191.542,44.554L 191.542,33.593L 164.14,33.593z" horiz-adv-x="246.327" />
<glyph unicode="&#x6a;" d="M 136.664,237.010L 164.066,237.010L 164.066,226.047L 136.664,226.047zM 136.664,182.207L 164.066,182.207L 164.066,171.245L 136.664,171.245zM 109.264,182.207L 136.666,182.207L 136.666,171.245L 109.264,171.245zM 136.664,154.805L 164.066,154.805L 164.066,143.844L 136.664,143.844zM 136.664,127.404L 164.066,127.404L 164.066,116.443L 136.664,116.443zM 136.664,100.001L 164.066,100.001L 164.066,89.041L 136.664,89.041zM 136.664,72.6L 164.066,72.6L 164.066,61.638L 136.664,61.638zM 136.664,45.198L 164.066,45.198L 164.066,34.238L 136.664,34.238zM 54.629,17.797L 82.031,17.797L 82.031,6.835L 54.629,6.835zM 136.664,17.797L 164.066,17.797L 164.066,6.835L 136.664,6.835zM 82.031-9.604L 109.433-9.604L 109.433-20.565L 82.031-20.565zM 109.264-9.604L 136.666-9.604L 136.666-20.565L 109.264-20.565z" horiz-adv-x="246.327" />
<glyph unicode="&#x69;" d="M 109.337,237.654L 136.739,237.654L 136.739,226.692L 109.337,226.692zM 82.104,182.851L 109.506,182.851L 109.506,171.891L 82.104,171.891zM 109.337,182.851L 136.739,182.851L 136.739,171.891L 109.337,171.891zM 109.337,155.449L 136.739,155.449L 136.739,144.488L 109.337,144.488zM 109.337,128.048L 136.739,128.048L 136.739,117.087L 109.337,117.087zM 109.337,100.646L 136.739,100.646L 136.739,89.685L 109.337,89.685zM 109.337,73.245L 136.739,73.245L 136.739,62.283L 109.337,62.283zM 82.104,45.843L 109.506,45.843L 109.506,34.882L 82.104,34.882zM 136.738,45.843L 164.139,45.843L 164.139,34.882L 136.738,34.882zM 109.337,45.843L 136.739,45.843L 136.739,34.882L 109.337,34.882z" horiz-adv-x="246.327" />
<glyph unicode="&#x68;" d="M 27.226,263.122L 54.628,263.122L 54.628,252.161L 27.226,252.161zM 27.226,235.721L 54.628,235.721L 54.628,224.758L 27.226,224.758zM 27.226,208.318L 54.628,208.318L 54.628,197.357L 27.226,197.357zM 27.226,180.918L 54.628,180.918L 54.628,169.958L 27.226,169.958zM 82.030,180.918L 109.432,180.918L 109.432,169.958L 82.030,169.958zM 136.663,180.918L 164.064,180.918L 164.064,169.958L 136.663,169.958zM 109.263,180.918L 136.665,180.918L 136.665,169.958L 109.263,169.958zM 164.066,180.918L 191.468,180.918L 191.468,169.958L 164.066,169.958zM 27.226,153.516L 54.628,153.516L 54.628,142.555L 27.226,142.555zM 54.628,153.516L 82.030,153.516L 82.030,142.555L 54.628,142.555zM 191.467,153.516L 218.868,153.516L 218.868,142.555L 191.467,142.555zM 27.226,126.114L 54.628,126.114L 54.628,115.154L 27.226,115.154zM 191.467,126.114L 218.868,126.114L 218.868,115.154L 191.467,115.154zM 27.226,98.712L 54.628,98.712L 54.628,87.752L 27.226,87.752zM 191.467,98.712L 218.868,98.712L 218.868,87.752L 191.467,87.752zM 27.226,71.312L 54.628,71.312L 54.628,60.35L 27.226,60.35zM 191.467,71.312L 218.868,71.312L 218.868,60.35L 191.467,60.35zM 27.226,43.909L 54.628,43.909L 54.628,32.949L 27.226,32.949zM 191.467,43.909L 218.868,43.909L 218.868,32.949L 191.467,32.949z" horiz-adv-x="246.327" />
<glyph unicode="&#x67;" d="M 82.157,182.207L 109.559,182.207L 109.559,171.246L 82.157,171.246zM 54.756,182.207L 82.158,182.207L 82.158,171.246L 54.756,171.246zM 136.79,182.207L 164.193,182.207L 164.193,171.246L 136.79,171.246zM 109.39,182.207L 136.792,182.207L 136.792,171.246L 109.39,171.246zM 164.193,182.207L 191.596,182.207L 191.596,171.246L 164.193,171.246zM 27.353,154.805L 54.756,154.805L 54.756,143.844L 27.353,143.844zM 191.594,154.805L 218.997,154.805L 218.997,143.844L 191.594,143.844zM 27.353,127.404L 54.756,127.404L 54.756,116.443L 27.353,116.443zM 191.594,127.404L 218.997,127.404L 218.997,116.443L 191.594,116.443zM 27.353,100.001L 54.756,100.001L 54.756,89.041L 27.353,89.041zM 191.594,100.001L 218.997,100.001L 218.997,89.041L 191.594,89.041zM 82.157,72.6L 109.559,72.6L 109.559,61.639L 82.157,61.639zM 54.756,72.6L 82.158,72.6L 82.158,61.639L 54.756,61.639zM 136.79,72.6L 164.193,72.6L 164.193,61.639L 136.79,61.639zM 109.39,72.6L 136.792,72.6L 136.792,61.639L 109.39,61.639zM 191.594,72.6L 218.997,72.6L 218.997,61.639L 191.594,61.639zM 164.193,72.6L 191.596,72.6L 191.596,61.639L 164.193,61.639zM 191.594,45.198L 218.997,45.198L 218.997,34.238L 191.594,34.238zM 191.594,17.797L 218.997,17.797L 218.997,6.835L 191.594,6.835zM 82.157-9.604L 109.559-9.604L 109.559-20.565L 82.157-20.565zM 54.756-9.604L 82.158-9.604L 82.158-20.565L 54.756-20.565zM 136.79-9.604L 164.193-9.604L 164.193-20.565L 136.79-20.565zM 109.39-9.604L 136.792-9.604L 136.792-20.565L 109.39-20.565zM 164.193-9.604L 191.596-9.604L 191.596-20.565L 164.193-20.565z" horiz-adv-x="246.327" />
<glyph unicode="&#x66;" d="M 136.738,264.41L 164.139,264.41L 164.139,253.45L 136.738,253.45zM 109.338,264.41L 136.739,264.41L 136.739,253.45L 109.338,253.45zM 82.104,237.010L 109.506,237.010L 109.506,226.047L 82.104,226.047zM 164.14,237.010L 191.542,237.010L 191.542,226.047L 164.14,226.047zM 82.104,209.607L 109.506,209.607L 109.506,198.646L 82.104,198.646zM 82.104,182.207L 109.506,182.207L 109.506,171.245L 82.104,171.245zM 82.104,154.805L 109.506,154.805L 109.506,143.844L 82.104,143.844zM 54.702,154.805L 82.104,154.805L 82.104,143.844L 54.702,143.844zM 109.338,154.805L 136.739,154.805L 136.739,143.844L 109.338,143.844zM 82.104,127.404L 109.506,127.404L 109.506,116.443L 82.104,116.443zM 82.104,100.001L 109.506,100.001L 109.506,89.041L 82.104,89.041zM 82.104,72.6L 109.506,72.6L 109.506,61.638L 82.104,61.638zM 82.104,45.198L 109.506,45.198L 109.506,34.238L 82.104,34.238z" horiz-adv-x="246.327" />
<glyph unicode="&#x65;" d="M 82.104,181.562L 109.506,181.562L 109.506,170.602L 82.104,170.602zM 54.702,181.562L 82.104,181.562L 82.104,170.602L 54.702,170.602zM 136.738,181.562L 164.139,181.562L 164.139,170.602L 136.738,170.602zM 109.337,181.562L 136.739,181.562L 136.739,170.602L 109.337,170.602zM 164.14,181.562L 191.542,181.562L 191.542,170.602L 164.14,170.602zM 27.3,154.16L 54.703,154.16L 54.703,143.199L 27.3,143.199zM 191.542,154.16L 218.943,154.16L 218.943,143.199L 191.542,143.199zM 27.3,126.759L 54.703,126.759L 54.703,115.798L 27.3,115.798zM 82.104,126.759L 109.506,126.759L 109.506,115.798L 82.104,115.798zM 54.702,126.759L 82.104,126.759L 82.104,115.798L 54.702,115.798zM 136.738,126.759L 164.139,126.759L 164.139,115.798L 136.738,115.798zM 109.337,126.759L 136.739,126.759L 136.739,115.798L 109.337,115.798zM 191.542,126.759L 218.943,126.759L 218.943,115.798L 191.542,115.798zM 164.14,126.759L 191.542,126.759L 191.542,115.798L 164.14,115.798zM 27.3,99.357L 54.703,99.357L 54.703,88.396L 27.3,88.396zM 27.3,71.956L 54.703,71.956L 54.703,60.994L 27.3,60.994zM 191.542,71.956L 218.943,71.956L 218.943,60.994L 191.542,60.994zM 82.104,44.554L 109.506,44.554L 109.506,33.593L 82.104,33.593zM 54.702,44.554L 82.104,44.554L 82.104,33.593L 54.702,33.593zM 136.738,44.554L 164.139,44.554L 164.139,33.593L 136.738,33.593zM 109.337,44.554L 136.739,44.554L 136.739,33.593L 109.337,33.593zM 164.14,44.554L 191.542,44.554L 191.542,33.593L 164.14,33.593z" horiz-adv-x="246.327" />
<glyph unicode="&#xe9;" d="M 136.738,263.766L 164.14,263.766L 164.14,252.805L 136.738,252.805zM 164.139,263.766L 191.541,263.766L 191.541,252.805L 164.139,252.805zM 109.337,236.365L 136.738,236.365L 136.738,225.403L 109.337,225.403zM 82.104,181.562L 109.505,181.562L 109.505,170.602L 82.104,170.602zM 54.702,181.562L 82.104,181.562L 82.104,170.602L 54.702,170.602zM 136.738,181.562L 164.14,181.562L 164.14,170.602L 136.738,170.602zM 109.337,181.562L 136.738,181.562L 136.738,170.602L 109.337,170.602zM 164.139,181.562L 191.541,181.562L 191.541,170.602L 164.139,170.602zM 27.3,154.16L 54.702,154.16L 54.702,143.199L 27.3,143.199zM 191.542,154.16L 218.944,154.16L 218.944,143.199L 191.542,143.199zM 27.3,126.759L 54.702,126.759L 54.702,115.798L 27.3,115.798zM 82.104,126.759L 109.505,126.759L 109.505,115.798L 82.104,115.798zM 54.702,126.759L 82.104,126.759L 82.104,115.798L 54.702,115.798zM 136.738,126.759L 164.14,126.759L 164.14,115.798L 136.738,115.798zM 109.337,126.759L 136.738,126.759L 136.738,115.798L 109.337,115.798zM 191.542,126.759L 218.944,126.759L 218.944,115.798L 191.542,115.798zM 164.139,126.759L 191.541,126.759L 191.541,115.798L 164.139,115.798zM 27.3,99.357L 54.702,99.357L 54.702,88.396L 27.3,88.396zM 27.3,71.956L 54.702,71.956L 54.702,60.994L 27.3,60.994zM 191.542,71.956L 218.944,71.956L 218.944,60.994L 191.542,60.994zM 82.104,44.554L 109.505,44.554L 109.505,33.593L 82.104,33.593zM 54.702,44.554L 82.104,44.554L 82.104,33.593L 54.702,33.593zM 136.738,44.554L 164.14,44.554L 164.14,33.593L 136.738,33.593zM 109.337,44.554L 136.738,44.554L 136.738,33.593L 109.337,33.593zM 164.139,44.554L 191.541,44.554L 191.541,33.593L 164.139,33.593z" horiz-adv-x="246.327"  />
<glyph unicode="&#xe8;" d="M 82.157,264.41L 109.559,264.41L 109.559,253.45L 82.157,253.45zM 54.756,264.41L 82.158,264.41L 82.158,253.45L 54.756,253.45zM 109.39,237.010L 136.792,237.010L 136.792,226.047L 109.39,226.047zM 82.157,182.207L 109.559,182.207L 109.559,171.246L 82.157,171.246zM 54.756,182.207L 82.158,182.207L 82.158,171.246L 54.756,171.246zM 136.79,182.207L 164.193,182.207L 164.193,171.246L 136.79,171.246zM 109.39,182.207L 136.792,182.207L 136.792,171.246L 109.39,171.246zM 164.193,182.207L 191.595,182.207L 191.595,171.246L 164.193,171.246zM 27.353,154.805L 54.756,154.805L 54.756,143.844L 27.353,143.844zM 191.594,154.805L 218.997,154.805L 218.997,143.844L 191.594,143.844zM 27.353,127.404L 54.756,127.404L 54.756,116.443L 27.353,116.443zM 82.157,127.404L 109.559,127.404L 109.559,116.443L 82.157,116.443zM 54.756,127.404L 82.158,127.404L 82.158,116.443L 54.756,116.443zM 136.79,127.404L 164.193,127.404L 164.193,116.443L 136.79,116.443zM 109.39,127.404L 136.792,127.404L 136.792,116.443L 109.39,116.443zM 191.594,127.404L 218.997,127.404L 218.997,116.443L 191.594,116.443zM 164.193,127.404L 191.595,127.404L 191.595,116.443L 164.193,116.443zM 27.353,100.001L 54.756,100.001L 54.756,89.041L 27.353,89.041zM 27.353,72.6L 54.756,72.6L 54.756,61.639L 27.353,61.639zM 191.594,72.6L 218.997,72.6L 218.997,61.639L 191.594,61.639zM 82.157,45.198L 109.559,45.198L 109.559,34.238L 82.157,34.238zM 54.756,45.198L 82.158,45.198L 82.158,34.238L 54.756,34.238zM 136.79,45.198L 164.193,45.198L 164.193,34.238L 136.79,34.238zM 109.39,45.198L 136.792,45.198L 136.792,34.238L 109.39,34.238zM 164.193,45.198L 191.595,45.198L 191.595,34.238L 164.193,34.238z" horiz-adv-x="246.327"  />
<glyph unicode="&#x64;" d="M 164.194,264.41L 191.596,264.41L 191.596,253.45L 164.194,253.45zM 164.194,237.010L 191.596,237.010L 191.596,226.047L 164.194,226.047zM 164.194,209.607L 191.596,209.607L 191.596,198.646L 164.194,198.646zM 82.158,182.207L 109.559,182.207L 109.559,171.246L 82.158,171.246zM 136.791,182.207L 164.193,182.207L 164.193,171.246L 136.791,171.246zM 109.391,182.207L 136.792,182.207L 136.792,171.246L 109.391,171.246zM 164.194,182.207L 191.596,182.207L 191.596,171.246L 164.194,171.246zM 54.756,154.805L 82.159,154.805L 82.159,143.844L 54.756,143.844zM 164.194,154.805L 191.596,154.805L 191.596,143.844L 164.194,143.844zM 54.756,127.404L 82.159,127.404L 82.159,116.443L 54.756,116.443zM 164.194,127.404L 191.596,127.404L 191.596,116.443L 164.194,116.443zM 54.756,100.001L 82.159,100.001L 82.159,89.041L 54.756,89.041zM 164.194,100.001L 191.596,100.001L 191.596,89.041L 164.194,89.041zM 54.756,72.6L 82.159,72.6L 82.159,61.639L 54.756,61.639zM 164.194,72.6L 191.596,72.6L 191.596,61.639L 164.194,61.639zM 82.158,45.198L 109.559,45.198L 109.559,34.238L 82.158,34.238zM 136.791,45.198L 164.193,45.198L 164.193,34.238L 136.791,34.238zM 109.391,45.198L 136.792,45.198L 136.792,34.238L 109.391,34.238zM 191.595,45.198L 218.997,45.198L 218.997,34.238L 191.595,34.238z" horiz-adv-x="246.327" />
<glyph unicode="&#x63;" d="M 82.157,182.207L 109.559,182.207L 109.559,171.246L 82.157,171.246zM 54.756,182.207L 82.158,182.207L 82.158,171.246L 54.756,171.246zM 136.79,182.207L 164.193,182.207L 164.193,171.246L 136.79,171.246zM 109.39,182.207L 136.792,182.207L 136.792,171.246L 109.39,171.246zM 164.193,182.207L 191.596,182.207L 191.596,171.246L 164.193,171.246zM 27.353,154.805L 54.756,154.805L 54.756,143.844L 27.353,143.844zM 191.594,154.805L 218.997,154.805L 218.997,143.844L 191.594,143.844zM 27.353,127.404L 54.756,127.404L 54.756,116.443L 27.353,116.443zM 27.353,100.001L 54.756,100.001L 54.756,89.041L 27.353,89.041zM 27.353,72.6L 54.756,72.6L 54.756,61.639L 27.353,61.639zM 191.594,72.6L 218.997,72.6L 218.997,61.639L 191.594,61.639zM 82.157,45.198L 109.559,45.198L 109.559,34.238L 82.157,34.238zM 54.756,45.198L 82.158,45.198L 82.158,34.238L 54.756,34.238zM 136.79,45.198L 164.193,45.198L 164.193,34.238L 136.79,34.238zM 109.39,45.198L 136.792,45.198L 136.792,34.238L 109.39,34.238zM 164.193,45.198L 191.596,45.198L 191.596,34.238L 164.193,34.238z" horiz-adv-x="246.327" />
<glyph unicode="&#xe7;" d="M 82.157,180.918L 109.559,180.918L 109.559,169.958L 82.157,169.958zM 54.756,180.918L 82.158,180.918L 82.158,169.958L 54.756,169.958zM 136.79,180.918L 164.193,180.918L 164.193,169.958L 136.79,169.958zM 109.39,180.918L 136.792,180.918L 136.792,169.958L 109.39,169.958zM 164.193,180.918L 191.596,180.918L 191.596,169.958L 164.193,169.958zM 27.353,153.516L 54.756,153.516L 54.756,142.555L 27.353,142.555zM 191.594,153.516L 218.997,153.516L 218.997,142.555L 191.594,142.555zM 27.353,126.114L 54.756,126.114L 54.756,115.154L 27.353,115.154zM 27.353,98.712L 54.756,98.712L 54.756,87.752L 27.353,87.752zM 27.353,71.312L 54.756,71.312L 54.756,60.35L 27.353,60.35zM 191.594,71.312L 218.997,71.312L 218.997,60.35L 191.594,60.35zM 82.157,43.909L 109.559,43.909L 109.559,32.949L 82.157,32.949zM 54.756,43.909L 82.158,43.909L 82.158,32.949L 54.756,32.949zM 136.79,43.909L 164.193,43.909L 164.193,32.949L 136.79,32.949zM 109.39,43.909L 136.792,43.909L 136.792,32.949L 109.39,32.949zM 164.193,43.909L 191.596,43.909L 191.596,32.949L 164.193,32.949zM 164.193,16.508L 191.596,16.508L 191.596,5.546L 164.193,5.546zM 82.157-10.893L 109.559-10.893L 109.559-21.854L 82.157-21.854zM 54.756-10.893L 82.158-10.893L 82.158-21.854L 54.756-21.854zM 136.79-10.893L 164.193-10.893L 164.193-21.854L 136.79-21.854zM 109.39-10.893L 136.792-10.893L 136.792-21.854L 109.39-21.854z" horiz-adv-x="246.327"  />
</font>
</defs>
</svg>
