<?xml version="1.0" standalone="no"?>
<!DOCTYPE svg PUBLIC "-//W3C//DTD SVG 1.1//EN" "http://www.w3.org/Graphics/SVG/1.1/DTD/svg11.dtd" >
<svg xmlns="http://www.w3.org/2000/svg">
<metadata>
This is a custom SVG font generated by IcoMoon.
<iconset grid="16"></iconset>
</metadata>
<defs>
<font id="icomoon" horiz-adv-x="512" >
<font-face units-per-em="512" ascent="480" descent="-32" />
<missing-glyph horiz-adv-x="512" />
<glyph class="hidden" unicode="&#xf000;" d="M0,480L 512 -32L0 -32 z" horiz-adv-x="0" />
<glyph unicode="&#x5a;" d="M 31.974,423.567L 63.974,423.567L 63.974,410.766L 31.974,410.766zM 95.975,423.567L 127.977,423.567L 127.977,410.766L 95.975,410.766zM 63.975,423.567L 95.976,423.567L 95.976,410.766L 63.975,410.766zM 159.779,423.567L 191.78,423.567L 191.78,410.766L 159.779,410.766zM 127.779,423.567L 159.779,423.567L 159.779,410.766L 127.779,410.766zM 223.781,423.567L 255.782,423.567L 255.782,410.766L 223.781,410.766zM 191.779,423.567L 223.781,423.567L 223.781,410.766L 191.779,410.766zM 31.974,380.676L 63.974,380.676L 63.974,367.876L 31.974,367.876zM 223.781,380.676L 255.782,380.676L 255.782,367.876L 223.781,367.876zM 191.779,337.786L 223.781,337.786L 223.781,324.986L 191.779,324.986zM 159.779,294.895L 191.78,294.895L 191.78,282.095L 159.779,282.095zM 127.779,252.006L 159.779,252.006L 159.779,239.205L 127.779,239.205zM 95.975,209.114L 127.977,209.114L 127.977,196.314L 95.975,196.314zM 63.975,166.225L 95.976,166.225L 95.976,153.425L 63.975,153.425zM 31.974,123.336L 63.974,123.336L 63.974,110.534L 31.974,110.534zM 223.781,123.336L 255.782,123.336L 255.782,110.534L 223.781,110.534zM 31.974,80.443L 63.974,80.443L 63.974,67.643L 31.974,67.643zM 95.975,80.443L 127.977,80.443L 127.977,67.643L 95.975,67.643zM 63.975,80.443L 95.976,80.443L 95.976,67.643L 63.975,67.643zM 159.779,80.443L 191.78,80.443L 191.78,67.643L 159.779,67.643zM 127.779,80.443L 159.779,80.443L 159.779,67.643L 127.779,67.643zM 223.781,80.443L 255.782,80.443L 255.782,67.643L 223.781,67.643zM 191.779,80.443L 223.781,80.443L 223.781,67.643L 191.779,67.643z" horiz-adv-x="287.624" />
<glyph unicode="&#x58;" d="M 31.578,423.567L 63.579,423.567L 63.579,410.766L 31.578,410.766zM 223.385,423.567L 255.386,423.567L 255.386,410.766L 223.385,410.766zM 31.578,380.676L 63.579,380.676L 63.579,367.876L 31.578,367.876zM 223.385,380.676L 255.386,380.676L 255.386,367.876L 223.385,367.876zM 63.58,337.786L 95.58,337.786L 95.58,324.986L 63.58,324.986zM 191.384,337.786L 223.386,337.786L 223.386,324.986L 191.384,324.986zM 95.579,294.895L 127.581,294.895L 127.581,282.095L 95.579,282.095zM 159.383,294.895L 191.384,294.895L 191.384,282.095L 159.383,282.095zM 127.383,252.006L 159.384,252.006L 159.384,239.205L 127.383,239.205zM 95.579,209.114L 127.581,209.114L 127.581,196.314L 95.579,196.314zM 159.383,209.114L 191.384,209.114L 191.384,196.314L 159.383,196.314zM 63.58,166.225L 95.58,166.225L 95.58,153.425L 63.58,153.425zM 191.384,166.225L 223.386,166.225L 223.386,153.425L 191.384,153.425zM 31.578,123.335L 63.579,123.335L 63.579,110.534L 31.578,110.534zM 223.385,123.335L 255.386,123.335L 255.386,110.534L 223.385,110.534zM 31.578,80.443L 63.579,80.443L 63.579,67.643L 31.578,67.643zM 223.385,80.443L 255.386,80.443L 255.386,67.643L 223.385,67.643z" horiz-adv-x="287.624" />
<glyph unicode="&#x57;" d="M 31.562,423.307L 63.563,423.307L 63.563,410.507L 31.562,410.507zM 223.368,423.307L 255.369,423.307L 255.369,410.507L 223.368,410.507zM 31.562,380.416L 63.563,380.416L 63.563,367.616L 31.562,367.616zM 223.368,380.416L 255.369,380.416L 255.369,367.616L 223.368,367.616zM 31.562,337.526L 63.563,337.526L 63.563,324.725L 31.562,324.725zM 223.368,337.526L 255.369,337.526L 255.369,324.725L 223.368,324.725zM 31.562,294.636L 63.563,294.636L 63.563,281.835L 31.562,281.835zM 223.368,294.636L 255.369,294.636L 255.369,281.835L 223.368,281.835zM 31.562,251.747L 63.563,251.747L 63.563,238.945L 31.562,238.945zM 127.367,251.747L 159.368,251.747L 159.368,238.945L 127.367,238.945zM 223.368,251.747L 255.369,251.747L 255.369,238.945L 223.368,238.945zM 31.562,208.856L 63.563,208.856L 63.563,196.055L 31.562,196.055zM 95.563,208.856L 127.564,208.856L 127.564,196.055L 95.563,196.055zM 159.367,208.856L 191.368,208.856L 191.368,196.055L 159.367,196.055zM 127.367,208.856L 159.368,208.856L 159.368,196.055L 127.367,196.055zM 223.368,208.856L 255.369,208.856L 255.369,196.055L 223.368,196.055zM 31.562,165.966L 63.563,165.966L 63.563,153.166L 31.562,153.166zM 95.563,165.966L 127.564,165.966L 127.564,153.166L 95.563,153.166zM 63.563,165.966L 95.564,165.966L 95.564,153.166L 63.563,153.166zM 159.367,165.966L 191.368,165.966L 191.368,153.166L 159.367,153.166zM 223.368,165.966L 255.369,165.966L 255.369,153.166L 223.368,153.166zM 191.368,165.966L 223.368,165.966L 223.368,153.166L 191.368,153.166zM 31.562,123.075L 63.563,123.075L 63.563,110.275L 31.562,110.275zM 63.563,123.075L 95.564,123.075L 95.564,110.275L 63.563,110.275zM 223.368,123.075L 255.369,123.075L 255.369,110.275L 223.368,110.275zM 191.368,123.075L 223.368,123.075L 223.368,110.275L 191.368,110.275zM 31.562,80.184L 63.563,80.184L 63.563,67.384L 31.562,67.384zM 223.368,80.184L 255.369,80.184L 255.369,67.384L 223.368,67.384z" horiz-adv-x="287.624" />
<glyph unicode="&#x56;" d="M 32.194,423.567L 64.195,423.567L 64.195,410.766L 32.194,410.766zM 224.002,423.567L 256.002,423.567L 256.002,410.766L 224.002,410.766zM 32.194,380.676L 64.195,380.676L 64.195,367.876L 32.194,367.876zM 224.002,380.676L 256.002,380.676L 256.002,367.876L 224.002,367.876zM 32.194,337.786L 64.195,337.786L 64.195,324.986L 32.194,324.986zM 224.002,337.786L 256.002,337.786L 256.002,324.986L 224.002,324.986zM 32.194,294.895L 64.195,294.895L 64.195,282.095L 32.194,282.095zM 224.002,294.895L 256.002,294.895L 256.002,282.095L 224.002,282.095zM 32.194,252.006L 64.195,252.006L 64.195,239.205L 32.194,239.205zM 224.002,252.006L 256.002,252.006L 256.002,239.205L 224.002,239.205zM 32.194,209.114L 64.195,209.114L 64.195,196.314L 32.194,196.314zM 224.002,209.114L 256.002,209.114L 256.002,196.314L 224.002,196.314zM 64.196,166.225L 96.197,166.225L 96.197,153.425L 64.196,153.425zM 192,166.225L 224.002,166.225L 224.002,153.425L 192,153.425zM 96.196,123.335L 128.197,123.335L 128.197,110.534L 96.196,110.534zM 159.999,123.335L 192.001,123.335L 192.001,110.534L 159.999,110.534zM 127.999,80.443L 159.999,80.443L 159.999,67.643L 127.999,67.643z" horiz-adv-x="287.624" />
<glyph unicode="&#x55;" d="M 31.73,423.567L 63.731,423.567L 63.731,410.766L 31.73,410.766zM 223.537,423.567L 255.538,423.567L 255.538,410.766L 223.537,410.766zM 31.73,380.676L 63.731,380.676L 63.731,367.876L 31.73,367.876zM 223.537,380.676L 255.538,380.676L 255.538,367.876L 223.537,367.876zM 31.73,337.786L 63.731,337.786L 63.731,324.986L 31.73,324.986zM 223.537,337.786L 255.538,337.786L 255.538,324.986L 223.537,324.986zM 31.73,294.895L 63.731,294.895L 63.731,282.095L 31.73,282.095zM 223.537,294.895L 255.538,294.895L 255.538,282.095L 223.537,282.095zM 31.73,252.006L 63.731,252.006L 63.731,239.205L 31.73,239.205zM 223.537,252.006L 255.538,252.006L 255.538,239.205L 223.537,239.205zM 31.73,209.114L 63.731,209.114L 63.731,196.314L 31.73,196.314zM 223.537,209.114L 255.538,209.114L 255.538,196.314L 223.537,196.314zM 31.73,166.225L 63.731,166.225L 63.731,153.425L 31.73,153.425zM 223.537,166.225L 255.538,166.225L 255.538,153.425L 223.537,153.425zM 31.73,123.335L 63.731,123.335L 63.731,110.534L 31.73,110.534zM 223.537,123.335L 255.538,123.335L 255.538,110.534L 223.537,110.534zM 95.732,80.443L 127.733,80.443L 127.733,67.643L 95.732,67.643zM 63.732,80.443L 95.733,80.443L 95.733,67.643L 63.732,67.643zM 159.535,80.443L 191.536,80.443L 191.536,67.643L 159.535,67.643zM 127.535,80.443L 159.536,80.443L 159.536,67.643L 127.535,67.643zM 191.536,80.443L 223.538,80.443L 223.538,67.643L 191.536,67.643z" horiz-adv-x="287.624" />
<glyph unicode="&#x54;" d="M 32.217,423.567L 64.218,423.567L 64.218,410.766L 32.217,410.766zM 96.219,423.567L 128.221,423.567L 128.221,410.766L 96.219,410.766zM 64.218,423.567L 96.219,423.567L 96.219,410.766L 64.218,410.766zM 160.022,423.567L 192.023,423.567L 192.023,410.766L 160.022,410.766zM 128.022,423.567L 160.023,423.567L 160.023,410.766L 128.022,410.766zM 224.024,423.567L 256.024,423.567L 256.024,410.766L 224.024,410.766zM 192.023,423.567L 224.024,423.567L 224.024,410.766L 192.023,410.766zM 32.217,380.676L 64.218,380.676L 64.218,367.876L 32.217,367.876zM 128.022,380.676L 160.023,380.676L 160.023,367.876L 128.022,367.876zM 224.024,380.676L 256.024,380.676L 256.024,367.876L 224.024,367.876zM 128.022,337.786L 160.023,337.786L 160.023,324.986L 128.022,324.986zM 128.022,294.895L 160.023,294.895L 160.023,282.095L 128.022,282.095zM 128.022,252.006L 160.023,252.006L 160.023,239.205L 128.022,239.205zM 128.022,209.114L 160.023,209.114L 160.023,196.314L 128.022,196.314zM 128.022,166.225L 160.023,166.225L 160.023,153.425L 128.022,153.425zM 128.022,123.335L 160.023,123.335L 160.023,110.534L 128.022,110.534zM 96.219,80.443L 128.221,80.443L 128.221,67.643L 96.219,67.643zM 160.022,80.443L 192.023,80.443L 192.023,67.643L 160.022,67.643zM 128.022,80.443L 160.023,80.443L 160.023,67.643L 128.022,67.643z" horiz-adv-x="287.624" />
<glyph unicode="&#x53;" d="M 96.021,423.567L 128.021,423.567L 128.021,410.766L 96.021,410.766zM 64.020,423.567L 96.022,423.567L 96.022,410.766L 64.020,410.766zM 159.824,423.567L 191.825,423.567L 191.825,410.766L 159.824,410.766zM 127.825,423.567L 159.825,423.567L 159.825,410.766L 127.825,410.766zM 191.825,423.567L 223.827,423.567L 223.827,410.766L 191.825,410.766zM 32.020,380.676L 64.020,380.676L 64.020,367.876L 32.020,367.876zM 223.826,380.676L 255.825,380.676L 255.825,367.876L 223.826,367.876zM 32.020,337.786L 64.020,337.786L 64.020,324.986L 32.020,324.986zM 32.020,294.895L 64.020,294.895L 64.020,282.095L 32.020,282.095zM 64.020,294.895L 96.022,294.895L 96.022,282.095L 64.020,282.095zM 96.021,252.006L 128.021,252.006L 128.021,239.205L 96.021,239.205zM 159.824,252.006L 191.825,252.006L 191.825,239.205L 159.824,239.205zM 127.825,252.006L 159.825,252.006L 159.825,239.205L 127.825,239.205zM 223.826,209.114L 255.825,209.114L 255.825,196.314L 223.826,196.314zM 191.825,209.114L 223.827,209.114L 223.827,196.314L 191.825,196.314zM 223.826,166.225L 255.825,166.225L 255.825,153.425L 223.826,153.425zM 32.020,123.335L 64.020,123.335L 64.020,110.534L 32.020,110.534zM 223.826,123.335L 255.825,123.335L 255.825,110.534L 223.826,110.534zM 96.021,80.443L 128.021,80.443L 128.021,67.643L 96.021,67.643zM 64.020,80.443L 96.022,80.443L 96.022,67.643L 64.020,67.643zM 159.824,80.443L 191.825,80.443L 191.825,67.643L 159.824,67.643zM 127.825,80.443L 159.825,80.443L 159.825,67.643L 127.825,67.643zM 191.825,80.443L 223.827,80.443L 223.827,67.643L 191.825,67.643z" horiz-adv-x="287.624" />
<glyph unicode="&#x52;" d="M 31.828,423.307L 63.829,423.307L 63.829,410.507L 31.828,410.507zM 95.83,423.307L 127.83,423.307L 127.83,410.507L 95.83,410.507zM 63.829,423.307L 95.831,423.307L 95.831,410.507L 63.829,410.507zM 159.633,423.307L 191.633,423.307L 191.633,410.507L 159.633,410.507zM 127.633,423.307L 159.633,423.307L 159.633,410.507L 127.633,410.507zM 191.633,423.307L 223.635,423.307L 223.635,410.507L 191.633,410.507zM 31.828,380.416L 63.829,380.416L 63.829,367.616L 31.828,367.616zM 223.634,380.416L 255.636,380.416L 255.636,367.616L 223.634,367.616zM 31.828,337.526L 63.829,337.526L 63.829,324.725L 31.828,324.725zM 223.634,337.526L 255.636,337.526L 255.636,324.725L 223.634,324.725zM 31.828,294.636L 63.829,294.636L 63.829,281.835L 31.828,281.835zM 223.634,294.636L 255.636,294.636L 255.636,281.835L 223.634,281.835zM 31.828,251.747L 63.829,251.747L 63.829,238.945L 31.828,238.945zM 95.83,251.747L 127.83,251.747L 127.83,238.945L 95.83,238.945zM 63.829,251.747L 95.831,251.747L 95.831,238.945L 63.829,238.945zM 159.633,251.747L 191.633,251.747L 191.633,238.945L 159.633,238.945zM 127.633,251.747L 159.633,251.747L 159.633,238.945L 127.633,238.945zM 191.633,251.747L 223.635,251.747L 223.635,238.945L 191.633,238.945zM 31.828,208.856L 63.829,208.856L 63.829,196.055L 31.828,196.055zM 127.633,208.856L 159.633,208.856L 159.633,196.055L 127.633,196.055zM 31.828,165.966L 63.829,165.966L 63.829,153.166L 31.828,153.166zM 159.633,165.966L 191.633,165.966L 191.633,153.166L 159.633,153.166zM 31.828,123.075L 63.829,123.075L 63.829,110.275L 31.828,110.275zM 191.633,123.075L 223.635,123.075L 223.635,110.275L 191.633,110.275zM 31.828,80.184L 63.829,80.184L 63.829,67.384L 31.828,67.384zM 223.634,80.184L 255.636,80.184L 255.636,67.384L 223.634,67.384z" horiz-adv-x="287.624" />
<glyph unicode="&#x51;" d="M 95.32,423.307L 127.321,423.307L 127.321,410.507L 95.32,410.507zM 63.32,423.307L 95.322,423.307L 95.322,410.507L 63.32,410.507zM 159.124,423.307L 191.125,423.307L 191.125,410.507L 159.124,410.507zM 127.124,423.307L 159.124,423.307L 159.124,410.507L 127.124,410.507zM 191.124,423.307L 223.125,423.307L 223.125,410.507L 191.124,410.507zM 31.319,380.416L 63.319,380.416L 63.319,367.616L 31.319,367.616zM 223.125,380.416L 255.127,380.416L 255.127,367.616L 223.125,367.616zM 31.319,337.526L 63.319,337.526L 63.319,324.725L 31.319,324.725zM 223.125,337.526L 255.127,337.526L 255.127,324.725L 223.125,324.725zM 31.319,294.636L 63.319,294.636L 63.319,281.835L 31.319,281.835zM 223.125,294.636L 255.127,294.636L 255.127,281.835L 223.125,281.835zM 31.319,251.747L 63.319,251.747L 63.319,238.945L 31.319,238.945zM 223.125,251.747L 255.127,251.747L 255.127,238.945L 223.125,238.945zM 31.319,208.856L 63.319,208.856L 63.319,196.055L 31.319,196.055zM 127.124,208.856L 159.124,208.856L 159.124,196.055L 127.124,196.055zM 223.125,208.856L 255.127,208.856L 255.127,196.055L 223.125,196.055zM 31.319,165.966L 63.319,165.966L 63.319,153.166L 31.319,153.166zM 159.124,165.966L 191.125,165.966L 191.125,153.166L 159.124,153.166zM 223.125,165.966L 255.127,165.966L 255.127,153.166L 223.125,153.166zM 31.319,123.075L 63.319,123.075L 63.319,110.275L 31.319,110.275zM 191.124,123.075L 223.125,123.075L 223.125,110.275L 191.124,110.275zM 95.32,80.184L 127.321,80.184L 127.321,67.384L 95.32,67.384zM 63.32,80.184L 95.322,80.184L 95.322,67.384L 63.32,67.384zM 159.124,80.184L 191.125,80.184L 191.125,67.384L 159.124,67.384zM 127.124,80.184L 159.124,80.184L 159.124,67.384L 127.124,67.384zM 223.125,80.184L 255.127,80.184L 255.127,67.384L 223.125,67.384zM 191.124,80.184L 223.125,80.184L 223.125,67.384L 191.124,67.384z" horiz-adv-x="287.624" />
<glyph unicode="&#x50;" d="M 95.755,423.567L 127.756,423.567L 127.756,410.766L 95.755,410.766zM 63.755,423.567L 95.755,423.567L 95.755,410.766L 63.755,410.766zM 159.559,423.567L 191.56,423.567L 191.56,410.766L 159.559,410.766zM 127.558,423.567L 159.559,423.567L 159.559,410.766L 127.558,410.766zM 191.559,423.567L 223.56,423.567L 223.56,410.766L 191.559,410.766zM 31.753,380.676L 63.754,380.676L 63.754,367.876L 31.753,367.876zM 223.56,380.676L 255.56,380.676L 255.56,367.876L 223.56,367.876zM 31.753,337.786L 63.754,337.786L 63.754,324.986L 31.753,324.986zM 223.56,337.786L 255.56,337.786L 255.56,324.986L 223.56,324.986zM 31.753,294.895L 63.754,294.895L 63.754,282.095L 31.753,282.095zM 223.56,294.895L 255.56,294.895L 255.56,282.095L 223.56,282.095zM 31.753,252.006L 63.754,252.006L 63.754,239.205L 31.753,239.205zM 95.755,252.006L 127.756,252.006L 127.756,239.205L 95.755,239.205zM 63.755,252.006L 95.755,252.006L 95.755,239.205L 63.755,239.205zM 159.559,252.006L 191.56,252.006L 191.56,239.205L 159.559,239.205zM 127.558,252.006L 159.559,252.006L 159.559,239.205L 127.558,239.205zM 191.559,252.006L 223.56,252.006L 223.56,239.205L 191.559,239.205zM 31.753,209.114L 63.754,209.114L 63.754,196.314L 31.753,196.314zM 31.753,166.225L 63.754,166.225L 63.754,153.425L 31.753,153.425zM 31.753,123.335L 63.754,123.335L 63.754,110.534L 31.753,110.534zM 31.753,80.443L 63.754,80.443L 63.754,67.643L 31.753,67.643z" horiz-adv-x="287.624" />
<glyph unicode="&#x4f;" d="M 95.998,423.567L 128,423.567L 128,410.766L 95.998,410.766zM 63.998,423.567L 95.998,423.567L 95.998,410.766L 63.998,410.766zM 159.801,423.567L 191.802,423.567L 191.802,410.766L 159.801,410.766zM 127.801,423.567L 159.802,423.567L 159.802,410.766L 127.801,410.766zM 191.802,423.567L 223.803,423.567L 223.803,410.766L 191.802,410.766zM 31.997,380.676L 63.998,380.676L 63.998,367.876L 31.997,367.876zM 223.803,380.676L 255.804,380.676L 255.804,367.876L 223.803,367.876zM 31.997,337.786L 63.998,337.786L 63.998,324.986L 31.997,324.986zM 223.803,337.786L 255.804,337.786L 255.804,324.986L 223.803,324.986zM 31.997,294.895L 63.998,294.895L 63.998,282.095L 31.997,282.095zM 223.803,294.895L 255.804,294.895L 255.804,282.095L 223.803,282.095zM 31.997,252.006L 63.998,252.006L 63.998,239.205L 31.997,239.205zM 223.803,252.006L 255.804,252.006L 255.804,239.205L 223.803,239.205zM 31.997,209.114L 63.998,209.114L 63.998,196.314L 31.997,196.314zM 223.803,209.114L 255.804,209.114L 255.804,196.314L 223.803,196.314zM 31.997,166.225L 63.998,166.225L 63.998,153.425L 31.997,153.425zM 223.803,166.225L 255.804,166.225L 255.804,153.425L 223.803,153.425zM 31.997,123.335L 63.998,123.335L 63.998,110.534L 31.997,110.534zM 223.803,123.335L 255.804,123.335L 255.804,110.534L 223.803,110.534zM 95.998,80.443L 128,80.443L 128,67.643L 95.998,67.643zM 63.998,80.443L 95.998,80.443L 95.998,67.643L 63.998,67.643zM 159.801,80.443L 191.802,80.443L 191.802,67.643L 159.801,67.643zM 127.801,80.443L 159.802,80.443L 159.802,67.643L 127.801,67.643zM 191.802,80.443L 223.803,80.443L 223.803,67.643L 191.802,67.643z" horiz-adv-x="287.624" />
<glyph unicode="&#x4e;" d="M 31.708,423.567L 63.709,423.567L 63.709,410.766L 31.708,410.766zM 223.514,423.567L 255.515,423.567L 255.515,410.766L 223.514,410.766zM 31.708,380.676L 63.709,380.676L 63.709,367.876L 31.708,367.876zM 223.514,380.676L 255.515,380.676L 255.515,367.876L 223.514,367.876zM 31.708,337.786L 63.709,337.786L 63.709,324.986L 31.708,324.986zM 63.709,337.786L 95.71,337.786L 95.71,324.986L 63.709,324.986zM 223.514,337.786L 255.515,337.786L 255.515,324.986L 223.514,324.986zM 31.708,294.895L 63.709,294.895L 63.709,282.095L 31.708,282.095zM 95.709,294.895L 127.71,294.895L 127.71,282.095L 95.709,282.095zM 223.514,294.895L 255.515,294.895L 255.515,282.095L 223.514,282.095zM 31.708,252.006L 63.709,252.006L 63.709,239.205L 31.708,239.205zM 127.513,252.006L 159.514,252.006L 159.514,239.205L 127.513,239.205zM 223.514,252.006L 255.515,252.006L 255.515,239.205L 223.514,239.205zM 31.708,209.114L 63.709,209.114L 63.709,196.314L 31.708,196.314zM 159.513,209.114L 191.513,209.114L 191.513,196.314L 159.513,196.314zM 223.514,209.114L 255.515,209.114L 255.515,196.314L 223.514,196.314zM 31.708,166.225L 63.709,166.225L 63.709,153.425L 31.708,153.425zM 223.514,166.225L 255.515,166.225L 255.515,153.425L 223.514,153.425zM 191.514,166.225L 223.515,166.225L 223.515,153.425L 191.514,153.425zM 31.708,123.335L 63.709,123.335L 63.709,110.534L 31.708,110.534zM 223.514,123.335L 255.515,123.335L 255.515,110.534L 223.514,110.534zM 31.708,80.443L 63.709,80.443L 63.709,67.643L 31.708,67.643zM 223.514,80.443L 255.515,80.443L 255.515,67.643L 223.514,67.643z" horiz-adv-x="287.624" />
<glyph unicode="&#x4d;" d="M 32.217,423.567L 64.218,423.567L 64.218,410.766L 32.217,410.766zM 224.024,423.567L 256.024,423.567L 256.024,410.766L 224.024,410.766zM 32.217,380.676L 64.218,380.676L 64.218,367.876L 32.217,367.876zM 224.024,380.676L 256.024,380.676L 256.024,367.876L 224.024,367.876zM 32.217,337.786L 64.218,337.786L 64.218,324.986L 32.217,324.986zM 64.218,337.786L 96.219,337.786L 96.219,324.986L 64.218,324.986zM 224.024,337.786L 256.024,337.786L 256.024,324.986L 224.024,324.986zM 192.023,337.786L 224.024,337.786L 224.024,324.986L 192.023,324.986zM 32.217,294.895L 64.218,294.895L 64.218,282.095L 32.217,282.095zM 96.219,294.895L 128.221,294.895L 128.221,282.095L 96.219,282.095zM 160.022,294.895L 192.023,294.895L 192.023,282.095L 160.022,282.095zM 224.024,294.895L 256.024,294.895L 256.024,282.095L 224.024,282.095zM 32.217,252.006L 64.218,252.006L 64.218,239.205L 32.217,239.205zM 128.022,252.006L 160.023,252.006L 160.023,239.205L 128.022,239.205zM 224.024,252.006L 256.024,252.006L 256.024,239.205L 224.024,239.205zM 32.217,209.114L 64.218,209.114L 64.218,196.314L 32.217,196.314zM 224.024,209.114L 256.024,209.114L 256.024,196.314L 224.024,196.314zM 32.217,166.225L 64.218,166.225L 64.218,153.425L 32.217,153.425zM 224.024,166.225L 256.024,166.225L 256.024,153.425L 224.024,153.425zM 32.217,123.335L 64.218,123.335L 64.218,110.534L 32.217,110.534zM 224.024,123.335L 256.024,123.335L 256.024,110.534L 224.024,110.534zM 32.217,80.443L 64.218,80.443L 64.218,67.643L 32.217,67.643zM 224.024,80.443L 256.024,80.443L 256.024,67.643L 224.024,67.643z" horiz-adv-x="287.624" />
<glyph unicode="&#x4c;" d="M 31.822,423.567L 63.822,423.567L 63.822,410.766L 31.822,410.766zM 95.823,423.567L 127.824,423.567L 127.824,410.766L 95.823,410.766zM 63.823,423.567L 95.825,423.567L 95.825,410.766L 63.823,410.766zM 63.823,380.676L 95.825,380.676L 95.825,367.876L 63.823,367.876zM 63.823,337.786L 95.825,337.786L 95.825,324.986L 63.823,324.986zM 63.823,294.895L 95.825,294.895L 95.825,282.095L 63.823,282.095zM 63.823,252.006L 95.825,252.006L 95.825,239.205L 63.823,239.205zM 63.823,209.114L 95.825,209.114L 95.825,196.314L 63.823,196.314zM 63.823,166.225L 95.825,166.225L 95.825,153.425L 63.823,153.425zM 63.823,123.335L 95.825,123.335L 95.825,110.534L 63.823,110.534zM 223.629,123.335L 255.63,123.335L 255.63,110.534L 223.629,110.534zM 31.822,80.443L 63.822,80.443L 63.822,67.643L 31.822,67.643zM 95.823,80.443L 127.824,80.443L 127.824,67.643L 95.823,67.643zM 63.823,80.443L 95.825,80.443L 95.825,67.643L 63.823,67.643zM 159.627,80.443L 191.628,80.443L 191.628,67.643L 159.627,67.643zM 127.627,80.443L 159.627,80.443L 159.627,67.643L 127.627,67.643zM 223.629,80.443L 255.63,80.443L 255.63,67.643L 223.629,67.643zM 191.627,80.443L 223.629,80.443L 223.629,67.643L 191.627,67.643z" horiz-adv-x="287.624" />
<glyph unicode="&#x4b;" d="M 32.064,423.567L 64.065,423.567L 64.065,410.766L 32.064,410.766zM 64.066,423.567L 96.066,423.567L 96.066,410.766L 64.066,410.766zM 223.871,423.567L 255.872,423.567L 255.872,410.766L 223.871,410.766zM 64.066,380.676L 96.066,380.676L 96.066,367.876L 64.066,367.876zM 223.871,380.676L 255.872,380.676L 255.872,367.876L 223.871,367.876zM 64.066,337.786L 96.066,337.786L 96.066,324.986L 64.066,324.986zM 191.87,337.786L 223.872,337.786L 223.872,324.986L 191.87,324.986zM 64.066,294.895L 96.066,294.895L 96.066,282.095L 64.066,282.095zM 159.869,294.895L 191.87,294.895L 191.87,282.095L 159.869,282.095zM 96.066,252.006L 128.067,252.006L 128.067,239.205L 96.066,239.205zM 64.066,252.006L 96.066,252.006L 96.066,239.205L 64.066,239.205zM 127.87,252.006L 159.869,252.006L 159.869,239.205L 127.87,239.205zM 64.066,209.114L 96.066,209.114L 96.066,196.314L 64.066,196.314zM 159.869,209.114L 191.87,209.114L 191.87,196.314L 159.869,196.314zM 64.066,166.225L 96.066,166.225L 96.066,153.425L 64.066,153.425zM 191.87,166.225L 223.872,166.225L 223.872,153.425L 191.87,153.425zM 64.066,123.335L 96.066,123.335L 96.066,110.534L 64.066,110.534zM 223.871,123.335L 255.872,123.335L 255.872,110.534L 223.871,110.534zM 32.064,80.443L 64.065,80.443L 64.065,67.643L 32.064,67.643zM 64.066,80.443L 96.066,80.443L 96.066,67.643L 64.066,67.643zM 223.871,80.443L 255.872,80.443L 255.872,67.643L 223.871,67.643z" horiz-adv-x="287.624" />
<glyph unicode="&#x4a;" d="M 31.556,423.567L 63.557,423.567L 63.557,410.766L 31.556,410.766zM 95.557,423.567L 127.559,423.567L 127.559,410.766L 95.557,410.766zM 63.557,423.567L 95.557,423.567L 95.557,410.766L 63.557,410.766zM 159.361,423.567L 191.361,423.567L 191.361,410.766L 159.361,410.766zM 127.36,423.567L 159.362,423.567L 159.362,410.766L 127.36,410.766zM 223.362,423.567L 255.363,423.567L 255.363,410.766L 223.362,410.766zM 191.362,423.567L 223.363,423.567L 223.363,410.766L 191.362,410.766zM 159.361,380.676L 191.361,380.676L 191.361,367.876L 159.361,367.876zM 159.361,337.786L 191.361,337.786L 191.361,324.986L 159.361,324.986zM 159.361,294.895L 191.361,294.895L 191.361,282.095L 159.361,282.095zM 159.361,252.006L 191.361,252.006L 191.361,239.205L 159.361,239.205zM 159.361,209.114L 191.361,209.114L 191.361,196.314L 159.361,196.314zM 31.556,166.225L 63.557,166.225L 63.557,153.425L 31.556,153.425zM 159.361,166.225L 191.361,166.225L 191.361,153.425L 159.361,153.425zM 31.556,123.335L 63.557,123.335L 63.557,110.534L 31.556,110.534zM 159.361,123.335L 191.361,123.335L 191.361,110.534L 159.361,110.534zM 95.557,80.443L 127.559,80.443L 127.559,67.643L 95.557,67.643zM 63.557,80.443L 95.557,80.443L 95.557,67.643L 63.557,67.643zM 127.36,80.443L 159.362,80.443L 159.362,67.643L 127.36,67.643z" horiz-adv-x="287.624" />
<glyph unicode="&#x49;" d="M 95.489,423.567L 127.49,423.567L 127.49,410.766L 95.489,410.766zM 159.292,423.567L 191.292,423.567L 191.292,410.766L 159.292,410.766zM 127.292,423.567L 159.294,423.567L 159.294,410.766L 127.292,410.766zM 127.292,380.676L 159.294,380.676L 159.294,367.876L 127.292,367.876zM 127.292,337.786L 159.294,337.786L 159.294,324.986L 127.292,324.986zM 127.292,294.895L 159.294,294.895L 159.294,282.095L 127.292,282.095zM 127.292,252.006L 159.294,252.006L 159.294,239.205L 127.292,239.205zM 127.292,209.114L 159.294,209.114L 159.294,196.314L 127.292,196.314zM 127.292,166.225L 159.294,166.225L 159.294,153.425L 127.292,153.425zM 127.292,123.335L 159.294,123.335L 159.294,110.534L 127.292,110.534zM 95.489,80.443L 127.49,80.443L 127.49,67.643L 95.489,67.643zM 159.292,80.443L 191.292,80.443L 191.292,67.643L 159.292,67.643zM 127.292,80.443L 159.294,80.443L 159.294,67.643L 127.292,67.643z" horiz-adv-x="287.624" />
<glyph unicode="&#x48;" d="M 31.8,423.567L 63.8,423.567L 63.8,410.766L 31.8,410.766zM 223.605,423.567L 255.607,423.567L 255.607,410.766L 223.605,410.766zM 31.8,380.676L 63.8,380.676L 63.8,367.876L 31.8,367.876zM 223.605,380.676L 255.607,380.676L 255.607,367.876L 223.605,367.876zM 31.8,337.786L 63.8,337.786L 63.8,324.986L 31.8,324.986zM 223.605,337.786L 255.607,337.786L 255.607,324.986L 223.605,324.986zM 31.8,294.895L 63.8,294.895L 63.8,282.095L 31.8,282.095zM 223.605,294.895L 255.607,294.895L 255.607,282.095L 223.605,282.095zM 31.8,252.006L 63.8,252.006L 63.8,239.205L 31.8,239.205zM 95.8,252.006L 127.801,252.006L 127.801,239.205L 95.8,239.205zM 63.799,252.006L 95.8,252.006L 95.8,239.205L 63.799,239.205zM 159.603,252.006L 191.604,252.006L 191.604,239.205L 159.603,239.205zM 127.604,252.006L 159.604,252.006L 159.604,239.205L 127.604,239.205zM 223.605,252.006L 255.607,252.006L 255.607,239.205L 223.605,239.205zM 191.605,252.006L 223.606,252.006L 223.606,239.205L 191.605,239.205zM 31.8,209.114L 63.8,209.114L 63.8,196.314L 31.8,196.314zM 223.605,209.114L 255.607,209.114L 255.607,196.314L 223.605,196.314zM 31.8,166.225L 63.8,166.225L 63.8,153.425L 31.8,153.425zM 223.605,166.225L 255.607,166.225L 255.607,153.425L 223.605,153.425zM 31.8,123.335L 63.8,123.335L 63.8,110.534L 31.8,110.534zM 223.605,123.335L 255.607,123.335L 255.607,110.534L 223.605,110.534zM 31.8,80.443L 63.8,80.443L 63.8,67.643L 31.8,67.643zM 223.605,80.443L 255.607,80.443L 255.607,67.643L 223.605,67.643z" horiz-adv-x="287.624" />
<glyph unicode="&#x47;" d="M 96.044,423.567L 128.044,423.567L 128.044,410.766L 96.044,410.766zM 159.846,423.567L 191.848,423.567L 191.848,410.766L 159.846,410.766zM 127.847,423.567L 159.847,423.567L 159.847,410.766L 127.847,410.766zM 191.848,423.567L 223.849,423.567L 223.849,410.766L 191.848,410.766zM 64.044,380.676L 96.045,380.676L 96.045,367.876L 64.044,367.876zM 223.849,380.676L 255.85,380.676L 255.85,367.876L 223.849,367.876zM 32.042,337.786L 64.043,337.786L 64.043,324.986L 32.042,324.986zM 32.042,294.895L 64.043,294.895L 64.043,282.095L 32.042,282.095zM 32.042,252.006L 64.043,252.006L 64.043,239.205L 32.042,239.205zM 159.846,252.006L 191.848,252.006L 191.848,239.205L 159.846,239.205zM 223.849,252.006L 255.85,252.006L 255.85,239.205L 223.849,239.205zM 191.848,252.006L 223.849,252.006L 223.849,239.205L 191.848,239.205zM 32.042,209.114L 64.043,209.114L 64.043,196.314L 32.042,196.314zM 223.849,209.114L 255.85,209.114L 255.85,196.314L 223.849,196.314zM 32.042,166.225L 64.043,166.225L 64.043,153.425L 32.042,153.425zM 223.849,166.225L 255.85,166.225L 255.85,153.425L 223.849,153.425zM 64.044,123.335L 96.045,123.335L 96.045,110.534L 64.044,110.534zM 223.849,123.335L 255.85,123.335L 255.85,110.534L 223.849,110.534zM 96.044,80.443L 128.044,80.443L 128.044,67.643L 96.044,67.643zM 159.846,80.443L 191.848,80.443L 191.848,67.643L 159.846,67.643zM 127.847,80.443L 159.847,80.443L 159.847,67.643L 127.847,67.643zM 191.848,80.443L 223.849,80.443L 223.849,67.643L 191.848,67.643z" horiz-adv-x="287.624" />
<glyph unicode="&#x46;" d="M 31.532,423.567L 63.534,423.567L 63.534,410.766L 31.532,410.766zM 95.533,423.567L 127.535,423.567L 127.535,410.766L 95.533,410.766zM 63.535,423.567L 95.534,423.567L 95.534,410.766L 63.535,410.766zM 159.338,423.567L 191.339,423.567L 191.339,410.766L 159.338,410.766zM 127.337,423.567L 159.338,423.567L 159.338,410.766L 127.337,410.766zM 223.339,423.567L 255.34,423.567L 255.34,410.766L 223.339,410.766zM 191.338,423.567L 223.339,423.567L 223.339,410.766L 191.338,410.766zM 31.532,380.676L 63.534,380.676L 63.534,367.876L 31.532,367.876zM 31.532,337.786L 63.534,337.786L 63.534,324.986L 31.532,324.986zM 31.532,294.895L 63.534,294.895L 63.534,282.095L 31.532,282.095zM 31.532,252.006L 63.534,252.006L 63.534,239.205L 31.532,239.205zM 95.533,252.006L 127.535,252.006L 127.535,239.205L 95.533,239.205zM 63.535,252.006L 95.534,252.006L 95.534,239.205L 63.535,239.205zM 127.337,252.006L 159.338,252.006L 159.338,239.205L 127.337,239.205zM 31.532,209.114L 63.534,209.114L 63.534,196.314L 31.532,196.314zM 31.532,166.225L 63.534,166.225L 63.534,153.425L 31.532,153.425zM 31.532,123.335L 63.534,123.335L 63.534,110.534L 31.532,110.534zM 31.532,80.443L 63.534,80.443L 63.534,67.643L 31.532,67.643z" horiz-adv-x="287.624" />
<glyph unicode="&#x45;" d="M 31.806,423.307L 63.806,423.307L 63.806,410.507L 31.806,410.507zM 95.807,423.307L 127.808,423.307L 127.808,410.507L 95.807,410.507zM 63.806,423.307L 95.807,423.307L 95.807,410.507L 63.806,410.507zM 159.61,423.307L 191.61,423.307L 191.61,410.507L 159.61,410.507zM 127.609,423.307L 159.611,423.307L 159.611,410.507L 127.609,410.507zM 223.611,423.307L 255.612,423.307L 255.612,410.507L 223.611,410.507zM 191.611,423.307L 223.612,423.307L 223.612,410.507L 191.611,410.507zM 31.806,380.416L 63.806,380.416L 63.806,367.616L 31.806,367.616zM 31.806,337.526L 63.806,337.526L 63.806,324.725L 31.806,324.725zM 31.806,294.636L 63.806,294.636L 63.806,281.835L 31.806,281.835zM 31.806,251.747L 63.806,251.747L 63.806,238.945L 31.806,238.945zM 95.807,251.747L 127.808,251.747L 127.808,238.945L 95.807,238.945zM 63.806,251.747L 95.807,251.747L 95.807,238.945L 63.806,238.945zM 159.61,251.747L 191.61,251.747L 191.61,238.945L 159.61,238.945zM 127.609,251.747L 159.611,251.747L 159.611,238.945L 127.609,238.945zM 31.806,208.856L 63.806,208.856L 63.806,196.055L 31.806,196.055zM 31.806,165.966L 63.806,165.966L 63.806,153.166L 31.806,153.166zM 31.806,123.075L 63.806,123.075L 63.806,110.275L 31.806,110.275zM 31.806,80.184L 63.806,80.184L 63.806,67.384L 31.806,67.384zM 95.807,80.184L 127.808,80.184L 127.808,67.384L 95.807,67.384zM 63.806,80.184L 95.807,80.184L 95.807,67.384L 63.806,67.384zM 159.61,80.184L 191.61,80.184L 191.61,67.384L 159.61,67.384zM 127.609,80.184L 159.611,80.184L 159.611,67.384L 127.609,67.384zM 223.611,80.184L 255.612,80.184L 255.612,67.384L 223.611,67.384zM 191.611,80.184L 223.612,80.184L 223.612,67.384L 191.611,67.384z" horiz-adv-x="287.624" />
<glyph unicode="&#x44;" d="M 31.776,423.567L 63.777,423.567L 63.777,410.766L 31.776,410.766zM 95.778,423.567L 127.779,423.567L 127.779,410.766L 95.778,410.766zM 63.777,423.567L 95.778,423.567L 95.778,410.766L 63.777,410.766zM 159.581,423.567L 191.581,423.567L 191.581,410.766L 159.581,410.766zM 127.581,423.567L 159.582,423.567L 159.582,410.766L 127.581,410.766zM 63.777,380.676L 95.778,380.676L 95.778,367.876L 63.777,367.876zM 191.581,380.676L 223.583,380.676L 223.583,367.876L 191.581,367.876zM 63.777,337.786L 95.778,337.786L 95.778,324.986L 63.777,324.986zM 223.583,337.786L 255.584,337.786L 255.584,324.986L 223.583,324.986zM 63.777,294.895L 95.778,294.895L 95.778,282.095L 63.777,282.095zM 223.583,294.895L 255.584,294.895L 255.584,282.095L 223.583,282.095zM 63.777,252.006L 95.778,252.006L 95.778,239.205L 63.777,239.205zM 223.583,252.006L 255.584,252.006L 255.584,239.205L 223.583,239.205zM 63.777,209.114L 95.778,209.114L 95.778,196.314L 63.777,196.314zM 223.583,209.114L 255.584,209.114L 255.584,196.314L 223.583,196.314zM 63.777,166.225L 95.778,166.225L 95.778,153.425L 63.777,153.425zM 223.583,166.225L 255.584,166.225L 255.584,153.425L 223.583,153.425zM 63.777,123.335L 95.778,123.335L 95.778,110.534L 63.777,110.534zM 191.581,123.335L 223.583,123.335L 223.583,110.534L 191.581,110.534zM 31.776,80.443L 63.777,80.443L 63.777,67.643L 31.776,67.643zM 95.778,80.443L 127.779,80.443L 127.779,67.643L 95.778,67.643zM 63.777,80.443L 95.778,80.443L 95.778,67.643L 63.777,67.643zM 159.581,80.443L 191.581,80.443L 191.581,67.643L 159.581,67.643zM 127.581,80.443L 159.582,80.443L 159.582,67.643L 127.581,67.643z" horiz-adv-x="287.624" />
<glyph unicode="&#x43;" d="M 95.687,423.567L 127.688,423.567L 127.688,410.766L 95.687,410.766zM 159.49,423.567L 191.49,423.567L 191.49,410.766L 159.49,410.766zM 127.49,423.567L 159.491,423.567L 159.491,410.766L 127.49,410.766zM 191.49,423.567L 223.492,423.567L 223.492,410.766L 191.49,410.766zM 63.686,380.676L 95.687,380.676L 95.687,367.876L 63.686,367.876zM 223.492,380.676L 255.493,380.676L 255.493,367.876L 223.492,367.876zM 31.685,337.786L 63.686,337.786L 63.686,324.986L 31.685,324.986zM 31.685,294.895L 63.686,294.895L 63.686,282.095L 31.685,282.095zM 31.685,252.006L 63.686,252.006L 63.686,239.205L 31.685,239.205zM 31.685,209.114L 63.686,209.114L 63.686,196.314L 31.685,196.314zM 31.685,166.225L 63.686,166.225L 63.686,153.425L 31.685,153.425zM 63.686,123.335L 95.687,123.335L 95.687,110.534L 63.686,110.534zM 223.492,123.335L 255.493,123.335L 255.493,110.534L 223.492,110.534zM 95.687,80.443L 127.688,80.443L 127.688,67.643L 95.687,67.643zM 159.49,80.443L 191.49,80.443L 191.49,67.643L 159.49,67.643zM 127.49,80.443L 159.491,80.443L 159.491,67.643L 127.49,67.643zM 191.49,80.443L 223.492,80.443L 223.492,67.643L 191.49,67.643z" horiz-adv-x="287.624" />
<glyph unicode="&#x42;" d="M 31.951,423.567L 63.952,423.567L 63.952,410.766L 31.951,410.766zM 95.953,423.567L 127.953,423.567L 127.953,410.766L 95.953,410.766zM 63.953,423.567L 95.954,423.567L 95.954,410.766L 63.953,410.766zM 159.755,423.567L 191.757,423.567L 191.757,410.766L 159.755,410.766zM 127.756,423.567L 159.756,423.567L 159.756,410.766L 127.756,410.766zM 191.757,423.567L 223.758,423.567L 223.758,410.766L 191.757,410.766zM 31.951,380.676L 63.952,380.676L 63.952,367.876L 31.951,367.876zM 223.758,380.676L 255.759,380.676L 255.759,367.876L 223.758,367.876zM 31.951,337.786L 63.952,337.786L 63.952,324.986L 31.951,324.986zM 223.758,337.786L 255.759,337.786L 255.759,324.986L 223.758,324.986zM 31.951,294.895L 63.952,294.895L 63.952,282.095L 31.951,282.095zM 223.758,294.895L 255.759,294.895L 255.759,282.095L 223.758,282.095zM 31.951,252.006L 63.952,252.006L 63.952,239.205L 31.951,239.205zM 95.953,252.006L 127.953,252.006L 127.953,239.205L 95.953,239.205zM 63.953,252.006L 95.954,252.006L 95.954,239.205L 63.953,239.205zM 159.755,252.006L 191.757,252.006L 191.757,239.205L 159.755,239.205zM 127.756,252.006L 159.756,252.006L 159.756,239.205L 127.756,239.205zM 191.757,252.006L 223.758,252.006L 223.758,239.205L 191.757,239.205zM 31.951,209.114L 63.952,209.114L 63.952,196.314L 31.951,196.314zM 223.758,209.114L 255.759,209.114L 255.759,196.314L 223.758,196.314zM 31.951,166.225L 63.952,166.225L 63.952,153.425L 31.951,153.425zM 223.758,166.225L 255.759,166.225L 255.759,153.425L 223.758,153.425zM 31.951,123.335L 63.952,123.335L 63.952,110.534L 31.951,110.534zM 223.758,123.335L 255.759,123.335L 255.759,110.534L 223.758,110.534zM 31.951,80.443L 63.952,80.443L 63.952,67.643L 31.951,67.643zM 95.953,80.443L 127.953,80.443L 127.953,67.643L 95.953,67.643zM 63.953,80.443L 95.954,80.443L 95.954,67.643L 63.953,67.643zM 159.755,80.443L 191.757,80.443L 191.757,67.643L 159.755,67.643zM 127.756,80.443L 159.756,80.443L 159.756,67.643L 127.756,67.643zM 191.757,80.443L 223.758,80.443L 223.758,67.643L 191.757,67.643z" horiz-adv-x="287.624" />
<glyph unicode="&#x41;" d="M 95.511,423.567L 127.512,423.567L 127.512,410.766L 95.511,410.766zM 63.512,423.567L 95.513,423.567L 95.513,410.766L 63.512,410.766zM 159.315,423.567L 191.316,423.567L 191.316,410.766L 159.315,410.766zM 127.315,423.567L 159.316,423.567L 159.316,410.766L 127.315,410.766zM 191.316,423.567L 223.317,423.567L 223.317,410.766L 191.316,410.766zM 31.51,380.676L 63.511,380.676L 63.511,367.876L 31.51,367.876zM 223.316,380.676L 255.318,380.676L 255.318,367.876L 223.316,367.876zM 31.51,337.786L 63.511,337.786L 63.511,324.986L 31.51,324.986zM 223.316,337.786L 255.318,337.786L 255.318,324.986L 223.316,324.986zM 31.51,294.895L 63.511,294.895L 63.511,282.095L 31.51,282.095zM 223.316,294.895L 255.318,294.895L 255.318,282.095L 223.316,282.095zM 31.51,252.006L 63.511,252.006L 63.511,239.205L 31.51,239.205zM 95.511,252.006L 127.512,252.006L 127.512,239.205L 95.511,239.205zM 63.512,252.006L 95.513,252.006L 95.513,239.205L 63.512,239.205zM 159.315,252.006L 191.316,252.006L 191.316,239.205L 159.315,239.205zM 127.315,252.006L 159.316,252.006L 159.316,239.205L 127.315,239.205zM 223.316,252.006L 255.318,252.006L 255.318,239.205L 223.316,239.205zM 191.316,252.006L 223.317,252.006L 223.317,239.205L 191.316,239.205zM 31.51,209.114L 63.511,209.114L 63.511,196.314L 31.51,196.314zM 223.316,209.114L 255.318,209.114L 255.318,196.314L 223.316,196.314zM 31.51,166.225L 63.511,166.225L 63.511,153.425L 31.51,153.425zM 223.316,166.225L 255.318,166.225L 255.318,153.425L 223.316,153.425zM 31.51,123.335L 63.511,123.335L 63.511,110.534L 31.51,110.534zM 223.316,123.335L 255.318,123.335L 255.318,110.534L 223.316,110.534zM 31.51,80.443L 63.511,80.443L 63.511,67.643L 31.51,67.643zM 223.316,80.443L 255.318,80.443L 255.318,67.643L 223.316,67.643z" horiz-adv-x="287.624" />
<glyph unicode="&#x7a;" d="M 127.615,295.626L 170.164,295.626L 170.164,278.607L 127.615,278.607zM 85.066,295.626L 127.615,295.626L 127.615,278.607L 85.066,278.607zM 212.449,295.626L 254.997,295.626L 254.997,278.607L 212.449,278.607zM 169.901,295.626L 212.451,295.626L 212.451,278.607L 169.901,278.607zM 297.546,295.626L 340.095,295.626L 340.095,278.607L 297.546,278.607zM 254.999,295.626L 297.548,295.626L 297.548,278.607L 254.999,278.607zM 254.999,253.078L 297.548,253.078L 297.548,236.059L 254.999,236.059zM 212.449,210.529L 254.997,210.529L 254.997,193.509L 212.449,193.509zM 169.901,167.981L 212.451,167.981L 212.451,150.961L 169.901,150.961zM 127.615,125.433L 170.164,125.433L 170.164,108.413L 127.615,108.413zM 127.615,82.883L 170.164,82.883L 170.164,65.864L 127.615,65.864zM 85.066,82.883L 127.615,82.883L 127.615,65.864L 85.066,65.864zM 212.449,82.883L 254.997,82.883L 254.997,65.864L 212.449,65.864zM 169.901,82.883L 212.451,82.883L 212.451,65.864L 169.901,65.864zM 297.546,82.883L 340.095,82.883L 340.095,65.864L 297.546,65.864zM 254.999,82.883L 297.548,82.883L 297.548,65.864L 254.999,65.864z" horiz-adv-x="382.748" />
<glyph unicode="&#x79;" d="M 42.517,295.626L 85.066,295.626L 85.066,278.607L 42.517,278.607zM 297.546,295.626L 340.095,295.626L 340.095,278.607L 297.546,278.607zM 42.517,253.078L 85.066,253.078L 85.066,236.059L 42.517,236.059zM 297.546,253.078L 340.095,253.078L 340.095,236.059L 297.546,236.059zM 42.517,210.529L 85.066,210.529L 85.066,193.509L 42.517,193.509zM 297.546,210.529L 340.095,210.529L 340.095,193.509L 297.546,193.509zM 85.066,167.981L 127.615,167.981L 127.615,150.961L 85.066,150.961zM 254.999,167.981L 297.548,167.981L 297.548,150.961L 254.999,150.961zM 127.615,125.433L 170.164,125.433L 170.164,108.413L 127.615,108.413zM 212.449,125.433L 254.997,125.433L 254.997,108.413L 212.449,108.413zM 169.901,82.883L 212.451,82.883L 212.451,65.864L 169.901,65.864zM 127.615,40.336L 170.164,40.336L 170.164,23.316L 127.615,23.316zM 85.066-2.212L 127.615-2.212L 127.615-19.231L 85.066-19.231z" horiz-adv-x="382.748" />
<glyph unicode="&#x78;" d="M 42.517,295.626L 85.066,295.626L 85.066,278.607L 42.517,278.607zM 254.999,295.626L 297.548,295.626L 297.548,278.607L 254.999,278.607zM 85.066,253.078L 127.615,253.078L 127.615,236.059L 85.066,236.059zM 212.449,253.078L 254.997,253.078L 254.997,236.059L 212.449,236.059zM 127.615,210.529L 170.164,210.529L 170.164,193.509L 127.615,193.509zM 169.901,210.529L 212.451,210.529L 212.451,193.509L 169.901,193.509zM 127.615,167.981L 170.164,167.981L 170.164,150.961L 127.615,150.961zM 169.901,167.981L 212.451,167.981L 212.451,150.961L 169.901,150.961zM 85.066,125.433L 127.615,125.433L 127.615,108.413L 85.066,108.413zM 212.449,125.433L 254.997,125.433L 254.997,108.413L 212.449,108.413zM 42.517,82.883L 85.066,82.883L 85.066,65.864L 42.517,65.864zM 254.999,82.883L 297.548,82.883L 297.548,65.864L 254.999,65.864z" horiz-adv-x="382.748" />
<glyph unicode="&#x77;" d="M 42.517,295.626L 85.066,295.626L 85.066,278.607L 42.517,278.607zM 297.546,295.626L 340.095,295.626L 340.095,278.607L 297.546,278.607zM 42.517,253.078L 85.066,253.078L 85.066,236.059L 42.517,236.059zM 297.546,253.078L 340.095,253.078L 340.095,236.059L 297.546,236.059zM 42.517,210.529L 85.066,210.529L 85.066,193.509L 42.517,193.509zM 169.901,210.529L 212.451,210.529L 212.451,193.509L 169.901,193.509zM 297.546,210.529L 340.095,210.529L 340.095,193.509L 297.546,193.509zM 42.517,167.981L 85.066,167.981L 85.066,150.961L 42.517,150.961zM 169.901,167.981L 212.451,167.981L 212.451,150.961L 169.901,150.961zM 297.546,167.981L 340.095,167.981L 340.095,150.961L 297.546,150.961zM 42.517,125.433L 85.066,125.433L 85.066,108.413L 42.517,108.413zM 169.901,125.433L 212.451,125.433L 212.451,108.413L 169.901,108.413zM 297.546,125.433L 340.095,125.433L 340.095,108.413L 297.546,108.413zM 127.615,82.883L 170.164,82.883L 170.164,65.864L 127.615,65.864zM 85.066,82.883L 127.615,82.883L 127.615,65.864L 85.066,65.864zM 212.449,82.883L 254.997,82.883L 254.997,65.864L 212.449,65.864zM 254.999,82.883L 297.548,82.883L 297.548,65.864L 254.999,65.864z" horiz-adv-x="382.748" />
<glyph unicode="&#x76;" d="M 42.517,295.626L 85.066,295.626L 85.066,278.607L 42.517,278.607zM 297.546,295.626L 340.095,295.626L 340.095,278.607L 297.546,278.607zM 42.517,253.078L 85.066,253.078L 85.066,236.059L 42.517,236.059zM 297.546,253.078L 340.095,253.078L 340.095,236.059L 297.546,236.059zM 42.517,210.529L 85.066,210.529L 85.066,193.509L 42.517,193.509zM 297.546,210.529L 340.095,210.529L 340.095,193.509L 297.546,193.509zM 85.066,167.981L 127.615,167.981L 127.615,150.961L 85.066,150.961zM 254.999,167.981L 297.548,167.981L 297.548,150.961L 254.999,150.961zM 127.615,125.433L 170.164,125.433L 170.164,108.413L 127.615,108.413zM 212.449,125.433L 254.997,125.433L 254.997,108.413L 212.449,108.413zM 169.901,82.883L 212.451,82.883L 212.451,65.864L 169.901,65.864z" horiz-adv-x="382.748" />
<glyph unicode="&#x75;" d="M 85.066,295.626L 127.615,295.626L 127.615,278.607L 85.066,278.607zM 254.999,295.626L 297.548,295.626L 297.548,278.607L 254.999,278.607zM 85.066,253.078L 127.615,253.078L 127.615,236.059L 85.066,236.059zM 254.999,253.078L 297.548,253.078L 297.548,236.059L 254.999,236.059zM 85.066,210.529L 127.615,210.529L 127.615,193.509L 85.066,193.509zM 254.999,210.529L 297.548,210.529L 297.548,193.509L 254.999,193.509zM 85.066,167.981L 127.615,167.981L 127.615,150.961L 85.066,150.961zM 254.999,167.981L 297.548,167.981L 297.548,150.961L 254.999,150.961zM 85.066,125.433L 127.615,125.433L 127.615,108.413L 85.066,108.413zM 254.999,125.433L 297.548,125.433L 297.548,108.413L 254.999,108.413zM 127.615,82.883L 170.164,82.883L 170.164,65.864L 127.615,65.864zM 212.449,82.883L 254.997,82.883L 254.997,65.864L 212.449,65.864zM 169.901,82.883L 212.451,82.883L 212.451,65.864L 169.901,65.864zM 297.546,82.883L 340.095,82.883L 340.095,65.864L 297.546,65.864z" horiz-adv-x="382.748" />
<glyph unicode="&#x74;" d="M 169.901,423.27L 212.451,423.27L 212.451,406.251L 169.901,406.251zM 169.901,380.722L 212.451,380.722L 212.451,363.701L 169.901,363.701zM 169.901,338.173L 212.451,338.173L 212.451,321.154L 169.901,321.154zM 127.615,295.626L 170.164,295.626L 170.164,278.607L 127.615,278.607zM 212.449,295.626L 254.997,295.626L 254.997,278.607L 212.449,278.607zM 169.901,295.626L 212.451,295.626L 212.451,278.607L 169.901,278.607zM 169.901,253.078L 212.451,253.078L 212.451,236.059L 169.901,236.059zM 169.901,210.529L 212.451,210.529L 212.451,193.509L 169.901,193.509zM 169.901,167.981L 212.451,167.981L 212.451,150.961L 169.901,150.961zM 169.901,125.433L 212.451,125.433L 212.451,108.413L 169.901,108.413zM 254.999,125.433L 297.548,125.433L 297.548,108.413L 254.999,108.413zM 212.449,82.883L 254.997,82.883L 254.997,65.864L 212.449,65.864z" horiz-adv-x="382.748" />
<glyph unicode="&#x73;" d="M 127.616,295.626L 170.164,295.626L 170.164,278.607L 127.616,278.607zM 85.067,295.626L 127.617,295.626L 127.617,278.607L 85.067,278.607zM 212.45,295.626L 254.999,295.626L 254.999,278.607L 212.45,278.607zM 169.902,295.626L 212.451,295.626L 212.451,278.607L 169.902,278.607zM 255,295.626L 297.547,295.626L 297.547,278.607L 255,278.607zM 42.518,253.078L 85.067,253.078L 85.067,236.059L 42.518,236.059zM 297.546,253.078L 340.096,253.078L 340.096,236.059L 297.546,236.059zM 127.616,210.529L 170.164,210.529L 170.164,193.509L 127.616,193.509zM 85.067,210.529L 127.617,210.529L 127.617,193.509L 85.067,193.509zM 212.45,167.981L 254.999,167.981L 254.999,150.961L 212.45,150.961zM 169.902,167.981L 212.451,167.981L 212.451,150.961L 169.902,150.961zM 255,167.981L 297.547,167.981L 297.547,150.961L 255,150.961zM 42.518,125.433L 85.067,125.433L 85.067,108.413L 42.518,108.413zM 297.546,125.433L 340.096,125.433L 340.096,108.413L 297.546,108.413zM 127.616,82.883L 170.164,82.883L 170.164,65.864L 127.616,65.864zM 85.067,82.883L 127.617,82.883L 127.617,65.864L 85.067,65.864zM 212.45,82.883L 254.999,82.883L 254.999,65.864L 212.45,65.864zM 169.902,82.883L 212.451,82.883L 212.451,65.864L 169.902,65.864zM 255,82.883L 297.547,82.883L 297.547,65.864L 255,65.864z" horiz-adv-x="382.748" />
<glyph unicode="&#x72;" d="M 42.517,295.626L 85.066,295.626L 85.066,278.607L 42.517,278.607zM 212.449,295.626L 254.997,295.626L 254.997,278.607L 212.449,278.607zM 169.901,295.626L 212.451,295.626L 212.451,278.607L 169.901,278.607zM 254.999,295.626L 297.548,295.626L 297.548,278.607L 254.999,278.607zM 127.615,253.078L 170.164,253.078L 170.164,236.059L 127.615,236.059zM 85.066,253.078L 127.615,253.078L 127.615,236.059L 85.066,236.059zM 297.546,253.078L 340.095,253.078L 340.095,236.059L 297.546,236.059zM 85.066,210.529L 127.615,210.529L 127.615,193.509L 85.066,193.509zM 85.066,167.981L 127.615,167.981L 127.615,150.961L 85.066,150.961zM 85.066,125.433L 127.615,125.433L 127.615,108.413L 85.066,108.413zM 85.066,82.883L 127.615,82.883L 127.615,65.864L 85.066,65.864z" horiz-adv-x="382.748" />
<glyph unicode="&#x71;" d="M 127.616,295.626L 170.164,295.626L 170.164,278.607L 127.616,278.607zM 85.068,295.626L 127.618,295.626L 127.618,278.607L 85.068,278.607zM 212.451,295.626L 255,295.626L 255,278.607L 212.451,278.607zM 169.902,295.626L 212.451,295.626L 212.451,278.607L 169.902,278.607zM 297.548,295.626L 340.098,295.626L 340.098,278.607L 297.548,278.607zM 254.999,295.626L 297.548,295.626L 297.548,278.607L 254.999,278.607zM 42.518,253.078L 85.067,253.078L 85.067,236.059L 42.518,236.059zM 297.548,253.078L 340.098,253.078L 340.098,236.059L 297.548,236.059zM 42.518,210.529L 85.067,210.529L 85.067,193.509L 42.518,193.509zM 297.548,210.529L 340.098,210.529L 340.098,193.509L 297.548,193.509zM 42.518,167.981L 85.067,167.981L 85.067,150.961L 42.518,150.961zM 297.548,167.981L 340.098,167.981L 340.098,150.961L 297.548,150.961zM 42.518,125.433L 85.067,125.433L 85.067,108.413L 42.518,108.413zM 297.548,125.433L 340.098,125.433L 340.098,108.413L 297.548,108.413zM 127.616,82.883L 170.164,82.883L 170.164,65.864L 127.616,65.864zM 85.068,82.883L 127.618,82.883L 127.618,65.864L 85.068,65.864zM 212.451,82.883L 255,82.883L 255,65.864L 212.451,65.864zM 169.902,82.883L 212.451,82.883L 212.451,65.864L 169.902,65.864zM 297.548,82.883L 340.098,82.883L 340.098,65.864L 297.548,65.864zM 254.999,82.883L 297.548,82.883L 297.548,65.864L 254.999,65.864zM 297.548,40.336L 340.098,40.336L 340.098,23.316L 297.548,23.316zM 297.548-2.212L 340.098-2.212L 340.098-19.231L 297.548-19.231z" horiz-adv-x="382.748" />
<glyph unicode="&#x70;" d="M 127.615,295.626L 170.164,295.626L 170.164,278.607L 127.615,278.607zM 85.066,295.626L 127.615,295.626L 127.615,278.607L 85.066,278.607zM 212.449,295.626L 254.997,295.626L 254.997,278.607L 212.449,278.607zM 169.901,295.626L 212.451,295.626L 212.451,278.607L 169.901,278.607zM 85.066,253.078L 127.615,253.078L 127.615,236.059L 85.066,236.059zM 254.999,253.078L 297.548,253.078L 297.548,236.059L 254.999,236.059zM 85.066,210.529L 127.615,210.529L 127.615,193.509L 85.066,193.509zM 254.999,210.529L 297.548,210.529L 297.548,193.509L 254.999,193.509zM 85.066,167.981L 127.615,167.981L 127.615,150.961L 85.066,150.961zM 254.999,167.981L 297.548,167.981L 297.548,150.961L 254.999,150.961zM 85.066,125.433L 127.615,125.433L 127.615,108.413L 85.066,108.413zM 254.999,125.433L 297.548,125.433L 297.548,108.413L 254.999,108.413zM 127.615,82.883L 170.164,82.883L 170.164,65.864L 127.615,65.864zM 85.066,82.883L 127.615,82.883L 127.615,65.864L 85.066,65.864zM 212.449,82.883L 254.997,82.883L 254.997,65.864L 212.449,65.864zM 169.901,82.883L 212.451,82.883L 212.451,65.864L 169.901,65.864zM 85.066,40.336L 127.615,40.336L 127.615,23.316L 85.066,23.316zM 85.066-2.212L 127.615-2.212L 127.615-19.231L 85.066-19.231z" horiz-adv-x="382.748" />
<glyph unicode="&#x6f;" d="M 127.615,295.626L 170.164,295.626L 170.164,278.607L 127.615,278.607zM 212.449,295.626L 254.997,295.626L 254.997,278.607L 212.449,278.607zM 169.901,295.626L 212.451,295.626L 212.451,278.607L 169.901,278.607zM 85.066,253.078L 127.615,253.078L 127.615,236.059L 85.066,236.059zM 254.999,253.078L 297.548,253.078L 297.548,236.059L 254.999,236.059zM 85.066,210.529L 127.615,210.529L 127.615,193.509L 85.066,193.509zM 254.999,210.529L 297.548,210.529L 297.548,193.509L 254.999,193.509zM 85.066,167.981L 127.615,167.981L 127.615,150.961L 85.066,150.961zM 254.999,167.981L 297.548,167.981L 297.548,150.961L 254.999,150.961zM 85.066,125.433L 127.615,125.433L 127.615,108.413L 85.066,108.413zM 254.999,125.433L 297.548,125.433L 297.548,108.413L 254.999,108.413zM 127.615,82.883L 170.164,82.883L 170.164,65.864L 127.615,65.864zM 212.449,82.883L 254.997,82.883L 254.997,65.864L 212.449,65.864zM 169.901,82.883L 212.451,82.883L 212.451,65.864L 169.901,65.864z" horiz-adv-x="382.748" />
<glyph unicode="&#x6e;" d="M 42.517,295.626L 85.066,295.626L 85.066,278.607L 42.517,278.607zM 212.449,295.626L 254.997,295.626L 254.997,278.607L 212.449,278.607zM 169.901,295.626L 212.451,295.626L 212.451,278.607L 169.901,278.607zM 254.999,295.626L 297.548,295.626L 297.548,278.607L 254.999,278.607zM 127.615,253.078L 170.164,253.078L 170.164,236.059L 127.615,236.059zM 85.066,253.078L 127.615,253.078L 127.615,236.059L 85.066,236.059zM 297.546,253.078L 340.095,253.078L 340.095,236.059L 297.546,236.059zM 85.066,210.529L 127.615,210.529L 127.615,193.509L 85.066,193.509zM 297.546,210.529L 340.095,210.529L 340.095,193.509L 297.546,193.509zM 85.066,167.981L 127.615,167.981L 127.615,150.961L 85.066,150.961zM 297.546,167.981L 340.095,167.981L 340.095,150.961L 297.546,150.961zM 85.066,125.433L 127.615,125.433L 127.615,108.413L 85.066,108.413zM 297.546,125.433L 340.095,125.433L 340.095,108.413L 297.546,108.413zM 85.066,82.883L 127.615,82.883L 127.615,65.864L 85.066,65.864zM 297.546,82.883L 340.095,82.883L 340.095,65.864L 297.546,65.864z" horiz-adv-x="382.748" />
<glyph unicode="&#x6d;" d="M 42.517,295.626L 85.066,295.626L 85.066,278.607L 42.517,278.607zM 127.615,295.626L 170.164,295.626L 170.164,278.607L 127.615,278.607zM 85.066,295.626L 127.615,295.626L 127.615,278.607L 85.066,278.607zM 212.449,295.626L 254.997,295.626L 254.997,278.607L 212.449,278.607zM 254.999,295.626L 297.548,295.626L 297.548,278.607L 254.999,278.607zM 42.517,253.078L 85.066,253.078L 85.066,236.059L 42.517,236.059zM 127.615,253.078L 170.164,253.078L 170.164,236.059L 127.615,236.059zM 212.449,253.078L 254.997,253.078L 254.997,236.059L 212.449,236.059zM 169.901,253.078L 212.451,253.078L 212.451,236.059L 169.901,236.059zM 297.546,253.078L 340.095,253.078L 340.095,236.059L 297.546,236.059zM 42.517,210.529L 85.066,210.529L 85.066,193.509L 42.517,193.509zM 169.901,210.529L 212.451,210.529L 212.451,193.509L 169.901,193.509zM 297.546,210.529L 340.095,210.529L 340.095,193.509L 297.546,193.509zM 42.517,167.981L 85.066,167.981L 85.066,150.961L 42.517,150.961zM 169.901,167.981L 212.451,167.981L 212.451,150.961L 169.901,150.961zM 297.546,167.981L 340.095,167.981L 340.095,150.961L 297.546,150.961zM 42.517,125.433L 85.066,125.433L 85.066,108.413L 42.517,108.413zM 297.546,125.433L 340.095,125.433L 340.095,108.413L 297.546,108.413zM 42.517,82.883L 85.066,82.883L 85.066,65.864L 42.517,65.864zM 297.546,82.883L 340.095,82.883L 340.095,65.864L 297.546,65.864z" horiz-adv-x="382.748" />
<glyph unicode="&#x6c;" d="M 127.615,423.27L 170.164,423.27L 170.164,406.251L 127.615,406.251zM 169.901,423.27L 212.451,423.27L 212.451,406.251L 169.901,406.251zM 169.901,380.722L 212.451,380.722L 212.451,363.701L 169.901,363.701zM 169.901,338.173L 212.451,338.173L 212.451,321.154L 169.901,321.154zM 169.901,295.626L 212.451,295.626L 212.451,278.607L 169.901,278.607zM 169.901,253.078L 212.451,253.078L 212.451,236.059L 169.901,236.059zM 169.901,210.529L 212.451,210.529L 212.451,193.509L 169.901,193.509zM 169.901,167.981L 212.451,167.981L 212.451,150.961L 169.901,150.961zM 169.901,125.433L 212.451,125.433L 212.451,108.413L 169.901,108.413zM 297.546,125.433L 340.095,125.433L 340.095,108.413L 297.546,108.413zM 212.449,82.883L 254.997,82.883L 254.997,65.864L 212.449,65.864zM 254.999,82.883L 297.548,82.883L 297.548,65.864L 254.999,65.864z" horiz-adv-x="382.748" />
<glyph unicode="&#x6b;" d="M 85.066,423.27L 127.614,423.27L 127.614,406.251L 85.066,406.251zM 85.066,380.722L 127.614,380.722L 127.614,363.701L 85.066,363.701zM 85.066,338.173L 127.614,338.173L 127.614,321.154L 85.066,321.154zM 85.066,295.626L 127.614,295.626L 127.614,278.607L 85.066,278.607zM 212.448,295.626L 254.997,295.626L 254.997,278.607L 212.448,278.607zM 254.999,295.626L 297.547,295.626L 297.547,278.607L 254.999,278.607zM 85.066,253.078L 127.614,253.078L 127.614,236.059L 85.066,236.059zM 169.901,253.078L 212.45,253.078L 212.45,236.059L 169.901,236.059zM 127.614,210.529L 170.163,210.529L 170.163,193.509L 127.614,193.509zM 85.066,210.529L 127.614,210.529L 127.614,193.509L 85.066,193.509zM 85.066,167.981L 127.614,167.981L 127.614,150.961L 85.066,150.961zM 169.901,167.981L 212.45,167.981L 212.45,150.961L 169.901,150.961zM 85.066,125.433L 127.614,125.433L 127.614,108.413L 85.066,108.413zM 212.448,125.433L 254.997,125.433L 254.997,108.413L 212.448,108.413zM 85.066,82.883L 127.614,82.883L 127.614,65.864L 85.066,65.864zM 212.448,82.883L 254.997,82.883L 254.997,65.864L 212.448,65.864zM 254.999,82.883L 297.547,82.883L 297.547,65.864L 254.999,65.864z" horiz-adv-x="382.748" />
<glyph unicode="&#x6a;" d="M 169.901,380.722L 212.451,380.722L 212.451,363.701L 169.901,363.701zM 127.615,295.626L 170.164,295.626L 170.164,278.607L 127.615,278.607zM 169.901,295.626L 212.451,295.626L 212.451,278.607L 169.901,278.607zM 169.901,253.078L 212.451,253.078L 212.451,236.059L 169.901,236.059zM 169.901,210.529L 212.451,210.529L 212.451,193.509L 169.901,193.509zM 169.901,167.981L 212.451,167.981L 212.451,150.961L 169.901,150.961zM 169.901,125.433L 212.451,125.433L 212.451,108.413L 169.901,108.413zM 169.901,82.883L 212.451,82.883L 212.451,65.864L 169.901,65.864zM 42.517,40.336L 85.066,40.336L 85.066,23.316L 42.517,23.316zM 169.901,40.336L 212.451,40.336L 212.451,23.316L 169.901,23.316zM 127.615-2.212L 170.164-2.212L 170.164-19.231L 127.615-19.231zM 85.066-2.212L 127.615-2.212L 127.615-19.231L 85.066-19.231z" horiz-adv-x="382.748" />
<glyph unicode="&#x69;" d="M 169.901,380.722L 212.451,380.722L 212.451,363.701L 169.901,363.701zM 127.615,295.626L 170.164,295.626L 170.164,278.607L 127.615,278.607zM 169.901,295.626L 212.451,295.626L 212.451,278.607L 169.901,278.607zM 169.901,253.078L 212.451,253.078L 212.451,236.059L 169.901,236.059zM 169.901,210.529L 212.451,210.529L 212.451,193.509L 169.901,193.509zM 169.901,167.981L 212.451,167.981L 212.451,150.961L 169.901,150.961zM 169.901,125.433L 212.451,125.433L 212.451,108.413L 169.901,108.413zM 127.615,82.883L 170.164,82.883L 170.164,65.864L 127.615,65.864zM 212.449,82.883L 254.997,82.883L 254.997,65.864L 212.449,65.864zM 169.901,82.883L 212.451,82.883L 212.451,65.864L 169.901,65.864z" horiz-adv-x="382.748" />
<glyph unicode="&#x68;" d="M 42.516,423.27L 85.065,423.27L 85.065,406.251L 42.516,406.251zM 42.516,380.722L 85.065,380.722L 85.065,363.701L 42.516,363.701zM 42.516,338.173L 85.065,338.173L 85.065,321.154L 42.516,321.154zM 42.516,295.626L 85.065,295.626L 85.065,278.607L 42.516,278.607zM 127.615,295.626L 170.163,295.626L 170.163,278.607L 127.615,278.607zM 212.448,295.626L 254.997,295.626L 254.997,278.607L 212.448,278.607zM 169.901,295.626L 212.45,295.626L 212.45,278.607L 169.901,278.607zM 254.998,295.626L 297.547,295.626L 297.547,278.607L 254.998,278.607zM 42.516,253.078L 85.065,253.078L 85.065,236.059L 42.516,236.059zM 85.066,253.078L 127.616,253.078L 127.616,236.059L 85.066,236.059zM 297.546,253.078L 340.094,253.078L 340.094,236.059L 297.546,236.059zM 42.516,210.529L 85.065,210.529L 85.065,193.509L 42.516,193.509zM 297.546,210.529L 340.094,210.529L 340.094,193.509L 297.546,193.509zM 42.516,167.981L 85.065,167.981L 85.065,150.961L 42.516,150.961zM 297.546,167.981L 340.094,167.981L 340.094,150.961L 297.546,150.961zM 42.516,125.433L 85.065,125.433L 85.065,108.413L 42.516,108.413zM 297.546,125.433L 340.094,125.433L 340.094,108.413L 297.546,108.413zM 42.516,82.883L 85.065,82.883L 85.065,65.864L 42.516,65.864zM 297.546,82.883L 340.094,82.883L 340.094,65.864L 297.546,65.864z" horiz-adv-x="382.748" />
<glyph unicode="&#x67;" d="M 127.615,295.626L 170.164,295.626L 170.164,278.607L 127.615,278.607zM 85.066,295.626L 127.615,295.626L 127.615,278.607L 85.066,278.607zM 212.449,295.626L 254.997,295.626L 254.997,278.607L 212.449,278.607zM 169.901,295.626L 212.451,295.626L 212.451,278.607L 169.901,278.607zM 254.999,295.626L 297.548,295.626L 297.548,278.607L 254.999,278.607zM 42.517,253.078L 85.066,253.078L 85.066,236.059L 42.517,236.059zM 297.546,253.078L 340.095,253.078L 340.095,236.059L 297.546,236.059zM 42.517,210.529L 85.066,210.529L 85.066,193.509L 42.517,193.509zM 297.546,210.529L 340.095,210.529L 340.095,193.509L 297.546,193.509zM 42.517,167.981L 85.066,167.981L 85.066,150.961L 42.517,150.961zM 297.546,167.981L 340.095,167.981L 340.095,150.961L 297.546,150.961zM 127.615,125.433L 170.164,125.433L 170.164,108.413L 127.615,108.413zM 85.066,125.433L 127.615,125.433L 127.615,108.413L 85.066,108.413zM 212.449,125.433L 254.997,125.433L 254.997,108.413L 212.449,108.413zM 169.901,125.433L 212.451,125.433L 212.451,108.413L 169.901,108.413zM 297.546,125.433L 340.095,125.433L 340.095,108.413L 297.546,108.413zM 254.999,125.433L 297.548,125.433L 297.548,108.413L 254.999,108.413zM 297.546,82.883L 340.095,82.883L 340.095,65.864L 297.546,65.864zM 297.546,40.336L 340.095,40.336L 340.095,23.316L 297.546,23.316zM 127.615-2.212L 170.164-2.212L 170.164-19.231L 127.615-19.231zM 85.066-2.212L 127.615-2.212L 127.615-19.231L 85.066-19.231zM 212.449-2.212L 254.997-2.212L 254.997-19.231L 212.449-19.231zM 169.901-2.212L 212.451-2.212L 212.451-19.231L 169.901-19.231zM 254.999-2.212L 297.548-2.212L 297.548-19.231L 254.999-19.231z" horiz-adv-x="382.748" />
<glyph unicode="&#x66;" d="M 212.449,423.27L 254.996,423.27L 254.996,406.251L 212.449,406.251zM 254.999,423.27L 297.548,423.27L 297.548,406.251L 254.999,406.251zM 169.902,380.722L 212.451,380.722L 212.451,363.701L 169.902,363.701zM 297.546,380.722L 340.095,380.722L 340.095,363.701L 297.546,363.701zM 169.902,338.173L 212.451,338.173L 212.451,321.154L 169.902,321.154zM 169.902,295.626L 212.451,295.626L 212.451,278.607L 169.902,278.607zM 127.615,253.078L 170.164,253.078L 170.164,236.059L 127.615,236.059zM 212.449,253.078L 254.996,253.078L 254.996,236.059L 212.449,236.059zM 169.902,253.078L 212.451,253.078L 212.451,236.059L 169.902,236.059zM 169.902,210.529L 212.451,210.529L 212.451,193.509L 169.902,193.509zM 169.902,167.981L 212.451,167.981L 212.451,150.961L 169.902,150.961zM 169.902,125.433L 212.451,125.433L 212.451,108.413L 169.902,108.413zM 169.902,82.883L 212.451,82.883L 212.451,65.864L 169.902,65.864z" horiz-adv-x="382.748" />
<glyph unicode="&#x65;" d="M 127.615,295.626L 170.164,295.626L 170.164,278.607L 127.615,278.607zM 85.066,295.626L 127.615,295.626L 127.615,278.607L 85.066,278.607zM 212.449,295.626L 254.997,295.626L 254.997,278.607L 212.449,278.607zM 169.901,295.626L 212.451,295.626L 212.451,278.607L 169.901,278.607zM 254.999,295.626L 297.548,295.626L 297.548,278.607L 254.999,278.607zM 42.517,253.078L 85.066,253.078L 85.066,236.059L 42.517,236.059zM 297.546,253.078L 340.095,253.078L 340.095,236.059L 297.546,236.059zM 42.517,210.529L 85.066,210.529L 85.066,193.509L 42.517,193.509zM 127.615,210.529L 170.164,210.529L 170.164,193.509L 127.615,193.509zM 85.066,210.529L 127.615,210.529L 127.615,193.509L 85.066,193.509zM 212.449,210.529L 254.997,210.529L 254.997,193.509L 212.449,193.509zM 169.901,210.529L 212.451,210.529L 212.451,193.509L 169.901,193.509zM 297.546,210.529L 340.095,210.529L 340.095,193.509L 297.546,193.509zM 254.999,210.529L 297.548,210.529L 297.548,193.509L 254.999,193.509zM 42.517,167.981L 85.066,167.981L 85.066,150.961L 42.517,150.961zM 42.517,125.433L 85.066,125.433L 85.066,108.413L 42.517,108.413zM 297.546,125.433L 340.095,125.433L 340.095,108.413L 297.546,108.413zM 127.615,82.883L 170.164,82.883L 170.164,65.864L 127.615,65.864zM 85.066,82.883L 127.615,82.883L 127.615,65.864L 85.066,65.864zM 212.449,82.883L 254.997,82.883L 254.997,65.864L 212.449,65.864zM 169.901,82.883L 212.451,82.883L 212.451,65.864L 169.901,65.864zM 254.999,82.883L 297.548,82.883L 297.548,65.864L 254.999,65.864z" horiz-adv-x="382.748" />
<glyph unicode="&#xe9;" d="M 212.451,423.27L 255,423.27L 255,406.251L 212.451,406.251zM 254.999,423.27L 297.548,423.27L 297.548,406.251L 254.999,406.251zM 169.902,380.722L 212.451,380.722L 212.451,363.701L 169.902,363.701zM 127.616,295.626L 170.164,295.626L 170.164,278.607L 127.616,278.607zM 85.068,295.626L 127.618,295.626L 127.618,278.607L 85.068,278.607zM 212.451,295.626L 255,295.626L 255,278.607L 212.451,278.607zM 169.902,295.626L 212.451,295.626L 212.451,278.607L 169.902,278.607zM 254.999,295.626L 297.548,295.626L 297.548,278.607L 254.999,278.607zM 42.518,253.078L 85.067,253.078L 85.067,236.059L 42.518,236.059zM 297.548,253.078L 340.098,253.078L 340.098,236.059L 297.548,236.059zM 42.518,210.529L 85.067,210.529L 85.067,193.509L 42.518,193.509zM 127.616,210.529L 170.164,210.529L 170.164,193.509L 127.616,193.509zM 85.068,210.529L 127.618,210.529L 127.618,193.509L 85.068,193.509zM 212.451,210.529L 255,210.529L 255,193.509L 212.451,193.509zM 169.902,210.529L 212.451,210.529L 212.451,193.509L 169.902,193.509zM 297.548,210.529L 340.098,210.529L 340.098,193.509L 297.548,193.509zM 254.999,210.529L 297.548,210.529L 297.548,193.509L 254.999,193.509zM 42.518,167.981L 85.067,167.981L 85.067,150.961L 42.518,150.961zM 42.518,125.433L 85.067,125.433L 85.067,108.413L 42.518,108.413zM 297.548,125.433L 340.098,125.433L 340.098,108.413L 297.548,108.413zM 127.616,82.883L 170.164,82.883L 170.164,65.864L 127.616,65.864zM 85.068,82.883L 127.618,82.883L 127.618,65.864L 85.068,65.864zM 212.451,82.883L 255,82.883L 255,65.864L 212.451,65.864zM 169.902,82.883L 212.451,82.883L 212.451,65.864L 169.902,65.864zM 254.999,82.883L 297.548,82.883L 297.548,65.864L 254.999,65.864z" horiz-adv-x="382.748"  />
<glyph unicode="&#xe8;" d="M 127.615,423.27L 170.164,423.27L 170.164,406.251L 127.615,406.251zM 85.066,423.27L 127.615,423.27L 127.615,406.251L 85.066,406.251zM 169.901,380.722L 212.451,380.722L 212.451,363.701L 169.901,363.701zM 127.615,295.626L 170.164,295.626L 170.164,278.607L 127.615,278.607zM 85.066,295.626L 127.615,295.626L 127.615,278.607L 85.066,278.607zM 212.449,295.626L 254.997,295.626L 254.997,278.607L 212.449,278.607zM 169.901,295.626L 212.451,295.626L 212.451,278.607L 169.901,278.607zM 254.998,295.626L 297.547,295.626L 297.547,278.607L 254.998,278.607zM 42.517,253.078L 85.066,253.078L 85.066,236.059L 42.517,236.059zM 297.546,253.078L 340.095,253.078L 340.095,236.059L 297.546,236.059zM 42.517,210.529L 85.066,210.529L 85.066,193.509L 42.517,193.509zM 127.615,210.529L 170.164,210.529L 170.164,193.509L 127.615,193.509zM 85.066,210.529L 127.615,210.529L 127.615,193.509L 85.066,193.509zM 212.449,210.529L 254.997,210.529L 254.997,193.509L 212.449,193.509zM 169.901,210.529L 212.451,210.529L 212.451,193.509L 169.901,193.509zM 297.546,210.529L 340.095,210.529L 340.095,193.509L 297.546,193.509zM 254.998,210.529L 297.547,210.529L 297.547,193.509L 254.998,193.509zM 42.517,167.981L 85.066,167.981L 85.066,150.961L 42.517,150.961zM 42.517,125.433L 85.066,125.433L 85.066,108.413L 42.517,108.413zM 297.546,125.433L 340.095,125.433L 340.095,108.413L 297.546,108.413zM 127.615,82.883L 170.164,82.883L 170.164,65.864L 127.615,65.864zM 85.066,82.883L 127.615,82.883L 127.615,65.864L 85.066,65.864zM 212.449,82.883L 254.997,82.883L 254.997,65.864L 212.449,65.864zM 169.901,82.883L 212.451,82.883L 212.451,65.864L 169.901,65.864zM 254.998,82.883L 297.547,82.883L 297.547,65.864L 254.998,65.864z" horiz-adv-x="382.748"  />
<glyph unicode="&#x64;" d="M 255,423.27L 297.548,423.27L 297.548,406.251L 255,406.251zM 255,380.722L 297.548,380.722L 297.548,363.701L 255,363.701zM 255,338.173L 297.548,338.173L 297.548,321.154L 255,321.154zM 127.616,295.626L 170.164,295.626L 170.164,278.607L 127.616,278.607zM 212.45,295.626L 254.999,295.626L 254.999,278.607L 212.45,278.607zM 169.902,295.626L 212.451,295.626L 212.451,278.607L 169.902,278.607zM 255,295.626L 297.548,295.626L 297.548,278.607L 255,278.607zM 85.067,253.078L 127.617,253.078L 127.617,236.059L 85.067,236.059zM 255,253.078L 297.548,253.078L 297.548,236.059L 255,236.059zM 85.067,210.529L 127.617,210.529L 127.617,193.509L 85.067,193.509zM 255,210.529L 297.548,210.529L 297.548,193.509L 255,193.509zM 85.067,167.981L 127.617,167.981L 127.617,150.961L 85.067,150.961zM 255,167.981L 297.548,167.981L 297.548,150.961L 255,150.961zM 85.067,125.433L 127.617,125.433L 127.617,108.413L 85.067,108.413zM 255,125.433L 297.548,125.433L 297.548,108.413L 255,108.413zM 127.616,82.883L 170.164,82.883L 170.164,65.864L 127.616,65.864zM 212.45,82.883L 254.999,82.883L 254.999,65.864L 212.45,65.864zM 169.902,82.883L 212.451,82.883L 212.451,65.864L 169.902,65.864zM 297.547,82.883L 340.097,82.883L 340.097,65.864L 297.547,65.864z" horiz-adv-x="382.748" />
<glyph unicode="&#x63;" d="M 127.615,295.626L 170.164,295.626L 170.164,278.607L 127.615,278.607zM 85.066,295.626L 127.615,295.626L 127.615,278.607L 85.066,278.607zM 212.449,295.626L 254.997,295.626L 254.997,278.607L 212.449,278.607zM 169.901,295.626L 212.451,295.626L 212.451,278.607L 169.901,278.607zM 254.999,295.626L 297.548,295.626L 297.548,278.607L 254.999,278.607zM 42.517,253.078L 85.066,253.078L 85.066,236.059L 42.517,236.059zM 297.546,253.078L 340.095,253.078L 340.095,236.059L 297.546,236.059zM 42.517,210.529L 85.066,210.529L 85.066,193.509L 42.517,193.509zM 42.517,167.981L 85.066,167.981L 85.066,150.961L 42.517,150.961zM 42.517,125.433L 85.066,125.433L 85.066,108.413L 42.517,108.413zM 297.546,125.433L 340.095,125.433L 340.095,108.413L 297.546,108.413zM 127.615,82.883L 170.164,82.883L 170.164,65.864L 127.615,65.864zM 85.066,82.883L 127.615,82.883L 127.615,65.864L 85.066,65.864zM 212.449,82.883L 254.997,82.883L 254.997,65.864L 212.449,65.864zM 169.901,82.883L 212.451,82.883L 212.451,65.864L 169.901,65.864zM 254.999,82.883L 297.548,82.883L 297.548,65.864L 254.999,65.864z" horiz-adv-x="382.748" />
<glyph unicode="&#xe7;" d="M 127.615,295.626L 170.164,295.626L 170.164,278.607L 127.615,278.607zM 85.066,295.626L 127.615,295.626L 127.615,278.607L 85.066,278.607zM 212.449,295.626L 254.997,295.626L 254.997,278.607L 212.449,278.607zM 169.901,295.626L 212.451,295.626L 212.451,278.607L 169.901,278.607zM 254.999,295.626L 297.548,295.626L 297.548,278.607L 254.999,278.607zM 42.517,253.078L 85.066,253.078L 85.066,236.059L 42.517,236.059zM 297.546,253.078L 340.095,253.078L 340.095,236.059L 297.546,236.059zM 42.517,210.529L 85.066,210.529L 85.066,193.509L 42.517,193.509zM 42.517,167.981L 85.066,167.981L 85.066,150.961L 42.517,150.961zM 42.517,125.433L 85.066,125.433L 85.066,108.413L 42.517,108.413zM 297.546,125.433L 340.095,125.433L 340.095,108.413L 297.546,108.413zM 127.615,82.883L 170.164,82.883L 170.164,65.864L 127.615,65.864zM 85.066,82.883L 127.615,82.883L 127.615,65.864L 85.066,65.864zM 212.449,82.883L 254.997,82.883L 254.997,65.864L 212.449,65.864zM 169.901,82.883L 212.451,82.883L 212.451,65.864L 169.901,65.864zM 254.999,82.883L 297.548,82.883L 297.548,65.864L 254.999,65.864zM 254.999,40.336L 297.548,40.336L 297.548,23.316L 254.999,23.316zM 127.615-2.212L 170.164-2.212L 170.164-19.231L 127.615-19.231zM 85.066-2.212L 127.615-2.212L 127.615-19.231L 85.066-19.231zM 212.449-2.212L 254.997-2.212L 254.997-19.231L 212.449-19.231zM 169.901-2.212L 212.451-2.212L 212.451-19.231L 169.901-19.231z" horiz-adv-x="382.748"  />
<glyph unicode="&#x62;" d="M 42.517,423.27L 85.066,423.27L 85.066,406.251L 42.517,406.251zM 42.517,380.722L 85.066,380.722L 85.066,363.701L 42.517,363.701zM 42.517,338.173L 85.066,338.173L 85.066,321.154L 42.517,321.154zM 42.517,295.626L 85.066,295.626L 85.066,278.607L 42.517,278.607zM 127.615,295.626L 170.164,295.626L 170.164,278.607L 127.615,278.607zM 212.449,295.626L 254.997,295.626L 254.997,278.607L 212.449,278.607zM 169.901,295.626L 212.451,295.626L 212.451,278.607L 169.901,278.607zM 254.999,295.626L 297.548,295.626L 297.548,278.607L 254.999,278.607zM 42.517,253.078L 85.066,253.078L 85.066,236.059L 42.517,236.059zM 85.066,253.078L 127.615,253.078L 127.615,236.059L 85.066,236.059zM 297.546,253.078L 340.095,253.078L 340.095,236.059L 297.546,236.059zM 42.517,210.529L 85.066,210.529L 85.066,193.509L 42.517,193.509zM 297.546,210.529L 340.095,210.529L 340.095,193.509L 297.546,193.509zM 42.517,167.981L 85.066,167.981L 85.066,150.961L 42.517,150.961zM 297.546,167.981L 340.095,167.981L 340.095,150.961L 297.546,150.961zM 42.517,125.433L 85.066,125.433L 85.066,108.413L 42.517,108.413zM 297.546,125.433L 340.095,125.433L 340.095,108.413L 297.546,108.413zM 42.517,82.883L 85.066,82.883L 85.066,65.864L 42.517,65.864zM 127.615,82.883L 170.164,82.883L 170.164,65.864L 127.615,65.864zM 85.066,82.883L 127.615,82.883L 127.615,65.864L 85.066,65.864zM 212.449,82.883L 254.997,82.883L 254.997,65.864L 212.449,65.864zM 169.901,82.883L 212.451,82.883L 212.451,65.864L 169.901,65.864zM 254.999,82.883L 297.548,82.883L 297.548,65.864L 254.999,65.864z" horiz-adv-x="382.748" />
<glyph unicode="&#x61;" d="M 127.615,295.626L 170.164,295.626L 170.164,278.607L 127.615,278.607zM 85.066,295.626L 127.616,295.626L 127.616,278.607L 85.066,278.607zM 212.449,295.626L 254.998,295.626L 254.998,278.607L 212.449,278.607zM 169.901,295.626L 212.451,295.626L 212.451,278.607L 169.901,278.607zM 254.999,253.078L 297.548,253.078L 297.548,236.059L 254.999,236.059zM 127.615,210.529L 170.164,210.529L 170.164,193.509L 127.615,193.509zM 85.066,210.529L 127.616,210.529L 127.616,193.509L 85.066,193.509zM 212.449,210.529L 254.998,210.529L 254.998,193.509L 212.449,193.509zM 169.901,210.529L 212.451,210.529L 212.451,193.509L 169.901,193.509zM 254.999,210.529L 297.548,210.529L 297.548,193.509L 254.999,193.509zM 42.517,167.981L 85.066,167.981L 85.066,150.961L 42.517,150.961zM 254.999,167.981L 297.548,167.981L 297.548,150.961L 254.999,150.961zM 42.517,125.433L 85.066,125.433L 85.066,108.412L 42.517,108.412zM 254.999,125.433L 297.548,125.433L 297.548,108.412L 254.999,108.412zM 127.615,82.883L 170.164,82.883L 170.164,65.864L 127.615,65.864zM 85.066,82.883L 127.616,82.883L 127.616,65.864L 85.066,65.864zM 212.449,82.883L 254.998,82.883L 254.998,65.864L 212.449,65.864zM 169.901,82.883L 212.451,82.883L 212.451,65.864L 169.901,65.864zM 297.546,82.883L 340.096,82.883L 340.096,65.864L 297.546,65.864z" horiz-adv-x="382.748" />
<glyph unicode="&#xe1;" d="M 127.615,423.27L 170.164,423.27L 170.164,406.251L 127.615,406.251zM 85.066,423.27L 127.616,423.27L 127.616,406.251L 85.066,406.251zM 169.901,380.722L 212.451,380.722L 212.451,363.7L 169.901,363.7zM 127.615,295.626L 170.164,295.626L 170.164,278.607L 127.615,278.607zM 85.066,295.626L 127.616,295.626L 127.616,278.607L 85.066,278.607zM 212.449,295.626L 254.998,295.626L 254.998,278.607L 212.449,278.607zM 169.901,295.626L 212.451,295.626L 212.451,278.607L 169.901,278.607zM 254.999,253.078L 297.548,253.078L 297.548,236.059L 254.999,236.059zM 127.615,210.529L 170.164,210.529L 170.164,193.509L 127.615,193.509zM 85.066,210.529L 127.616,210.529L 127.616,193.509L 85.066,193.509zM 212.449,210.529L 254.998,210.529L 254.998,193.509L 212.449,193.509zM 169.901,210.529L 212.451,210.529L 212.451,193.509L 169.901,193.509zM 254.999,210.529L 297.548,210.529L 297.548,193.509L 254.999,193.509zM 42.517,167.981L 85.066,167.981L 85.066,150.961L 42.517,150.961zM 254.999,167.981L 297.548,167.981L 297.548,150.961L 254.999,150.961zM 42.517,125.433L 85.066,125.433L 85.066,108.412L 42.517,108.412zM 254.999,125.433L 297.548,125.433L 297.548,108.412L 254.999,108.412zM 127.615,82.883L 170.164,82.883L 170.164,65.864L 127.615,65.864zM 85.066,82.883L 127.616,82.883L 127.616,65.864L 85.066,65.864zM 212.449,82.883L 254.998,82.883L 254.998,65.864L 212.449,65.864zM 169.901,82.883L 212.451,82.883L 212.451,65.864L 169.901,65.864zM 297.546,82.883L 340.096,82.883L 340.096,65.864L 297.546,65.864z" horiz-adv-x="382.748"  />
<glyph unicode="&#xe4;" d="M 42.517,380.722L 85.066,380.722L 85.066,363.701L 42.517,363.701zM 85.066,380.722L 127.615,380.722L 127.615,363.701L 85.066,363.701zM 212.449,380.722L 254.997,380.722L 254.997,363.701L 212.449,363.701zM 254.999,380.722L 297.548,380.722L 297.548,363.701L 254.999,363.701zM 127.615,295.626L 170.164,295.626L 170.164,278.607L 127.615,278.607zM 85.066,295.626L 127.615,295.626L 127.615,278.607L 85.066,278.607zM 212.449,295.626L 254.997,295.626L 254.997,278.607L 212.449,278.607zM 169.901,295.626L 212.451,295.626L 212.451,278.607L 169.901,278.607zM 254.999,253.078L 297.548,253.078L 297.548,236.059L 254.999,236.059zM 127.615,210.529L 170.164,210.529L 170.164,193.509L 127.615,193.509zM 85.066,210.529L 127.615,210.529L 127.615,193.509L 85.066,193.509zM 212.449,210.529L 254.997,210.529L 254.997,193.509L 212.449,193.509zM 169.901,210.529L 212.451,210.529L 212.451,193.509L 169.901,193.509zM 254.999,210.529L 297.548,210.529L 297.548,193.509L 254.999,193.509zM 42.517,167.981L 85.066,167.981L 85.066,150.961L 42.517,150.961zM 254.999,167.981L 297.548,167.981L 297.548,150.961L 254.999,150.961zM 42.517,125.433L 85.066,125.433L 85.066,108.413L 42.517,108.413zM 254.999,125.433L 297.548,125.433L 297.548,108.413L 254.999,108.413zM 127.615,82.883L 170.164,82.883L 170.164,65.864L 127.615,65.864zM 85.066,82.883L 127.615,82.883L 127.615,65.864L 85.066,65.864zM 212.449,82.883L 254.997,82.883L 254.997,65.864L 212.449,65.864zM 169.901,82.883L 212.451,82.883L 212.451,65.864L 169.901,65.864zM 297.546,82.883L 340.095,82.883L 340.095,65.864L 297.546,65.864z" horiz-adv-x="382.748"  />
<glyph unicode="&#x39;" d="M 95.861,423.472L 127.861,423.472L 127.861,410.672L 95.861,410.672zM 63.861,423.472L 95.861,423.472L 95.861,410.672L 63.861,410.672zM 159.663,423.472L 191.664,423.472L 191.664,410.672L 159.663,410.672zM 127.664,423.472L 159.664,423.472L 159.664,410.672L 127.664,410.672zM 191.663,423.472L 223.665,423.472L 223.665,410.672L 191.663,410.672zM 31.859,380.567L 63.86,380.567L 63.86,367.767L 31.859,367.767zM 223.665,380.567L 255.666,380.567L 255.666,367.767L 223.665,367.767zM 31.859,337.662L 63.86,337.662L 63.86,324.862L 31.859,324.862zM 223.665,337.662L 255.666,337.662L 255.666,324.862L 223.665,324.862zM 31.859,294.758L 63.86,294.758L 63.86,281.957L 31.859,281.957zM 223.665,294.758L 255.666,294.758L 255.666,281.957L 223.665,281.957zM 95.861,251.852L 127.861,251.852L 127.861,239.052L 95.861,239.052zM 63.861,251.852L 95.861,251.852L 95.861,239.052L 63.861,239.052zM 159.663,251.852L 191.664,251.852L 191.664,239.052L 159.663,239.052zM 127.664,251.852L 159.664,251.852L 159.664,239.052L 127.664,239.052zM 223.665,251.852L 255.666,251.852L 255.666,239.052L 223.665,239.052zM 191.663,251.852L 223.665,251.852L 223.665,239.052L 191.663,239.052zM 223.665,208.946L 255.666,208.946L 255.666,196.146L 223.665,196.146zM 223.665,166.041L 255.666,166.041L 255.666,153.239L 223.665,153.239zM 31.859,123.136L 63.86,123.136L 63.86,110.336L 31.859,110.336zM 223.665,123.136L 255.666,123.136L 255.666,110.336L 223.665,110.336zM 95.861,80.231L 127.861,80.231L 127.861,67.431L 95.861,67.431zM 63.861,80.231L 95.861,80.231L 95.861,67.431L 63.861,67.431zM 159.663,80.231L 191.664,80.231L 191.664,67.431L 159.663,67.431zM 127.664,80.231L 159.664,80.231L 159.664,67.431L 127.664,67.431zM 191.663,80.231L 223.665,80.231L 223.665,67.431L 191.663,67.431z" horiz-adv-x="287.624" />
<glyph unicode="&#x38;" d="M 95.749,423.472L 127.75,423.472L 127.75,410.672L 95.749,410.672zM 63.749,423.472L 95.749,423.472L 95.749,410.672L 63.749,410.672zM 159.551,423.472L 191.552,423.472L 191.552,410.672L 159.551,410.672zM 127.552,423.472L 159.553,423.472L 159.553,410.672L 127.552,410.672zM 191.552,423.472L 223.554,423.472L 223.554,410.672L 191.552,410.672zM 31.748,380.567L 63.749,380.567L 63.749,367.767L 31.748,367.767zM 223.553,380.567L 255.554,380.567L 255.554,367.767L 223.553,367.767zM 31.748,337.662L 63.749,337.662L 63.749,324.862L 31.748,324.862zM 223.553,337.662L 255.554,337.662L 255.554,324.862L 223.553,324.862zM 31.748,294.758L 63.749,294.758L 63.749,281.957L 31.748,281.957zM 223.553,294.758L 255.554,294.758L 255.554,281.957L 223.553,281.957zM 95.749,251.852L 127.75,251.852L 127.75,239.052L 95.749,239.052zM 63.749,251.852L 95.749,251.852L 95.749,239.052L 63.749,239.052zM 159.551,251.852L 191.552,251.852L 191.552,239.052L 159.551,239.052zM 127.552,251.852L 159.553,251.852L 159.553,239.052L 127.552,239.052zM 191.552,251.852L 223.554,251.852L 223.554,239.052L 191.552,239.052zM 31.748,208.946L 63.749,208.946L 63.749,196.146L 31.748,196.146zM 223.553,208.946L 255.554,208.946L 255.554,196.146L 223.553,196.146zM 31.748,166.041L 63.749,166.041L 63.749,153.239L 31.748,153.239zM 223.553,166.041L 255.554,166.041L 255.554,153.239L 223.553,153.239zM 31.748,123.136L 63.749,123.136L 63.749,110.336L 31.748,110.336zM 223.553,123.136L 255.554,123.136L 255.554,110.336L 223.553,110.336zM 95.749,80.231L 127.75,80.231L 127.75,67.431L 95.749,67.431zM 63.749,80.231L 95.749,80.231L 95.749,67.431L 63.749,67.431zM 159.551,80.231L 191.552,80.231L 191.552,67.431L 159.551,67.431zM 127.552,80.231L 159.553,80.231L 159.553,67.431L 127.552,67.431zM 191.552,80.231L 223.554,80.231L 223.554,67.431L 191.552,67.431z" horiz-adv-x="287.624" />
<glyph unicode="&#x37;" d="M 31.859,423.472L 63.86,423.472L 63.86,410.672L 31.859,410.672zM 95.861,423.472L 127.861,423.472L 127.861,410.672L 95.861,410.672zM 63.861,423.472L 95.861,423.472L 95.861,410.672L 63.861,410.672zM 159.663,423.472L 191.664,423.472L 191.664,410.672L 159.663,410.672zM 127.664,423.472L 159.664,423.472L 159.664,410.672L 127.664,410.672zM 223.665,423.472L 255.666,423.472L 255.666,410.672L 223.665,410.672zM 191.663,423.472L 223.665,423.472L 223.665,410.672L 191.663,410.672zM 223.665,380.567L 255.666,380.567L 255.666,367.767L 223.665,367.767zM 223.665,337.662L 255.666,337.662L 255.666,324.862L 223.665,324.862zM 191.663,294.758L 223.665,294.758L 223.665,281.957L 191.663,281.957zM 159.663,251.852L 191.664,251.852L 191.664,239.052L 159.663,239.052zM 127.664,208.946L 159.664,208.946L 159.664,196.146L 127.664,196.146zM 127.664,166.041L 159.664,166.041L 159.664,153.239L 127.664,153.239zM 127.664,123.136L 159.664,123.136L 159.664,110.336L 127.664,110.336zM 127.664,80.231L 159.664,80.231L 159.664,67.431L 127.664,67.431z" horiz-adv-x="287.624" />
<glyph unicode="&#x36;" d="M 95.861,423.472L 127.861,423.472L 127.861,410.672L 95.861,410.672zM 63.861,423.472L 95.861,423.472L 95.861,410.672L 63.861,410.672zM 159.663,423.472L 191.664,423.472L 191.664,410.672L 159.663,410.672zM 127.664,423.472L 159.664,423.472L 159.664,410.672L 127.664,410.672zM 191.663,423.472L 223.665,423.472L 223.665,410.672L 191.663,410.672zM 31.859,380.567L 63.86,380.567L 63.86,367.767L 31.859,367.767zM 31.859,337.662L 63.86,337.662L 63.86,324.862L 31.859,324.862zM 31.859,294.758L 63.86,294.758L 63.86,281.957L 31.859,281.957zM 31.859,251.852L 63.86,251.852L 63.86,239.052L 31.859,239.052zM 95.861,251.852L 127.861,251.852L 127.861,239.052L 95.861,239.052zM 63.861,251.852L 95.861,251.852L 95.861,239.052L 63.861,239.052zM 159.663,251.852L 191.664,251.852L 191.664,239.052L 159.663,239.052zM 127.664,251.852L 159.664,251.852L 159.664,239.052L 127.664,239.052zM 191.663,251.852L 223.665,251.852L 223.665,239.052L 191.663,239.052zM 32.075,208.946L 64.014,208.946L 64.014,196.146L 32.075,196.146zM 223.511,208.946L 255.45,208.946L 255.45,196.146L 223.511,196.146zM 31.859,166.041L 63.86,166.041L 63.86,153.239L 31.859,153.239zM 223.665,166.041L 255.666,166.041L 255.666,153.239L 223.665,153.239zM 31.859,123.136L 63.86,123.136L 63.86,110.336L 31.859,110.336zM 223.665,123.136L 255.666,123.136L 255.666,110.336L 223.665,110.336zM 95.861,80.231L 127.861,80.231L 127.861,67.431L 95.861,67.431zM 63.861,80.231L 95.861,80.231L 95.861,67.431L 63.861,67.431zM 159.663,80.231L 191.664,80.231L 191.664,67.431L 159.663,67.431zM 127.664,80.231L 159.664,80.231L 159.664,67.431L 127.664,67.431zM 191.663,80.231L 223.665,80.231L 223.665,67.431L 191.663,67.431z" horiz-adv-x="287.624" />
<glyph unicode="&#x35;" d="M 31.859,423.472L 63.86,423.472L 63.86,410.672L 31.859,410.672zM 95.861,423.472L 127.861,423.472L 127.861,410.672L 95.861,410.672zM 63.861,423.472L 95.861,423.472L 95.861,410.672L 63.861,410.672zM 159.663,423.472L 191.664,423.472L 191.664,410.672L 159.663,410.672zM 127.664,423.472L 159.664,423.472L 159.664,410.672L 127.664,410.672zM 223.665,423.472L 255.666,423.472L 255.666,410.672L 223.665,410.672zM 191.663,423.472L 223.665,423.472L 223.665,410.672L 191.663,410.672zM 31.859,380.567L 63.86,380.567L 63.86,367.767L 31.859,367.767zM 31.859,337.662L 63.86,337.662L 63.86,324.862L 31.859,324.862zM 31.859,294.758L 63.86,294.758L 63.86,281.957L 31.859,281.957zM 95.861,294.758L 127.861,294.758L 127.861,281.957L 95.861,281.957zM 63.861,294.758L 95.861,294.758L 95.861,281.957L 63.861,281.957zM 159.663,294.758L 191.664,294.758L 191.664,281.957L 159.663,281.957zM 127.664,294.758L 159.664,294.758L 159.664,281.957L 127.664,281.957zM 191.663,294.758L 223.665,294.758L 223.665,281.957L 191.663,281.957zM 223.665,251.851L 255.666,251.851L 255.666,239.051L 223.665,239.051zM 223.665,208.946L 255.666,208.946L 255.666,196.146L 223.665,196.146zM 223.665,166.041L 255.666,166.041L 255.666,153.239L 223.665,153.239zM 31.859,123.136L 63.86,123.136L 63.86,110.336L 31.859,110.336zM 223.665,123.136L 255.666,123.136L 255.666,110.336L 223.665,110.336zM 95.861,80.23L 127.861,80.23L 127.861,67.43L 95.861,67.43zM 63.861,80.23L 95.861,80.23L 95.861,67.43L 63.861,67.43zM 159.663,80.23L 191.664,80.23L 191.664,67.43L 159.663,67.43zM 127.664,80.23L 159.664,80.23L 159.664,67.43L 127.664,67.43zM 191.663,80.23L 223.665,80.23L 223.665,67.43L 191.663,67.43z" horiz-adv-x="287.624" />
<glyph unicode="&#x34;" d="M 191.663,423.472L 223.665,423.472L 223.665,410.672L 191.663,410.672zM 159.663,380.567L 191.664,380.567L 191.664,367.767L 159.663,367.767zM 127.664,337.662L 159.664,337.662L 159.664,324.862L 127.664,324.862zM 95.861,294.758L 127.861,294.758L 127.861,281.957L 95.861,281.957zM 191.663,294.758L 223.665,294.758L 223.665,281.957L 191.663,281.957zM 63.861,251.852L 95.861,251.852L 95.861,239.052L 63.861,239.052zM 191.663,251.852L 223.665,251.852L 223.665,239.052L 191.663,239.052zM 31.859,208.946L 63.86,208.946L 63.86,196.146L 31.859,196.146zM 95.861,208.946L 127.861,208.946L 127.861,196.146L 95.861,196.146zM 63.861,208.946L 95.861,208.946L 95.861,196.146L 63.861,196.146zM 159.663,208.946L 191.664,208.946L 191.664,196.146L 159.663,196.146zM 127.664,208.946L 159.664,208.946L 159.664,196.146L 127.664,196.146zM 223.665,208.946L 255.666,208.946L 255.666,196.146L 223.665,196.146zM 191.663,208.946L 223.665,208.946L 223.665,196.146L 191.663,196.146zM 191.663,166.041L 223.665,166.041L 223.665,153.239L 191.663,153.239zM 191.663,123.136L 223.665,123.136L 223.665,110.336L 191.663,110.336zM 191.663,80.231L 223.665,80.231L 223.665,67.431L 191.663,67.431z" horiz-adv-x="287.624" />
<glyph unicode="&#x33;" d="M 95.861,423.472L 127.861,423.472L 127.861,410.672L 95.861,410.672zM 63.861,423.472L 95.861,423.472L 95.861,410.672L 63.861,410.672zM 159.663,423.472L 191.664,423.472L 191.664,410.672L 159.663,410.672zM 127.664,423.472L 159.664,423.472L 159.664,410.672L 127.664,410.672zM 191.663,423.472L 223.665,423.472L 223.665,410.672L 191.663,410.672zM 31.859,380.567L 63.86,380.567L 63.86,367.767L 31.859,367.767zM 223.665,380.567L 255.666,380.567L 255.666,367.767L 223.665,367.767zM 223.665,337.662L 255.666,337.662L 255.666,324.862L 223.665,324.862zM 223.665,294.758L 255.666,294.758L 255.666,281.957L 223.665,281.957zM 95.861,251.851L 127.861,251.851L 127.861,239.051L 95.861,239.051zM 159.663,251.851L 191.664,251.851L 191.664,239.051L 159.663,239.051zM 127.664,251.851L 159.664,251.851L 159.664,239.051L 127.664,239.051zM 191.663,251.851L 223.665,251.851L 223.665,239.051L 191.663,239.051zM 223.665,208.946L 255.666,208.946L 255.666,196.146L 223.665,196.146zM 223.665,166.041L 255.666,166.041L 255.666,153.239L 223.665,153.239zM 31.859,123.136L 63.86,123.136L 63.86,110.336L 31.859,110.336zM 223.665,123.136L 255.666,123.136L 255.666,110.336L 223.665,110.336zM 95.861,80.231L 127.861,80.231L 127.861,67.431L 95.861,67.431zM 63.861,80.231L 95.861,80.231L 95.861,67.431L 63.861,67.431zM 159.663,80.231L 191.664,80.231L 191.664,67.431L 159.663,67.431zM 127.664,80.231L 159.664,80.231L 159.664,67.431L 127.664,67.431zM 191.663,80.231L 223.665,80.231L 223.665,67.431L 191.663,67.431z" horiz-adv-x="287.624" />
<glyph unicode="&#x32;" d="M 95.861,423.472L 127.861,423.472L 127.861,410.672L 95.861,410.672zM 63.861,423.472L 95.861,423.472L 95.861,410.672L 63.861,410.672zM 159.663,423.472L 191.664,423.472L 191.664,410.672L 159.663,410.672zM 127.664,423.472L 159.664,423.472L 159.664,410.672L 127.664,410.672zM 191.663,423.472L 223.665,423.472L 223.665,410.672L 191.663,410.672zM 31.859,380.567L 63.86,380.567L 63.86,367.767L 31.859,367.767zM 223.665,380.567L 255.666,380.567L 255.666,367.767L 223.665,367.767zM 223.665,337.662L 255.666,337.662L 255.666,324.862L 223.665,324.862zM 191.663,294.758L 223.665,294.758L 223.665,281.957L 191.663,281.957zM 159.663,251.852L 191.664,251.852L 191.664,239.052L 159.663,239.052zM 127.664,208.946L 159.664,208.946L 159.664,196.146L 127.664,196.146zM 95.712,166.041L 127.713,166.041L 127.713,153.239L 95.712,153.239zM 63.861,123.136L 95.861,123.136L 95.861,110.336L 63.861,110.336zM 31.859,80.231L 63.86,80.231L 63.86,67.431L 31.859,67.431zM 95.861,80.231L 127.861,80.231L 127.861,67.431L 95.861,67.431zM 63.861,80.231L 95.861,80.231L 95.861,67.431L 63.861,67.431zM 159.663,80.231L 191.664,80.231L 191.664,67.431L 159.663,67.431zM 127.664,80.231L 159.664,80.231L 159.664,67.431L 127.664,67.431zM 223.665,80.231L 255.666,80.231L 255.666,67.431L 223.665,67.431zM 191.663,80.231L 223.665,80.231L 223.665,67.431L 191.663,67.431z" horiz-adv-x="287.624" />
<glyph unicode="&#x31;" d="M 127.663,423.472L 159.663,423.472L 159.663,410.672L 127.663,410.672zM 95.859,380.567L 127.86,380.567L 127.86,367.767L 95.859,367.767zM 127.663,380.567L 159.663,380.567L 159.663,367.767L 127.663,367.767zM 95.859,337.662L 127.86,337.662L 127.86,324.862L 95.859,324.862zM 63.859,337.662L 95.86,337.662L 95.86,324.862L 63.859,324.862zM 127.663,337.662L 159.663,337.662L 159.663,324.862L 127.663,324.862zM 127.663,294.758L 159.663,294.758L 159.663,281.957L 127.663,281.957zM 127.663,251.852L 159.663,251.852L 159.663,239.052L 127.663,239.052zM 127.663,208.946L 159.663,208.946L 159.663,196.146L 127.663,196.146zM 127.663,166.041L 159.663,166.041L 159.663,153.239L 127.663,153.239zM 127.663,123.136L 159.663,123.136L 159.663,110.336L 127.663,110.336zM 95.859,80.231L 127.86,80.231L 127.86,67.431L 95.859,67.431zM 159.662,80.231L 191.663,80.231L 191.663,67.431L 159.662,67.431zM 127.663,80.231L 159.663,80.231L 159.663,67.431L 127.663,67.431z" horiz-adv-x="287.624" />
<glyph unicode="&#x30;" d="M 95.86,423.472L 127.86,423.472L 127.86,410.672L 95.86,410.672zM 159.663,423.472L 191.664,423.472L 191.664,410.672L 159.663,410.672zM 127.663,423.472L 159.663,423.472L 159.663,410.672L 127.663,410.672zM 63.861,380.567L 95.861,380.567L 95.861,367.767L 63.861,367.767zM 191.663,380.567L 223.665,380.567L 223.665,367.767L 191.663,367.767zM 63.861,123.136L 95.861,123.136L 95.861,110.336L 63.861,110.336zM 191.663,123.136L 223.665,123.136L 223.665,110.336L 191.663,110.336zM 95.86,80.231L 127.86,80.231L 127.86,67.431L 95.86,67.431zM 159.663,80.231L 191.664,80.231L 191.664,67.431L 159.663,67.431zM 127.663,80.231L 159.663,80.231L 159.663,67.431L 127.663,67.431zM 31.858,337.662L 63.86,337.662L 63.86,324.861L 31.858,324.861zM 223.665,337.662L 255.666,337.662L 255.666,324.861L 223.665,324.861zM 31.858,294.758L 63.86,294.758L 63.86,281.957L 31.858,281.957zM 223.665,294.758L 255.666,294.758L 255.666,281.957L 223.665,281.957zM 31.858,251.852L 63.86,251.852L 63.86,239.052L 31.858,239.052zM 127.663,251.852L 159.663,251.852L 159.663,239.052L 127.663,239.052zM 223.665,251.852L 255.666,251.852L 255.666,239.052L 223.665,239.052zM 31.858,208.946L 63.86,208.946L 63.86,196.145L 31.858,196.145zM 223.665,208.946L 255.666,208.946L 255.666,196.145L 223.665,196.145zM 31.858,166.040L 63.86,166.040L 63.86,153.239L 31.858,153.239zM 223.665,166.040L 255.666,166.040L 255.666,153.239L 223.665,153.239z" horiz-adv-x="287.624" />
<glyph unicode="&#x2b;" d="M 128.022,381.312L 160.023,381.312L 160.023,368.511L 128.022,368.511zM 128.022,338.421L 160.023,338.421L 160.023,325.621L 128.022,325.621zM 128.022,295.531L 160.023,295.531L 160.023,282.729L 128.022,282.729zM 96.219,252.641L 128.221,252.641L 128.221,239.841L 96.219,239.841zM 64.218,252.641L 96.219,252.641L 96.219,239.841L 64.218,239.841zM 160.022,252.641L 192.023,252.641L 192.023,239.841L 160.022,239.841zM 128.022,252.641L 160.023,252.641L 160.023,239.841L 128.022,239.841zM 192.023,252.641L 224.024,252.641L 224.024,239.841L 192.023,239.841zM 128.022,209.751L 160.023,209.751L 160.023,196.95L 128.022,196.95zM 128.022,166.862L 160.023,166.862L 160.023,154.060L 128.022,154.060zM 128.022,123.97L 160.023,123.97L 160.023,111.17L 128.022,111.17z" horiz-adv-x="287.624" />
<glyph unicode="&#x3b;" d="M 159.755,337.786L 191.757,337.786L 191.757,324.986L 159.755,324.986zM 127.756,337.786L 159.756,337.786L 159.756,324.986L 127.756,324.986zM 159.755,294.895L 191.757,294.895L 191.757,282.095L 159.755,282.095zM 127.756,294.895L 159.756,294.895L 159.756,282.095L 127.756,282.095zM 159.755,123.336L 191.757,123.336L 191.757,110.534L 159.755,110.534zM 127.756,123.336L 159.756,123.336L 159.756,110.534L 127.756,110.534zM 159.755,80.443L 191.757,80.443L 191.757,67.643L 159.755,67.643zM 127.756,80.443L 159.756,80.443L 159.756,67.643L 127.756,67.643zM 127.756,37.554L 159.756,37.554L 159.756,24.754L 127.756,24.754zM 95.953-5.336L 127.953-5.336L 127.953-18.137L 95.953-18.137z" horiz-adv-x="287.624" />
<glyph unicode="&#x2e;" d="M 159.755,123.97L 191.757,123.97L 191.757,111.17L 159.755,111.17zM 127.756,123.97L 159.756,123.97L 159.756,111.17L 127.756,111.17zM 159.755,81.079L 191.757,81.079L 191.757,68.278L 159.755,68.278zM 127.756,81.079L 159.756,81.079L 159.756,68.278L 127.756,68.278z" horiz-adv-x="287.624"  />
<glyph unicode="&#x3d;" d="M 31.907,295.4L 63.907,295.4L 63.907,282.6L 31.907,282.6zM 95.908,295.4L 127.91,295.4L 127.91,282.6L 95.908,282.6zM 63.908,295.4L 95.909,295.4L 95.909,282.6L 63.908,282.6zM 159.712,295.4L 191.712,295.4L 191.712,282.6L 159.712,282.6zM 127.712,295.4L 159.712,295.4L 159.712,282.6L 127.712,282.6zM 223.714,295.4L 255.715,295.4L 255.715,282.6L 223.714,282.6zM 191.712,295.4L 223.714,295.4L 223.714,282.6L 191.712,282.6zM 31.907,209.62L 63.907,209.62L 63.907,196.819L 31.907,196.819zM 95.908,209.62L 127.91,209.62L 127.91,196.819L 95.908,196.819zM 63.908,209.62L 95.909,209.62L 95.909,196.819L 63.908,196.819zM 159.712,209.62L 191.712,209.62L 191.712,196.819L 159.712,196.819zM 127.712,209.62L 159.712,209.62L 159.712,196.819L 127.712,196.819zM 223.714,209.62L 255.715,209.62L 255.715,196.819L 223.714,196.819zM 191.712,209.62L 223.714,209.62L 223.714,196.819L 191.712,196.819z" horiz-adv-x="287.624" />
<glyph unicode="&#x3c;" d="M 191.615,424.248L 223.617,424.248L 223.617,411.447L 191.615,411.447zM 159.615,381.356L 191.615,381.356L 191.615,368.554L 159.615,368.554zM 127.614,338.466L 159.616,338.466L 159.616,325.666L 127.614,325.666zM 95.812,295.576L 127.813,295.576L 127.813,282.776L 95.812,282.776zM 63.811,252.687L 95.812,252.687L 95.812,239.886L 63.811,239.886zM 95.812,209.795L 127.813,209.795L 127.813,196.994L 95.812,196.994zM 127.614,166.906L 159.616,166.906L 159.616,154.105L 127.614,154.105zM 159.615,124.015L 191.615,124.015L 191.615,111.215L 159.615,111.215zM 191.615,81.123L 223.617,81.123L 223.617,68.323L 191.615,68.323z" horiz-adv-x="287.624" />
<glyph unicode="&#xa2;" d="M 127.801,466.456L 159.802,466.456L 159.802,453.656L 127.801,453.656zM 127.801,423.567L 159.802,423.567L 159.802,410.766L 127.801,410.766zM 95.998,380.676L 128,380.676L 128,367.876L 95.998,367.876zM 63.998,380.676L 95.998,380.676L 95.998,367.876L 63.998,367.876zM 159.801,380.676L 191.802,380.676L 191.802,367.876L 159.801,367.876zM 127.801,380.676L 159.802,380.676L 159.802,367.876L 127.801,367.876zM 191.802,380.676L 223.803,380.676L 223.803,367.876L 191.802,367.876zM 31.997,337.786L 63.998,337.786L 63.998,324.986L 31.997,324.986zM 223.803,337.786L 255.804,337.786L 255.804,324.986L 223.803,324.986zM 31.997,294.895L 63.998,294.895L 63.998,282.095L 31.997,282.095zM 31.997,252.006L 63.998,252.006L 63.998,239.205L 31.997,239.205zM 31.997,209.114L 63.998,209.114L 63.998,196.314L 31.997,196.314zM 223.803,209.114L 255.804,209.114L 255.804,196.314L 223.803,196.314zM 95.998,166.225L 128,166.225L 128,153.425L 95.998,153.425zM 63.998,166.225L 95.998,166.225L 95.998,153.425L 63.998,153.425zM 159.801,166.225L 191.802,166.225L 191.802,153.425L 159.801,153.425zM 127.801,166.225L 159.802,166.225L 159.802,153.425L 127.801,153.425zM 191.802,166.225L 223.803,166.225L 223.803,153.425L 191.802,153.425zM 127.801,123.336L 159.802,123.336L 159.802,110.534L 127.801,110.534zM 127.801,80.443L 159.802,80.443L 159.802,67.643L 127.801,67.643z" horiz-adv-x="287.624"  />
<glyph unicode="&#xac;" d="M 31.487,252.006L 63.489,252.006L 63.489,239.205L 31.487,239.205zM 95.489,252.006L 127.49,252.006L 127.49,239.205L 95.489,239.205zM 63.489,252.006L 95.49,252.006L 95.49,239.205L 63.489,239.205zM 159.292,252.006L 191.292,252.006L 191.292,239.205L 159.292,239.205zM 127.292,252.006L 159.294,252.006L 159.294,239.205L 127.292,239.205zM 223.294,252.006L 255.294,252.006L 255.294,239.205L 223.294,239.205zM 191.293,252.006L 223.294,252.006L 223.294,239.205L 191.293,239.205zM 223.294,209.114L 255.294,209.114L 255.294,196.314L 223.294,196.314zM 223.294,166.225L 255.294,166.225L 255.294,153.425L 223.294,153.425z" horiz-adv-x="287.624"  />
<glyph unicode="&#x2f;" d="M 224.053,381.312L 256.053,381.312L 256.053,368.511L 224.053,368.511zM 192.052,338.421L 224.053,338.421L 224.053,325.621L 192.052,325.621zM 160.051,295.531L 192.052,295.531L 192.052,282.729L 160.051,282.729zM 128.051,252.641L 160.052,252.641L 160.052,239.841L 128.051,239.841zM 96.248,209.751L 128.249,209.751L 128.249,196.95L 96.248,196.95zM 64.248,166.862L 96.248,166.862L 96.248,154.060L 64.248,154.060zM 32.246,123.97L 64.248,123.97L 64.248,111.17L 32.246,111.17z" horiz-adv-x="287.624"  />
<glyph unicode="&#xa3;" d="M 159.299,467.138L 191.299,467.138L 191.299,454.337L 159.299,454.337zM 127.298,467.138L 159.3,467.138L 159.3,454.337L 127.298,454.337zM 95.496,424.248L 127.497,424.248L 127.497,411.447L 95.496,411.447zM 191.299,424.248L 223.301,424.248L 223.301,411.447L 191.299,411.447zM 95.496,381.356L 127.497,381.356L 127.497,368.554L 95.496,368.554zM 95.496,338.466L 127.497,338.466L 127.497,325.666L 95.496,325.666zM 95.496,295.576L 127.497,295.576L 127.497,282.776L 95.496,282.776zM 63.496,295.576L 95.496,295.576L 95.496,282.776L 63.496,282.776zM 127.298,295.576L 159.3,295.576L 159.3,282.776L 127.298,282.776zM 95.496,252.687L 127.497,252.687L 127.497,239.886L 95.496,239.886zM 95.496,209.795L 127.497,209.795L 127.497,196.994L 95.496,196.994zM 95.496,166.906L 127.497,166.906L 127.497,154.105L 95.496,154.105zM 95.496,124.015L 127.497,124.015L 127.497,111.215L 95.496,111.215zM 63.496,124.015L 95.496,124.015L 95.496,111.215L 63.496,111.215zM 127.298,124.015L 159.3,124.015L 159.3,111.215L 127.298,111.215zM 223.301,124.015L 255.301,124.015L 255.301,111.215L 223.301,111.215zM 95.496,81.123L 127.497,81.123L 127.497,68.323L 95.496,68.323zM 63.496,81.123L 95.496,81.123L 95.496,68.323L 63.496,68.323zM 159.299,81.123L 191.299,81.123L 191.299,68.323L 159.299,68.323zM 127.298,81.123L 159.3,81.123L 159.3,68.323L 127.298,68.323zM 191.299,81.123L 223.301,81.123L 223.301,68.323L 191.299,68.323z" horiz-adv-x="287.624" />
<glyph unicode="&#x24;" d="M 127.627,467.138L 159.627,467.138L 159.627,454.337L 127.627,454.337zM 95.823,424.248L 127.824,424.248L 127.824,411.447L 95.823,411.447zM 63.823,424.248L 95.825,424.248L 95.825,411.447L 63.823,411.447zM 159.627,424.248L 191.628,424.248L 191.628,411.447L 159.627,411.447zM 127.627,424.248L 159.627,424.248L 159.627,411.447L 127.627,411.447zM 191.627,424.248L 223.629,424.248L 223.629,411.447L 191.627,411.447zM 31.822,381.356L 63.822,381.356L 63.822,368.554L 31.822,368.554zM 127.627,381.356L 159.627,381.356L 159.627,368.554L 127.627,368.554zM 223.629,381.356L 255.63,381.356L 255.63,368.554L 223.629,368.554zM 31.822,338.466L 63.822,338.466L 63.822,325.666L 31.822,325.666zM 127.627,338.466L 159.627,338.466L 159.627,325.666L 127.627,325.666zM 31.822,295.576L 63.822,295.576L 63.822,282.776L 31.822,282.776zM 127.627,295.576L 159.627,295.576L 159.627,282.776L 127.627,282.776zM 95.823,252.687L 127.824,252.687L 127.824,239.886L 95.823,239.886zM 63.823,252.687L 95.825,252.687L 95.825,239.886L 63.823,239.886zM 159.627,252.687L 191.628,252.687L 191.628,239.886L 159.627,239.886zM 127.627,252.687L 159.627,252.687L 159.627,239.886L 127.627,239.886zM 191.627,252.687L 223.629,252.687L 223.629,239.886L 191.627,239.886zM 127.627,209.795L 159.627,209.795L 159.627,196.994L 127.627,196.994zM 223.629,209.795L 255.63,209.795L 255.63,196.994L 223.629,196.994zM 127.627,166.906L 159.627,166.906L 159.627,154.105L 127.627,154.105zM 223.629,166.906L 255.63,166.906L 255.63,154.105L 223.629,154.105zM 31.822,124.015L 63.822,124.015L 63.822,111.215L 31.822,111.215zM 127.627,124.015L 159.627,124.015L 159.627,111.215L 127.627,111.215zM 223.629,124.015L 255.63,124.015L 255.63,111.215L 223.629,111.215zM 95.823,81.123L 127.824,81.123L 127.824,68.323L 95.823,68.323zM 63.823,81.123L 95.825,81.123L 95.825,68.323L 63.823,68.323zM 159.627,81.123L 191.628,81.123L 191.628,68.323L 159.627,68.323zM 127.627,81.123L 159.627,81.123L 159.627,68.323L 127.627,68.323zM 191.627,81.123L 223.629,81.123L 223.629,68.323L 191.627,68.323zM 127.627,38.234L 159.627,38.234L 159.627,25.434L 127.627,25.434z" horiz-adv-x="287.624" />
</font>
</defs>
</svg>
