<?xml version="1.0" encoding="utf-8"?>
<!-- Generator: Adobe Illustrator 15.0.2, SVG Export Plug-In . SVG Version: 6.00 Build 0)  -->
<!DOCTYPE svg PUBLIC "-//W3C//DTD SVG 1.1//EN" "http://www.w3.org/Graphics/SVG/1.1/DTD/svg11.dtd">
<svg version="1.1" id="Layer_1" xmlns="http://www.w3.org/2000/svg" xmlns:xlink="http://www.w3.org/1999/xlink" x="0px" y="0px"
	 width="382.68px" height="794.488px" viewBox="0 0 382.68 794.488" enable-background="new 0 0 382.68 794.488"
	 xml:space="preserve">
<rect x="42.384" y="-1" fill="none" stroke="#A54B9B" stroke-miterlimit="10" width="42.521" height="53.189"/>
<rect x="-0.136" y="-1" fill="none" stroke="#A54B9B" stroke-miterlimit="10" width="42.521" height="53.189"/>
<rect x="127.425" y="-1" fill="none" stroke="#A54B9B" stroke-miterlimit="10" width="42.52" height="53.189"/>
<rect x="84.905" y="-1" fill="none" stroke="#A54B9B" stroke-miterlimit="10" width="42.521" height="53.189"/>
<rect x="212.202" y="-1" fill="none" stroke="#A54B9B" stroke-miterlimit="10" width="42.52" height="53.189"/>
<rect x="169.683" y="-1" fill="none" stroke="#A54B9B" stroke-miterlimit="10" width="42.521" height="53.189"/>
<rect x="297.243" y="-1" fill="none" stroke="#A54B9B" stroke-miterlimit="10" width="42.52" height="53.189"/>
<rect x="254.723" y="-1" fill="none" stroke="#A54B9B" stroke-miterlimit="10" width="42.521" height="53.189"/>
<rect x="339.895" y="-1" fill="none" stroke="#A54B9B" stroke-miterlimit="10" width="42.521" height="53.189"/>
<rect x="42.384" y="55.989" fill="none" stroke="#A54B9B" stroke-miterlimit="10" width="42.521" height="53.191"/>
<rect x="-0.136" y="55.989" fill="none" stroke="#A54B9B" stroke-miterlimit="10" width="42.521" height="53.191"/>
<rect x="127.425" y="55.989" fill="none" stroke="#A54B9B" stroke-miterlimit="10" width="42.52" height="53.191"/>
<rect x="84.905" y="55.989" fill="none" stroke="#A54B9B" stroke-miterlimit="10" width="42.521" height="53.191"/>
<rect x="212.202" y="55.989" fill="none" stroke="#A54B9B" stroke-miterlimit="10" width="42.52" height="53.191"/>
<rect x="169.683" y="55.989" fill="none" stroke="#A54B9B" stroke-miterlimit="10" width="42.521" height="53.191"/>
<rect x="297.243" y="55.989" fill="none" stroke="#A54B9B" stroke-miterlimit="10" width="42.52" height="53.191"/>
<rect x="254.723" y="55.989" fill="none" stroke="#A54B9B" stroke-miterlimit="10" width="42.521" height="53.191"/>
<rect x="339.895" y="55.989" fill="none" stroke="#A54B9B" stroke-miterlimit="10" width="42.521" height="53.191"/>
<rect x="42.384" y="112.979" fill="none" stroke="#A54B9B" stroke-miterlimit="10" width="42.521" height="53.191"/>
<rect x="-0.136" y="112.979" fill="none" stroke="#A54B9B" stroke-miterlimit="10" width="42.521" height="53.191"/>
<rect x="127.425" y="112.979" fill="none" stroke="#A54B9B" stroke-miterlimit="10" width="42.52" height="53.191"/>
<rect x="84.905" y="112.979" fill="none" stroke="#A54B9B" stroke-miterlimit="10" width="42.521" height="53.191"/>
<rect x="212.202" y="112.979" fill="none" stroke="#A54B9B" stroke-miterlimit="10" width="42.52" height="53.191"/>
<rect x="169.683" y="112.979" fill="none" stroke="#A54B9B" stroke-miterlimit="10" width="42.521" height="53.191"/>
<rect x="297.243" y="112.979" fill="none" stroke="#A54B9B" stroke-miterlimit="10" width="42.52" height="53.191"/>
<rect x="254.723" y="112.979" fill="none" stroke="#A54B9B" stroke-miterlimit="10" width="42.521" height="53.191"/>
<rect x="339.895" y="112.979" fill="none" stroke="#A54B9B" stroke-miterlimit="10" width="42.521" height="53.191"/>
<rect x="42.384" y="169.969" fill="none" stroke="#A54B9B" stroke-miterlimit="10" width="42.521" height="53.19"/>
<rect x="-0.136" y="169.969" fill="none" stroke="#A54B9B" stroke-miterlimit="10" width="42.521" height="53.19"/>
<rect x="127.425" y="169.969" fill="none" stroke="#A54B9B" stroke-miterlimit="10" width="42.52" height="53.19"/>
<rect x="84.905" y="169.969" fill="none" stroke="#A54B9B" stroke-miterlimit="10" width="42.521" height="53.19"/>
<rect x="212.202" y="169.969" fill="none" stroke="#A54B9B" stroke-miterlimit="10" width="42.52" height="53.19"/>
<rect x="169.683" y="169.969" fill="none" stroke="#A54B9B" stroke-miterlimit="10" width="42.521" height="53.19"/>
<rect x="297.243" y="169.969" fill="none" stroke="#A54B9B" stroke-miterlimit="10" width="42.52" height="53.19"/>
<rect x="254.723" y="169.969" fill="none" stroke="#A54B9B" stroke-miterlimit="10" width="42.521" height="53.19"/>
<rect x="339.895" y="169.969" fill="none" stroke="#A54B9B" stroke-miterlimit="10" width="42.521" height="53.19"/>
<rect x="42.384" y="226.958" fill="none" stroke="#A54B9B" stroke-miterlimit="10" width="42.521" height="53.189"/>
<rect x="-0.136" y="226.958" fill="none" stroke="#A54B9B" stroke-miterlimit="10" width="42.521" height="53.189"/>
<rect x="127.425" y="226.958" fill="none" stroke="#A54B9B" stroke-miterlimit="10" width="42.52" height="53.189"/>
<rect x="84.905" y="226.958" fill="none" stroke="#A54B9B" stroke-miterlimit="10" width="42.521" height="53.189"/>
<rect x="212.202" y="226.958" fill="none" stroke="#A54B9B" stroke-miterlimit="10" width="42.52" height="53.189"/>
<rect x="169.683" y="226.958" fill="none" stroke="#A54B9B" stroke-miterlimit="10" width="42.521" height="53.189"/>
<rect x="297.243" y="226.958" fill="none" stroke="#A54B9B" stroke-miterlimit="10" width="42.52" height="53.189"/>
<rect x="254.723" y="226.958" fill="none" stroke="#A54B9B" stroke-miterlimit="10" width="42.521" height="53.189"/>
<rect x="339.895" y="226.958" fill="none" stroke="#A54B9B" stroke-miterlimit="10" width="42.521" height="53.189"/>
<rect x="42.384" y="302.037" stroke="#A54B9B" stroke-miterlimit="10" width="42.521" height="17.01"/>
<rect x="-0.136" y="302.037" fill="none" stroke="#A54B9B" stroke-miterlimit="10" width="42.521" height="17.01"/>
<rect x="127.425" y="302.037" stroke="#A54B9B" stroke-miterlimit="10" width="42.52" height="17.01"/>
<rect x="84.905" y="302.037" stroke="#A54B9B" stroke-miterlimit="10" width="42.521" height="17.01"/>
<rect x="212.202" y="302.037" stroke="#A54B9B" stroke-miterlimit="10" width="42.52" height="17.01"/>
<rect x="169.683" y="302.037" stroke="#A54B9B" stroke-miterlimit="10" width="42.521" height="17.01"/>
<rect x="297.243" y="302.037" stroke="#A54B9B" stroke-miterlimit="10" width="42.52" height="17.01"/>
<rect x="254.723" y="302.037" stroke="#A54B9B" stroke-miterlimit="10" width="42.521" height="17.01"/>
<rect x="339.895" y="302.037" fill="none" stroke="#A54B9B" stroke-miterlimit="10" width="42.521" height="17.01"/>
<rect x="42.384" y="340.937" fill="none" stroke="#A54B9B" stroke-miterlimit="10" width="42.521" height="53.192"/>
<rect x="-0.136" y="340.937" fill="none" stroke="#A54B9B" stroke-miterlimit="10" width="42.521" height="53.192"/>
<rect x="127.425" y="340.937" fill="none" stroke="#A54B9B" stroke-miterlimit="10" width="42.52" height="53.192"/>
<rect x="84.905" y="340.937" fill="none" stroke="#A54B9B" stroke-miterlimit="10" width="42.521" height="53.192"/>
<rect x="212.202" y="340.937" fill="none" stroke="#A54B9B" stroke-miterlimit="10" width="42.52" height="53.192"/>
<rect x="169.683" y="340.937" fill="none" stroke="#A54B9B" stroke-miterlimit="10" width="42.521" height="53.192"/>
<rect x="297.243" y="340.937" fill="none" stroke="#A54B9B" stroke-miterlimit="10" width="42.52" height="53.192"/>
<rect x="254.723" y="340.937" fill="none" stroke="#A54B9B" stroke-miterlimit="10" width="42.521" height="53.192"/>
<rect x="339.895" y="340.937" fill="none" stroke="#A54B9B" stroke-miterlimit="10" width="42.521" height="53.192"/>
<rect x="42.384" y="397.926" fill="none" stroke="#A54B9B" stroke-miterlimit="10" width="42.521" height="53.188"/>
<rect x="-0.136" y="397.926" fill="none" stroke="#A54B9B" stroke-miterlimit="10" width="42.521" height="53.188"/>
<rect x="127.425" y="397.926" fill="none" stroke="#A54B9B" stroke-miterlimit="10" width="42.52" height="53.188"/>
<rect x="84.905" y="397.926" fill="none" stroke="#A54B9B" stroke-miterlimit="10" width="42.521" height="53.188"/>
<rect x="212.202" y="397.926" fill="none" stroke="#A54B9B" stroke-miterlimit="10" width="42.52" height="53.188"/>
<rect x="169.683" y="397.926" fill="none" stroke="#A54B9B" stroke-miterlimit="10" width="42.521" height="53.188"/>
<rect x="297.243" y="397.926" fill="none" stroke="#A54B9B" stroke-miterlimit="10" width="42.52" height="53.188"/>
<rect x="254.723" y="397.926" fill="none" stroke="#A54B9B" stroke-miterlimit="10" width="42.521" height="53.188"/>
<rect x="339.895" y="397.926" fill="none" stroke="#A54B9B" stroke-miterlimit="10" width="42.521" height="53.188"/>
<rect x="42.384" y="454.914" fill="none" stroke="#A54B9B" stroke-miterlimit="10" width="42.521" height="53.191"/>
<rect x="-0.136" y="454.914" fill="none" stroke="#A54B9B" stroke-miterlimit="10" width="42.521" height="53.191"/>
<rect x="127.425" y="454.914" fill="none" stroke="#A54B9B" stroke-miterlimit="10" width="42.52" height="53.191"/>
<rect x="84.905" y="454.914" fill="none" stroke="#A54B9B" stroke-miterlimit="10" width="42.521" height="53.191"/>
<rect x="212.202" y="454.914" fill="none" stroke="#A54B9B" stroke-miterlimit="10" width="42.52" height="53.191"/>
<rect x="169.683" y="454.914" fill="none" stroke="#A54B9B" stroke-miterlimit="10" width="42.521" height="53.191"/>
<rect x="297.243" y="454.914" fill="none" stroke="#A54B9B" stroke-miterlimit="10" width="42.52" height="53.191"/>
<rect x="254.723" y="454.914" fill="none" stroke="#A54B9B" stroke-miterlimit="10" width="42.521" height="53.191"/>
<rect x="339.895" y="454.914" fill="none" stroke="#A54B9B" stroke-miterlimit="10" width="42.521" height="53.191"/>
<rect x="42.384" y="511.906" fill="none" stroke="#A54B9B" stroke-miterlimit="10" width="42.521" height="53.191"/>
<rect x="-0.136" y="511.906" fill="none" stroke="#A54B9B" stroke-miterlimit="10" width="42.521" height="53.191"/>
<rect x="127.425" y="511.906" fill="none" stroke="#A54B9B" stroke-miterlimit="10" width="42.52" height="53.191"/>
<rect x="84.905" y="511.906" fill="none" stroke="#A54B9B" stroke-miterlimit="10" width="42.521" height="53.191"/>
<rect x="212.202" y="511.906" fill="none" stroke="#A54B9B" stroke-miterlimit="10" width="42.52" height="53.191"/>
<rect x="169.683" y="511.906" fill="none" stroke="#A54B9B" stroke-miterlimit="10" width="42.521" height="53.191"/>
<rect x="297.243" y="511.906" fill="none" stroke="#A54B9B" stroke-miterlimit="10" width="42.52" height="53.191"/>
<rect x="254.723" y="511.906" fill="none" stroke="#A54B9B" stroke-miterlimit="10" width="42.521" height="53.191"/>
<rect x="339.895" y="511.906" fill="none" stroke="#A54B9B" stroke-miterlimit="10" width="42.521" height="53.191"/>
<rect x="42.384" y="568.895" fill="none" stroke="#A54B9B" stroke-miterlimit="10" width="42.521" height="53.191"/>
<rect x="-0.136" y="568.895" fill="none" stroke="#A54B9B" stroke-miterlimit="10" width="42.521" height="53.191"/>
<rect x="127.425" y="568.895" fill="none" stroke="#A54B9B" stroke-miterlimit="10" width="42.52" height="53.191"/>
<rect x="84.905" y="568.895" fill="none" stroke="#A54B9B" stroke-miterlimit="10" width="42.521" height="53.191"/>
<rect x="212.202" y="568.895" fill="none" stroke="#A54B9B" stroke-miterlimit="10" width="42.52" height="53.191"/>
<rect x="169.683" y="568.895" fill="none" stroke="#A54B9B" stroke-miterlimit="10" width="42.521" height="53.191"/>
<rect x="297.243" y="568.895" fill="none" stroke="#A54B9B" stroke-miterlimit="10" width="42.52" height="53.191"/>
<rect x="254.723" y="568.895" fill="none" stroke="#A54B9B" stroke-miterlimit="10" width="42.521" height="53.191"/>
<rect x="339.895" y="568.895" fill="none" stroke="#A54B9B" stroke-miterlimit="10" width="42.521" height="53.191"/>
<rect x="42.384" y="625.885" fill="none" stroke="#A54B9B" stroke-miterlimit="10" width="42.521" height="53.188"/>
<rect x="-0.136" y="625.885" fill="none" stroke="#A54B9B" stroke-miterlimit="10" width="42.521" height="53.188"/>
<rect x="127.425" y="625.885" fill="none" stroke="#A54B9B" stroke-miterlimit="10" width="42.52" height="53.188"/>
<rect x="84.905" y="625.885" fill="none" stroke="#A54B9B" stroke-miterlimit="10" width="42.521" height="53.188"/>
<rect x="212.202" y="625.885" fill="none" stroke="#A54B9B" stroke-miterlimit="10" width="42.52" height="53.188"/>
<rect x="169.683" y="625.885" fill="none" stroke="#A54B9B" stroke-miterlimit="10" width="42.521" height="53.188"/>
<rect x="297.243" y="625.885" fill="none" stroke="#A54B9B" stroke-miterlimit="10" width="42.52" height="53.188"/>
<rect x="254.723" y="625.885" fill="none" stroke="#A54B9B" stroke-miterlimit="10" width="42.521" height="53.188"/>
<rect x="339.895" y="625.885" fill="none" stroke="#A54B9B" stroke-miterlimit="10" width="42.521" height="53.188"/>
</svg>
