<?xml version="1.0" encoding="utf-8"?>
<!-- Generator: Adobe Illustrator 15.0.2, SVG Export Plug-In . SVG Version: 6.00 Build 0)  -->
<!DOCTYPE svg PUBLIC "-//W3C//DTD SVG 1.1//EN" "http://www.w3.org/Graphics/SVG/1.1/DTD/svg11.dtd">
<svg version="1.1" id="Layer_1" xmlns="http://www.w3.org/2000/svg" xmlns:xlink="http://www.w3.org/1999/xlink" x="0px" y="0px"
	 width="382.68px" height="794.488px" viewBox="0 0 382.68 794.488" enable-background="new 0 0 382.68 794.488"
	 xml:space="preserve">
<rect x="42.648" y="0" fill="none" stroke="#A54B9B" stroke-miterlimit="10" width="42.521" height="53.189"/>
<rect x="0.131" y="0" fill="none" stroke="#A54B9B" stroke-miterlimit="10" width="42.518" height="53.189"/>
<rect x="127.689" y="0" fill="none" stroke="#A54B9B" stroke-miterlimit="10" width="42.521" height="53.189"/>
<rect x="85.171" y="0" fill="none" stroke="#A54B9B" stroke-miterlimit="10" width="42.519" height="53.189"/>
<rect x="212.467" y="0" fill="none" stroke="#A54B9B" stroke-miterlimit="10" width="42.521" height="53.189"/>
<rect x="169.948" y="0" fill="none" stroke="#A54B9B" stroke-miterlimit="10" width="42.521" height="53.189"/>
<rect x="297.508" y="0" fill="none" stroke="#A54B9B" stroke-miterlimit="10" width="42.521" height="53.189"/>
<rect x="254.988" y="0" fill="none" stroke="#A54B9B" stroke-miterlimit="10" width="42.521" height="53.189"/>
<rect x="340.16" y="0" fill="none" stroke="#A54B9B" stroke-miterlimit="10" width="42.52" height="53.189"/>
<rect x="42.648" y="75.08" fill="none" stroke="#A54B9B" stroke-miterlimit="10" width="42.521" height="17.008"/>
<rect x="0.131" y="75.08" fill="none" stroke="#A54B9B" stroke-miterlimit="10" width="42.518" height="17.008"/>
<rect x="127.689" y="75.08" fill="none" stroke="#A54B9B" stroke-miterlimit="10" width="42.521" height="17.008"/>
<rect x="85.171" y="75.08" stroke="#A54B9B" stroke-miterlimit="10" width="42.519" height="17.008"/>
<rect x="212.467" y="75.08" fill="none" stroke="#A54B9B" stroke-miterlimit="10" width="42.521" height="17.008"/>
<rect x="169.948" y="75.08" fill="none" stroke="#A54B9B" stroke-miterlimit="10" width="42.521" height="17.008"/>
<rect x="297.508" y="75.08" fill="none" stroke="#A54B9B" stroke-miterlimit="10" width="42.521" height="17.008"/>
<rect x="254.988" y="75.08" fill="none" stroke="#A54B9B" stroke-miterlimit="10" width="42.521" height="17.008"/>
<rect x="340.16" y="75.08" fill="none" stroke="#A54B9B" stroke-miterlimit="10" width="42.52" height="17.008"/>
<rect x="42.648" y="132.071" fill="none" stroke="#A54B9B" stroke-miterlimit="10" width="42.521" height="17.01"/>
<rect x="0.131" y="132.071" fill="none" stroke="#A54B9B" stroke-miterlimit="10" width="42.518" height="17.01"/>
<rect x="127.689" y="132.071" stroke="#A54B9B" stroke-miterlimit="10" width="42.521" height="17.01"/>
<rect x="85.171" y="132.071" fill="none" stroke="#A54B9B" stroke-miterlimit="10" width="42.519" height="17.01"/>
<rect x="212.467" y="132.071" fill="none" stroke="#A54B9B" stroke-miterlimit="10" width="42.521" height="17.01"/>
<rect x="169.948" y="132.071" fill="none" stroke="#A54B9B" stroke-miterlimit="10" width="42.521" height="17.01"/>
<rect x="297.508" y="132.071" fill="none" stroke="#A54B9B" stroke-miterlimit="10" width="42.521" height="17.01"/>
<rect x="254.988" y="132.071" fill="none" stroke="#A54B9B" stroke-miterlimit="10" width="42.521" height="17.01"/>
<rect x="340.16" y="132.071" fill="none" stroke="#A54B9B" stroke-miterlimit="10" width="42.52" height="17.01"/>
<rect x="42.648" y="189.06" fill="none" stroke="#A54B9B" stroke-miterlimit="10" width="42.521" height="17.008"/>
<rect x="0.131" y="189.06" fill="none" stroke="#A54B9B" stroke-miterlimit="10" width="42.518" height="17.008"/>
<rect x="127.689" y="189.06" fill="none" stroke="#A54B9B" stroke-miterlimit="10" width="42.521" height="17.008"/>
<rect x="85.171" y="189.06" fill="none" stroke="#A54B9B" stroke-miterlimit="10" width="42.519" height="17.008"/>
<rect x="212.467" y="189.06" fill="none" stroke="#A54B9B" stroke-miterlimit="10" width="42.521" height="17.008"/>
<rect x="169.948" y="189.06" stroke="#A54B9B" stroke-miterlimit="10" width="42.521" height="17.008"/>
<rect x="297.508" y="189.06" fill="none" stroke="#A54B9B" stroke-miterlimit="10" width="42.521" height="17.008"/>
<rect x="254.988" y="189.06" fill="none" stroke="#A54B9B" stroke-miterlimit="10" width="42.521" height="17.008"/>
<rect x="340.16" y="189.06" fill="none" stroke="#A54B9B" stroke-miterlimit="10" width="42.52" height="17.008"/>
<rect x="42.648" y="246.049" fill="none" stroke="#A54B9B" stroke-miterlimit="10" width="42.521" height="17.008"/>
<rect x="0.131" y="246.049" fill="none" stroke="#A54B9B" stroke-miterlimit="10" width="42.518" height="17.008"/>
<rect x="127.689" y="246.049" fill="none" stroke="#A54B9B" stroke-miterlimit="10" width="42.521" height="17.008"/>
<rect x="85.171" y="246.049" fill="none" stroke="#A54B9B" stroke-miterlimit="10" width="42.519" height="17.008"/>
<rect x="212.467" y="246.049" stroke="#A54B9B" stroke-miterlimit="10" width="42.521" height="17.008"/>
<rect x="169.948" y="246.049" fill="none" stroke="#A54B9B" stroke-miterlimit="10" width="42.521" height="17.008"/>
<rect x="297.508" y="246.049" fill="none" stroke="#A54B9B" stroke-miterlimit="10" width="42.521" height="17.008"/>
<rect x="254.988" y="246.049" fill="none" stroke="#A54B9B" stroke-miterlimit="10" width="42.521" height="17.008"/>
<rect x="340.16" y="246.049" fill="none" stroke="#A54B9B" stroke-miterlimit="10" width="42.52" height="17.008"/>
<rect x="42.648" y="303.037" fill="none" stroke="#A54B9B" stroke-miterlimit="10" width="42.521" height="17.01"/>
<rect x="0.131" y="303.037" fill="none" stroke="#A54B9B" stroke-miterlimit="10" width="42.518" height="17.01"/>
<rect x="127.689" y="303.037" fill="none" stroke="#A54B9B" stroke-miterlimit="10" width="42.521" height="17.01"/>
<rect x="85.171" y="303.037" fill="none" stroke="#A54B9B" stroke-miterlimit="10" width="42.519" height="17.01"/>
<rect x="212.467" y="303.037" fill="none" stroke="#A54B9B" stroke-miterlimit="10" width="42.521" height="17.01"/>
<rect x="169.948" y="303.037" fill="none" stroke="#A54B9B" stroke-miterlimit="10" width="42.521" height="17.01"/>
<rect x="297.508" y="303.037" fill="none" stroke="#A54B9B" stroke-miterlimit="10" width="42.521" height="17.01"/>
<rect x="254.988" y="303.037" stroke="#A54B9B" stroke-miterlimit="10" width="42.521" height="17.01"/>
<rect x="340.16" y="303.037" fill="none" stroke="#A54B9B" stroke-miterlimit="10" width="42.52" height="17.01"/>
<rect x="42.648" y="360.029" fill="none" stroke="#A54B9B" stroke-miterlimit="10" width="42.521" height="17.009"/>
<rect x="0.131" y="360.029" fill="none" stroke="#A54B9B" stroke-miterlimit="10" width="42.518" height="17.009"/>
<rect x="127.689" y="360.029" fill="none" stroke="#A54B9B" stroke-miterlimit="10" width="42.521" height="17.009"/>
<rect x="85.171" y="360.029" fill="none" stroke="#A54B9B" stroke-miterlimit="10" width="42.519" height="17.009"/>
<rect x="212.467" y="360.029" stroke="#A54B9B" stroke-miterlimit="10" width="42.521" height="17.009"/>
<rect x="169.948" y="360.029" fill="none" stroke="#A54B9B" stroke-miterlimit="10" width="42.521" height="17.009"/>
<rect x="297.508" y="360.029" fill="none" stroke="#A54B9B" stroke-miterlimit="10" width="42.521" height="17.009"/>
<rect x="254.988" y="360.029" fill="none" stroke="#A54B9B" stroke-miterlimit="10" width="42.521" height="17.009"/>
<rect x="340.16" y="360.029" fill="none" stroke="#A54B9B" stroke-miterlimit="10" width="42.52" height="17.009"/>
<rect x="42.648" y="417.017" fill="none" stroke="#A54B9B" stroke-miterlimit="10" width="42.521" height="17.009"/>
<rect x="0.131" y="417.017" fill="none" stroke="#A54B9B" stroke-miterlimit="10" width="42.518" height="17.009"/>
<rect x="127.689" y="417.017" fill="none" stroke="#A54B9B" stroke-miterlimit="10" width="42.521" height="17.009"/>
<rect x="85.171" y="417.017" fill="none" stroke="#A54B9B" stroke-miterlimit="10" width="42.519" height="17.009"/>
<rect x="212.467" y="417.017" fill="none" stroke="#A54B9B" stroke-miterlimit="10" width="42.521" height="17.009"/>
<rect x="169.948" y="417.017" stroke="#A54B9B" stroke-miterlimit="10" width="42.521" height="17.009"/>
<rect x="297.508" y="417.017" fill="none" stroke="#A54B9B" stroke-miterlimit="10" width="42.521" height="17.009"/>
<rect x="254.988" y="417.017" fill="none" stroke="#A54B9B" stroke-miterlimit="10" width="42.521" height="17.009"/>
<rect x="340.16" y="417.017" fill="none" stroke="#A54B9B" stroke-miterlimit="10" width="42.52" height="17.009"/>
<rect x="42.648" y="474.007" fill="none" stroke="#A54B9B" stroke-miterlimit="10" width="42.521" height="17.008"/>
<rect x="0.131" y="474.007" fill="none" stroke="#A54B9B" stroke-miterlimit="10" width="42.518" height="17.008"/>
<rect x="127.689" y="474.007" stroke="#A54B9B" stroke-miterlimit="10" width="42.521" height="17.008"/>
<rect x="85.171" y="474.007" fill="none" stroke="#A54B9B" stroke-miterlimit="10" width="42.519" height="17.008"/>
<rect x="212.467" y="474.007" fill="none" stroke="#A54B9B" stroke-miterlimit="10" width="42.521" height="17.008"/>
<rect x="169.948" y="474.007" fill="none" stroke="#A54B9B" stroke-miterlimit="10" width="42.521" height="17.008"/>
<rect x="297.508" y="474.007" fill="none" stroke="#A54B9B" stroke-miterlimit="10" width="42.521" height="17.008"/>
<rect x="254.988" y="474.007" fill="none" stroke="#A54B9B" stroke-miterlimit="10" width="42.521" height="17.008"/>
<rect x="340.16" y="474.007" fill="none" stroke="#A54B9B" stroke-miterlimit="10" width="42.52" height="17.008"/>
<rect x="42.648" y="530.999" fill="none" stroke="#A54B9B" stroke-miterlimit="10" width="42.521" height="17.008"/>
<rect x="0.131" y="530.999" fill="none" stroke="#A54B9B" stroke-miterlimit="10" width="42.518" height="17.008"/>
<rect x="127.689" y="530.999" fill="none" stroke="#A54B9B" stroke-miterlimit="10" width="42.521" height="17.008"/>
<rect x="85.171" y="530.999" stroke="#A54B9B" stroke-miterlimit="10" width="42.519" height="17.008"/>
<rect x="212.467" y="530.999" fill="none" stroke="#A54B9B" stroke-miterlimit="10" width="42.521" height="17.008"/>
<rect x="169.948" y="530.999" fill="none" stroke="#A54B9B" stroke-miterlimit="10" width="42.521" height="17.008"/>
<rect x="297.508" y="530.999" fill="none" stroke="#A54B9B" stroke-miterlimit="10" width="42.521" height="17.008"/>
<rect x="254.988" y="530.999" fill="none" stroke="#A54B9B" stroke-miterlimit="10" width="42.521" height="17.008"/>
<rect x="340.16" y="530.999" fill="none" stroke="#A54B9B" stroke-miterlimit="10" width="42.52" height="17.008"/>
<rect x="42.648" y="569.895" fill="none" stroke="#A54B9B" stroke-miterlimit="10" width="42.521" height="53.191"/>
<rect x="0.131" y="569.895" fill="none" stroke="#A54B9B" stroke-miterlimit="10" width="42.518" height="53.191"/>
<rect x="127.689" y="569.895" fill="none" stroke="#A54B9B" stroke-miterlimit="10" width="42.521" height="53.191"/>
<rect x="85.171" y="569.895" fill="none" stroke="#A54B9B" stroke-miterlimit="10" width="42.519" height="53.191"/>
<rect x="212.467" y="569.895" fill="none" stroke="#A54B9B" stroke-miterlimit="10" width="42.521" height="53.191"/>
<rect x="169.948" y="569.895" fill="none" stroke="#A54B9B" stroke-miterlimit="10" width="42.521" height="53.191"/>
<rect x="297.508" y="569.895" fill="none" stroke="#A54B9B" stroke-miterlimit="10" width="42.521" height="53.191"/>
<rect x="254.988" y="569.895" fill="none" stroke="#A54B9B" stroke-miterlimit="10" width="42.521" height="53.191"/>
<rect x="340.16" y="569.895" fill="none" stroke="#A54B9B" stroke-miterlimit="10" width="42.52" height="53.191"/>
<rect x="42.648" y="626.885" fill="none" stroke="#A54B9B" stroke-miterlimit="10" width="42.521" height="53.188"/>
<rect x="0.131" y="626.885" fill="none" stroke="#A54B9B" stroke-miterlimit="10" width="42.518" height="53.188"/>
<rect x="127.689" y="626.885" fill="none" stroke="#A54B9B" stroke-miterlimit="10" width="42.521" height="53.188"/>
<rect x="85.171" y="626.885" fill="none" stroke="#A54B9B" stroke-miterlimit="10" width="42.519" height="53.188"/>
<rect x="212.467" y="626.885" fill="none" stroke="#A54B9B" stroke-miterlimit="10" width="42.521" height="53.188"/>
<rect x="169.948" y="626.885" fill="none" stroke="#A54B9B" stroke-miterlimit="10" width="42.521" height="53.188"/>
<rect x="297.508" y="626.885" fill="none" stroke="#A54B9B" stroke-miterlimit="10" width="42.521" height="53.188"/>
<rect x="254.988" y="626.885" fill="none" stroke="#A54B9B" stroke-miterlimit="10" width="42.521" height="53.188"/>
<rect x="340.16" y="626.885" fill="none" stroke="#A54B9B" stroke-miterlimit="10" width="42.52" height="53.188"/>
</svg>
