<?xml version="1.0" encoding="utf-8"?>
<!-- Generator: Adobe Illustrator 15.0.2, SVG Export Plug-In . SVG Version: 6.00 Build 0)  -->
<!DOCTYPE svg PUBLIC "-//W3C//DTD SVG 1.1//EN" "http://www.w3.org/Graphics/SVG/1.1/DTD/svg11.dtd">
<svg version="1.1" id="Layer_1" xmlns="http://www.w3.org/2000/svg" xmlns:xlink="http://www.w3.org/1999/xlink" x="0px" y="0px"
	 width="595.28px" height="841.89px" viewBox="0 0 595.28 841.89" enable-background="new 0 0 595.28 841.89" xml:space="preserve">
<g>
	<path fill="#4E3E24" d="M176.62,522.518l-38.998,29.637c0,0-24.984,23.685-22.229,31.71c10.834,31.56,92.726,31.999,142.223,30.499
		c49.498-1.5,217.49-1.499,212.99-35.998s-55.497-21.091-79.496-25.545s1.5-29.391,1.5-29.391l-212.99-11.477"/>
	<path fill="#44341D" d="M191.575,533.501l-28.66,26.728c0,0-18.362,21.359-16.338,28.598
		c7.963,28.462,68.148,28.857,104.525,27.505c36.378-1.353,159.844-1.352,156.536-32.464c-3.308-31.113-40.787-19.021-58.425-23.038
		c-17.639-4.017,1.103-26.506,1.103-26.506l-156.536-10.35"/>
	<path fill="#3A2D19" d="M207.908,544.147l-22.231,26.728c0,0-14.244,21.359-12.674,28.598c6.177,28.462,52.862,28.857,81.08,27.505
		s123.989-1.352,121.424-32.464c-2.565-31.113-31.639-19.021-45.319-23.038c-13.683-4.017,0.854-26.506,0.854-26.506l-121.424-10.35
		"/>
	<polygon fill="#5E4825" points="85.646,521.286 90.646,556.286 492.646,551.286 497.646,512.953 	"/>
	
		<line fill="#725E35" stroke="#71592D" stroke-width="7" stroke-miterlimit="10" x1="115.393" y1="524.43" x2="115.393" y2="554.979"/>
	
		<line fill="#725E35" stroke="#71592D" stroke-width="7" stroke-miterlimit="10" x1="121.164" y1="524.43" x2="121.164" y2="554.906"/>
	
		<line fill="#725E35" stroke="#71592D" stroke-width="7" stroke-miterlimit="10" x1="135.16" y1="524.43" x2="135.16" y2="554.732"/>
	
		<line fill="#725E35" stroke="#71592D" stroke-width="7" stroke-miterlimit="10" x1="142.457" y1="524.43" x2="142.461" y2="554.642"/>
	
		<line fill="#725E35" stroke="#71592D" stroke-width="7" stroke-miterlimit="10" x1="154.928" y1="524.43" x2="154.928" y2="554.486"/>
	
		<line fill="#725E35" stroke="#71592D" stroke-width="7" stroke-miterlimit="10" x1="172.411" y1="554.27" x2="172.411" y2="524.43"/>
	
		<line fill="#725E35" stroke="#71592D" stroke-width="7" stroke-miterlimit="10" x1="188.69" y1="554.066" x2="188.69" y2="524.43"/>
	
		<line fill="#725E35" stroke="#71592D" stroke-width="7" stroke-miterlimit="10" x1="201.508" y1="523.974" x2="201.508" y2="554.522"/>
	
		<line fill="#725E35" stroke="#71592D" stroke-width="7" stroke-miterlimit="10" x1="207.279" y1="523.974" x2="207.279" y2="554.45"/>
	
		<line fill="#725E35" stroke="#71592D" stroke-width="7" stroke-miterlimit="10" x1="221.275" y1="523.974" x2="221.275" y2="554.276"/>
	
		<line fill="#725E35" stroke="#71592D" stroke-width="7" stroke-miterlimit="10" x1="228.572" y1="523.974" x2="228.576" y2="554.186"/>
	
		<line fill="#725E35" stroke="#71592D" stroke-width="7" stroke-miterlimit="10" x1="241.043" y1="523.974" x2="241.043" y2="554.03"/>
	
		<line fill="#725E35" stroke="#71592D" stroke-width="7" stroke-miterlimit="10" x1="258.526" y1="553.813" x2="258.526" y2="523.974"/>
	
		<line fill="#725E35" stroke="#71592D" stroke-width="7" stroke-miterlimit="10" x1="274.806" y1="553.61" x2="274.806" y2="523.974"/>
	
		<line fill="#725E35" stroke="#71592D" stroke-width="7" stroke-miterlimit="10" x1="292.752" y1="523.518" x2="292.752" y2="554.066"/>
	
		<line fill="#725E35" stroke="#71592D" stroke-width="7" stroke-miterlimit="10" x1="298.523" y1="523.518" x2="298.523" y2="553.994"/>
	
		<line fill="#725E35" stroke="#71592D" stroke-width="7" stroke-miterlimit="10" x1="312.52" y1="523.518" x2="312.52" y2="553.82"/>
	
		<line fill="#725E35" stroke="#71592D" stroke-width="7" stroke-miterlimit="10" x1="319.816" y1="523.518" x2="319.82" y2="553.729"/>
	
		<line fill="#725E35" stroke="#71592D" stroke-width="7" stroke-miterlimit="10" x1="332.287" y1="523.518" x2="332.287" y2="553.574"/>
	
		<line fill="#725E35" stroke="#71592D" stroke-width="7" stroke-miterlimit="10" x1="349.771" y1="553.357" x2="349.771" y2="523.518"/>
	
		<line fill="#725E35" stroke="#71592D" stroke-width="7" stroke-miterlimit="10" x1="366.05" y1="553.154" x2="366.05" y2="523.518"/>
	<linearGradient id="SVGID_1_" gradientUnits="userSpaceOnUse" x1="48.4834" y1="316.7529" x2="532.1523" y2="316.7529">
		<stop  offset="0.0184" style="stop-color:#A0978B"/>
		<stop  offset="1" style="stop-color:#9E814A"/>
	</linearGradient>
	<path fill="url(#SVGID_1_)" stroke="#7C5E44" stroke-width="6" stroke-miterlimit="10" d="M48.644,124.193
		c0,0-2.978-15.116,16.79-15.116s455.813,7.558,455.813,7.558s10.465-2.907,10.465,15.698s0,377.907,0,377.907
		s4.652,8.139-16.277,9.303c-20.932,1.162-440.699,4.65-440.699,4.65s-22.156,3.488-23.287-16.279
		C50.317,488.147,48.644,124.193,48.644,124.193z"/>
	<path fill="#3D403B" stroke="#1E1814" stroke-width="4" stroke-miterlimit="10" d="M98.753,180.225c0,0-2.544-10.717,13.161-10.717
		c15.707,0,362.154,5.359,362.154,5.359s8.315-2.062,8.315,11.13c0,13.191,0,267.942,0,267.942s3.696,5.771-12.933,6.596
		c-16.631,0.824-350.146,3.297-350.146,3.297s-17.604,2.475-18.502-11.543C99.904,438.276,98.753,180.225,98.753,180.225z"/>
	
		<line fill="none" stroke="#337251" stroke-width="6" stroke-miterlimit="10" x1="350.318" y1="186.984" x2="457.295" y2="188.146"/>
	
		<line fill="none" stroke="#337251" stroke-width="6" stroke-miterlimit="10" x1="238.157" y1="214.297" x2="345.134" y2="215.459"/>
	<line fill="none" stroke="#337251" stroke-width="6" stroke-miterlimit="10" x1="206.156" y1="245.718" x2="452.645" y2="246.88"/>
	
		<line fill="none" stroke="#337251" stroke-width="6" stroke-miterlimit="10" x1="206.156" y1="262.871" x2="452.645" y2="264.033"/>
	<line fill="none" stroke="#337251" stroke-width="6" stroke-miterlimit="10" x1="206.156" y1="281.59" x2="300.318" y2="282.753"/>
	
		<line fill="none" stroke="#337251" stroke-width="6" stroke-miterlimit="10" x1="206.156" y1="313.354" x2="452.645" y2="314.516"/>
	
		<line fill="none" stroke="#337251" stroke-width="6" stroke-miterlimit="10" x1="206.156" y1="330.506" x2="452.645" y2="331.669"/>
	
		<line fill="none" stroke="#337251" stroke-width="6" stroke-miterlimit="10" x1="206.156" y1="349.227" x2="277.062" y2="350.389"/>
	<line fill="none" stroke="#337251" stroke-width="6" stroke-miterlimit="10" x1="121.164" y1="245.137" x2="188.69" y2="246.299"/>
	<line fill="none" stroke="#337251" stroke-width="6" stroke-miterlimit="10" x1="121.164" y1="312.772" x2="188.69" y2="313.935"/>
	
		<line fill="none" stroke="#337251" stroke-width="6" stroke-miterlimit="10" x1="121.164" y1="331.556" x2="172.411" y2="332.718"/>
	<line fill="none" stroke="#337251" stroke-width="6" stroke-miterlimit="10" x1="206.156" y1="381.7" x2="452.645" y2="382.863"/>
	
		<line fill="none" stroke="#337251" stroke-width="6" stroke-miterlimit="10" x1="206.156" y1="398.854" x2="452.645" y2="400.017"/>
	
		<line fill="none" stroke="#337251" stroke-width="6" stroke-miterlimit="10" x1="206.156" y1="417.573" x2="300.318" y2="418.735"/>
	<line fill="none" stroke="#337251" stroke-width="6" stroke-miterlimit="10" x1="121.164" y1="381.12" x2="188.69" y2="382.282"/>
	
		<line fill="none" stroke="#71592D" stroke-width="8" stroke-miterlimit="10" x1="437.527" y1="138.658" x2="477.062" y2="140.984"/>
	
		<line fill="none" stroke="#79684A" stroke-width="7" stroke-miterlimit="10" x1="115.393" y1="488.257" x2="154.928" y2="487.583"/>
	
		<line fill="none" stroke="#79684A" stroke-width="7" stroke-miterlimit="10" x1="115.393" y1="500.953" x2="154.928" y2="500.279"/>
	<linearGradient id="SVGID_2_" gradientUnits="userSpaceOnUse" x1="297.6401" y1="681.1064" x2="297.6401" y2="594.1113">
		<stop  offset="0" style="stop-color:#C4A26D"/>
		<stop  offset="1" style="stop-color:#9E814A"/>
	</linearGradient>
	<polygon fill="url(#SVGID_2_)" points="-13.498,602.363 601.471,594.863 644.775,679.784 -49.496,681.858 	"/>
	<g>
		<path fill="#4E3E24" d="M-4.043,615.051c-1.5,3.97-3,9.97-3,9.97c19.5,0.5,23.5,0.5,23.5,0.5v-15.47L-4.043,615.051z"/>
		<path fill="#B79C72" d="M-2.043,609.816c-1.5,3.97-3,9.97-3,9.97c19.5,0.5,19.5,0.5,19.5,0.5l2-10.47H-2.043z"/>
	</g>
	<g>
		<path fill="#4E3E24" d="M17.957,615.168c-1.5,3.97-3,9.97-3,9.97c19.5,0.5,23.5,0.5,23.5,0.5v-15.47L17.957,615.168z"/>
		<path fill="#B79C72" d="M19.957,609.934c-1.5,3.97-3,9.97-3,9.97c19.5,0.5,19.5,0.5,19.5,0.5l2-10.47H19.957z"/>
	</g>
	<g>
		<path fill="#4E3E24" d="M39.457,615.285c-1.5,3.97-3,9.97-3,9.97c19.5,0.5,23.5,0.5,23.5,0.5v-15.47L39.457,615.285z"/>
		<path fill="#B79C72" d="M41.457,610.051c-1.5,3.97-3,9.97-3,9.97c19.5,0.5,19.5,0.5,19.5,0.5l2-10.47H41.457z"/>
	</g>
	<g>
		<path fill="#4E3E24" d="M59.957,615.285c-1.5,3.97-3,9.97-3,9.97c19.5,0.5,23.5,0.5,23.5,0.5v-15.47L59.957,615.285z"/>
		<path fill="#B79C72" d="M61.957,610.051c-1.5,3.97-3,9.97-3,9.97c19.5,0.5,19.5,0.5,19.5,0.5l2-10.47H61.957z"/>
	</g>
	<g>
		<path fill="#4E3E24" d="M81.957,615.402c-1.5,3.97-3,9.97-3,9.97c19.5,0.5,23.5,0.5,23.5,0.5v-15.47L81.957,615.402z"/>
		<path fill="#B79C72" d="M83.957,610.168c-1.5,3.97-3,9.97-3,9.97c19.5,0.5,19.5,0.5,19.5,0.5l2-10.47H83.957z"/>
	</g>
	<g>
		<path fill="#4E3E24" d="M103.457,615.52c-1.5,3.97-3,9.97-3,9.97c19.5,0.5,23.5,0.5,23.5,0.5v-15.47L103.457,615.52z"/>
		<path fill="#B79C72" d="M105.457,610.285c-1.5,3.97-3,9.97-3,9.97c19.5,0.5,19.5,0.5,19.5,0.5l2-10.47H105.457z"/>
	</g>
	<g>
		<path fill="#4E3E24" d="M262.02,615.051c-1.5,3.97-3,9.97-3,9.97c19.5,0.5,23.5,0.5,23.5,0.5v-15.47L262.02,615.051z"/>
		<path fill="#B79C72" d="M264.02,609.816c-1.5,3.97-3,9.97-3,9.97c19.5,0.5,19.5,0.5,19.5,0.5l2-10.47H264.02z"/>
	</g>
	<g>
		<path fill="#4E3E24" d="M284.02,615.168c-1.5,3.97-3,9.97-3,9.97c19.5,0.5,23.5,0.5,23.5,0.5v-15.47L284.02,615.168z"/>
		<path fill="#B79C72" d="M286.02,609.934c-1.5,3.97-3,9.97-3,9.97c19.5,0.5,19.5,0.5,19.5,0.5l2-10.47H286.02z"/>
	</g>
	<g>
		<path fill="#4E3E24" d="M305.52,615.285c-1.5,3.97-3,9.97-3,9.97c19.5,0.5,23.5,0.5,23.5,0.5v-15.47L305.52,615.285z"/>
		<path fill="#B79C72" d="M307.52,610.051c-1.5,3.97-3,9.97-3,9.97c19.5,0.5,19.5,0.5,19.5,0.5l2-10.47H307.52z"/>
	</g>
	<g>
		<path fill="#4E3E24" d="M125.461,615.051c-1.5,3.97-3,9.97-3,9.97c19.5,0.5,23.5,0.5,23.5,0.5v-15.47L125.461,615.051z"/>
		<path fill="#B79C72" d="M127.461,609.816c-1.5,3.97-3,9.97-3,9.97c19.5,0.5,19.5,0.5,19.5,0.5l2-10.47H127.461z"/>
	</g>
	<g>
		<path fill="#4E3E24" d="M147.461,615.168c-1.5,3.97-3,9.97-3,9.97c19.5,0.5,23.5,0.5,23.5,0.5v-15.47L147.461,615.168z"/>
		<path fill="#B79C72" d="M149.461,609.934c-1.5,3.97-3,9.97-3,9.97c19.5,0.5,19.5,0.5,19.5,0.5l2-10.47H149.461z"/>
	</g>
	<g>
		<path fill="#4E3E24" d="M168.961,615.285c-1.5,3.97-3,9.97-3,9.97c19.5,0.5,23.5,0.5,23.5,0.5v-15.47L168.961,615.285z"/>
		<path fill="#B79C72" d="M170.961,610.051c-1.5,3.97-3,9.97-3,9.97c19.5,0.5,19.5,0.5,19.5,0.5l2-10.47H170.961z"/>
	</g>
	<g>
		<path fill="#4E3E24" d="M190.543,615.285c-1.5,3.97-3,9.97-3,9.97c19.5,0.5,23.5,0.5,23.5,0.5v-15.47L190.543,615.285z"/>
		<path fill="#B79C72" d="M192.543,610.051c-1.5,3.97-3,9.97-3,9.97c19.5,0.5,19.5,0.5,19.5,0.5l2-10.47H192.543z"/>
	</g>
	<g>
		<path fill="#4E3E24" d="M212.543,615.402c-1.5,3.97-3,9.97-3,9.97c19.5,0.5,23.5,0.5,23.5,0.5v-15.47L212.543,615.402z"/>
		<path fill="#B79C72" d="M214.543,610.168c-1.5,3.97-3,9.97-3,9.97c19.5,0.5,19.5,0.5,19.5,0.5l2-10.47H214.543z"/>
	</g>
	<g>
		<path fill="#4E3E24" d="M234.043,615.52c-1.5,3.97-3,9.97-3,9.97c19.5,0.5,23.5,0.5,23.5,0.5v-15.47L234.043,615.52z"/>
		<path fill="#B79C72" d="M236.043,610.285c-1.5,3.97-3,9.97-3,9.97c19.5,0.5,19.5,0.5,19.5,0.5l2-10.47H236.043z"/>
	</g>
	<g>
		<path fill="#4E3E24" d="M344.957,615.051c-1.5,3.97-3,9.97-3,9.97c19.5,0.5,23.5,0.5,23.5,0.5v-15.47L344.957,615.051z"/>
		<path fill="#B79C72" d="M346.957,609.816c-1.5,3.97-3,9.97-3,9.97c19.5,0.5,19.5,0.5,19.5,0.5l2-10.47H346.957z"/>
	</g>
	<g>
		<path fill="#4E3E24" d="M366.957,615.168c-1.5,3.97-3,9.97-3,9.97c19.5,0.5,23.5,0.5,23.5,0.5v-15.47L366.957,615.168z"/>
		<path fill="#B79C72" d="M368.957,609.934c-1.5,3.97-3,9.97-3,9.97c19.5,0.5,19.5,0.5,19.5,0.5l2-10.47H368.957z"/>
	</g>
	<g>
		<path fill="#4E3E24" d="M388.457,615.285c-1.5,3.97-3,9.97-3,9.97c19.5,0.5,23.5,0.5,23.5,0.5v-15.47L388.457,615.285z"/>
		<path fill="#B79C72" d="M390.457,610.051c-1.5,3.97-3,9.97-3,9.97c19.5,0.5,19.5,0.5,19.5,0.5l2-10.47H390.457z"/>
	</g>
	<g>
		<path fill="#4E3E24" d="M498.457,615.051c1.5,3.97,3,9.97,3,9.97c-19.5,0.5-23.5,0.5-23.5,0.5v-15.47L498.457,615.051z"/>
		<path fill="#B79C72" d="M496.457,609.816c1.5,3.97,3,9.97,3,9.97c-19.5,0.5-19.5,0.5-19.5,0.5l-2-10.47H496.457z"/>
	</g>
	<g>
		<path fill="#4E3E24" d="M476.457,615.168c1.5,3.97,3,9.97,3,9.97c-19.5,0.5-23.5,0.5-23.5,0.5v-15.47L476.457,615.168z"/>
		<path fill="#B79C72" d="M474.457,609.934c1.5,3.97,3,9.97,3,9.97c-19.5,0.5-19.5,0.5-19.5,0.5l-2-10.47H474.457z"/>
	</g>
	<g>
		<path fill="#4E3E24" d="M454.957,615.285c1.5,3.97,3,9.97,3,9.97c-19.5,0.5-23.5,0.5-23.5,0.5v-15.47L454.957,615.285z"/>
		<path fill="#B79C72" d="M452.957,610.051c1.5,3.97,3,9.97,3,9.97c-19.5,0.5-19.5,0.5-19.5,0.5l-2-10.47H452.957z"/>
	</g>
	<g>
		<path fill="#4E3E24" d="M519.957,615.285c1.5,3.97,3,9.97,3,9.97c-19.5,0.5-23.5,0.5-23.5,0.5v-15.47L519.957,615.285z"/>
		<path fill="#B79C72" d="M517.957,610.051c1.5,3.97,3,9.97,3,9.97c-19.5,0.5-19.5,0.5-19.5,0.5l-2-10.47H517.957z"/>
	</g>
	<g>
		<path fill="#4E3E24" d="M603.181,612.668c1.5,3.97,3,9.97,3,9.97c-19.5,0.5-23.5,0.5-23.5,0.5v-15.47L603.181,612.668z"/>
		<path fill="#B79C72" d="M601.181,607.434c1.5,3.97,3,9.97,3,9.97c-19.5,0.5-19.5,0.5-19.5,0.5l-2-10.47H601.181z"/>
	</g>
	<g>
		<path fill="#4E3E24" d="M581.181,612.785c1.5,3.97,3,9.97,3,9.97c-19.5,0.5-23.5,0.5-23.5,0.5v-15.47L581.181,612.785z"/>
		<path fill="#B79C72" d="M579.181,607.551c1.5,3.97,3,9.97,3,9.97c-19.5,0.5-19.5,0.5-19.5,0.5l-2-10.47H579.181z"/>
	</g>
	<g>
		<path fill="#4E3E24" d="M559.681,612.902c1.5,3.97,3,9.97,3,9.97c-19.5,0.5-23.5,0.5-23.5,0.5v-15.47L559.681,612.902z"/>
		<path fill="#B79C72" d="M557.681,607.668c1.5,3.97,3,9.97,3,9.97c-19.5,0.5-19.5,0.5-19.5,0.5l-2-10.47H557.681z"/>
	</g>
	<g>
		<path fill="#4E3E24" d="M-8.843,633.138c-1.5,3.97-3,9.97-3,9.97c19.5,0.5,23.5,0.5,23.5,0.5v-15.47L-8.843,633.138z"/>
		<path fill="#B79C72" d="M-6.843,627.903c-1.5,3.97-3,9.97-3,9.97c19.5,0.5,19.5,0.5,19.5,0.5l2-10.47H-6.843z"/>
	</g>
	<g>
		<path fill="#4E3E24" d="M13.157,633.255c-1.5,3.97-3,9.97-3,9.97c19.5,0.5,23.5,0.5,23.5,0.5v-15.47L13.157,633.255z"/>
		<path fill="#B79C72" d="M15.157,628.021c-1.5,3.97-3,9.97-3,9.97c19.5,0.5,19.5,0.5,19.5,0.5l2-10.47H15.157z"/>
	</g>
	<g>
		<path fill="#4E3E24" d="M34.657,633.372c-1.5,3.97-3,9.97-3,9.97c19.5,0.5,23.5,0.5,23.5,0.5v-15.47L34.657,633.372z"/>
		<path fill="#B79C72" d="M36.657,628.138c-1.5,3.97-3,9.97-3,9.97c19.5,0.5,19.5,0.5,19.5,0.5l2-10.47H36.657z"/>
	</g>
	<g>
		<path fill="#4E3E24" d="M55.157,633.372c-1.5,3.97-3,9.97-3,9.97c19.5,0.5,23.5,0.5,23.5,0.5v-15.47L55.157,633.372z"/>
		<path fill="#B79C72" d="M57.157,628.138c-1.5,3.97-3,9.97-3,9.97c19.5,0.5,19.5,0.5,19.5,0.5l2-10.47H57.157z"/>
	</g>
	<g>
		<path fill="#4E3E24" d="M77.157,633.489c-1.5,3.97-3,9.97-3,9.97c19.5,0.5,23.5,0.5,23.5,0.5v-15.47L77.157,633.489z"/>
		<path fill="#B79C72" d="M79.157,628.255c-1.5,3.97-3,9.97-3,9.97c19.5,0.5,19.5,0.5,19.5,0.5l2-10.47H79.157z"/>
	</g>
	<g>
		<path fill="#4E3E24" d="M98.657,633.606c-1.5,3.97-3,9.97-3,9.97c19.5,0.5,23.5,0.5,23.5,0.5v-15.47L98.657,633.606z"/>
		<path fill="#B79C72" d="M100.657,628.372c-1.5,3.97-3,9.97-3,9.97c19.5,0.5,19.5,0.5,19.5,0.5l2-10.47H100.657z"/>
	</g>
	<g>
		<path fill="#4E3E24" d="M257.22,633.138c-1.5,3.97-3,9.97-3,9.97c19.5,0.5,23.5,0.5,23.5,0.5v-15.47L257.22,633.138z"/>
		<path fill="#B79C72" d="M259.22,627.903c-1.5,3.97-3,9.97-3,9.97c19.5,0.5,19.5,0.5,19.5,0.5l2-10.47H259.22z"/>
	</g>
	<g>
		<path fill="#4E3E24" d="M279.22,633.255c-1.5,3.97-3,9.97-3,9.97c19.5,0.5,23.5,0.5,23.5,0.5v-15.47L279.22,633.255z"/>
		<path fill="#B79C72" d="M281.22,628.021c-1.5,3.97-3,9.97-3,9.97c19.5,0.5,19.5,0.5,19.5,0.5l2-10.47H281.22z"/>
	</g>
	<g>
		<path fill="#4E3E24" d="M300.72,633.372c-1.5,3.97-3,9.97-3,9.97c19.5,0.5,23.5,0.5,23.5,0.5v-15.47L300.72,633.372z"/>
		<path fill="#B79C72" d="M302.72,628.138c-1.5,3.97-3,9.97-3,9.97c19.5,0.5,19.5,0.5,19.5,0.5l2-10.47H302.72z"/>
	</g>
	<g>
		<path fill="#4E3E24" d="M120.661,633.138c-1.5,3.97-3,9.97-3,9.97c19.5,0.5,23.5,0.5,23.5,0.5v-15.47L120.661,633.138z"/>
		<path fill="#B79C72" d="M122.661,627.903c-1.5,3.97-3,9.97-3,9.97c19.5,0.5,19.5,0.5,19.5,0.5l2-10.47H122.661z"/>
	</g>
	<g>
		<path fill="#4E3E24" d="M142.661,633.255c-1.5,3.97-3,9.97-3,9.97c19.5,0.5,23.5,0.5,23.5,0.5v-15.47L142.661,633.255z"/>
		<path fill="#B79C72" d="M144.661,628.021c-1.5,3.97-3,9.97-3,9.97c19.5,0.5,19.5,0.5,19.5,0.5l2-10.47H144.661z"/>
	</g>
	<g>
		<path fill="#4E3E24" d="M164.161,633.372c-1.5,3.97-3,9.97-3,9.97c19.5,0.5,23.5,0.5,23.5,0.5v-15.47L164.161,633.372z"/>
		<path fill="#B79C72" d="M166.161,628.138c-1.5,3.97-3,9.97-3,9.97c19.5,0.5,19.5,0.5,19.5,0.5l2-10.47H166.161z"/>
	</g>
	<g>
		<path fill="#4E3E24" d="M185.743,633.372c-1.5,3.97-3,9.97-3,9.97c19.5,0.5,23.5,0.5,23.5,0.5v-15.47L185.743,633.372z"/>
		<path fill="#B79C72" d="M187.743,628.138c-1.5,3.97-3,9.97-3,9.97c19.5,0.5,19.5,0.5,19.5,0.5l2-10.47H187.743z"/>
	</g>
	<g>
		<path fill="#4E3E24" d="M207.743,633.489c-1.5,3.97-3,9.97-3,9.97c19.5,0.5,23.5,0.5,23.5,0.5v-15.47L207.743,633.489z"/>
		<path fill="#B79C72" d="M209.743,628.255c-1.5,3.97-3,9.97-3,9.97c19.5,0.5,19.5,0.5,19.5,0.5l2-10.47H209.743z"/>
	</g>
	<g>
		<path fill="#4E3E24" d="M229.243,633.606c-1.5,3.97-3,9.97-3,9.97c19.5,0.5,23.5,0.5,23.5,0.5v-15.47L229.243,633.606z"/>
		<path fill="#B79C72" d="M231.243,628.372c-1.5,3.97-3,9.97-3,9.97c19.5,0.5,19.5,0.5,19.5,0.5l2-10.47H231.243z"/>
	</g>
	<g>
		<path fill="#4E3E24" d="M340.157,633.138c-1.5,3.97-3,9.97-3,9.97c19.5,0.5,23.5,0.5,23.5,0.5v-15.47L340.157,633.138z"/>
		<path fill="#B79C72" d="M342.157,627.903c-1.5,3.97-3,9.97-3,9.97c19.5,0.5,19.5,0.5,19.5,0.5l2-10.47H342.157z"/>
	</g>
	<g>
		<path fill="#4E3E24" d="M362.157,633.255c-1.5,3.97-3,9.97-3,9.97c19.5,0.5,23.5,0.5,23.5,0.5v-15.47L362.157,633.255z"/>
		<path fill="#B79C72" d="M364.157,628.021c-1.5,3.97-3,9.97-3,9.97c19.5,0.5,19.5,0.5,19.5,0.5l2-10.47H364.157z"/>
	</g>
	<g>
		<path fill="#4E3E24" d="M383.657,633.372c-1.5,3.97-3,9.97-3,9.97c19.5,0.5,23.5,0.5,23.5,0.5v-15.47L383.657,633.372z"/>
		<path fill="#B79C72" d="M385.657,628.138c-1.5,3.97-3,9.97-3,9.97c19.5,0.5,19.5,0.5,19.5,0.5l2-10.47H385.657z"/>
	</g>
	<g>
		<path fill="#4E3E24" d="M493.657,633.138c1.5,3.97,3,9.97,3,9.97c-19.5,0.5-23.5,0.5-23.5,0.5v-15.47L493.657,633.138z"/>
		<path fill="#B79C72" d="M491.657,627.903c1.5,3.97,3,9.97,3,9.97c-19.5,0.5-19.5,0.5-19.5,0.5l-2-10.47H491.657z"/>
	</g>
	<g>
		<path fill="#4E3E24" d="M471.657,633.255c1.5,3.97,3,9.97,3,9.97c-19.5,0.5-23.5,0.5-23.5,0.5v-15.47L471.657,633.255z"/>
		<path fill="#B79C72" d="M469.657,628.021c1.5,3.97,3,9.97,3,9.97c-19.5,0.5-19.5,0.5-19.5,0.5l-2-10.47H469.657z"/>
	</g>
	<g>
		<path fill="#4E3E24" d="M450.157,633.372c1.5,3.97,3,9.97,3,9.97c-19.5,0.5-23.5,0.5-23.5,0.5v-15.47L450.157,633.372z"/>
		<path fill="#B79C72" d="M448.157,628.138c1.5,3.97,3,9.97,3,9.97c-19.5,0.5-19.5,0.5-19.5,0.5l-2-10.47H448.157z"/>
	</g>
	<g>
		<path fill="#4E3E24" d="M515.157,633.372c1.5,3.97,3,9.97,3,9.97c-19.5,0.5-23.5,0.5-23.5,0.5v-15.47L515.157,633.372z"/>
		<path fill="#B79C72" d="M513.157,628.138c1.5,3.97,3,9.97,3,9.97c-19.5,0.5-19.5,0.5-19.5,0.5l-2-10.47H513.157z"/>
	</g>
	<g>
		<path fill="#4E3E24" d="M609.381,630.755c1.5,3.97,3,9.97,3,9.97c-19.5,0.5-23.5,0.5-23.5,0.5v-15.47L609.381,630.755z"/>
		<path fill="#B79C72" d="M607.381,625.521c1.5,3.97,3,9.97,3,9.97c-19.5,0.5-19.5,0.5-19.5,0.5l-2-10.47H607.381z"/>
	</g>
	<g>
		<path fill="#4E3E24" d="M587.381,630.872c1.5,3.97,3,9.97,3,9.97c-19.5,0.5-23.5,0.5-23.5,0.5v-15.47L587.381,630.872z"/>
		<path fill="#B79C72" d="M585.381,625.638c1.5,3.97,3,9.97,3,9.97c-19.5,0.5-19.5,0.5-19.5,0.5l-2-10.47H585.381z"/>
	</g>
	<g>
		<path fill="#4E3E24" d="M565.881,630.989c1.5,3.97,3,9.97,3,9.97c-19.5,0.5-23.5,0.5-23.5,0.5v-15.47L565.881,630.989z"/>
		<path fill="#B79C72" d="M563.881,625.755c1.5,3.97,3,9.97,3,9.97c-19.5,0.5-19.5,0.5-19.5,0.5l-2-10.47H563.881z"/>
	</g>
	<g>
		<path fill="#4E3E24" d="M-3.9,645.415c-1.5,3.97-3,9.97-3,9.97c19.5,0.5,23.5,0.5,23.5,0.5v-15.47L-3.9,645.415z"/>
		<path fill="#B79C72" d="M-1.9,640.181c-1.5,3.97-3,9.97-3,9.97c19.5,0.5,19.5,0.5,19.5,0.5l2-10.47H-1.9z"/>
	</g>
	<g>
		<path fill="#4E3E24" d="M18.1,645.532c-1.5,3.97-3,9.97-3,9.97c19.5,0.5,23.5,0.5,23.5,0.5v-15.47L18.1,645.532z"/>
		<path fill="#B79C72" d="M20.1,640.298c-1.5,3.97-3,9.97-3,9.97c19.5,0.5,19.5,0.5,19.5,0.5l2-10.47H20.1z"/>
	</g>
	<g>
		<path fill="#4E3E24" d="M39.6,645.649c-1.5,3.97-3,9.97-3,9.97c19.5,0.5,23.5,0.5,23.5,0.5v-15.47L39.6,645.649z"/>
		<path fill="#B79C72" d="M41.6,640.415c-1.5,3.97-3,9.97-3,9.97c19.5,0.5,19.5,0.5,19.5,0.5l2-10.47H41.6z"/>
	</g>
	<g>
		<path fill="#4E3E24" d="M60.1,645.649c-1.5,3.97-3,9.97-3,9.97c19.5,0.5,23.5,0.5,23.5,0.5v-15.47L60.1,645.649z"/>
		<path fill="#B79C72" d="M62.1,640.415c-1.5,3.97-3,9.97-3,9.97c19.5,0.5,19.5,0.5,19.5,0.5l2-10.47H62.1z"/>
	</g>
	<g>
		<path fill="#4E3E24" d="M82.1,645.767c-1.5,3.97-3,9.97-3,9.97c19.5,0.5,23.5,0.5,23.5,0.5v-15.47L82.1,645.767z"/>
		<path fill="#B79C72" d="M84.1,640.532c-1.5,3.97-3,9.97-3,9.97c19.5,0.5,19.5,0.5,19.5,0.5l2-10.47H84.1z"/>
	</g>
	<g>
		<path fill="#4E3E24" d="M103.6,645.884c-1.5,3.97-3,9.97-3,9.97c19.5,0.5,23.5,0.5,23.5,0.5v-15.47L103.6,645.884z"/>
		<path fill="#B79C72" d="M105.6,640.649c-1.5,3.97-3,9.97-3,9.97c19.5,0.5,19.5,0.5,19.5,0.5l2-10.47H105.6z"/>
	</g>
	<g>
		<path fill="#4E3E24" d="M262.162,645.415c-1.5,3.97-3,9.97-3,9.97c19.5,0.5,23.5,0.5,23.5,0.5v-15.47L262.162,645.415z"/>
		<path fill="#B79C72" d="M264.162,640.181c-1.5,3.97-3,9.97-3,9.97c19.5,0.5,19.5,0.5,19.5,0.5l2-10.47H264.162z"/>
	</g>
	<g>
		<path fill="#4E3E24" d="M284.162,645.532c-1.5,3.97-3,9.97-3,9.97c19.5,0.5,23.5,0.5,23.5,0.5v-15.47L284.162,645.532z"/>
		<path fill="#B79C72" d="M286.162,640.298c-1.5,3.97-3,9.97-3,9.97c19.5,0.5,19.5,0.5,19.5,0.5l2-10.47H286.162z"/>
	</g>
	<g>
		<path fill="#4E3E24" d="M305.662,645.649c-1.5,3.97-3,9.97-3,9.97c19.5,0.5,23.5,0.5,23.5,0.5v-15.47L305.662,645.649z"/>
		<path fill="#B79C72" d="M307.662,640.415c-1.5,3.97-3,9.97-3,9.97c19.5,0.5,19.5,0.5,19.5,0.5l2-10.47H307.662z"/>
	</g>
	<g>
		<path fill="#4E3E24" d="M125.604,645.415c-1.5,3.97-3,9.97-3,9.97c19.5,0.5,23.5,0.5,23.5,0.5v-15.47L125.604,645.415z"/>
		<path fill="#B79C72" d="M127.604,640.181c-1.5,3.97-3,9.97-3,9.97c19.5,0.5,19.5,0.5,19.5,0.5l2-10.47H127.604z"/>
	</g>
	<g>
		<path fill="#4E3E24" d="M147.604,645.532c-1.5,3.97-3,9.97-3,9.97c19.5,0.5,23.5,0.5,23.5,0.5v-15.47L147.604,645.532z"/>
		<path fill="#B79C72" d="M149.604,640.298c-1.5,3.97-3,9.97-3,9.97c19.5,0.5,19.5,0.5,19.5,0.5l2-10.47H149.604z"/>
	</g>
	<g>
		<path fill="#4E3E24" d="M169.104,645.649c-1.5,3.97-3,9.97-3,9.97c19.5,0.5,23.5,0.5,23.5,0.5v-15.47L169.104,645.649z"/>
		<path fill="#B79C72" d="M171.104,640.415c-1.5,3.97-3,9.97-3,9.97c19.5,0.5,19.5,0.5,19.5,0.5l2-10.47H171.104z"/>
	</g>
	<g>
		<path fill="#4E3E24" d="M190.686,645.649c-1.5,3.97-3,9.97-3,9.97c19.5,0.5,23.5,0.5,23.5,0.5v-15.47L190.686,645.649z"/>
		<path fill="#B79C72" d="M192.686,640.415c-1.5,3.97-3,9.97-3,9.97c19.5,0.5,19.5,0.5,19.5,0.5l2-10.47H192.686z"/>
	</g>
	<g>
		<path fill="#4E3E24" d="M212.686,645.767c-1.5,3.97-3,9.97-3,9.97c19.5,0.5,23.5,0.5,23.5,0.5v-15.47L212.686,645.767z"/>
		<path fill="#B79C72" d="M214.686,640.532c-1.5,3.97-3,9.97-3,9.97c19.5,0.5,19.5,0.5,19.5,0.5l2-10.47H214.686z"/>
	</g>
	<g>
		<path fill="#4E3E24" d="M234.186,645.884c-1.5,3.97-3,9.97-3,9.97c19.5,0.5,23.5,0.5,23.5,0.5v-15.47L234.186,645.884z"/>
		<path fill="#B79C72" d="M236.186,640.649c-1.5,3.97-3,9.97-3,9.97c19.5,0.5,19.5,0.5,19.5,0.5l2-10.47H236.186z"/>
	</g>
	<g>
		<path fill="#4E3E24" d="M345.1,645.415c-1.5,3.97-3,9.97-3,9.97c19.5,0.5,23.5,0.5,23.5,0.5v-15.47L345.1,645.415z"/>
		<path fill="#B79C72" d="M347.1,640.181c-1.5,3.97-3,9.97-3,9.97c19.5,0.5,19.5,0.5,19.5,0.5l2-10.47H347.1z"/>
	</g>
	<g>
		<path fill="#4E3E24" d="M367.1,645.532c-1.5,3.97-3,9.97-3,9.97c19.5,0.5,23.5,0.5,23.5,0.5v-15.47L367.1,645.532z"/>
		<path fill="#B79C72" d="M369.1,640.298c-1.5,3.97-3,9.97-3,9.97c19.5,0.5,19.5,0.5,19.5,0.5l2-10.47H369.1z"/>
	</g>
	<g>
		<path fill="#4E3E24" d="M388.6,645.649c-1.5,3.97-3,9.97-3,9.97c19.5,0.5,23.5,0.5,23.5,0.5v-15.47L388.6,645.649z"/>
		<path fill="#B79C72" d="M390.6,640.415c-1.5,3.97-3,9.97-3,9.97c19.5,0.5,19.5,0.5,19.5,0.5l2-10.47H390.6z"/>
	</g>
	<g>
		<path fill="#4E3E24" d="M498.6,645.415c1.5,3.97,3,9.97,3,9.97c-19.5,0.5-23.5,0.5-23.5,0.5v-15.47L498.6,645.415z"/>
		<path fill="#B79C72" d="M496.6,640.181c1.5,3.97,3,9.97,3,9.97c-19.5,0.5-19.5,0.5-19.5,0.5l-2-10.47H496.6z"/>
	</g>
	<g>
		<path fill="#4E3E24" d="M476.6,645.532c1.5,3.97,3,9.97,3,9.97c-19.5,0.5-23.5,0.5-23.5,0.5v-15.47L476.6,645.532z"/>
		<path fill="#B79C72" d="M474.6,640.298c1.5,3.97,3,9.97,3,9.97c-19.5,0.5-19.5,0.5-19.5,0.5l-2-10.47H474.6z"/>
	</g>
	<g>
		<path fill="#4E3E24" d="M455.1,645.649c1.5,3.97,3,9.97,3,9.97c-19.5,0.5-23.5,0.5-23.5,0.5v-15.47L455.1,645.649z"/>
		<path fill="#B79C72" d="M453.1,640.415c1.5,3.97,3,9.97,3,9.97c-19.5,0.5-19.5,0.5-19.5,0.5l-2-10.47H453.1z"/>
	</g>
	<g>
		<path fill="#4E3E24" d="M520.1,645.649c1.5,3.97,3,9.97,3,9.97c-19.5,0.5-23.5,0.5-23.5,0.5v-15.47L520.1,645.649z"/>
		<path fill="#B79C72" d="M518.1,640.415c1.5,3.97,3,9.97,3,9.97c-19.5,0.5-19.5,0.5-19.5,0.5l-2-10.47H518.1z"/>
	</g>
	<g>
		<path fill="#4E3E24" d="M616.323,643.032c1.5,3.97,3,9.97,3,9.97c-19.5,0.5-23.5,0.5-23.5,0.5v-15.47L616.323,643.032z"/>
		<path fill="#B79C72" d="M614.323,637.798c1.5,3.97,3,9.97,3,9.97c-19.5,0.5-19.5,0.5-19.5,0.5l-2-10.47H614.323z"/>
	</g>
	<g>
		<path fill="#4E3E24" d="M594.323,643.149c1.5,3.97,3,9.97,3,9.97c-19.5,0.5-23.5,0.5-23.5,0.5v-15.47L594.323,643.149z"/>
		<path fill="#B79C72" d="M592.323,637.915c1.5,3.97,3,9.97,3,9.97c-19.5,0.5-19.5,0.5-19.5,0.5l-2-10.47H592.323z"/>
	</g>
	<g>
		<path fill="#4E3E24" d="M572.823,643.267c1.5,3.97,3,9.97,3,9.97c-19.5,0.5-23.5,0.5-23.5,0.5v-15.47L572.823,643.267z"/>
		<path fill="#B79C72" d="M570.823,638.032c1.5,3.97,3,9.97,3,9.97c-19.5,0.5-19.5,0.5-19.5,0.5l-2-10.47H570.823z"/>
	</g>
	<g>
		<path fill="#4E3E24" d="M-21.092,659.391c-1.5,3.97-3,9.97-3,9.97c19.5,0.5,23.5,0.5,23.5,0.5v-15.47L-21.092,659.391z"/>
		<path fill="#B79C72" d="M-19.092,654.156c-1.5,3.97-3,9.97-3,9.97c19.5,0.5,19.5,0.5,19.5,0.5l2-10.47H-19.092z"/>
	</g>
	<g>
		<path fill="#4E3E24" d="M0.908,659.508c-1.5,3.97-3,9.97-3,9.97c19.5,0.5,23.5,0.5,23.5,0.5v-15.47L0.908,659.508z"/>
		<path fill="#B79C72" d="M2.908,654.273c-1.5,3.97-3,9.97-3,9.97c19.5,0.5,19.5,0.5,19.5,0.5l2-10.47H2.908z"/>
	</g>
	<g>
		<path fill="#4E3E24" d="M22.408,659.625c-1.5,3.97-3,9.97-3,9.97c19.5,0.5,23.5,0.5,23.5,0.5v-15.47L22.408,659.625z"/>
		<path fill="#B79C72" d="M24.408,654.391c-1.5,3.97-3,9.97-3,9.97c19.5,0.5,19.5,0.5,19.5,0.5l2-10.47H24.408z"/>
	</g>
	<g>
		<path fill="#4E3E24" d="M42.908,659.625c-1.5,3.97-3,9.97-3,9.97c19.5,0.5,23.5,0.5,23.5,0.5v-15.47L42.908,659.625z"/>
		<path fill="#B79C72" d="M44.908,654.391c-1.5,3.97-3,9.97-3,9.97c19.5,0.5,19.5,0.5,19.5,0.5l2-10.47H44.908z"/>
	</g>
	<g>
		<path fill="#4E3E24" d="M64.908,659.742c-1.5,3.97-3,9.97-3,9.97c19.5,0.5,23.5,0.5,23.5,0.5v-15.47L64.908,659.742z"/>
		<path fill="#B79C72" d="M66.908,654.508c-1.5,3.97-3,9.97-3,9.97c19.5,0.5,19.5,0.5,19.5,0.5l2-10.47H66.908z"/>
	</g>
	<g>
		<path fill="#4E3E24" d="M86.408,659.859c-1.5,3.97-3,9.97-3,9.97c19.5,0.5,23.5,0.5,23.5,0.5v-15.47L86.408,659.859z"/>
		<path fill="#B79C72" d="M88.408,654.625c-1.5,3.97-3,9.97-3,9.97c19.5,0.5,19.5,0.5,19.5,0.5l2-10.47H88.408z"/>
	</g>
	<g>
		<path fill="#4E3E24" d="M244.971,659.391c-1.5,3.97-3,9.97-3,9.97c19.5,0.5,23.5,0.5,23.5,0.5v-15.47L244.971,659.391z"/>
		<path fill="#B79C72" d="M246.971,654.156c-1.5,3.97-3,9.97-3,9.97c19.5,0.5,19.5,0.5,19.5,0.5l2-10.47H246.971z"/>
	</g>
	<g>
		<path fill="#4E3E24" d="M266.971,659.508c-1.5,3.97-3,9.97-3,9.97c19.5,0.5,23.5,0.5,23.5,0.5v-15.47L266.971,659.508z"/>
		<path fill="#B79C72" d="M268.971,654.273c-1.5,3.97-3,9.97-3,9.97c19.5,0.5,19.5,0.5,19.5,0.5l2-10.47H268.971z"/>
	</g>
	<g>
		<path fill="#4E3E24" d="M288.471,659.625c-1.5,3.97-3,9.97-3,9.97c19.5,0.5,23.5,0.5,23.5,0.5v-15.47L288.471,659.625z"/>
		<path fill="#B79C72" d="M290.471,654.391c-1.5,3.97-3,9.97-3,9.97c19.5,0.5,19.5,0.5,19.5,0.5l2-10.47H290.471z"/>
	</g>
	<g>
		<path fill="#4E3E24" d="M108.412,659.391c-1.5,3.97-3,9.97-3,9.97c19.5,0.5,23.5,0.5,23.5,0.5v-15.47L108.412,659.391z"/>
		<path fill="#B79C72" d="M110.412,654.156c-1.5,3.97-3,9.97-3,9.97c19.5,0.5,19.5,0.5,19.5,0.5l2-10.47H110.412z"/>
	</g>
	<g>
		<path fill="#4E3E24" d="M130.412,659.508c-1.5,3.97-3,9.97-3,9.97c19.5,0.5,23.5,0.5,23.5,0.5v-15.47L130.412,659.508z"/>
		<path fill="#B79C72" d="M132.412,654.273c-1.5,3.97-3,9.97-3,9.97c19.5,0.5,19.5,0.5,19.5,0.5l2-10.47H132.412z"/>
	</g>
	<g>
		<path fill="#4E3E24" d="M151.912,659.625c-1.5,3.97-3,9.97-3,9.97c19.5,0.5,23.5,0.5,23.5,0.5v-15.47L151.912,659.625z"/>
		<path fill="#B79C72" d="M153.912,654.391c-1.5,3.97-3,9.97-3,9.97c19.5,0.5,19.5,0.5,19.5,0.5l2-10.47H153.912z"/>
	</g>
	<g>
		<path fill="#4E3E24" d="M173.494,659.625c-1.5,3.97-3,9.97-3,9.97c19.5,0.5,23.5,0.5,23.5,0.5v-15.47L173.494,659.625z"/>
		<path fill="#B79C72" d="M175.494,654.391c-1.5,3.97-3,9.97-3,9.97c19.5,0.5,19.5,0.5,19.5,0.5l2-10.47H175.494z"/>
	</g>
	<g>
		<path fill="#4E3E24" d="M195.494,659.742c-1.5,3.97-3,9.97-3,9.97c19.5,0.5,23.5,0.5,23.5,0.5v-15.47L195.494,659.742z"/>
		<path fill="#B79C72" d="M197.494,654.508c-1.5,3.97-3,9.97-3,9.97c19.5,0.5,19.5,0.5,19.5,0.5l2-10.47H197.494z"/>
	</g>
	<g>
		<path fill="#4E3E24" d="M216.994,659.859c-1.5,3.97-3,9.97-3,9.97c19.5,0.5,23.5,0.5,23.5,0.5v-15.47L216.994,659.859z"/>
		<path fill="#B79C72" d="M218.994,654.625c-1.5,3.97-3,9.97-3,9.97c19.5,0.5,19.5,0.5,19.5,0.5l2-10.47H218.994z"/>
	</g>
	<g>
		<path fill="#4E3E24" d="M327.908,659.391c-1.5,3.97-3,9.97-3,9.97c19.5,0.5,23.5,0.5,23.5,0.5v-15.47L327.908,659.391z"/>
		<path fill="#B79C72" d="M329.908,654.156c-1.5,3.97-3,9.97-3,9.97c19.5,0.5,19.5,0.5,19.5,0.5l2-10.47H329.908z"/>
	</g>
	<g>
		<path fill="#4E3E24" d="M349.908,659.508c-1.5,3.97-3,9.97-3,9.97c19.5,0.5,23.5,0.5,23.5,0.5v-15.47L349.908,659.508z"/>
		<path fill="#B79C72" d="M351.908,654.273c-1.5,3.97-3,9.97-3,9.97c19.5,0.5,19.5,0.5,19.5,0.5l2-10.47H351.908z"/>
	</g>
	<g>
		<path fill="#4E3E24" d="M371.408,659.625c-1.5,3.97-3,9.97-3,9.97c19.5,0.5,23.5,0.5,23.5,0.5v-15.47L371.408,659.625z"/>
		<path fill="#B79C72" d="M373.408,654.391c-1.5,3.97-3,9.97-3,9.97c19.5,0.5,19.5,0.5,19.5,0.5l2-10.47H373.408z"/>
	</g>
	<g>
		<path fill="#4E3E24" d="M481.408,659.391c1.5,3.97,3,9.97,3,9.97c-19.5,0.5-23.5,0.5-23.5,0.5v-15.47L481.408,659.391z"/>
		<path fill="#B79C72" d="M479.408,654.156c1.5,3.97,3,9.97,3,9.97c-19.5,0.5-19.5,0.5-19.5,0.5l-2-10.47H479.408z"/>
	</g>
	<g>
		<path fill="#4E3E24" d="M459.408,659.508c1.5,3.97,3,9.97,3,9.97c-19.5,0.5-23.5,0.5-23.5,0.5v-15.47L459.408,659.508z"/>
		<path fill="#B79C72" d="M457.408,654.273c1.5,3.97,3,9.97,3,9.97c-19.5,0.5-19.5,0.5-19.5,0.5l-2-10.47H457.408z"/>
	</g>
	<g>
		<path fill="#4E3E24" d="M437.908,659.625c1.5,3.97,3,9.97,3,9.97c-19.5,0.5-23.5,0.5-23.5,0.5v-15.47L437.908,659.625z"/>
		<path fill="#B79C72" d="M435.908,654.391c1.5,3.97,3,9.97,3,9.97c-19.5,0.5-19.5,0.5-19.5,0.5l-2-10.47H435.908z"/>
	</g>
	<g>
		<path fill="#4E3E24" d="M502.908,659.625c1.5,3.97,3,9.97,3,9.97c-19.5,0.5-23.5,0.5-23.5,0.5v-15.47L502.908,659.625z"/>
		<path fill="#B79C72" d="M500.908,654.391c1.5,3.97,3,9.97,3,9.97c-19.5,0.5-19.5,0.5-19.5,0.5l-2-10.47H500.908z"/>
	</g>
	<g>
		<path fill="#4E3E24" d="M624.132,656.008c1.5,3.97,3,9.97,3,9.97c-19.5,0.5-23.5,0.5-23.5,0.5v-15.47L624.132,656.008z"/>
		<path fill="#B79C72" d="M622.132,650.773c1.5,3.97,3,9.97,3,9.97c-19.5,0.5-19.5,0.5-19.5,0.5l-2-10.47H622.132z"/>
	</g>
	<g>
		<path fill="#4E3E24" d="M602.132,656.125c1.5,3.97,3,9.97,3,9.97c-19.5,0.5-23.5,0.5-23.5,0.5v-15.47L602.132,656.125z"/>
		<path fill="#B79C72" d="M600.132,650.891c1.5,3.97,3,9.97,3,9.97c-19.5,0.5-19.5,0.5-19.5,0.5l-2-10.47H600.132z"/>
	</g>
	<g>
		<path fill="#4E3E24" d="M580.632,656.242c1.5,3.97,3,9.97,3,9.97c-19.5,0.5-23.5,0.5-23.5,0.5v-15.47L580.632,656.242z"/>
		<path fill="#B79C72" d="M578.632,651.008c1.5,3.97,3,9.97,3,9.97c-19.5,0.5-19.5,0.5-19.5,0.5l-2-10.47H578.632z"/>
	</g>
	<path fill="#79684A" d="M363.957,556.286c0,0-56.667,26.808-105.431,27.308s-70.565-9.808-70.565-9.808
		c-8.504-3,33.53,14.691,67.164,14.832C317.139,588.878,400.158,559.951,363.957,556.286z"/>
</g>
</svg>
