<?xml version="1.0" encoding="utf-8"?>
<!-- Generator: Adobe Illustrator 15.0.2, SVG Export Plug-In . SVG Version: 6.00 Build 0)  -->
<!DOCTYPE svg PUBLIC "-//W3C//DTD SVG 1.1//EN" "http://www.w3.org/Graphics/SVG/1.1/DTD/svg11.dtd">
<svg version="1.1" id="Layer_1" xmlns="http://www.w3.org/2000/svg" xmlns:xlink="http://www.w3.org/1999/xlink" x="0px" y="0px"
	 width="382.68px" height="794.488px" viewBox="0 0 382.68 794.488" enable-background="new 0 0 382.68 794.488"
	 xml:space="preserve">
<rect x="42.514" y="114.414" fill="none" stroke="#A54B9C" stroke-miterlimit="10" width="42.521" height="53.191"/>
<rect x="-0.006" y="114.414" fill="none" stroke="#A54B9C" stroke-miterlimit="10" width="42.52" height="53.191"/>
<rect x="127.555" y="114.414" fill="none" stroke="#A54B9C" stroke-miterlimit="10" width="42.521" height="53.191"/>
<rect x="85.035" y="114.414" fill="none" stroke="#A54B9C" stroke-miterlimit="10" width="42.52" height="53.191"/>
<rect x="212.332" y="114.414" fill="none" stroke="#A54B9C" stroke-miterlimit="10" width="42.52" height="53.191"/>
<rect x="169.812" y="114.414" fill="none" stroke="#A54B9C" stroke-miterlimit="10" width="42.521" height="53.191"/>
<rect x="297.373" y="114.414" fill="none" stroke="#A54B9C" stroke-miterlimit="10" width="42.52" height="53.191"/>
<rect x="254.853" y="114.414" fill="none" stroke="#A54B9C" stroke-miterlimit="10" width="42.521" height="53.191"/>
<rect x="340.024" y="114.414" fill="none" stroke="#A54B9C" stroke-miterlimit="10" width="42.521" height="53.191"/>
<rect x="42.514" y="189.494" stroke="#A54B9C" stroke-miterlimit="10" width="42.521" height="17.008"/>
<rect x="-0.006" y="189.494" fill="none" stroke="#A54B9C" stroke-miterlimit="10" width="42.52" height="17.008"/>
<rect x="127.555" y="189.494" stroke="#A54B9C" stroke-miterlimit="10" width="42.521" height="17.008"/>
<rect x="85.035" y="189.494" stroke="#A54B9C" stroke-miterlimit="10" width="42.52" height="17.008"/>
<rect x="212.332" y="189.494" stroke="#A54B9C" stroke-miterlimit="10" width="42.52" height="17.008"/>
<rect x="169.812" y="189.494" stroke="#A54B9C" stroke-miterlimit="10" width="42.521" height="17.008"/>
<rect x="297.373" y="189.494" stroke="#A54B9C" stroke-miterlimit="10" width="42.52" height="17.008"/>
<rect x="254.853" y="189.494" stroke="#A54B9C" stroke-miterlimit="10" width="42.521" height="17.008"/>
<rect x="340.024" y="189.494" fill="none" stroke="#A54B9C" stroke-miterlimit="10" width="42.521" height="17.008"/>
<rect x="42.514" y="246.484" stroke="#A54B9C" stroke-miterlimit="10" width="42.521" height="17.008"/>
<rect x="-0.006" y="246.484" fill="none" stroke="#A54B9C" stroke-miterlimit="10" width="42.52" height="17.008"/>
<rect x="127.555" y="246.484" fill="none" stroke="#A54B9C" stroke-miterlimit="10" width="42.521" height="17.008"/>
<rect x="85.035" y="246.484" fill="none" stroke="#A54B9C" stroke-miterlimit="10" width="42.52" height="17.008"/>
<rect x="212.332" y="246.484" fill="none" stroke="#A54B9C" stroke-miterlimit="10" width="42.52" height="17.008"/>
<rect x="169.812" y="246.484" fill="none" stroke="#A54B9C" stroke-miterlimit="10" width="42.521" height="17.008"/>
<rect x="297.373" y="246.484" fill="none" stroke="#A54B9C" stroke-miterlimit="10" width="42.52" height="17.008"/>
<rect x="254.853" y="246.484" fill="none" stroke="#A54B9C" stroke-miterlimit="10" width="42.521" height="17.008"/>
<rect x="340.024" y="246.484" fill="none" stroke="#A54B9C" stroke-miterlimit="10" width="42.521" height="17.008"/>
<rect x="42.514" y="303.474" stroke="#A54B9C" stroke-miterlimit="10" width="42.521" height="17.008"/>
<rect x="-0.006" y="303.474" fill="none" stroke="#A54B9C" stroke-miterlimit="10" width="42.52" height="17.008"/>
<rect x="127.555" y="303.474" fill="none" stroke="#A54B9C" stroke-miterlimit="10" width="42.521" height="17.008"/>
<rect x="85.035" y="303.474" fill="none" stroke="#A54B9C" stroke-miterlimit="10" width="42.52" height="17.008"/>
<rect x="212.332" y="303.474" fill="none" stroke="#A54B9C" stroke-miterlimit="10" width="42.52" height="17.008"/>
<rect x="169.812" y="303.474" fill="none" stroke="#A54B9C" stroke-miterlimit="10" width="42.521" height="17.008"/>
<rect x="297.373" y="303.474" fill="none" stroke="#A54B9C" stroke-miterlimit="10" width="42.52" height="17.008"/>
<rect x="254.853" y="303.474" fill="none" stroke="#A54B9C" stroke-miterlimit="10" width="42.521" height="17.008"/>
<rect x="340.024" y="303.474" fill="none" stroke="#A54B9C" stroke-miterlimit="10" width="42.521" height="17.008"/>
<rect x="42.514" y="360.463" stroke="#A54B9C" stroke-miterlimit="10" width="42.521" height="17.01"/>
<rect x="-0.006" y="360.463" fill="none" stroke="#A54B9C" stroke-miterlimit="10" width="42.52" height="17.01"/>
<rect x="127.555" y="360.463" fill="none" stroke="#A54B9C" stroke-miterlimit="10" width="42.521" height="17.01"/>
<rect x="85.035" y="360.463" fill="none" stroke="#A54B9C" stroke-miterlimit="10" width="42.52" height="17.01"/>
<rect x="212.332" y="360.463" fill="none" stroke="#A54B9C" stroke-miterlimit="10" width="42.52" height="17.01"/>
<rect x="169.812" y="360.463" fill="none" stroke="#A54B9C" stroke-miterlimit="10" width="42.521" height="17.01"/>
<rect x="297.373" y="360.463" fill="none" stroke="#A54B9C" stroke-miterlimit="10" width="42.52" height="17.01"/>
<rect x="254.853" y="360.463" fill="none" stroke="#A54B9C" stroke-miterlimit="10" width="42.521" height="17.01"/>
<rect x="340.024" y="360.463" fill="none" stroke="#A54B9C" stroke-miterlimit="10" width="42.521" height="17.01"/>
<rect x="42.514" y="417.452" stroke="#A54B9C" stroke-miterlimit="10" width="42.521" height="17.01"/>
<rect x="-0.006" y="417.452" fill="none" stroke="#A54B9C" stroke-miterlimit="10" width="42.52" height="17.01"/>
<rect x="127.555" y="417.452" stroke="#A54B9C" stroke-miterlimit="10" width="42.521" height="17.01"/>
<rect x="85.035" y="417.452" stroke="#A54B9C" stroke-miterlimit="10" width="42.52" height="17.01"/>
<rect x="212.332" y="417.452" stroke="#A54B9C" stroke-miterlimit="10" width="42.52" height="17.01"/>
<rect x="169.812" y="417.452" stroke="#A54B9C" stroke-miterlimit="10" width="42.521" height="17.01"/>
<rect x="297.373" y="417.452" fill="none" stroke="#A54B9C" stroke-miterlimit="10" width="42.52" height="17.01"/>
<rect x="254.853" y="417.452" fill="none" stroke="#A54B9C" stroke-miterlimit="10" width="42.521" height="17.01"/>
<rect x="340.024" y="417.452" fill="none" stroke="#A54B9C" stroke-miterlimit="10" width="42.521" height="17.01"/>
<rect x="42.514" y="474.442" stroke="#A54B9C" stroke-miterlimit="10" width="42.521" height="17.009"/>
<rect x="-0.006" y="474.442" fill="none" stroke="#A54B9C" stroke-miterlimit="10" width="42.52" height="17.009"/>
<rect x="127.555" y="474.442" fill="none" stroke="#A54B9C" stroke-miterlimit="10" width="42.521" height="17.009"/>
<rect x="85.035" y="474.442" fill="none" stroke="#A54B9C" stroke-miterlimit="10" width="42.52" height="17.009"/>
<rect x="212.332" y="474.442" fill="none" stroke="#A54B9C" stroke-miterlimit="10" width="42.52" height="17.009"/>
<rect x="169.812" y="474.442" fill="none" stroke="#A54B9C" stroke-miterlimit="10" width="42.521" height="17.009"/>
<rect x="297.373" y="474.442" fill="none" stroke="#A54B9C" stroke-miterlimit="10" width="42.52" height="17.009"/>
<rect x="254.853" y="474.442" fill="none" stroke="#A54B9C" stroke-miterlimit="10" width="42.521" height="17.009"/>
<rect x="340.024" y="474.442" fill="none" stroke="#A54B9C" stroke-miterlimit="10" width="42.521" height="17.009"/>
<rect x="42.514" y="531.431" stroke="#A54B9C" stroke-miterlimit="10" width="42.521" height="17.009"/>
<rect x="-0.006" y="531.431" fill="none" stroke="#A54B9C" stroke-miterlimit="10" width="42.52" height="17.009"/>
<rect x="127.555" y="531.431" fill="none" stroke="#A54B9C" stroke-miterlimit="10" width="42.521" height="17.009"/>
<rect x="85.035" y="531.431" fill="none" stroke="#A54B9C" stroke-miterlimit="10" width="42.52" height="17.009"/>
<rect x="212.332" y="531.431" fill="none" stroke="#A54B9C" stroke-miterlimit="10" width="42.52" height="17.009"/>
<rect x="169.812" y="531.431" fill="none" stroke="#A54B9C" stroke-miterlimit="10" width="42.521" height="17.009"/>
<rect x="297.373" y="531.431" fill="none" stroke="#A54B9C" stroke-miterlimit="10" width="42.52" height="17.009"/>
<rect x="254.853" y="531.431" fill="none" stroke="#A54B9C" stroke-miterlimit="10" width="42.521" height="17.009"/>
<rect x="340.024" y="531.431" fill="none" stroke="#A54B9C" stroke-miterlimit="10" width="42.521" height="17.009"/>
<rect x="42.514" y="588.423" stroke="#A54B9C" stroke-miterlimit="10" width="42.521" height="17.008"/>
<rect x="-0.006" y="588.423" fill="none" stroke="#A54B9C" stroke-miterlimit="10" width="42.52" height="17.008"/>
<rect x="127.555" y="588.423" fill="none" stroke="#A54B9C" stroke-miterlimit="10" width="42.521" height="17.008"/>
<rect x="85.035" y="588.423" fill="none" stroke="#A54B9C" stroke-miterlimit="10" width="42.52" height="17.008"/>
<rect x="212.332" y="588.423" fill="none" stroke="#A54B9C" stroke-miterlimit="10" width="42.52" height="17.008"/>
<rect x="169.812" y="588.423" fill="none" stroke="#A54B9C" stroke-miterlimit="10" width="42.521" height="17.008"/>
<rect x="297.373" y="588.423" fill="none" stroke="#A54B9C" stroke-miterlimit="10" width="42.52" height="17.008"/>
<rect x="254.853" y="588.423" fill="none" stroke="#A54B9C" stroke-miterlimit="10" width="42.521" height="17.008"/>
<rect x="340.024" y="588.423" fill="none" stroke="#A54B9C" stroke-miterlimit="10" width="42.521" height="17.008"/>
<rect x="42.514" y="645.412" stroke="#A54B9C" stroke-miterlimit="10" width="42.521" height="17.01"/>
<rect x="-0.006" y="645.412" fill="none" stroke="#A54B9C" stroke-miterlimit="10" width="42.52" height="17.01"/>
<rect x="127.555" y="645.412" stroke="#A54B9C" stroke-miterlimit="10" width="42.521" height="17.01"/>
<rect x="85.035" y="645.412" stroke="#A54B9C" stroke-miterlimit="10" width="42.52" height="17.01"/>
<rect x="212.332" y="645.412" stroke="#A54B9C" stroke-miterlimit="10" width="42.52" height="17.01"/>
<rect x="169.812" y="645.412" stroke="#A54B9C" stroke-miterlimit="10" width="42.521" height="17.01"/>
<rect x="297.373" y="645.412" stroke="#A54B9C" stroke-miterlimit="10" width="42.52" height="17.01"/>
<rect x="254.853" y="645.412" stroke="#A54B9C" stroke-miterlimit="10" width="42.521" height="17.01"/>
<rect x="340.024" y="645.412" fill="none" stroke="#A54B9C" stroke-miterlimit="10" width="42.521" height="17.01"/>
<rect x="42.514" y="684.309" fill="none" stroke="#A54B9C" stroke-miterlimit="10" width="42.521" height="53.191"/>
<rect x="-0.006" y="684.309" fill="none" stroke="#A54B9C" stroke-miterlimit="10" width="42.52" height="53.191"/>
<rect x="127.555" y="684.309" fill="none" stroke="#A54B9C" stroke-miterlimit="10" width="42.521" height="53.191"/>
<rect x="85.035" y="684.309" fill="none" stroke="#A54B9C" stroke-miterlimit="10" width="42.52" height="53.191"/>
<rect x="212.332" y="684.309" fill="none" stroke="#A54B9C" stroke-miterlimit="10" width="42.52" height="53.191"/>
<rect x="169.812" y="684.309" fill="none" stroke="#A54B9C" stroke-miterlimit="10" width="42.521" height="53.191"/>
<rect x="297.373" y="684.309" fill="none" stroke="#A54B9C" stroke-miterlimit="10" width="42.52" height="53.191"/>
<rect x="254.853" y="684.309" fill="none" stroke="#A54B9C" stroke-miterlimit="10" width="42.521" height="53.191"/>
<rect x="340.024" y="684.309" fill="none" stroke="#A54B9C" stroke-miterlimit="10" width="42.521" height="53.191"/>
<rect x="42.514" y="741.3" fill="none" stroke="#A54B9C" stroke-miterlimit="10" width="42.521" height="53.188"/>
<rect x="-0.006" y="741.3" fill="none" stroke="#A54B9C" stroke-miterlimit="10" width="42.52" height="53.188"/>
<rect x="127.555" y="741.3" fill="none" stroke="#A54B9C" stroke-miterlimit="10" width="42.521" height="53.188"/>
<rect x="85.035" y="741.3" fill="none" stroke="#A54B9C" stroke-miterlimit="10" width="42.52" height="53.188"/>
<rect x="212.332" y="741.3" fill="none" stroke="#A54B9C" stroke-miterlimit="10" width="42.52" height="53.188"/>
<rect x="169.812" y="741.3" fill="none" stroke="#A54B9C" stroke-miterlimit="10" width="42.521" height="53.188"/>
<rect x="297.373" y="741.3" fill="none" stroke="#A54B9C" stroke-miterlimit="10" width="42.52" height="53.188"/>
<rect x="254.853" y="741.3" fill="none" stroke="#A54B9C" stroke-miterlimit="10" width="42.521" height="53.188"/>
<rect x="340.024" y="741.3" fill="none" stroke="#A54B9C" stroke-miterlimit="10" width="42.521" height="53.188"/>
</svg>
